<svg width="127" height="89" viewBox="0 0 127 89" fill="none" xmlns="http://www.w3.org/2000/svg">
<path d="M57.06 74.8457V88.2857H7.26V74.8457H24.06V30.7457C24.06 29.6257 24.08 28.5057 24.12 27.3857C24.16 26.2257 24.22 25.0657 24.3 23.9057L14.34 32.1857C13.46 32.8657 12.58 33.2857 11.7 33.4457C10.86 33.5657 10.06 33.5657 9.3 33.4457C8.54 33.2857 7.86 33.0257 7.26 32.6657C6.66 32.2657 6.22 31.8657 5.94 31.4657L0.0600002 23.6657L27.3 0.805702H42.66V74.8457H57.06ZM126.669 74.8457V88.2857H76.8694V74.8457H93.6694V30.7457C93.6694 29.6257 93.6894 28.5057 93.7294 27.3857C93.7694 26.2257 93.8294 25.0657 93.9094 23.9057L83.9494 32.1857C83.0694 32.8657 82.1894 33.2857 81.3094 33.4457C80.4694 33.5657 79.6694 33.5657 78.9094 33.4457C78.1494 33.2857 77.4694 33.0257 76.8694 32.6657C76.2694 32.2657 75.8294 31.8657 75.5494 31.4657L69.6694 23.6657L96.9094 0.805702H112.269V74.8457H126.669Z" fill="#FDCC4F" fill-opacity="0.7"/>
</svg>
