<svg width="132" height="91" viewBox="0 0 132 91" fill="none" xmlns="http://www.w3.org/2000/svg">
<path d="M2.54563 26.8257C3.18563 22.4657 4.40563 18.6657 6.20563 15.4257C8.04563 12.1857 10.3056 9.4857 12.9856 7.3257C15.7056 5.1657 18.8056 3.5657 22.2856 2.5257C25.7656 1.4457 29.5056 0.905703 33.5056 0.905703C37.8256 0.905703 41.6656 1.5257 45.0256 2.7657C48.3856 3.9657 51.2256 5.6057 53.5456 7.6857C55.8656 9.7657 57.6256 12.1857 58.8256 14.9457C60.0256 17.6657 60.6256 20.5457 60.6256 23.5857C60.6256 26.3457 60.3456 28.7857 59.7856 30.9057C59.2256 32.9857 58.3856 34.8057 57.2656 36.3657C56.1856 37.8857 54.8256 39.1857 53.1856 40.2657C51.5856 41.3057 49.7456 42.1857 47.6656 42.9057C57.3456 46.3057 62.1856 52.9057 62.1856 62.7057C62.1856 67.3457 61.3456 71.3857 59.6656 74.8257C57.9856 78.2657 55.7256 81.1257 52.8856 83.4057C50.0856 85.6857 46.8256 87.4057 43.1056 88.5657C39.3856 89.6857 35.5056 90.2457 31.4656 90.2457C27.3056 90.2457 23.6056 89.8057 20.3656 88.9257C17.1256 88.0057 14.2456 86.6057 11.7256 84.7257C9.20563 82.8057 6.98563 80.3657 5.06563 77.4057C3.18563 74.4457 1.54563 70.9257 0.145625 66.8457L8.42563 63.4857C10.5856 62.6457 12.5856 62.4257 14.4256 62.8257C16.2656 63.2257 17.5856 64.1457 18.3856 65.5857C20.1856 68.9057 22.0856 71.3257 24.0856 72.8457C26.1256 74.3257 28.5056 75.0657 31.2256 75.0657C33.3056 75.0657 35.1056 74.7257 36.6256 74.0457C38.1856 73.3257 39.4656 72.4257 40.4656 71.3457C41.5056 70.2257 42.2856 68.9657 42.8056 67.5657C43.3256 66.1657 43.5856 64.7457 43.5856 63.3057C43.5856 61.4257 43.4456 59.7457 43.1656 58.2657C42.9256 56.7457 42.2056 55.4457 41.0056 54.3657C39.8056 53.2857 37.9856 52.4657 35.5456 51.9057C33.1456 51.3057 29.7856 51.0057 25.4656 51.0057V38.1657C29.1056 38.1657 32.0456 37.8857 34.2856 37.3257C36.5256 36.7657 38.2456 36.0057 39.4456 35.0457C40.6856 34.0457 41.5056 32.8457 41.9056 31.4457C42.3056 30.0457 42.5056 28.5057 42.5056 26.8257C42.5056 23.3857 41.6656 20.7457 39.9856 18.9057C38.3456 17.0257 35.8256 16.0857 32.4256 16.0857C29.6656 16.0857 27.3256 16.8257 25.4056 18.3057C23.5256 19.7457 22.2256 21.5457 21.5056 23.7057C20.6656 25.9057 19.5656 27.3657 18.2056 28.0857C16.8456 28.8057 14.9056 28.9657 12.3856 28.5657L2.54563 26.8257ZM131.375 55.6257H109.175V79.5057H94.055V55.6257H71.975V42.3057H94.055V18.5457H109.175V42.3057H131.375V55.6257Z" fill="#FDCC4F" fill-opacity="0.7"/>
</svg>
