<svg width="307" height="91" viewBox="0 0 307 91" fill="none" xmlns="http://www.w3.org/2000/svg">
<path d="M62.18 1.8657V9.6657C62.18 11.9857 61.92 13.8657 61.4 15.3057C60.88 16.7057 60.38 17.8857 59.9 18.8457L29.54 83.1657C28.7 84.8457 27.5 86.2857 25.94 87.4857C24.42 88.6857 22.38 89.2857 19.82 89.2857H6.26L37.46 26.7057C38.38 25.0257 39.3 23.5057 40.22 22.1457C41.18 20.7457 42.24 19.4257 43.4 18.1857H4.94C4.38 18.1857 3.84 18.0857 3.32 17.8857C2.84 17.6457 2.4 17.3457 2 16.9857C1.64 16.5857 1.34 16.1457 1.1 15.6657C0.86 15.1457 0.74 14.6257 0.74 14.1057V1.8657H62.18ZM132.809 45.5457C132.809 53.1857 131.989 59.8057 130.349 65.4057C128.709 71.0057 126.429 75.6457 123.509 79.3257C120.629 83.0057 117.189 85.7457 113.189 87.5457C109.229 89.3457 104.929 90.2457 100.289 90.2457C95.6494 90.2457 91.3494 89.3457 87.3894 87.5457C83.4694 85.7457 80.0694 83.0057 77.1894 79.3257C74.3094 75.6457 72.0494 71.0057 70.4094 65.4057C68.8094 59.8057 68.0094 53.1857 68.0094 45.5457C68.0094 37.9057 68.8094 31.2857 70.4094 25.6857C72.0494 20.0857 74.3094 15.4457 77.1894 11.7657C80.0694 8.0857 83.4694 5.3657 87.3894 3.6057C91.3494 1.8057 95.6494 0.905703 100.289 0.905703C104.929 0.905703 109.229 1.8057 113.189 3.6057C117.189 5.3657 120.629 8.0857 123.509 11.7657C126.429 15.4457 128.709 20.0857 130.349 25.6857C131.989 31.2857 132.809 37.9057 132.809 45.5457ZM113.609 45.5457C113.609 39.5057 113.229 34.5657 112.469 30.7257C111.709 26.8457 110.689 23.8057 109.409 21.6057C108.169 19.4057 106.749 17.9057 105.149 17.1057C103.549 16.2657 101.929 15.8457 100.289 15.8457C98.6494 15.8457 97.0294 16.2657 95.4294 17.1057C93.8694 17.9057 92.4694 19.4057 91.2294 21.6057C90.0294 23.8057 89.0494 26.8457 88.2894 30.7257C87.5694 34.5657 87.2094 39.5057 87.2094 45.5457C87.2094 51.6257 87.5694 56.5857 88.2894 60.4257C89.0494 64.2657 90.0294 67.3057 91.2294 69.5457C92.4694 71.7457 93.8694 73.2657 95.4294 74.1057C97.0294 74.9057 98.6494 75.3057 100.289 75.3057C101.929 75.3057 103.549 74.9057 105.149 74.1057C106.749 73.2657 108.169 71.7457 109.409 69.5457C110.689 67.3057 111.709 64.2657 112.469 60.4257C113.229 56.5857 113.609 51.6257 113.609 45.5457ZM202.419 45.5457C202.419 53.1857 201.599 59.8057 199.959 65.4057C198.319 71.0057 196.039 75.6457 193.119 79.3257C190.239 83.0057 186.799 85.7457 182.799 87.5457C178.839 89.3457 174.539 90.2457 169.899 90.2457C165.259 90.2457 160.959 89.3457 156.999 87.5457C153.079 85.7457 149.679 83.0057 146.799 79.3257C143.919 75.6457 141.659 71.0057 140.019 65.4057C138.419 59.8057 137.619 53.1857 137.619 45.5457C137.619 37.9057 138.419 31.2857 140.019 25.6857C141.659 20.0857 143.919 15.4457 146.799 11.7657C149.679 8.0857 153.079 5.3657 156.999 3.6057C160.959 1.8057 165.259 0.905703 169.899 0.905703C174.539 0.905703 178.839 1.8057 182.799 3.6057C186.799 5.3657 190.239 8.0857 193.119 11.7657C196.039 15.4457 198.319 20.0857 199.959 25.6857C201.599 31.2857 202.419 37.9057 202.419 45.5457ZM183.219 45.5457C183.219 39.5057 182.839 34.5657 182.079 30.7257C181.319 26.8457 180.299 23.8057 179.019 21.6057C177.779 19.4057 176.359 17.9057 174.759 17.1057C173.159 16.2657 171.539 15.8457 169.899 15.8457C168.259 15.8457 166.639 16.2657 165.039 17.1057C163.479 17.9057 162.079 19.4057 160.839 21.6057C159.639 23.8057 158.659 26.8457 157.899 30.7257C157.179 34.5657 156.819 39.5057 156.819 45.5457C156.819 51.6257 157.179 56.5857 157.899 60.4257C158.659 64.2657 159.639 67.3057 160.839 69.5457C162.079 71.7457 163.479 73.2657 165.039 74.1057C166.639 74.9057 168.259 75.3057 169.899 75.3057C171.539 75.3057 173.159 74.9057 174.759 74.1057C176.359 73.2657 177.779 71.7457 179.019 69.5457C180.299 67.3057 181.319 64.2657 182.079 60.4257C182.839 56.5857 183.219 51.6257 183.219 45.5457ZM272.028 45.5457C272.028 53.1857 271.208 59.8057 269.568 65.4057C267.928 71.0057 265.648 75.6457 262.728 79.3257C259.848 83.0057 256.408 85.7457 252.408 87.5457C248.448 89.3457 244.148 90.2457 239.508 90.2457C234.868 90.2457 230.568 89.3457 226.608 87.5457C222.688 85.7457 219.288 83.0057 216.408 79.3257C213.528 75.6457 211.268 71.0057 209.628 65.4057C208.028 59.8057 207.228 53.1857 207.228 45.5457C207.228 37.9057 208.028 31.2857 209.628 25.6857C211.268 20.0857 213.528 15.4457 216.408 11.7657C219.288 8.0857 222.688 5.3657 226.608 3.6057C230.568 1.8057 234.868 0.905703 239.508 0.905703C244.148 0.905703 248.448 1.8057 252.408 3.6057C256.408 5.3657 259.848 8.0857 262.728 11.7657C265.648 15.4457 267.928 20.0857 269.568 25.6857C271.208 31.2857 272.028 37.9057 272.028 45.5457ZM252.828 45.5457C252.828 39.5057 252.448 34.5657 251.688 30.7257C250.928 26.8457 249.908 23.8057 248.628 21.6057C247.388 19.4057 245.968 17.9057 244.368 17.1057C242.768 16.2657 241.148 15.8457 239.508 15.8457C237.868 15.8457 236.248 16.2657 234.648 17.1057C233.088 17.9057 231.688 19.4057 230.448 21.6057C229.248 23.8057 228.268 26.8457 227.508 30.7257C226.788 34.5657 226.428 39.5057 226.428 45.5457C226.428 51.6257 226.788 56.5857 227.508 60.4257C228.268 64.2657 229.248 67.3057 230.448 69.5457C231.688 71.7457 233.088 73.2657 234.648 74.1057C236.248 74.9057 237.868 75.3057 239.508 75.3057C241.148 75.3057 242.768 74.9057 244.368 74.1057C245.968 73.2657 247.388 71.7457 248.628 69.5457C249.908 67.3057 250.928 64.2657 251.688 60.4257C252.448 56.5857 252.828 51.6257 252.828 45.5457ZM306.688 72.4557H295.588V84.3957H288.028V72.4557H276.988V65.7957H288.028V53.9157H295.588V65.7957H306.688V72.4557Z" fill="#FDCC4F" fill-opacity="0.7"/>
</svg>
