<svg width="185" height="90" viewBox="0 0 185 90" fill="none" xmlns="http://www.w3.org/2000/svg">
<path d="M19.38 28.28C19.38 37 23.42 41.36 31.5 41.36C35.46 41.36 38.5 40.18 40.62 37.82C42.78 35.42 43.86 32.24 43.86 28.28C43.86 26.16 43.54 24.3 42.9 22.7C42.3 21.06 41.44 19.7 40.32 18.62C39.24 17.54 37.92 16.72 36.36 16.16C34.8 15.6 33.1 15.32 31.26 15.32C29.38 15.32 27.7 15.66 26.22 16.34C24.78 16.98 23.54 17.88 22.5 19.04C21.5 20.2 20.72 21.58 20.16 23.18C19.64 24.74 19.38 26.44 19.38 28.28ZM34.26 55.88C34.82 55.2 35.36 54.54 35.88 53.9C36.4 53.26 36.88 52.62 37.32 51.98C33.64 53.94 29.46 54.92 24.78 54.92C21.94 54.92 19.1 54.42 16.26 53.42C13.42 52.38 10.84 50.82 8.52 48.74C6.24 46.66 4.38 44.04 2.94 40.88C1.5 37.72 0.78 33.98 0.78 29.66C0.78 25.7 1.5 21.96 2.94 18.44C4.42 14.92 6.5 11.84 9.18 9.2C11.9 6.56 15.14 4.48 18.9 2.96C22.66 1.4 26.86 0.619997 31.5 0.619997C36.22 0.619997 40.44 1.34 44.16 2.78C47.88 4.22 51.02 6.24 53.58 8.83999C56.18 11.44 58.16 14.54 59.52 18.14C60.92 21.7 61.62 25.64 61.62 29.96C61.62 35.68 60.76 40.8 59.04 45.32C57.32 49.84 55.02 54.1 52.14 58.1L33.3 84.86C32.46 86.02 31.18 87 29.46 87.8C27.78 88.6 25.86 89 23.7 89H6.54L34.26 55.88ZM88.9894 28.28C88.9894 37 93.0294 41.36 101.109 41.36C105.069 41.36 108.109 40.18 110.229 37.82C112.389 35.42 113.469 32.24 113.469 28.28C113.469 26.16 113.149 24.3 112.509 22.7C111.909 21.06 111.049 19.7 109.929 18.62C108.849 17.54 107.529 16.72 105.969 16.16C104.409 15.6 102.709 15.32 100.869 15.32C98.9894 15.32 97.3094 15.66 95.8294 16.34C94.3894 16.98 93.1494 17.88 92.1094 19.04C91.1094 20.2 90.3294 21.58 89.7694 23.18C89.2494 24.74 88.9894 26.44 88.9894 28.28ZM103.869 55.88C104.429 55.2 104.969 54.54 105.489 53.9C106.009 53.26 106.489 52.62 106.929 51.98C103.249 53.94 99.0694 54.92 94.3894 54.92C91.5494 54.92 88.7094 54.42 85.8694 53.42C83.0294 52.38 80.4494 50.82 78.1294 48.74C75.8494 46.66 73.9894 44.04 72.5494 40.88C71.1094 37.72 70.3894 33.98 70.3894 29.66C70.3894 25.7 71.1094 21.96 72.5494 18.44C74.0294 14.92 76.1094 11.84 78.7894 9.2C81.5094 6.56 84.7494 4.48 88.5094 2.96C92.2694 1.4 96.4694 0.619997 101.109 0.619997C105.829 0.619997 110.049 1.34 113.769 2.78C117.489 4.22 120.629 6.24 123.189 8.83999C125.789 11.44 127.769 14.54 129.129 18.14C130.529 21.7 131.229 25.64 131.229 29.96C131.229 35.68 130.369 40.8 128.649 45.32C126.929 49.84 124.629 54.1 121.749 58.1L102.909 84.86C102.069 86.02 100.789 87 99.0694 87.8C97.3894 88.6 95.4694 89 93.3094 89H76.1494L103.869 55.88ZM159.199 55.88C159.199 57.48 158.909 58.94 158.329 60.26C157.749 61.58 156.979 62.72 156.019 63.68C155.059 64.62 153.939 65.35 152.659 65.87C151.399 66.39 150.079 66.65 148.699 66.65C147.179 66.65 145.779 66.39 144.499 65.87C143.239 65.35 142.139 64.62 141.199 63.68C140.279 62.72 139.559 61.58 139.039 60.26C138.519 58.94 138.259 57.48 138.259 55.88C138.259 54.22 138.519 52.72 139.039 51.38C139.559 50.02 140.279 48.86 141.199 47.9C142.139 46.94 143.239 46.2 144.499 45.68C145.779 45.14 147.179 44.87 148.699 44.87C150.219 44.87 151.619 45.14 152.899 45.68C154.199 46.2 155.309 46.94 156.229 47.9C157.169 48.86 157.899 50.02 158.419 51.38C158.939 52.72 159.199 54.22 159.199 55.88ZM152.059 55.88C152.059 54.86 151.969 54.02 151.789 53.36C151.629 52.68 151.399 52.14 151.099 51.74C150.799 51.34 150.439 51.06 150.019 50.9C149.619 50.74 149.179 50.66 148.699 50.66C148.219 50.66 147.779 50.74 147.379 50.9C146.979 51.06 146.639 51.34 146.359 51.74C146.079 52.14 145.859 52.68 145.699 53.36C145.539 54.02 145.459 54.86 145.459 55.88C145.459 56.84 145.539 57.64 145.699 58.28C145.859 58.92 146.079 59.43 146.359 59.81C146.639 60.19 146.979 60.46 147.379 60.62C147.779 60.78 148.219 60.86 148.699 60.86C149.179 60.86 149.619 60.78 150.019 60.62C150.439 60.46 150.799 60.19 151.099 59.81C151.399 59.43 151.629 58.92 151.789 58.28C151.969 57.64 152.059 56.84 152.059 55.88ZM172.939 46.67C173.239 46.33 173.609 46.02 174.049 45.74C174.489 45.44 175.099 45.29 175.879 45.29H182.659L149.719 87.68C149.419 88.06 149.039 88.38 148.579 88.64C148.139 88.88 147.599 89 146.959 89H139.999L172.939 46.67ZM184.339 78.74C184.339 80.34 184.049 81.81 183.469 83.15C182.889 84.47 182.119 85.61 181.159 86.57C180.199 87.51 179.079 88.24 177.799 88.76C176.539 89.28 175.219 89.54 173.839 89.54C172.319 89.54 170.919 89.28 169.639 88.76C168.379 88.24 167.279 87.51 166.339 86.57C165.419 85.61 164.699 84.47 164.179 83.15C163.659 81.81 163.399 80.34 163.399 78.74C163.399 77.08 163.659 75.58 164.179 74.24C164.699 72.88 165.419 71.72 166.339 70.76C167.279 69.8 168.379 69.06 169.639 68.54C170.919 68 172.319 67.73 173.839 67.73C175.359 67.73 176.759 68 178.039 68.54C179.339 69.06 180.449 69.8 181.369 70.76C182.309 71.72 183.039 72.88 183.559 74.24C184.079 75.58 184.339 77.08 184.339 78.74ZM177.199 78.74C177.199 77.74 177.109 76.91 176.929 76.25C176.769 75.57 176.539 75.03 176.239 74.63C175.939 74.23 175.579 73.95 175.159 73.79C174.759 73.63 174.319 73.55 173.839 73.55C173.359 73.55 172.919 73.63 172.519 73.79C172.119 73.95 171.779 74.23 171.499 74.63C171.219 75.03 170.999 75.57 170.839 76.25C170.679 76.91 170.599 77.74 170.599 78.74C170.599 79.7 170.679 80.5 170.839 81.14C170.999 81.78 171.219 82.29 171.499 82.67C171.779 83.05 172.119 83.32 172.519 83.48C172.919 83.64 173.359 83.72 173.839 83.72C174.319 83.72 174.759 83.64 175.159 83.48C175.579 83.32 175.939 83.05 176.239 82.67C176.539 82.29 176.769 81.78 176.929 81.14C177.109 80.5 177.199 79.7 177.199 78.74Z" fill="#FDCC4F" fill-opacity="0.7"/>
</svg>
