<svg width="49" height="46" viewBox="0 0 49 46" fill="none" xmlns="http://www.w3.org/2000/svg">
<path fill-rule="evenodd" clip-rule="evenodd" d="M24.4993 0.0820312C37.915 0.0820312 48.791 10.3424 48.791 22.9987C48.791 35.6549 37.915 45.9154 24.4993 45.9154C11.0837 45.9154 0.207684 35.6549 0.207684 22.9987C0.207684 10.3424 11.0837 0.0820312 24.4993 0.0820312ZM29.3731 16.1383C29.7754 15.7454 29.998 15.2191 29.993 14.6729C29.9879 14.1266 29.7557 13.6041 29.3462 13.2178C28.9368 12.8316 28.3829 12.6125 27.8039 12.6077C27.2249 12.603 26.6671 12.813 26.2506 13.1924L17.4172 21.5258C17.0032 21.9165 16.7707 22.4463 16.7707 22.9987C16.7707 23.5511 17.0032 24.0809 17.4172 24.4716L26.2506 32.8049C26.6671 33.1844 27.2249 33.3944 27.8039 33.3897C28.3829 33.3849 28.9368 33.1658 29.3462 32.7796C29.7557 32.3933 29.9879 31.8708 29.993 31.3245C29.998 30.7783 29.7754 30.252 29.3731 29.8591L22.1011 22.9987L29.3731 16.1383Z" fill="#50B59D"/>
</svg>
