<svg width="20" height="18" viewBox="0 0 20 18" fill="none" xmlns="http://www.w3.org/2000/svg">
<path d="M17.3649 0.15625H2.78243C1.63666 0.15625 0.699219 1.02353 0.699219 2.08354V15.5745C0.699219 16.6355 1.63666 17.5018 2.78243 17.5018H10.0737V10.7563H7.99046V8.37131H10.0737V6.39584C10.0737 4.31052 11.3361 2.84578 13.9964 2.84578L15.8744 2.84771V5.358H14.6276C13.5922 5.358 13.1985 6.07687 13.1985 6.74372V8.37227H15.8733L15.2817 10.7563H13.1985V17.5018H17.3649C18.5107 17.5018 19.4481 16.6355 19.4481 15.5745V2.08354C19.4481 1.02353 18.5107 0.15625 17.3649 0.15625Z" fill="white"/>
</svg>
