<svg width="448" height="372" viewBox="0 0 448 372" fill="none" xmlns="http://www.w3.org/2000/svg">
<path d="M82.7793 16.5039H30.6544V87.4341H82.7793V16.5039Z" fill="#EBEBEB"/>
<path d="M76.8195 22.9692H36.6116V80.9532H76.8195V22.9692Z" fill="white"/>
<path d="M38.1772 22.9692H36.6116V80.9532H38.1772V22.9692Z" fill="#DBDBDB"/>
<path d="M84.3406 16.5039H82.775V87.4341H84.3406V16.5039Z" fill="#DBDBDB"/>
<path d="M59.5724 30.9612H50.0867V62.6499H59.5724V30.9612Z" fill="#DBDBDB"/>
<path d="M71.2288 52.543H45.9492V68.0722H71.2288V52.543Z" stroke="#EBEBEB" stroke-miterlimit="10"/>
<path d="M149.41 78.5703H97.2852V149.5H149.41V78.5703Z" fill="#EBEBEB"/>
<path d="M143.856 78.7373H103.648V136.721H143.856V78.7373Z" fill="white"/>
<path d="M104.802 85.0479H103.236V143.032H104.802V85.0479Z" fill="#DBDBDB"/>
<path d="M150.966 78.5703H149.4V149.5H150.966V78.5703Z" fill="#DBDBDB"/>
<path d="M127.574 100.031H119.451V123.072H127.574V100.031Z" fill="#EBEBEB"/>
<path d="M136.127 114.035H114.311V129.916H136.127V114.035Z" stroke="#DBDBDB" stroke-miterlimit="10"/>
<path d="M368.407 26.1367L392.793 26.1367V14.575L368.407 14.575V26.1367Z" fill="#ADB1B3"/>
<path d="M382.006 11.5618L406.392 11.5618V9.82285e-05L382.006 9.82285e-05V11.5618Z" fill="#EBEBEB"/>
<path d="M354.795 11.5618L379.181 11.5618V9.82285e-05L354.795 9.82285e-05V11.5618Z" fill="#63747C"/>
<path d="M12.3926 11.5618L36.7789 11.5618V9.82285e-05L12.3926 9.82285e-05V11.5618Z" fill="#ADB1B2"/>
<path d="M25.9946 299.996H50.3809V288.434H25.9946V299.996Z" fill="#ADB1B2"/>
<path d="M12.393 285.426H36.7793V273.864H12.393V285.426Z" fill="#EBEBEB"/>
<path d="M364.76 299.992H389.146V288.43H364.76V299.992Z" fill="#EBEBEB"/>
<path d="M236.99 62.9375H212.604V74.4992H236.99V62.9375Z" fill="#EBEBEB"/>
<path d="M223.386 77.5156H199V89.0773H223.386V77.5156Z" fill="#EBEBEB"/>
<path d="M372.529 245.096H409.291L430.332 133.147L396.668 116.637L372.529 245.096Z" fill="#DBDBDB"/>
<path d="M267.287 245.096H372.528L396.666 116.637H291.436L267.287 245.096Z" fill="#EBEBEB"/>
<path d="M391.399 308.426H447.75V185.049H391.399V308.426Z" fill="#DBDBDB"/>
<path d="M240.252 308.424H255.649L278.583 185.047H240.252V308.424Z" fill="#DBDBDB"/>
<path d="M360.434 308.426H391.4V185.049H360.434V308.426Z" fill="#EBEBEB"/>
<path d="M209.287 308.426H240.253V185.049H209.287V308.426Z" fill="#EBEBEB"/>
<path d="M240.249 308.426H360.446V245.114H240.249V308.426Z" fill="#EBEBEB"/>
<path d="M240.248 245.359L360.445 245.359V217.731H240.248V245.359Z" fill="#EBEBEB"/>
<path d="M383.824 185.035L372.136 185.242L360.449 185.38L360.771 185.035L360.889 199.469V213.915C360.932 223.545 360.932 233.168 360.889 242.783C360.889 252.409 360.889 262.035 360.739 271.662C360.588 281.288 360.556 290.915 360.384 300.541C360.205 290.911 360.083 281.285 360.018 271.662C359.922 262.035 359.9 252.409 359.879 242.783C359.857 233.156 359.879 223.541 359.879 213.915V199.469L359.997 185.035V184.68H360.32L372.007 184.829L383.824 185.035Z" fill="#DBDBDB"/>
<path d="M240.249 185.047C240.474 194.708 240.571 204.369 240.657 214.029L240.786 243.012L240.657 271.995L240.571 286.532L240.302 301.023L239.99 286.532L239.84 272.041L239.711 243.058L239.84 214.075C239.926 204.369 240.023 194.742 240.249 185.047Z" fill="#DBDBDB"/>
<path d="M240.253 245.102C250.274 244.861 260.284 244.746 270.305 244.654L300.346 244.528L330.452 244.654L345.504 244.815L360.557 245.102L345.504 245.377L330.452 245.538L300.346 245.675L270.305 245.538C260.284 245.446 250.252 245.331 240.253 245.102Z" fill="#DBDBDB"/>
<path d="M240.253 217.678C250.274 217.449 260.284 217.334 270.305 217.242L300.346 217.104L330.452 217.242L345.504 217.403L360.557 217.678L345.504 217.965L330.452 218.126L300.346 218.252L270.305 218.126C260.284 218.08 250.252 217.965 240.253 217.678Z" fill="#DBDBDB"/>
<path d="M426.331 308.426L427.095 318.419L428.879 341.516H437.04L438.814 318.419L439.578 308.426H426.331Z" fill="#455A64"/>
<path d="M439.578 308.426H426.331L427.095 318.419H438.814L439.578 308.426Z" fill="#A6A6A6"/>
<path d="M369.307 308.426L370.071 318.419L371.845 341.516H380.006L381.78 318.419L382.543 308.426H369.307Z" fill="#455A64"/>
<path d="M382.543 308.426H369.307L370.071 318.419H381.78L382.543 308.426Z" fill="#A6A6A6"/>
<path d="M274.695 308.426L275.458 318.419L277.243 341.516H285.393L287.178 318.419L287.941 308.426H274.695Z" fill="#C7C7C7"/>
<path d="M287.941 308.426H274.695L275.458 318.419H287.178L287.941 308.426Z" fill="#A6A6A6"/>
<path d="M217.652 308.426L218.416 318.419L220.201 341.516H228.351L230.136 318.419L230.899 308.426H217.652Z" fill="#C7C7C7"/>
<path d="M217.652 308.426L218.416 318.419H230.136L230.899 308.426H217.652Z" fill="#A6A6A6"/>
<path d="M166.381 328.053C168.747 329.533 241.549 345.768 244.688 344.518C245.882 344.047 248.72 332.872 251.785 319.275C252.451 316.338 253.118 313.298 253.774 310.211C258.075 290.155 262.236 268.768 262.236 268.768L213.561 257.753L206.443 299.495L204.874 308.674C204.874 308.674 174.402 315.765 171.091 317.531C167.779 319.298 164.016 326.584 166.381 328.053Z" fill="#F7A9A0"/>
<path d="M166.136 328.112C168.522 329.592 241.722 345.92 244.883 344.669C246.346 344.084 250.259 327.619 254.023 310.156L206.423 299.382L204.854 308.561C204.854 308.561 174.2 315.686 170.877 317.465C167.555 319.243 163.759 326.678 166.136 328.112Z" fill="#FFD873"/>
<path d="M167.8 325.237C180.133 327.646 229.668 338.638 241.688 342.023C241.785 342.023 241.774 342.126 241.688 342.103C229.41 340.003 179.961 328.587 167.768 325.455C167.456 325.386 167.542 325.179 167.8 325.237Z" fill="#263238"/>
<path d="M203.693 305.303C208.714 305.417 214.445 307.529 217.434 312.015C217.541 312.187 217.316 312.359 217.165 312.279C212.863 309.66 208.311 307.54 203.585 305.957C203.508 305.937 203.442 305.886 203.398 305.815C203.355 305.745 203.339 305.659 203.352 305.576C203.366 305.493 203.409 305.418 203.472 305.368C203.535 305.317 203.614 305.294 203.693 305.303Z" fill="#263238"/>
<path d="M199.767 306.766C204.788 306.881 210.519 308.992 213.508 313.49C213.616 313.662 213.39 313.834 213.239 313.742C208.952 311.132 204.418 309.012 199.713 307.42C199.642 307.401 199.579 307.355 199.536 307.29C199.494 307.226 199.474 307.148 199.48 307.069C199.487 306.991 199.519 306.917 199.572 306.862C199.624 306.806 199.693 306.772 199.767 306.766Z" fill="#263238"/>
<path d="M195.847 308.225C200.858 308.34 206.599 310.451 209.588 314.948C209.696 315.12 209.47 315.293 209.32 315.201C205.015 312.586 200.463 310.467 195.74 308.879C195.663 308.859 195.596 308.808 195.553 308.737C195.51 308.667 195.493 308.581 195.507 308.498C195.521 308.415 195.563 308.341 195.627 308.29C195.69 308.239 195.769 308.216 195.847 308.225Z" fill="#263238"/>
<path d="M191.921 309.705C196.932 309.82 202.673 311.919 205.662 316.417C205.77 316.589 205.544 316.761 205.394 316.681C201.094 314.057 196.541 311.938 191.814 310.359C191.737 310.339 191.67 310.288 191.627 310.218C191.584 310.147 191.567 310.061 191.581 309.978C191.595 309.895 191.637 309.821 191.7 309.77C191.764 309.719 191.843 309.696 191.921 309.705Z" fill="#263238"/>
<path d="M197.831 299.217C200.691 302.82 204.905 304.954 208.583 307.433C208.668 307.479 208.762 307.503 208.858 307.504C208.954 307.504 209.049 307.48 209.135 307.435C209.22 307.389 209.295 307.322 209.352 307.24C209.409 307.158 209.448 307.063 209.464 306.962C209.484 306.964 209.505 306.961 209.524 306.953C209.543 306.946 209.56 306.934 209.574 306.919C209.589 306.904 209.6 306.885 209.607 306.865C209.614 306.845 209.616 306.823 209.615 306.801C209.039 301.91 207.27 297.265 204.486 293.331C202.83 291.037 199.54 289.029 197.089 291.404C194.637 293.779 196.164 297.118 197.831 299.217ZM197.411 294.8C197.669 288.96 202.787 293.194 203.938 294.915C204.677 296.036 205.338 297.213 205.916 298.437C207.093 300.975 208.148 303.575 209.077 306.228C207.335 304.897 205.508 303.738 203.701 302.476C201.605 300.973 197.271 298.001 197.411 294.8Z" fill="#263238"/>
<path d="M227.282 302.592C226.744 299.15 222.981 298.542 220.368 299.207C215.908 300.445 211.829 302.91 208.541 306.355C208.525 306.369 208.512 306.387 208.504 306.407C208.495 306.427 208.49 306.448 208.49 306.47C208.49 306.492 208.495 306.514 208.504 306.534C208.512 306.553 208.525 306.571 208.541 306.585C208.495 306.675 208.47 306.775 208.467 306.877C208.465 306.98 208.485 307.081 208.525 307.174C208.566 307.267 208.627 307.348 208.702 307.411C208.778 307.474 208.866 307.517 208.96 307.537C213.261 308.042 217.841 309.155 222.175 308.237C224.69 307.652 227.798 305.828 227.282 302.592ZM215.648 306.883C213.498 306.688 211.412 306.378 209.272 306.275C211.542 304.808 213.882 303.468 216.282 302.259C217.449 301.686 218.653 301.203 219.884 300.814C221.798 300.24 228.26 300.297 225.067 305.047C223.293 307.618 218.186 307.067 215.648 306.837V306.883Z" fill="#263238"/>
<path d="M233.323 370.857C235.968 371.648 310.243 367.552 312.984 365.487C314.06 364.707 314.35 332.89 313.565 329.827C310.931 319.5 299.351 288.234 299.351 288.234L249.655 290.816L265.299 332.339L265.966 341.622C265.966 341.622 238.183 356.767 235.409 359.383C232.634 361.999 230.688 370.076 233.323 370.857Z" fill="#F7A9A0"/>
<path d="M233.112 370.978C235.757 371.77 310.452 367.651 313.204 365.574C314.484 364.622 314.279 347.629 313.806 329.719L265.207 332.243L265.885 341.583C265.885 341.583 237.929 356.808 235.155 359.436C232.381 362.063 230.457 370.198 233.112 370.978Z" fill="#FFD873"/>
<path d="M234.026 367.73C246.53 366.721 297.054 363.864 309.483 363.875C309.591 363.875 309.591 363.955 309.483 363.955C297.108 365.263 246.563 367.673 234.026 367.948C233.768 367.994 233.757 367.753 234.026 367.73Z" fill="#263238"/>
<path d="M263.966 338.706C268.847 337.456 274.911 337.926 278.857 341.472C279.008 341.598 278.857 341.839 278.664 341.793C273.879 340.425 268.969 339.613 264.02 339.372C263.949 339.36 263.883 339.323 263.834 339.266C263.785 339.21 263.755 339.138 263.749 339.062C263.743 338.985 263.761 338.909 263.8 338.844C263.839 338.78 263.898 338.731 263.966 338.706Z" fill="#263238"/>
<path d="M260.526 341.192C265.408 339.941 271.472 340.423 275.418 343.957C275.568 344.094 275.418 344.324 275.224 344.278C270.438 342.917 265.528 342.105 260.58 341.857C260.497 341.865 260.415 341.837 260.352 341.78C260.288 341.723 260.249 341.641 260.241 341.553C260.234 341.465 260.26 341.377 260.314 341.309C260.367 341.242 260.444 341.199 260.526 341.192Z" fill="#263238"/>
<path d="M257.079 343.679C261.961 342.428 268.025 342.899 271.971 346.432C272.121 346.57 271.971 346.8 271.777 346.754C266.99 345.395 262.081 344.587 257.133 344.344C257.062 344.332 256.997 344.295 256.948 344.239C256.899 344.182 256.869 344.11 256.863 344.034C256.856 343.957 256.874 343.881 256.914 343.817C256.953 343.752 257.011 343.704 257.079 343.679Z" fill="#263238"/>
<path d="M253.636 346.19C258.517 344.939 264.581 345.41 268.527 348.955C268.678 349.093 268.527 349.322 268.334 349.277C263.547 347.915 258.638 347.104 253.689 346.856C253.649 346.859 253.607 346.854 253.568 346.841C253.529 346.828 253.493 346.807 253.461 346.778C253.43 346.75 253.404 346.716 253.385 346.677C253.366 346.638 253.354 346.595 253.351 346.551C253.347 346.508 253.352 346.464 253.364 346.422C253.377 346.38 253.397 346.341 253.423 346.308C253.45 346.274 253.482 346.247 253.518 346.226C253.555 346.206 253.595 346.194 253.636 346.19Z" fill="#263238"/>
<path d="M256.853 334.406C260.476 337.103 265.078 338.032 269.218 339.42C269.312 339.443 269.41 339.441 269.503 339.415C269.597 339.389 269.683 339.34 269.755 339.272C269.828 339.204 269.884 339.118 269.919 339.022C269.955 338.926 269.969 338.823 269.959 338.721C270.046 338.721 270.11 338.629 270.067 338.525C268.343 333.955 265.525 329.947 261.895 326.903C259.745 325.17 256.079 324.092 254.283 327.04C252.487 329.989 254.735 332.835 256.853 334.406ZM255.401 330.241C254.251 324.505 260.197 327.235 261.734 328.578C262.714 329.463 263.634 330.422 264.487 331.446C266.232 333.58 267.872 335.809 269.4 338.124C267.401 337.309 265.358 336.69 263.336 335.955C260.928 335.072 256.025 333.397 255.401 330.241Z" fill="#263238"/>
<path d="M286.126 329.623C284.772 326.41 280.998 326.869 278.6 328.223C274.575 330.637 271.212 334.134 268.848 338.366C268.837 338.385 268.83 338.407 268.829 338.429C268.827 338.451 268.829 338.473 268.837 338.494C268.844 338.515 268.855 338.534 268.87 338.55C268.885 338.565 268.903 338.577 268.923 338.584C268.899 338.684 268.898 338.789 268.919 338.89C268.94 338.991 268.984 339.085 269.045 339.164C269.107 339.244 269.186 339.306 269.275 339.347C269.364 339.388 269.461 339.405 269.557 339.399C273.858 338.71 278.525 338.55 282.46 336.473C284.836 335.268 287.395 332.664 286.126 329.623ZM275.89 336.932C273.74 337.322 271.676 337.609 269.59 338.079C271.434 336.042 273.376 334.108 275.407 332.285C276.401 331.418 277.45 330.624 278.546 329.91C280.256 328.843 286.524 327.145 284.556 332.606C283.481 335.612 278.406 336.473 275.89 336.932Z" fill="#263238"/>
<path d="M347.314 211.027C332.509 228.616 282.802 214.722 279.791 221.721C277.179 227.905 313.585 324.319 313.585 324.319L260.9 329.424C260.9 329.424 209.892 223.797 226.655 192.141C235.708 175.057 275.598 181.815 299.672 178.74C306.93 177.799 310.338 161.816 310.338 161.816H353.346C353.346 161.816 364.216 190.914 347.314 211.027Z" fill="#748CAE"/>
<path d="M241.773 182.343L287.384 219.587C302.533 219.242 335.682 224.842 347.305 211.016C364.239 190.902 353.38 161.816 353.38 161.816H310.371C310.371 161.816 306.963 177.799 299.705 178.74C282.803 180.966 258.127 178.235 241.773 182.343Z" fill="#263238"/>
<path d="M257.901 318.511C259.395 318.006 273.48 316.331 276.588 315.975C282.802 315.253 302.393 313.302 305.93 313.314C306.027 313.314 306.038 313.474 305.93 313.497C302.855 314.186 290.361 315.734 287.254 316.079C281.028 316.756 259.643 318.97 257.911 318.786C257.877 318.788 257.844 318.775 257.819 318.75C257.793 318.725 257.779 318.691 257.777 318.654C257.776 318.618 257.788 318.582 257.811 318.555C257.834 318.529 257.867 318.513 257.901 318.511Z" fill="#263238"/>
<path d="M272.826 215.044C276.32 213.197 293.825 213.897 301.211 213.748L312.34 213.461C315.63 213.381 318.931 213.335 322.21 213.071C328.414 212.566 334.607 211.04 339.338 206.714C343.458 202.751 346.396 197.585 347.789 191.856C349.617 184.972 349.423 177.709 349.112 170.607C349.036 168.863 348.929 167.164 348.821 165.375C348.821 165.283 348.983 165.26 348.993 165.375C350.445 178.076 351.541 192.269 343.8 203.238C340.373 208.081 335.479 211.507 329.951 212.933C323.597 214.654 316.866 214.459 310.34 214.62L288.352 215.136C284.685 215.228 275.449 215.354 273.901 216.593C272.095 218.073 282.556 252.563 285.062 259.574C290.079 273.663 295.05 287.776 299.975 301.912C300.566 303.61 302.222 308.544 302.781 310.265C302.878 310.586 302.351 310.804 302.222 310.483C299.469 303.541 295.921 293.272 293.352 286.25C290.782 279.228 288.223 272.287 285.696 265.288C280.546 251.198 269.74 216.662 272.826 215.044Z" fill="#263238"/>
<path d="M224.735 195.197C227.617 188.417 233.132 183.942 241.723 182.29C241.874 182.29 241.863 182.485 241.723 182.53C234.197 184.825 228.907 187.992 225.789 194.658C224.005 198.967 223.208 203.667 223.466 208.369C223.843 221.782 228.326 241.207 230.885 250.512C233.444 259.817 236.498 268.985 239.766 278.049C243.035 287.113 250.519 306.034 251.056 307.204C251.068 307.225 251.071 307.25 251.065 307.274C251.058 307.298 251.044 307.318 251.024 307.33C251.004 307.342 250.98 307.345 250.958 307.339C250.936 307.333 250.917 307.317 250.906 307.296C247.497 301.157 236.928 273.758 230.961 253.794C228.154 244.328 218.531 209.758 224.735 195.197Z" fill="#263238"/>
<path d="M205.088 296.854L250.999 307.295C250.999 307.295 213.776 202.884 229.011 189.517C233.237 185.811 242.44 184.526 253.386 189.517C269.729 197.044 288.642 212.396 306.48 218.018C323.178 223.273 343.037 218.442 349.821 210.422C364.164 193.59 353.38 161.774 353.38 161.774L302.351 159.398C302.351 159.398 303.426 161.831 300.588 164.504C300.588 164.504 257.526 154.43 242.419 164.275C215.173 182.116 205.088 296.854 205.088 296.854Z" fill="#748CAE"/>
<path d="M327.824 165.489C327.831 165.466 327.844 165.446 327.863 165.432C327.881 165.418 327.903 165.41 327.926 165.41C327.948 165.41 327.971 165.418 327.989 165.432C328.007 165.446 328.021 165.466 328.028 165.489C327.979 167.861 328.152 170.233 328.544 172.568C329.01 174.786 330.04 176.823 331.522 178.454C334.748 181.896 339.414 183.147 343.661 184.57C343.887 184.65 343.855 185.075 343.597 185.029C338.877 184.26 333.92 182.987 330.479 179.2C328.892 177.461 327.829 175.256 327.426 172.867C326.986 170.41 327.123 167.876 327.824 165.489Z" fill="#263238"/>
<path d="M230.03 187.519C236.352 183.274 246.233 186.498 250.964 188.426C251.072 188.426 251.018 188.644 250.964 188.598C246.609 186.934 235.782 184.399 229.987 188.782C216.601 198.901 237.642 265.288 251.039 306.72C251.233 307.305 250.781 307.156 250.534 306.582C248.599 302.062 228.89 246.265 225.6 219.818C224.955 214.93 220.912 193.589 230.03 187.519Z" fill="#263238"/>
<path d="M210.722 286.735C211.97 286.735 222.625 289.213 224.98 289.775C229.667 290.923 244.333 294.743 246.903 295.776C246.967 295.776 246.903 295.96 246.849 295.948C244.408 295.707 234.936 293.539 232.592 292.965C227.904 291.818 211.83 287.687 210.647 287.01C210.55 286.953 210.604 286.746 210.722 286.735Z" fill="#263238"/>
<path d="M232.048 185.72C236.349 183.242 241.37 182.829 246.091 183.425C251.076 184.234 255.917 185.851 260.445 188.221C270.068 192.914 279.228 198.651 288.862 203.321C298.496 207.99 308.667 211.593 319.215 211.937C328.247 212.236 339.644 210.538 345.461 201.886C354.406 188.531 349.192 165.526 349.095 164.023C349.095 163.908 349.235 163.92 349.256 164.023C356.191 192.306 347.267 203.286 341.246 207.899C336.461 211.57 329.591 212.488 325.053 212.901C314.559 213.854 304.033 211.111 294.292 206.969C284.325 202.736 274.938 197.022 265.412 191.813C256.251 186.81 246.058 181.647 235.564 184.515C234.381 184.85 233.22 185.271 232.091 185.777C232.027 185.858 231.973 185.754 232.048 185.72Z" fill="#263238"/>
<path d="M281.482 144.323L289.772 144.002C291.924 138.867 292.529 133.146 291.503 127.629C291.288 126.355 294.525 133.503 293.976 143.852C302.728 143.508 316.824 142.82 327.211 142.303C327.211 137.966 327.307 133.951 327.307 133.951C327.799 136.765 328.519 139.529 329.458 142.212L333.608 141.994C333.206 135.85 333.116 129.687 333.339 123.532C334.448 129.897 336.526 136.024 339.49 141.672C346.081 141.271 350.414 140.881 350.113 140.525C339.457 128.96 346.36 121.467 342.919 110.9C338.801 98.2788 328.286 96.8676 328.049 87.1838C327.834 79.3013 328.458 50.2269 317.598 50.0892C317.598 50.0892 308.384 41.243 296.761 46.8766C282.385 53.8297 289.385 90.8553 288.654 95.8579C287.579 102.995 284.622 105.691 282.73 113.872C280.837 122.052 284.568 127.342 285.267 132.838C285.966 138.334 279.826 144.415 281.482 144.323Z" fill="#263238"/>
<path d="M350.353 138.806C348.864 136.774 347.655 134.525 346.762 132.128C346.03 129.743 345.896 127.196 346.375 124.739C346.757 122.135 347.015 119.511 347.149 116.879C347.263 114.145 346.861 111.413 345.967 108.848C345.013 106.276 343.52 103.972 341.601 102.113C339.745 100.355 337.756 98.7622 335.655 97.3511C333.623 96.0022 331.764 94.3743 330.129 92.5092C328.546 90.5529 327.494 88.1726 327.086 85.625C327.141 88.3017 327.954 90.8978 329.419 93.0714C330.943 95.1837 332.755 97.0401 334.795 98.5788C336.742 100.078 338.599 101.707 340.354 103.455C342.011 105.179 343.305 107.26 344.149 109.559C344.92 111.898 345.284 114.367 345.225 116.845C345.225 119.369 344.924 121.928 344.762 124.567C344.665 125.903 344.665 127.246 344.762 128.583C344.898 129.956 345.262 131.293 345.837 132.53C346.976 134.895 348.506 137.021 350.353 138.806Z" fill="#263238"/>
<path d="M288.951 60.6958C287.998 63.663 287.402 66.7473 287.177 69.8748C286.887 72.9841 287.446 87.4984 287.327 90.6078L287.134 95.1973C287.081 96.6893 286.894 98.1724 286.575 99.6261C285.773 102.511 284.475 105.211 282.747 107.589C281.896 108.91 281.128 110.29 280.446 111.719C279.78 113.183 279.272 114.723 278.93 116.309C278.638 117.887 278.462 119.486 278.403 121.093C278.339 122.711 278.469 124.33 278.79 125.912C279.091 127.496 279.564 128.999 279.973 130.502C280.374 131.963 280.644 133.461 280.779 134.977C280.86 136.499 280.591 138.019 279.995 139.405C279.399 140.791 278.494 142 277.36 142.928C278.65 142.095 279.721 140.926 280.473 139.532C281.225 138.137 281.634 136.562 281.661 134.954C281.649 133.356 281.48 131.764 281.156 130.204C280.855 128.655 280.435 127.175 280.231 125.683C279.865 122.71 280.021 119.691 280.693 116.779C281.029 115.342 281.512 113.949 282.134 112.626C282.788 111.28 283.528 109.984 284.349 108.748C285.197 107.437 285.983 106.081 286.704 104.686C287.435 103.241 287.981 101.697 288.327 100.097C288.637 98.5192 288.796 96.9122 288.8 95.3005C288.8 93.7286 288.8 92.1797 288.8 90.6193C288.8 87.5213 288.016 73.0186 288.08 69.9666C288.059 66.852 288.351 63.744 288.951 60.6958Z" fill="#263238"/>
<path d="M313.902 105.171C309.655 123.609 299.354 152.213 290.247 152.098C281.947 151.961 263.367 136.253 255.669 131.102C247.97 125.95 265.346 105.676 269.765 108.957C276.646 114.04 286.968 123.116 288.71 122.519C290.86 121.785 293.645 116.082 306.02 99.2735C311.117 92.4007 315.708 97.323 313.902 105.171Z" fill="#F7A9A0"/>
<path d="M261.442 101.137C257.787 99.7606 253.69 97.8675 249.615 97.9478C245.54 98.0281 242.186 103.753 242.186 105.383C242.186 107.012 243.712 117.247 247.777 117.247C251.841 117.247 249.389 109.399 249.54 108.492C249.69 107.586 249.852 106.45 250.615 106.53C251.379 106.61 264.797 113.414 264.797 113.414L261.442 101.137Z" fill="#F7A9A0"/>
<path d="M261.182 101.733C260.946 101.733 250.065 97.1435 246.001 97.2352C241.936 97.327 238.56 103.041 238.56 104.682C238.56 106.322 240.098 116.545 244.162 116.545C248.226 116.545 245.764 108.686 245.925 107.791C246.087 106.896 246.226 105.737 247 105.818C247.775 105.898 261.182 112.702 261.182 112.702V101.733Z" fill="#F7A9A0"/>
<path d="M245.536 115.991C245.972 115.214 246.206 114.327 246.214 113.421C246.298 112.496 246.247 111.563 246.063 110.656C245.84 109.875 245.674 109.077 245.569 108.269C245.579 107.466 245.775 106.678 246.138 105.974C246.45 105.366 247.052 105.584 247.558 105.768C248.315 106.076 249.055 106.433 249.773 106.835C250.547 107.248 251.321 107.684 252.084 108.108C252.898 108.515 253.688 108.975 254.45 109.485C254.45 109.485 254.45 109.634 254.396 109.6C253.692 109.311 253.002 108.982 252.332 108.613L250.009 107.466C249.278 107.122 248.568 106.732 247.859 106.399C247.601 106.284 247.085 105.986 246.784 106.066C246.482 106.146 246.31 106.95 246.246 107.214C246.085 107.977 246.134 108.774 246.386 109.508C246.6 110.283 246.74 111.079 246.805 111.883C246.881 112.653 246.823 113.431 246.633 114.178C246.39 114.845 246.064 115.474 245.665 116.048C245.612 116.152 245.483 116.06 245.536 115.991Z" fill="#263238"/>
<path d="M274.066 113.115C274.066 113.115 262.809 102.157 260.465 99.9889C255.766 95.6289 235.961 86.9892 233.198 86.6794C230.434 86.3696 229.445 92.4162 242.874 98.6809C249.96 101.985 251.218 106.311 251.078 108.709C250.938 111.107 248.799 115.593 245.025 115.478C241.251 115.364 238.789 109.478 235.348 108.824C231.907 108.17 234.176 114.962 236.628 118.898C239.199 122.69 242.726 125.627 246.799 127.365C250.025 128.673 260.196 133.332 260.196 133.332L274.066 113.115Z" fill="#F7A9A0"/>
<path d="M240.335 112.645C241.754 113.792 243.378 115.341 245.249 115.421C247.12 115.502 248.474 114.148 249.345 112.473C250.332 110.813 250.686 108.814 250.334 106.885C249.896 105.143 248.996 103.574 247.743 102.364C246.21 100.892 244.486 99.6636 242.625 98.7155C242.539 98.7155 242.625 98.5434 242.7 98.5893C244.442 99.4154 249.851 101.779 250.937 106.885C251.281 108.873 250.896 110.927 249.861 112.622C249.023 114.228 247.797 115.777 245.969 115.938C243.733 116.133 241.808 114.194 240.206 112.736C240.152 112.633 240.26 112.576 240.335 112.645Z" fill="#263238"/>
<path d="M310.9 143.285L289.504 121.68C289.504 121.68 295.235 112.753 303.223 102.06C310.965 91.7333 315.857 92.1004 315.653 110.539C315.536 121.64 313.936 132.666 310.9 143.285Z" fill="#FFD873"/>
<path d="M292.463 118.333C294.215 119.744 295.785 121.442 297.43 123.003C299.075 124.563 300.559 125.986 302.075 127.523C305.229 130.728 308.315 133.994 311.333 137.322C311.386 137.322 311.333 137.482 311.236 137.436C308.017 134.377 304.838 131.287 301.699 128.166C300.14 126.605 298.613 125.01 297.086 123.404C295.559 121.798 293.86 120.214 292.377 118.447C292.37 118.441 292.364 118.434 292.359 118.426C292.355 118.417 292.352 118.408 292.351 118.398C292.35 118.389 292.351 118.379 292.354 118.37C292.356 118.36 292.36 118.352 292.366 118.344C292.372 118.337 292.379 118.33 292.387 118.326C292.394 118.321 292.403 118.318 292.412 118.317C292.421 118.316 292.43 118.317 292.439 118.32C292.448 118.322 292.456 118.327 292.463 118.333Z" fill="#263238"/>
<path opacity="0.1" d="M315.655 110.535C315.538 121.636 313.938 132.662 310.903 143.281L289.818 121.997L312.075 95.3438C314.462 96.1354 315.763 100.84 315.655 110.535Z" fill="black"/>
<path d="M293.145 167.41L357.507 168.557C357.507 168.557 340.562 112.6 327.176 97.6034C321.079 90.7192 315.187 91.8666 310.23 96.3528C308.994 97.5002 293.705 118.566 292.457 125.886C291.382 132.346 296.328 139.46 296.328 139.46L293.145 167.41Z" fill="#FFD873"/>
<path opacity="0.1" d="M324.943 95.4482H311.32C311.877 95.021 312.463 94.6376 313.072 94.3008H323.265C323.849 94.6399 324.41 95.0234 324.943 95.4482ZM328.319 98.9706H308.169C307.89 99.3377 307.6 99.7393 307.288 100.118H329.222C328.899 99.7126 328.598 99.3301 328.319 98.9706ZM331.544 103.698H304.772C304.492 104.088 304.213 104.501 303.933 104.914H332.276C332.061 104.501 331.813 104.099 331.566 103.698H331.544ZM334.254 108.436H301.568L300.783 109.641H334.888L334.254 108.436ZM336.662 113.164H298.632C298.385 113.565 298.138 113.967 297.901 114.311H337.307L336.662 113.164ZM338.877 117.902H295.826C295.6 118.315 295.385 118.717 295.192 119.107H339.49C339.282 118.694 339.085 118.281 338.899 117.868L338.877 117.902ZM340.952 122.629H293.504C293.332 123.054 293.17 123.455 293.041 123.777H341.49L340.952 122.629ZM342.942 127.368H292.299C292.273 127.769 292.273 128.172 292.299 128.573H343.425L342.942 127.368ZM344.866 132.095H292.923C293.031 132.508 293.16 132.91 293.289 133.243H345.318L344.866 132.095ZM346.683 136.822H294.794C295.02 137.281 295.246 137.683 295.45 138.039H347.06L346.683 136.822ZM348.436 141.561H296.095L295.955 142.708H348.855C348.715 142.364 348.565 141.963 348.414 141.561H348.436ZM350.135 146.288H295.557L295.418 147.436H350.543C350.414 147.103 350.242 146.69 350.113 146.288H350.135ZM351.801 151.027H295.02L294.88 152.174H352.199C352.063 151.822 351.923 151.44 351.78 151.027H351.801ZM353.403 155.754H294.471L294.342 156.901H353.79C353.661 156.569 353.532 156.167 353.382 155.731L353.403 155.754ZM354.984 160.493H293.934L293.805 161.64H355.349C355.22 161.288 355.091 160.906 354.962 160.493H354.984ZM356.5 165.22H293.396L293.256 166.367H356.855C356.747 166.057 356.618 165.667 356.478 165.22H356.5Z" fill="#030402"/>
<path d="M305.637 136.607C308.494 136.81 311.328 137.279 314.109 138.007C315.496 138.408 316.862 138.879 318.227 139.383C318.905 139.636 319.582 139.865 320.27 140.083C320.964 140.337 321.688 140.483 322.42 140.519C322.485 140.519 322.496 140.646 322.42 140.646C321.726 140.709 321.029 140.709 320.335 140.646C319.656 140.572 318.983 140.442 318.324 140.255C316.915 139.877 315.528 139.406 314.12 139.005C311.281 138.202 308.443 137.398 305.572 136.871C305.486 136.882 305.508 136.595 305.637 136.607Z" fill="#263238"/>
<path d="M298.791 140.171C301.102 139.746 303.437 139.493 305.78 139.413C306.953 139.383 308.127 139.421 309.296 139.528C309.855 139.528 310.371 139.62 310.973 139.689C311.575 139.757 312.199 139.941 312.812 140.01C312.876 140.01 312.876 140.136 312.812 140.136C312.231 140.136 311.651 140.193 311.07 140.193H309.317C308.146 140.193 306.974 140.251 305.812 140.251C303.468 140.251 301.135 140.251 298.802 140.4C298.63 140.423 298.63 140.193 298.791 140.171Z" fill="#263238"/>
<path d="M319.909 94.9093C319.909 96.1485 315.963 104.96 310.823 105.763C309.146 106.016 307.426 96.3321 307.426 96.3321L307.146 95.6551L303.232 86.086L312.909 76.2645L314.318 74.9336C314.318 74.9336 315.232 77.6299 316.339 80.9917C316.339 81.1524 316.436 81.3015 316.49 81.4736L316.683 82.0129L317.178 83.5389C317.307 83.929 317.425 84.3076 317.543 84.6862L317.92 85.9139C318.778 88.8594 319.442 91.8652 319.909 94.9093Z" fill="#F7A9A0"/>
<path d="M316.296 80.9917C315.858 83.9975 314.813 86.8657 313.233 89.3976C311.653 91.9296 309.576 94.0647 307.146 95.6551L303.232 86.086L312.909 76.2645L314.318 74.9336C314.318 74.9336 315.189 77.6299 316.296 80.9917Z" fill="#263238"/>
<path d="M288.396 73.806C291.761 91.7739 302.234 91.6591 305.857 90.8789C309.158 90.1676 320.297 87.3106 318.684 69.0789C317.071 50.8471 308.179 46.8199 300.567 48.0131C292.955 49.2064 285.03 55.8382 288.396 73.806Z" fill="#F7A9A0"/>
<path d="M290.193 70.192C290.561 70.0434 290.92 69.871 291.269 69.6757C291.673 69.5463 292.028 69.2806 292.279 68.9184C292.335 68.7873 292.35 68.6403 292.321 68.4996C292.291 68.3589 292.22 68.2321 292.118 68.1382C291.885 67.9919 291.62 67.9148 291.349 67.9148C291.079 67.9148 290.813 67.9919 290.58 68.1382C290.061 68.3469 289.635 68.7565 289.387 69.2856C289.341 69.4077 289.33 69.5412 289.353 69.6703C289.376 69.7994 289.434 69.9186 289.519 70.014C289.603 70.1093 289.712 70.1767 289.832 70.2083C289.951 70.2398 290.077 70.2342 290.193 70.192Z" fill="#263238"/>
<path d="M301.677 67.3897C301.283 67.4127 300.889 67.4127 300.495 67.3897C300.077 67.4534 299.651 67.373 299.28 67.1602C299.177 67.0663 299.106 66.9395 299.077 66.7988C299.048 66.6581 299.063 66.5112 299.118 66.38C299.27 66.141 299.478 65.9492 299.722 65.8242C299.965 65.6992 300.236 65.6455 300.505 65.6686C301.055 65.6181 301.601 65.7947 302.032 66.162C302.129 66.2508 302.2 66.3679 302.236 66.4991C302.272 66.6303 302.27 66.7697 302.233 66.9002C302.195 67.0307 302.122 67.1466 302.024 67.2336C301.925 67.3206 301.805 67.3748 301.677 67.3897Z" fill="#263238"/>
<path d="M299.945 72.4336C299.945 72.4336 300.042 72.4336 300.053 72.5254C300.236 73.7645 300.655 75.1414 301.763 75.325V75.3938C300.472 75.4741 299.935 73.6383 299.945 72.4336Z" fill="#263238"/>
<path d="M300.783 70.9376C302.6 70.3984 303.471 74.3109 301.793 74.8157C300.116 75.3206 299.202 71.3966 300.783 70.9376Z" fill="#263238"/>
<path d="M301.49 70.9748C301.867 71.1125 302.264 71.4223 302.662 71.3649C303.06 71.3075 303.361 70.8027 303.565 70.3323C303.565 70.3323 303.63 70.3323 303.641 70.3323C303.777 70.6765 303.786 71.0629 303.666 71.414C303.547 71.7652 303.307 72.055 302.995 72.2254C302.329 72.5008 301.684 71.9615 301.34 71.2502C301.275 71.1584 301.34 70.9174 301.49 70.9748Z" fill="#263238"/>
<path d="M293.558 73.8123C293.558 73.8123 293.482 73.8926 293.493 73.9385C293.816 75.1432 293.988 76.5774 293.052 77.2544C293.052 77.2544 293.052 77.3347 293.052 77.3117C294.332 76.7954 294.041 74.8908 293.558 73.8123Z" fill="#263238"/>
<path d="M292.259 72.8068C290.399 73.1395 291.184 77.0865 292.883 76.7767C294.581 76.4669 293.818 72.5314 292.259 72.8068Z" fill="#263238"/>
<path d="M291.539 73.2227C291.281 73.498 291.066 73.9455 290.722 74.0488C290.378 74.152 289.948 73.8078 289.647 73.4521C289.647 73.4521 289.593 73.4521 289.647 73.4521C289.765 74.2094 290.152 74.9437 290.862 74.9322C291.572 74.9208 291.84 74.1864 291.862 73.3948C291.776 73.303 291.636 73.1079 291.539 73.2227Z" fill="#263238"/>
<path d="M296.598 79.1321C296.598 79.1321 296.748 81.0023 296.931 81.8628C296.931 81.9432 297.157 81.9317 297.426 81.8628C298.143 81.8265 298.838 81.5819 299.435 81.1552C300.032 80.7286 300.508 80.1362 300.813 79.4419C300.817 79.4229 300.816 79.403 300.809 79.3849C300.802 79.3668 300.79 79.3515 300.774 79.3412C300.759 79.331 300.741 79.3263 300.722 79.3279C300.704 79.3295 300.687 79.3373 300.673 79.3501C299.816 80.3362 298.686 81.0036 297.447 81.2547C297.34 81.0367 297.297 78.0421 297.168 78.0536C296.557 78.2646 295.974 78.5617 295.437 78.937C295.007 75.0475 295.179 71.112 294.706 67.2339C294.698 67.2082 294.683 67.1857 294.663 67.1698C294.642 67.1539 294.618 67.1453 294.593 67.1453C294.567 67.1453 294.543 67.1539 294.523 67.1698C294.502 67.1857 294.487 67.2082 294.48 67.2339C294.185 71.4408 294.282 75.6685 294.77 79.8549C294.792 80.4057 296.308 79.3616 296.598 79.1321Z" fill="#263238"/>
<path d="M297.459 81.4434C298.059 82.0563 298.801 82.4879 299.609 82.6941C300.045 82.797 300.499 82.7529 300.91 82.5679C301.814 82.1548 301.706 81.2484 301.416 80.4911C301.267 80.0848 301.072 79.6995 300.835 79.3438C299.949 80.4109 298.766 81.1468 297.459 81.4434Z" fill="#263238"/>
<path d="M299.57 82.6951C300.006 82.7981 300.46 82.754 300.871 82.5689C301.774 82.1559 301.667 81.2495 301.377 80.4922C300.889 80.5932 300.447 80.8645 300.12 81.2634C299.793 81.6623 299.599 82.166 299.57 82.6951Z" fill="#FF9BBC"/>
<path d="M317.695 70.7258C315.835 70.9323 310.169 66.3543 308.621 56.877C308.621 56.877 310.599 65.2873 311.395 66.4232C312.19 67.5591 308.244 63.8531 306.857 56.223C304.862 58.3439 302.592 60.1484 300.116 61.5813C296.89 63.1876 294.804 63.5088 294.514 63.2908C294.224 63.0728 298.965 60.5257 300.062 58.6325C300.062 58.6325 291.729 64.6677 287.622 65.7347C287.149 65.8495 286.547 55.7756 292.299 50.1764C298.051 44.5772 307.352 47.285 310.578 49.6256C310.578 49.6256 313.868 49.5568 318.104 54.0316C322.34 58.5063 319.706 70.5078 317.695 70.7258Z" fill="#263238"/>
<path d="M319.964 75.6898C319.742 75.8634 319.504 76.0133 319.255 76.1373C319.009 76.2633 318.749 76.3521 318.48 76.4012C318.127 76.4901 317.759 76.4901 317.405 76.4012C317.136 76.3384 316.878 76.23 316.642 76.0799C316.3 75.8739 315.994 75.606 315.739 75.2883L315.373 70.3087C315.373 70.3087 317.47 63.6883 320.179 64.3423C322.889 64.9963 322.405 73.7508 319.964 75.6898Z" fill="#F7A9A0"/>
<path d="M320.009 66.8203C320.009 66.8203 320.084 66.8203 320.009 66.8892C318.31 68.3234 317.858 70.5378 317.654 72.7293C317.71 72.4936 317.814 72.2737 317.957 72.0843C318.1 71.895 318.28 71.7407 318.484 71.6319C318.688 71.5231 318.911 71.4624 319.139 71.4537C319.367 71.4451 319.594 71.4888 319.804 71.5819C319.869 71.5819 319.804 71.6966 319.804 71.6966C319.436 71.6892 319.074 71.8031 318.768 72.0227C318.462 72.2424 318.227 72.5572 318.095 72.9243C317.882 73.5452 317.727 74.187 317.632 74.8404C317.632 75.047 317.256 75.047 317.267 74.8404C316.546 72.1556 317.45 67.8988 320.009 66.8203Z" fill="#263238"/>
<path d="M319.532 75.0207C319.544 75.1878 319.51 75.3551 319.433 75.5014C319.356 75.6477 319.241 75.7665 319.101 75.8427C318.961 75.919 318.803 75.9493 318.647 75.9298C318.491 75.9104 318.343 75.842 318.224 75.7334C318.104 75.6248 318.017 75.4808 317.974 75.3196C317.931 75.1583 317.933 74.987 317.981 74.8274C318.029 74.6677 318.12 74.5267 318.243 74.4223C318.366 74.3178 318.516 74.2545 318.672 74.2404C318.883 74.2245 319.091 74.2973 319.251 74.4431C319.412 74.589 319.513 74.7964 319.532 75.0207Z" fill="white"/>
<path d="M320.762 73.299C320.774 73.4555 320.728 73.6107 320.633 73.731C320.538 73.8513 320.403 73.927 320.257 73.9415C320.176 73.9732 320.09 73.9847 320.004 73.9751C319.919 73.9655 319.837 73.935 319.764 73.8861C319.692 73.8371 319.631 73.771 319.586 73.6928C319.541 73.6146 319.514 73.5265 319.506 73.4353C319.498 73.344 319.511 73.2521 319.542 73.1667C319.572 73.0812 319.621 73.0045 319.685 72.9425C319.748 72.8805 319.824 72.8349 319.906 72.8092C319.988 72.7834 320.075 72.7783 320.16 72.7942C320.301 72.7808 320.443 72.8255 320.555 72.9193C320.666 73.0131 320.741 73.1489 320.762 73.299Z" fill="white"/>
<path d="M329.208 113.271C326.208 132.065 315.413 168.505 305.779 171.787C294.619 175.619 253.675 161.724 246.073 155.792C243.052 153.429 259.212 131.927 263.008 133.304C277.631 138.582 293.565 142.609 294.705 141.978C298.059 140.154 308.779 119.684 317.047 107.626C327.434 92.4917 330.552 104.837 329.208 113.271Z" fill="#F7A9A0"/>
<path d="M247.077 156.382C245.357 155.728 233.497 146.537 230.003 142.223C226.21 137.765 223.13 132.671 220.885 127.147C217.369 118.404 215.713 112.001 216.584 109.133C217.563 105.806 217.842 105.266 226.046 119.769C230.68 127.984 235.11 128.948 238.948 128.833C248.386 128.64 257.73 130.867 266.194 135.327C266.194 135.327 253.7 158.894 247.077 156.382Z" fill="#F7A9A0"/>
<path d="M225.928 92.0854L249.583 118.326C249.738 118.448 249.86 118.613 249.935 118.803C250.01 118.993 250.036 119.201 250.009 119.406C249.983 119.61 249.905 119.803 249.785 119.964C249.664 120.126 249.505 120.249 249.324 120.322L235.1 127.046C234.651 127.216 234.167 127.247 233.702 127.136C233.238 127.024 232.813 126.774 232.476 126.415L208.822 100.174C208.666 100.052 208.544 99.887 208.469 99.6969C208.394 99.5068 208.368 99.2987 208.395 99.0944C208.421 98.89 208.499 98.6971 208.619 98.5358C208.74 98.3745 208.899 98.2509 209.08 98.1779L223.294 91.4773C223.742 91.3016 224.227 91.2655 224.694 91.3732C225.16 91.4809 225.588 91.7279 225.928 92.0854Z" fill="#37474F"/>
<path d="M224.203 91.0174L209.956 97.764C209.776 97.8369 209.617 97.9605 209.496 98.1218C209.376 98.2831 209.298 98.476 209.272 98.6804C209.245 98.8847 209.271 99.0929 209.346 99.2829C209.421 99.473 209.543 99.6379 209.698 99.7604L233.353 126.001C233.689 126.36 234.114 126.61 234.579 126.722C235.043 126.833 235.528 126.802 235.976 126.632L250.244 119.885C250.425 119.812 250.584 119.689 250.705 119.527C250.825 119.366 250.903 119.173 250.929 118.969C250.955 118.765 250.93 118.556 250.855 118.366C250.78 118.176 250.658 118.011 250.502 117.889L226.848 91.6485C226.509 91.2849 226.08 91.0322 225.612 90.9204C225.143 90.8086 224.654 90.8422 224.203 91.0174ZM248.868 117.51C249.492 118.199 249.416 119.025 248.707 119.369L235.966 125.393C235.548 125.543 235.098 125.564 234.67 125.452C234.242 125.341 233.852 125.101 233.546 124.762L211.537 100.323C210.268 98.9228 210.784 98.5786 211.537 98.2344L214.085 97.087C214.189 97.0626 214.297 97.0689 214.397 97.1053C214.498 97.1417 214.587 97.2068 214.655 97.2935L214.73 97.3739C214.786 97.4551 214.855 97.5238 214.936 97.5759C215.016 97.6281 215.106 97.6626 215.199 97.6776C215.292 97.6925 215.387 97.6876 215.478 97.663C215.569 97.6384 215.655 97.5947 215.73 97.5345L221.633 94.7464C221.956 94.5857 222.224 94.4595 221.827 94.0235L221.751 93.9432C221.59 93.7482 221.569 93.5416 221.751 93.4728L224.31 92.3254C225.02 91.9812 225.773 91.9009 226.934 93.186L248.868 117.51Z" fill="#263238"/>
<path d="M218.918 95.1469L217.305 95.9157C217.279 95.9318 217.249 95.9403 217.219 95.9403C217.189 95.9403 217.159 95.9318 217.133 95.9157C217.122 95.9085 217.112 95.8984 217.106 95.8864C217.1 95.8743 217.096 95.8607 217.096 95.8468C217.096 95.833 217.1 95.8193 217.106 95.8073C217.112 95.7952 217.122 95.7851 217.133 95.778L218.746 95.0207C218.773 95.0024 218.805 94.9927 218.837 94.9927C218.869 94.9927 218.901 95.0024 218.928 95.0207C218.939 95.0271 218.949 95.0369 218.955 95.0488C218.961 95.0607 218.963 95.0742 218.962 95.0876C218.961 95.1011 218.956 95.1139 218.948 95.1244C218.94 95.135 218.93 95.1428 218.918 95.1469Z" fill="white"/>
<path d="M226.831 93.0748L248.873 117.514C249.497 118.202 249.421 119.028 248.712 119.373L235.971 125.396C235.553 125.547 235.103 125.568 234.675 125.456C234.247 125.344 233.857 125.105 233.551 124.765L211.542 100.326C210.273 98.9264 210.789 98.5822 211.542 98.238L214.09 97.0906C214.194 97.0662 214.302 97.0725 214.402 97.109C214.503 97.1454 214.592 97.2105 214.66 97.2972L214.735 97.3775C214.791 97.4587 214.86 97.5274 214.941 97.5795C215.021 97.6317 215.111 97.6662 215.204 97.6812C215.297 97.6961 215.392 97.6912 215.483 97.6666C215.574 97.642 215.66 97.5984 215.735 97.5381L221.638 94.75C221.961 94.5894 222.229 94.4632 221.832 94.0272L221.767 93.9468C221.595 93.7518 221.574 93.5453 221.767 93.4764L224.326 92.329C224.917 91.8701 225.67 91.7898 226.831 93.0748Z" fill="white"/>
<path d="M226.831 93.0748L228.476 94.8992L213.144 102.151L211.542 100.326C210.273 98.9264 210.789 98.5822 211.542 98.238L214.101 97.0906C214.204 97.0662 214.312 97.0725 214.413 97.109C214.513 97.1454 214.603 97.2105 214.671 97.2972L214.746 97.3775C214.801 97.4587 214.871 97.5274 214.952 97.5795C215.032 97.6317 215.121 97.6662 215.214 97.6812C215.308 97.6961 215.402 97.6912 215.494 97.6666C215.585 97.642 215.671 97.5984 215.746 97.5381L221.649 94.75C221.971 94.5894 222.24 94.4632 221.842 94.0272L221.778 93.9468C221.606 93.7518 221.584 93.5453 221.778 93.4764L224.337 92.329C224.917 91.8701 225.659 91.7898 226.831 93.0748Z" fill="#455A64"/>
<path d="M213.897 100.523L213.102 100.351L213.209 99.7539L213.338 99.7883L213.252 100.282L213.908 100.419L213.897 100.523Z" fill="white"/>
<path d="M226.091 93.9924C226.091 93.9924 226.091 94.0846 226.091 94.1192C226.066 94.1343 226.038 94.1423 226.009 94.1423C225.981 94.1423 225.953 94.1343 225.928 94.1192C225.928 94.1192 225.928 94.027 225.928 94.0039C225.951 93.9858 225.979 93.9751 226.008 93.973C226.037 93.971 226.065 93.9777 226.091 93.9924Z" fill="white"/>
<path d="M226.347 94.2748C226.355 94.2811 226.363 94.2896 226.368 94.2996C226.373 94.3096 226.375 94.3208 226.375 94.3321C226.375 94.3435 226.373 94.3547 226.368 94.3647C226.363 94.3747 226.355 94.3832 226.347 94.3895C226.322 94.4058 226.294 94.4144 226.266 94.4144C226.237 94.4144 226.209 94.4058 226.185 94.3895C226.173 94.3841 226.163 94.3753 226.156 94.3641C226.149 94.3529 226.146 94.3398 226.146 94.3264C226.146 94.313 226.149 94.2999 226.156 94.2887C226.163 94.2775 226.173 94.2687 226.185 94.2634C226.21 94.25 226.239 94.244 226.267 94.246C226.295 94.248 226.323 94.2579 226.347 94.2748Z" fill="white"/>
<path d="M226.593 94.5447C226.605 94.5501 226.614 94.5589 226.621 94.5701C226.628 94.5813 226.632 94.5944 226.632 94.6078C226.632 94.6212 226.628 94.6343 226.621 94.6455C226.614 94.6567 226.605 94.6655 226.593 94.6709C226.568 94.6849 226.541 94.6923 226.513 94.6923C226.484 94.6923 226.457 94.6849 226.432 94.6709C226.42 94.6655 226.411 94.6567 226.404 94.6455C226.397 94.6343 226.393 94.6212 226.393 94.6078C226.393 94.5944 226.397 94.5813 226.404 94.5701C226.411 94.5589 226.42 94.5501 226.432 94.5447C226.456 94.5284 226.484 94.5198 226.513 94.5198C226.541 94.5198 226.569 94.5284 226.593 94.5447Z" fill="white"/>
<path d="M214.062 97.789C213.962 97.7474 213.851 97.7474 213.75 97.789C213.708 97.8003 213.67 97.8249 213.641 97.8597C213.613 97.8945 213.594 97.9378 213.589 97.9839H213.525V97.9151C213.525 97.9151 213.525 97.9151 213.589 97.8349H213.697H213.912L214.062 97.789Z" fill="white"/>
<path d="M213.686 98.107C213.689 98.0767 213.698 98.0475 213.713 98.0216C213.728 97.9957 213.748 97.9739 213.772 97.958C213.873 97.9164 213.984 97.9164 214.084 97.958C214.014 97.935 213.939 97.935 213.869 97.958C213.827 97.9567 213.786 97.9708 213.753 97.998C213.72 98.0251 213.696 98.0636 213.686 98.107Z" fill="white"/>
<path d="M214.034 97.9892C213.999 97.9776 213.962 97.9776 213.926 97.9892C213.926 97.9892 213.926 97.9892 213.873 98.0586H213.808C213.808 98.0239 213.916 97.966 214.034 97.9892Z" fill="white"/>
<path d="M211.722 98.9898C211.711 98.9827 211.702 98.9726 211.695 98.9606C211.689 98.9485 211.686 98.9349 211.686 98.921C211.686 98.9072 211.689 98.8936 211.695 98.8815C211.702 98.8695 211.711 98.8594 211.722 98.8522C211.749 98.8339 211.781 98.8242 211.813 98.8242C211.846 98.8242 211.877 98.8339 211.905 98.8522C211.916 98.8594 211.925 98.8695 211.932 98.8815C211.938 98.8936 211.941 98.9072 211.941 98.921C211.941 98.9349 211.938 98.9485 211.932 98.9606C211.925 98.9726 211.916 98.9827 211.905 98.9898C211.877 99.0059 211.845 99.0143 211.813 99.0143C211.782 99.0143 211.75 99.0059 211.722 98.9898Z" fill="white"/>
<path d="M212.046 98.8351C211.992 98.8351 212.046 98.7205 212.046 98.6975C212.075 98.6782 212.108 98.668 212.143 98.668C212.177 98.668 212.21 98.6782 212.239 98.6975C212.25 98.706 212.259 98.7172 212.266 98.7302C212.272 98.7431 212.275 98.7575 212.275 98.772C212.275 98.7866 212.272 98.801 212.266 98.8139C212.259 98.8269 212.25 98.8381 212.239 98.8466C212.209 98.863 212.175 98.8706 212.141 98.8685C212.107 98.8665 212.074 98.855 212.046 98.8351Z" fill="white"/>
<path d="M212.358 98.6892C212.347 98.6807 212.338 98.6695 212.332 98.6565C212.326 98.6435 212.322 98.6292 212.322 98.6146C212.322 98.6001 212.326 98.5857 212.332 98.5727C212.338 98.5598 212.347 98.5486 212.358 98.5401C212.386 98.524 212.418 98.5156 212.45 98.5156C212.481 98.5156 212.513 98.524 212.541 98.5401C212.595 98.5401 212.541 98.6548 212.541 98.6777C212.514 98.6966 212.483 98.7076 212.451 98.7096C212.419 98.7116 212.387 98.7046 212.358 98.6892Z" fill="white"/>
<path d="M212.68 98.5258C212.669 98.5187 212.659 98.5086 212.653 98.4965C212.647 98.4845 212.643 98.4709 212.643 98.457C212.643 98.4432 212.647 98.4296 212.653 98.4175C212.659 98.4055 212.669 98.3954 212.68 98.3882C212.708 98.3722 212.739 98.3638 212.771 98.3638C212.803 98.3638 212.834 98.3722 212.862 98.3882C212.874 98.3954 212.883 98.4055 212.889 98.4175C212.896 98.4296 212.899 98.4432 212.899 98.457C212.899 98.4709 212.896 98.4845 212.889 98.4965C212.883 98.5086 212.874 98.5187 212.862 98.5258C212.835 98.5441 212.803 98.5538 212.771 98.5538C212.739 98.5538 212.707 98.5441 212.68 98.5258Z" fill="white"/>
<path d="M213.003 98.3531C212.992 98.346 212.983 98.3359 212.977 98.3238C212.97 98.3118 212.967 98.2982 212.967 98.2843C212.967 98.2705 212.97 98.2569 212.977 98.2448C212.983 98.2328 212.992 98.2227 213.003 98.2155C213.031 98.1972 213.062 98.1875 213.095 98.1875C213.127 98.1875 213.159 98.1972 213.186 98.2155C213.197 98.2227 213.206 98.2328 213.213 98.2448C213.219 98.2569 213.223 98.2705 213.223 98.2843C213.223 98.2982 213.219 98.3118 213.213 98.3238C213.206 98.3359 213.197 98.346 213.186 98.3531C213.159 98.3714 213.127 98.3811 213.095 98.3811C213.062 98.3811 213.031 98.3714 213.003 98.3531Z" fill="white"/>
<path d="M224.197 93.6474L223.519 92.9016L224.831 92.2935L225.498 93.0278L224.197 93.6474Z" fill="white"/>
<path d="M224.593 92.7778L224.066 93.0302L224.27 93.2597L224.797 93.0073L224.593 92.7778Z" fill="white"/>
<path d="M225.08 92.8397L225.016 92.8741L224.844 92.6906L224.919 92.6562L225.08 92.8397Z" fill="white"/>
<path d="M235.661 123.417L235.543 123.463L235.973 123.945L235.758 124.048L235.532 123.807L235.156 123.99L235.371 124.231L235.156 124.335L234.726 123.853L234.607 123.91L234.693 123.176L235.661 123.417Z" fill="#EBEBEB"/>
<path d="M247.087 117.543L245.818 118.139L245.668 117.979L246.936 117.371L247.087 117.543Z" fill="#EBEBEB"/>
<path d="M247.45 117.95L246.171 118.546L246.031 118.386L247.3 117.789L247.45 117.95Z" fill="#EBEBEB"/>
<path d="M247.815 118.34L246.546 118.937L246.406 118.776L247.675 118.18L247.815 118.34Z" fill="#EBEBEB"/>
<path d="M241.295 120.656L241.241 121.172L240.575 120.989L240.585 120.908L241.134 121.057L241.177 120.633L241.295 120.656Z" fill="#EBEBEB"/>
<path d="M241.183 122.134C240.968 122.135 240.756 122.091 240.558 122.002C240.36 121.913 240.181 121.782 240.032 121.617C239.91 121.49 239.817 121.332 239.763 121.159C239.709 120.985 239.694 120.8 239.721 120.619C239.755 120.451 239.827 120.295 239.929 120.163C240.032 120.031 240.164 119.928 240.312 119.862C240.603 119.742 240.921 119.715 241.226 119.785C241.532 119.854 241.812 120.016 242.032 120.252C242.153 120.381 242.244 120.539 242.296 120.712C242.348 120.886 242.361 121.07 242.333 121.25C242.301 121.419 242.23 121.576 242.127 121.708C242.024 121.84 241.891 121.943 241.742 122.007C241.566 122.09 241.375 122.133 241.183 122.134ZM240.893 120.883C240.979 120.943 241.08 120.975 241.183 120.975C241.094 120.922 240.994 120.891 240.893 120.883Z" fill="#EBEBEB"/>
<path d="M218.392 98.0415C218.348 98.0063 218.314 97.9589 218.293 97.9044C218.273 97.8499 218.267 97.7905 218.275 97.7325C218.284 97.6746 218.308 97.6203 218.344 97.5757C218.379 97.531 218.426 97.4977 218.478 97.4793C218.587 97.4496 218.702 97.4496 218.811 97.4793C218.831 97.4838 218.849 97.4935 218.864 97.5076C218.879 97.5216 218.891 97.5395 218.897 97.5596C218.897 97.5596 218.897 97.5596 218.811 97.5596C218.738 97.5356 218.659 97.5356 218.586 97.5596C218.55 97.5717 218.518 97.5942 218.493 97.6246C218.468 97.655 218.452 97.692 218.446 97.7317C218.441 97.7701 218.445 97.8092 218.459 97.8453C218.472 97.8814 218.493 97.9133 218.521 97.9382C218.587 98.0056 218.669 98.0531 218.758 98.0759C218.845 98.105 218.939 98.105 219.026 98.0759C219.057 98.066 219.085 98.0483 219.107 98.0243C219.13 98.0003 219.146 97.9707 219.155 97.9382C219.155 97.9382 219.22 97.9382 219.263 97.9382C219.306 97.9382 219.327 97.9382 219.263 98.03C219.248 98.0749 219.224 98.1158 219.192 98.1495C219.161 98.1832 219.122 98.209 219.08 98.225C218.96 98.2615 218.834 98.2638 218.713 98.2316C218.592 98.1993 218.482 98.1338 218.392 98.0415Z" fill="white"/>
<path d="M220.906 96.5068L220.734 96.5871L221.218 97.1264C221.225 97.1317 221.23 97.1387 221.234 97.1466C221.237 97.1546 221.239 97.1634 221.239 97.1723C221.239 97.1812 221.237 97.19 221.234 97.198C221.23 97.2059 221.225 97.2129 221.218 97.2182C221.2 97.2283 221.179 97.2335 221.159 97.2335C221.138 97.2335 221.118 97.2283 221.1 97.2182L220.616 96.6904L220.444 96.7707C220.426 96.7818 220.405 96.7876 220.385 96.7876C220.364 96.7876 220.343 96.7818 220.325 96.7707C220.325 96.7707 220.325 96.7707 220.325 96.6904L220.809 96.4609C220.826 96.4509 220.844 96.4456 220.863 96.4456C220.882 96.4456 220.9 96.4509 220.917 96.4609L220.906 96.5068Z" fill="white"/>
<path d="M224.028 111.554L234.995 106.368L232.21 103.293L221.254 108.479L224.028 111.554Z" fill="#455A64"/>
<path d="M236.002 105.884L234.991 106.366L234.131 105.425L236.002 105.884Z" fill="#455A64"/>
<path d="M232.104 104.167L222.395 108.756L222.352 108.699L232.05 104.109L232.104 104.167Z" fill="white"/>
<path d="M230.378 105.448L222.69 109.085L222.637 109.028L230.324 105.379L230.378 105.448Z" fill="white"/>
<path d="M232.174 105.486L223.261 109.709L223.207 109.651L232.12 105.429L232.174 105.486Z" fill="white"/>
<path d="M233.248 105.436L223.55 110.026L223.496 109.968L233.194 105.379L233.248 105.436Z" fill="white"/>
<path d="M233.539 105.76L223.83 110.35L223.776 110.293L233.485 105.703L233.539 105.76Z" fill="white"/>
<path d="M231.131 107.346L224.12 110.662L224.066 110.605L231.077 107.289L231.131 107.346Z" fill="white"/>
<path d="M230.577 118.835L241.544 113.649L238.759 110.562L227.803 115.76L230.577 118.835Z" fill="#455A64"/>
<path d="M242.561 113.154L241.551 113.636L240.701 112.695L242.561 113.154Z" fill="#455A64"/>
<path d="M238.682 111.44L228.973 116.03L228.919 115.972L238.628 111.383L238.682 111.44Z" fill="white"/>
<path d="M236.947 112.713L229.249 116.362L229.206 116.304L236.893 112.656L236.947 112.713Z" fill="white"/>
<path d="M238.735 112.769L229.822 116.992L229.779 116.934L238.681 112.712L238.735 112.769Z" fill="white"/>
<path d="M239.818 112.713L230.109 117.302L230.056 117.245L239.765 112.656L239.818 112.713Z" fill="white"/>
<path d="M240.102 113.034L230.393 117.623L230.35 117.566L240.048 112.977L240.102 113.034Z" fill="white"/>
<path d="M237.703 114.624L230.682 117.94L230.629 117.882L237.65 114.566L237.703 114.624Z" fill="white"/>
<path d="M230.463 99.7454L219.496 104.932L217.152 102.338L228.119 97.1523L230.463 99.7454Z" fill="#455A64"/>
<path d="M218.486 105.414L219.497 104.932L218.647 103.991L218.486 105.414Z" fill="#455A64"/>
<path d="M226.368 98.7527L218.282 102.573L218.229 102.516L226.314 98.6953L226.368 98.7527Z" fill="white"/>
<path d="M228.276 98.3032L218.577 102.893L218.523 102.835L228.222 98.2344L228.276 98.3032Z" fill="white"/>
<path d="M228.561 98.6052L218.852 103.195L218.798 103.137L228.507 98.5479L228.561 98.6052Z" fill="white"/>
<path d="M228.072 99.281L219.137 103.515L219.083 103.457L228.018 99.2236L228.072 99.281Z" fill="white"/>
<path d="M229.132 99.2449L219.423 103.846L219.369 103.777L229.078 99.1875L229.132 99.2449Z" fill="white"/>
<path d="M226.881 100.76L219.71 104.156L219.656 104.099L226.827 100.703L226.881 100.76Z" fill="white"/>
<path d="M232.581 102.096L221.614 107.282L219.883 105.354L230.839 100.168L232.581 102.096Z" fill="#455A64"/>
<path d="M220.604 107.759L221.614 107.277L220.765 106.336L220.604 107.759Z" fill="#455A64"/>
<path d="M230.686 101.015L221.009 105.605L220.945 105.536L230.643 100.958L230.686 101.015Z" fill="white"/>
<path d="M229.274 102.124L221.296 105.899L221.242 105.841L229.22 102.066L229.274 102.124Z" fill="white"/>
<path d="M230.356 102.078L221.583 106.231L221.529 106.174L230.303 102.02L230.356 102.078Z" fill="white"/>
<path d="M228.636 103.343L221.862 106.544L221.808 106.487L228.582 103.285L228.636 103.343Z" fill="white"/>
<path d="M239.128 109.361L228.171 114.547L225.72 111.828L236.676 106.642L239.128 109.361Z" fill="#DBDBDB"/>
<path d="M227.152 115.025L228.174 114.543L227.313 113.59L227.152 115.025Z" fill="#DBDBDB"/>
<path d="M236.861 108.67L227.689 113.007L227.636 112.95L236.807 108.613L236.861 108.67Z" fill="white"/>
<path d="M236.402 109.323L227.983 113.316L227.93 113.258L236.348 109.266L236.402 109.323Z" fill="white"/>
<path d="M235.754 108.283L227.12 112.368L227.066 112.31L235.711 108.226L235.754 108.283Z" fill="white"/>
<path d="M236.421 107.502L226.841 112.046L226.787 111.977L236.368 107.445L236.421 107.502Z" fill="white"/>
<path d="M236.977 109.511L228.257 113.63L228.203 113.572L236.923 109.453L236.977 109.511Z" fill="white"/>
<path d="M245.324 116.226L234.368 121.412L232.325 119.152L243.292 113.966L245.324 116.226Z" fill="#455A64"/>
<path d="M233.344 121.883L234.366 121.401L233.516 120.46L233.344 121.883Z" fill="#011E47"/>
<path d="M243.14 114.768L233.431 119.358L233.377 119.3L243.086 114.699L243.14 114.768Z" fill="white"/>
<path d="M243.418 115.093L233.72 119.683L233.666 119.625L243.365 115.036L243.418 115.093Z" fill="white"/>
<path d="M242.934 115.765L233.999 119.999L233.945 119.941L242.88 115.708L242.934 115.765Z" fill="white"/>
<path d="M243.99 115.721L234.292 120.311L234.238 120.254L243.937 115.664L243.99 115.721Z" fill="white"/>
<path d="M241.745 117.229L234.574 120.625L234.52 120.568L241.692 117.172L241.745 117.229Z" fill="white"/>
<path d="M237.002 128.754C240.969 128.811 228.088 120.241 227.895 115.422C227.701 110.603 232.088 112.129 235.561 114.848C247.582 124.279 256.657 123.809 262.753 132.827C268.849 141.846 237.002 128.754 237.002 128.754Z" fill="#F7A9A0"/>
<path d="M246.406 121.714C248.062 122.299 249.707 122.953 251.331 123.653C252.971 124.341 254.569 125.138 256.115 126.04C257.66 126.977 259.078 128.135 260.33 129.482C261.588 130.801 262.771 132.19 263.921 133.635L263.674 133.463L271.867 135.941C274.587 136.779 277.318 137.605 280.06 138.397C282.802 139.189 285.522 140.026 288.274 140.749C289.651 141.093 291.027 141.46 292.414 141.724C293.082 141.902 293.777 141.934 294.457 141.816C295.105 141.537 295.708 141.15 296.242 140.669C295.755 141.237 295.176 141.708 294.532 142.057C293.83 142.255 293.096 142.287 292.382 142.149C290.966 141.98 289.56 141.734 288.167 141.414C285.371 140.806 282.597 140.152 279.845 139.395C277.092 138.638 274.34 137.858 271.598 137.1C268.856 136.343 266.147 135.414 263.416 134.553H263.276L263.179 134.427C262.104 132.993 260.921 131.604 259.717 130.285C258.569 128.922 257.248 127.736 255.793 126.763C254.32 125.787 252.75 124.973 251.191 124.147C249.632 123.32 247.997 122.46 246.406 121.714Z" fill="#263238"/>
<path d="M326.247 147.375L304.84 125.77C308.597 118.773 312.744 112.022 317.258 105.554C324.892 94.5733 331.236 96.2026 331 114.629C330.878 125.73 329.277 136.756 326.247 147.375Z" fill="#FFD873"/>
<path d="M307.796 122.446C309.559 123.857 311.129 125.555 312.763 127.115C314.398 128.676 315.892 130.087 317.408 131.636C320.562 134.841 323.648 138.107 326.666 141.435C326.719 141.492 326.666 141.595 326.58 141.538C323.354 138.497 320.182 135.411 317.032 132.279C315.473 130.718 313.946 129.123 312.419 127.517C310.892 125.911 309.194 124.316 307.71 122.549C307.656 122.446 307.731 122.377 307.796 122.446Z" fill="#263238"/>
<path d="M306.03 122.791C306.557 121.793 307.105 120.817 307.697 119.842L308.051 119.245C308.524 117.903 309.008 116.561 309.6 115.287C309.6 115.287 309.686 115.287 309.675 115.287C309.363 116.331 308.976 117.352 308.6 118.373C309.473 116.886 310.421 115.45 311.438 114.071H311.503C310.428 116.09 309.352 118.029 308.213 120.003C307.686 120.955 304.987 125.602 304.987 125.648C305.205 125.875 305.41 126.116 305.6 126.371C305.686 126.554 305.6 126.485 305.535 126.439L304.46 125.625C304.46 125.625 305.578 123.605 306.03 122.791Z" fill="#263238"/>
<path d="M321.211 142.338C322.974 143.909 324.694 145.527 326.393 147.157L325.931 147.271C327.006 143.244 327.812 139.068 328.619 134.926L330.887 122.454C330.737 124.576 330.543 126.687 330.285 128.799C330.027 130.91 329.737 133.009 329.371 135.109C329.006 137.209 328.64 139.297 328.156 141.362C327.711 143.445 327.155 145.498 326.49 147.512L326.329 147.96L326.017 147.638C324.436 145.871 322.813 144.127 321.211 142.338Z" fill="#263238"/>
<path d="M331.423 125.605C331.343 126.452 331.151 127.283 330.854 128.072C330.571 128.874 330.168 129.622 329.66 130.287C329.819 129.459 330.05 128.649 330.348 127.866C330.633 127.075 330.993 126.317 331.423 125.605Z" fill="#263238"/>
<path d="M42.6421 166.755C42.6421 166.755 19.6113 163.313 24.9873 133.642C24.9873 133.642 50.7169 139.803 42.6421 166.755Z" fill="#50B59D"/>
<path opacity="0.1" d="M42.6421 166.755C42.6421 166.755 19.6113 163.313 24.9873 133.642C24.9873 133.642 50.7169 139.803 42.6421 166.755Z" fill="black"/>
<path d="M41.4735 160.554C41.0206 159.055 40.4967 157.58 39.9037 156.137C39.9037 155.942 39.9037 155.758 39.9037 155.575L39.807 154.347C39.7425 153.464 39.6887 152.58 39.6457 151.685C39.5489 149.918 39.4414 148.14 39.4091 146.373C39.4036 146.358 39.3939 146.345 39.3815 146.336C39.369 146.327 39.3543 146.322 39.3393 146.322C39.3242 146.322 39.3095 146.327 39.2971 146.336C39.2846 146.345 39.275 146.358 39.2694 146.373C39.2694 148.151 39.2694 149.918 39.2694 151.697C39.2694 152.592 39.3446 153.475 39.3984 154.359C39.3984 154.554 39.3984 154.749 39.3984 154.944C38.104 151.99 36.5562 149.171 34.775 146.522C33.9919 145.33 33.1521 144.181 32.259 143.08C31.3451 141.933 30.3774 140.888 29.442 139.776C29.442 139.707 29.2807 139.776 29.3452 139.89C31.0267 141.849 32.5349 143.969 33.8503 146.224C34.5492 147.371 35.2051 148.518 35.8395 149.666L35.6244 149.574L34.8073 149.218L32.9257 148.461C31.6892 147.979 30.4527 147.497 29.2162 146.992C29.1991 146.992 29.1827 147 29.1706 147.013C29.1585 147.026 29.1517 147.043 29.1517 147.061C29.1517 147.08 29.1585 147.097 29.1706 147.11C29.1827 147.123 29.1991 147.13 29.2162 147.13C30.4312 147.658 31.6462 148.209 32.8612 148.759L34.646 149.586L35.5384 149.976C35.7329 150.079 35.9388 150.156 36.1513 150.205C36.6136 151.1 37.076 151.984 37.4953 152.901C38.573 155.196 39.5139 157.56 40.3123 159.981C40.3123 160.153 40.4198 160.325 40.4843 160.486C39.8774 160.114 39.2448 159.791 38.592 159.522L36.205 158.374C34.5922 157.583 32.9794 156.78 31.4419 155.839C31.3666 155.839 31.2914 155.931 31.3774 155.976C32.9579 156.894 34.5062 157.881 36.0868 158.799C36.8824 159.258 37.6781 159.705 38.4952 160.118C39.1627 160.545 39.8881 160.858 40.6456 161.048C41.4137 163.294 41.9193 165.634 42.1509 168.012C42.409 171.374 42.3767 174.759 42.452 178.121C42.452 178.178 42.538 178.121 42.538 178.121C42.7638 175.08 42.8928 171.994 42.9143 168.942C42.8569 166.082 42.3705 163.25 41.4735 160.554Z" fill="#011E47"/>
<path d="M37.9379 143.113C37.7138 144.846 37.6347 146.597 37.7013 148.345C37.7013 148.345 37.7658 148.345 37.7766 148.345C37.8626 146.613 37.8841 144.903 38.0669 143.159C38.0776 143.044 37.9379 143.01 37.9379 143.113Z" fill="#50B59D"/>
<path d="M31.3445 144.566C30.3155 144.149 29.3256 143.631 28.3877 143.017C28.3124 143.017 28.2372 143.097 28.3124 143.143C29.2353 143.809 30.2465 144.323 31.3123 144.669C31.3123 144.669 31.3983 144.566 31.3445 144.566Z" fill="#50B59D"/>
<path d="M43.3742 213.861C43.3742 211.141 43.3097 208.434 43.2774 205.714C43.2774 196.696 43.1591 187.678 43.0086 178.659C42.8868 171.5 42.7291 164.34 42.5355 157.18C42.5422 157.166 42.5456 157.15 42.5456 157.135C42.5456 157.119 42.5422 157.103 42.5355 157.089V151.226C42.5355 151.226 42.5355 151.145 42.428 151.145C42.3205 151.145 42.3205 151.145 42.3205 151.226V157.1C42.3205 157.1 42.3205 157.1 42.3205 157.18C41.9764 169.928 41.6754 182.675 41.6109 195.422C41.6109 198.004 41.6109 200.597 41.6109 203.19C41.5356 211.497 41.4926 219.815 41.5248 228.122V232.092C41.5248 239.688 41.6001 247.295 41.6109 254.902C41.6109 255.304 42.0302 255.51 42.4818 255.533C42.9334 255.556 43.557 255.327 43.557 254.868C43.557 246.48 43.6215 238.093 43.557 229.717C43.4638 224.432 43.4029 219.146 43.3742 213.861Z" fill="#50B59D"/>
<path d="M33.7506 205.606C33.7506 205.606 22.676 196.851 12.1606 202.76C1.64506 208.669 0 231.445 0 231.445C0 231.445 15.4399 233.808 25.1598 223.929C34.5355 214.463 33.7506 205.606 33.7506 205.606Z" fill="#50B59D"/>
<path opacity="0.1" d="M33.7506 205.606C33.7506 205.606 22.676 196.851 12.1606 202.76C1.64506 208.669 0 231.445 0 231.445C0 231.445 15.4399 233.808 25.1598 223.929C34.5355 214.463 33.7506 205.606 33.7506 205.606Z" fill="black"/>
<path d="M36.7771 206.135C34.7296 205.27 32.5126 204.963 30.3259 205.24C29.878 205.16 29.4253 205.114 28.9712 205.102L27.4014 204.976C26.3262 204.884 25.251 204.816 24.1758 204.735C22.0253 204.552 19.7889 204.414 17.617 204.185C17.531 204.185 17.5202 204.322 17.617 204.322C19.7674 204.621 21.9178 204.953 24.0682 205.183C25.1434 205.298 26.2939 205.424 27.4121 205.516C27.6809 205.516 27.9497 205.516 28.2293 205.596C27.896 205.676 27.5626 205.756 27.2401 205.86C25.5008 206.396 23.8181 207.123 22.2189 208.028C21.348 208.2 20.4771 208.464 19.6276 208.671C18.2514 209.015 16.8859 209.394 15.5311 209.818C12.8431 210.575 10.1551 211.424 7.5101 212.251C7.49299 212.251 7.47658 212.258 7.46448 212.271C7.45238 212.284 7.44559 212.301 7.44559 212.319C7.44559 212.338 7.45238 212.355 7.46448 212.368C7.47658 212.381 7.49299 212.388 7.5101 212.388C10.1766 211.7 12.8861 211.057 15.5311 210.38L19.4234 209.382L20.4986 209.13C17.5198 211.097 14.8584 213.565 12.6173 216.438C10.4585 219.256 8.6213 222.337 7.14453 225.617C7.14453 225.709 7.2198 225.79 7.2628 225.698C9.08605 222.315 11.3123 219.199 13.8861 216.427C13.8861 216.588 13.7893 216.737 13.7463 216.897L13.1334 218.986C12.7141 220.385 12.3055 221.774 11.9184 223.174C11.9184 223.265 12.0152 223.288 12.0475 223.174C12.5205 221.82 12.9614 220.466 13.4022 219.112L14.0688 217.115L14.3914 216.071C14.3914 215.968 14.4667 215.865 14.4989 215.762C15.737 214.479 17.0515 213.283 18.4342 212.182C20.2575 210.745 22.2312 209.54 24.3155 208.59C24.3155 208.786 24.2403 208.992 24.1973 209.187L23.8747 210.805C23.6597 211.952 23.4554 213.1 23.2511 214.167C22.8317 216.461 22.5737 218.756 22.1759 221.051C22.1759 221.143 22.2941 221.189 22.3157 221.051C22.8102 218.756 23.4554 216.461 23.9392 214.167C24.1758 213.019 24.4231 211.872 24.6488 210.725C24.7456 210.185 24.8531 209.577 24.9499 209.095C25.0037 208.797 25.0789 208.499 25.1112 208.2C25.3047 208.109 25.509 208.005 25.7133 207.925C28.6202 206.619 31.8039 206.175 34.9278 206.64C36.396 206.936 37.7728 207.614 38.9359 208.615C40.0989 209.616 41.0121 210.908 41.594 212.377C41.6908 212.629 42.0779 212.469 42.0134 212.205C41.645 210.827 40.9795 209.561 40.0703 208.507C39.161 207.453 38.0332 206.641 36.7771 206.135Z" fill="#011E47"/>
<path d="M19.8717 215.888L18.9363 220.386C18.5925 221.82 18.3339 223.276 18.1621 224.746C18.1621 224.814 18.2374 224.814 18.2589 224.746C18.663 223.305 18.9756 221.837 19.1943 220.351C19.4631 218.871 19.7427 217.391 20.0115 215.911C19.9685 215.83 19.8717 215.796 19.8717 215.888Z" fill="#50B59D"/>
<path d="M9.12021 219.687C7.71169 220.444 6.33543 221.316 4.81939 221.982C4.73338 221.982 4.8194 222.177 4.88391 222.119C6.32732 221.43 7.73759 220.664 9.10946 219.824C9.10946 219.824 9.12021 219.664 9.12021 219.687Z" fill="#50B59D"/>
<path d="M36.2453 189.511C36.2453 189.511 22.7085 190.429 16.4078 180.906C10.1071 171.383 11.5264 157.775 11.5264 157.775C11.5264 157.775 25.7513 159.622 31.3961 166.461C37.041 173.299 36.2453 189.511 36.2453 189.511Z" fill="#50B59D"/>
<path d="M42.6024 203.763C42.1293 202.226 41.5272 200.7 41.0111 199.174C40.495 197.648 39.9359 196.271 39.323 194.848C38.1128 191.934 36.756 189.092 35.2587 186.335C34.3126 184.579 33.2804 182.893 32.2267 181.195C32.2267 180.942 32.1622 180.69 32.1299 180.426L31.9364 179.083C31.7966 178.177 31.6568 177.259 31.5063 176.353C31.1945 174.356 30.8074 172.371 30.5171 170.375C30.5171 170.283 30.3558 170.283 30.3773 170.375C30.6461 172.348 30.8289 174.333 31.087 176.307C31.216 177.271 31.3342 178.246 31.474 179.21C31.474 179.565 31.5815 179.909 31.6246 180.265C29.5652 177.029 27.3322 173.922 24.9368 170.96L23.9476 169.813C23.9476 169.698 23.8616 169.595 23.8186 169.48C23.7756 169.365 23.6143 168.929 23.5283 168.654C23.324 168.08 23.1304 167.506 22.9369 166.933C22.5606 165.785 22.2165 164.638 21.9262 163.491C21.9262 163.399 21.7757 163.491 21.7972 163.491C22.066 164.638 22.3563 165.866 22.6789 167.036C22.8401 167.598 23.0122 168.183 23.195 168.711L23.2917 168.986C21.5606 166.979 19.7651 165.04 17.9157 163.123C17.9094 163.117 17.9018 163.111 17.8935 163.108C17.8852 163.104 17.8763 163.102 17.8673 163.102C17.8583 163.102 17.8494 163.104 17.8411 163.108C17.8328 163.111 17.8253 163.117 17.8189 163.123C17.8126 163.13 17.8075 163.138 17.8041 163.147C17.8007 163.156 17.7989 163.165 17.7989 163.175C17.7989 163.185 17.8007 163.194 17.8041 163.203C17.8075 163.212 17.8126 163.22 17.8189 163.227C21.3167 167.148 24.52 171.356 27.399 175.813C27.0712 175.7 26.7372 175.608 26.3991 175.538C25.3239 175.331 24.3024 175.171 23.2487 175.022C21.0445 174.723 18.8511 174.425 16.647 174.058C16.5609 174.058 16.5287 174.184 16.647 174.207C18.7974 174.643 20.8188 175.148 22.9047 175.664C23.8938 175.905 24.8723 176.112 25.8722 176.318C26.6784 176.503 27.4722 176.744 28.2484 177.041L28.9043 178.039C29.9042 179.577 30.8504 181.16 31.7858 182.743L30.4096 182.434C29.3344 182.216 28.2592 182.009 27.2592 181.826C25.1948 181.47 23.1304 181.08 21.0876 180.586C21.0015 180.586 20.9693 180.713 21.0876 180.736C23.1519 181.252 25.2056 181.883 27.2592 182.445C28.2484 182.721 29.2484 182.984 30.2483 183.214L31.6998 183.581C31.9008 183.635 32.1059 183.67 32.3127 183.684C34.2911 187.126 36.1512 190.569 37.8607 194.183C38.6241 195.755 39.3445 197.35 40.0111 198.944C40.6778 200.539 41.3551 202.26 42.0218 203.924C42.2153 204.234 42.7099 204.13 42.6024 203.763Z" fill="#011E47"/>
<path d="M28.7432 170.571C28.4851 169.182 28.2163 167.817 27.926 166.44C27.926 166.348 27.7755 166.44 27.797 166.44C28.0551 167.794 28.2916 169.148 28.5282 170.513C28.7184 171.873 28.9732 173.221 29.2915 174.552C29.1985 173.213 29.0152 171.882 28.7432 170.571Z" fill="#50B59D"/>
<path d="M20.8491 170.169C20.2147 169.825 19.5589 169.561 18.903 169.286L17.8278 168.861L17.3117 168.632C17.1097 168.577 16.9173 168.488 16.7418 168.368C16.6343 168.288 16.5698 168.483 16.6666 168.494C16.8685 168.554 17.0633 168.639 17.2472 168.747L17.7633 168.999L18.7525 169.469C19.4055 169.784 20.073 170.064 20.7523 170.307C20.8706 170.33 20.9459 170.204 20.8491 170.169Z" fill="#50B59D"/>
<path d="M50.1055 178.147C50.1055 178.147 58.2985 161.809 70.7601 159.285C83.2217 156.76 90.8341 170.437 90.8341 170.437C90.8341 170.437 81.7487 182.829 70.3085 184.997C58.8684 187.166 50.1055 178.147 50.1055 178.147Z" fill="#50B59D"/>
<path d="M79.1154 166.611C75.869 166.148 72.5768 166.19 69.3418 166.737L69.9009 166.416L72.6642 164.901C74.564 163.778 76.5163 162.76 78.5133 161.849C78.5256 161.849 78.5377 161.846 78.5484 161.839C78.5592 161.833 78.5684 161.824 78.5751 161.813C78.5819 161.802 78.586 161.789 78.5872 161.776C78.5883 161.763 78.5864 161.75 78.5817 161.738C78.577 161.726 78.5695 161.715 78.56 161.707C78.5505 161.698 78.5393 161.693 78.5272 161.69C78.5152 161.687 78.5027 161.688 78.4909 161.692C78.4791 161.695 78.4683 161.702 78.4595 161.711C76.5134 162.675 74.4921 163.49 72.5352 164.454C71.5567 164.936 70.5891 165.429 69.6429 165.968C69.03 166.324 68.3419 166.645 67.7398 167.058C65.0031 167.656 62.343 168.6 59.8155 169.869C60.3424 169.273 60.8907 168.664 61.3746 168.056C62.5358 166.702 63.6755 165.28 64.955 164.041C64.9678 164.027 64.975 164.008 64.975 163.989C64.975 163.97 64.9678 163.951 64.955 163.937C64.9422 163.924 64.9248 163.916 64.9066 163.916C64.8885 163.916 64.8711 163.924 64.8582 163.937C63.5465 165.199 62.1702 166.37 60.9122 167.689C60.2994 168.32 59.708 168.986 59.1381 169.663C58.8478 170.007 58.5683 170.351 58.2887 170.718C54.0071 173.166 50.2875 176.596 47.3982 180.763C44.5089 184.929 42.5218 189.728 41.5801 194.813C41.5801 194.905 41.6876 194.951 41.7091 194.813C43.4707 188.589 46.6174 182.913 50.8806 178.268C55.4647 173.272 61.2372 169.702 67.5785 167.942C71.3389 166.907 75.2299 166.52 79.1047 166.794C79.1273 166.77 79.141 166.739 79.143 166.705C79.145 166.671 79.1352 166.637 79.1154 166.611Z" fill="#011E47"/>
<path opacity="0.1" d="M90.8374 170.446C90.8374 170.446 81.7519 182.838 70.3118 184.995C61.5811 186.647 54.3987 181.782 51.4849 179.396L50.8613 178.249C50.8613 178.249 56.7642 172.936 67.9248 169.873C79.0854 166.809 90.8374 170.446 90.8374 170.446Z" fill="black"/>
<path d="M71.8788 160.781C70.9271 161.38 70.0048 162.031 69.1155 162.731C68.2476 163.415 67.4412 164.183 66.7071 165.026C66.6426 165.107 66.7071 165.198 66.8146 165.129C67.6425 164.372 68.4704 163.603 69.3306 162.835C70.166 162.109 71.0422 161.439 71.9541 160.827C72.0293 160.861 71.9541 160.735 71.8788 160.781Z" fill="#50B59D"/>
<path d="M78.7145 163.545L77.3167 164.142L75.9297 164.75C75.833 164.75 75.9297 164.968 75.9297 164.922L77.3167 164.325C77.7898 164.119 78.2414 163.889 78.7038 163.694C78.8435 163.66 78.8005 163.511 78.7145 163.545Z" fill="#50B59D"/>
<path d="M48.4727 198.705C48.4727 198.705 50.6231 214.906 62.074 220.574C73.5249 226.242 87.4166 220.574 87.4166 220.574C87.4166 220.574 81.9438 185.521 48.4727 198.705Z" fill="#50B59D"/>
<path opacity="0.1" d="M48.4727 198.705C48.4727 198.705 50.6231 214.906 62.074 220.574C73.5249 226.242 87.4166 220.574 87.4166 220.574C87.4166 220.574 81.9438 185.521 48.4727 198.705Z" fill="black"/>
<path d="M79.5428 210.031C78.4676 209.905 77.3924 209.71 76.4032 209.504C75.8871 209.412 75.328 209.309 74.8657 209.194L74.07 209.022L73.1453 208.115C70.9766 206.088 68.637 204.279 66.1565 202.711C64.8053 201.86 63.4087 201.094 61.974 200.416H62.189L65.9415 200.589C68.4574 200.715 70.9519 200.772 73.4679 200.944C73.5647 200.944 73.5539 200.807 73.4679 200.795C70.9519 200.611 68.4574 200.325 65.9415 200.084L62.2965 199.739L60.4042 199.636H59.9203C59.2644 199.384 58.6086 199.131 57.9527 198.913C54.8383 197.774 51.4894 197.575 48.2759 198.34C45.4051 199.131 42.545 201.139 41.8246 204.375C41.8246 204.478 41.9537 204.558 41.9967 204.444C43.0719 201.747 45.8782 200.382 48.4479 199.854C50.1542 199.51 51.9025 199.475 53.6196 199.751C53.737 200.587 53.9278 201.409 54.1895 202.206C54.512 203.354 54.8239 204.501 55.1464 205.648C55.7915 207.943 56.5012 210.169 57.1355 212.452C57.1355 212.544 57.2968 212.452 57.2753 212.452C56.7377 210.158 56.2969 207.863 55.7808 205.568L55.0066 202.206C54.8557 201.43 54.6618 200.664 54.426 199.912C55.4286 200.095 56.4197 200.344 57.3936 200.657C59.156 201.212 60.8834 201.887 62.5653 202.677C62.7374 203.824 62.9739 204.971 63.2212 206.119C63.533 207.542 63.8878 208.964 64.2964 210.364C64.2964 210.382 64.3032 210.4 64.3153 210.413C64.3274 210.426 64.3438 210.433 64.3609 210.433C64.378 210.433 64.3944 210.426 64.4065 210.413C64.4186 210.4 64.4254 210.382 64.4254 210.364C64.4254 210.272 64.4254 210.192 64.3717 210.1C64.1136 208.769 63.8448 207.45 63.576 206.13C63.3717 205.063 63.1782 203.985 62.9524 202.918C64.3717 203.606 65.7694 204.34 67.1134 205.212C67.1134 205.545 67.221 205.889 67.264 206.188C67.35 206.738 67.4467 207.335 67.5435 207.851C67.7586 209.102 67.9844 210.341 68.2639 211.58C68.7854 213.969 69.4425 216.322 70.2315 218.625C70.2209 218.638 70.2151 218.654 70.2151 218.671C70.2151 218.688 70.2209 218.704 70.2315 218.717L70.296 218.797C70.296 218.866 70.4251 218.797 70.4143 218.728C69.8875 216.319 69.3391 213.944 68.7908 211.534C68.5435 210.387 68.2962 209.125 68.0596 207.92L67.737 206.107C67.737 205.935 67.737 205.752 67.6618 205.568C69.1978 206.528 70.6804 207.581 72.1024 208.723C74.5658 210.695 76.845 212.916 78.9084 215.355C78.9944 215.458 79.1557 215.355 79.0804 215.206C78.2095 213.99 77.3386 212.797 76.3602 211.672C75.7796 211.007 75.1882 210.376 74.5861 209.756H74.7689C75.3065 209.859 75.8441 209.94 76.3817 210.02C77.4569 210.169 78.5321 210.272 79.6073 210.41C79.5965 210.181 79.6288 210.043 79.5428 210.031Z" fill="#011E47"/>
<path d="M71.4823 215.531L71.4178 215.106C71.4178 214.923 71.2995 214.751 71.278 214.578C71.0415 213.5 70.8372 212.41 70.6544 211.308C70.6544 211.24 70.5254 211.308 70.5361 211.308C70.6015 212.761 70.8922 214.191 71.3963 215.542C71.3963 215.542 71.493 215.542 71.4823 215.542V215.531Z" fill="#50B59D"/>
<path d="M61.9625 215.266C61.9625 215.257 61.9608 215.248 61.9576 215.24C61.9543 215.231 61.9496 215.224 61.9436 215.217C61.9376 215.211 61.9305 215.206 61.9227 215.202C61.9148 215.199 61.9064 215.197 61.898 215.197C61.5754 213.763 61.2636 212.329 60.9948 210.883C60.8443 210.126 60.6937 209.369 60.5539 208.588C60.4894 208.187 60.4142 207.774 60.3497 207.361C60.3118 206.999 60.2287 206.644 60.1024 206.305C60.0957 206.293 60.0862 206.283 60.0749 206.277C60.0636 206.27 60.0508 206.266 60.0379 206.266C60.0249 206.266 60.0121 206.27 60.0008 206.277C59.9895 206.283 59.98 206.293 59.9733 206.305C59.9587 207.044 60.0568 207.78 60.2636 208.485C60.4034 209.265 60.5432 210.057 60.7045 210.849C61.0378 212.443 61.4141 214.038 61.7797 215.61C61.7797 215.702 61.941 215.679 61.9302 215.61C61.9195 215.541 61.9732 215.381 61.9625 215.266Z" fill="#50B59D"/>
<path d="M78.5027 205.376C76.4168 205.078 74.3309 204.745 72.245 204.481C72.159 204.481 72.1268 204.608 72.245 204.631C74.3309 204.952 76.4168 205.227 78.5027 205.526C78.5565 205.526 78.5995 205.376 78.5027 205.376Z" fill="#50B59D"/>
<path d="M42.62 160.712C42.62 160.712 35.6311 128.001 68.5646 114.817C68.5646 114.737 77.6824 157.821 42.62 160.712Z" fill="#50B59D"/>
<path d="M49.7302 142.169L50.085 141.939L51.9451 140.792L55.7621 138.497C58.2781 136.994 60.7618 135.434 63.2885 133.965C63.3638 133.965 63.2885 133.793 63.2132 133.839C60.6758 135.307 58.106 136.684 55.547 138.118L51.7731 140.252L50.2355 141.124C51.3107 138.899 52.5042 136.719 53.7945 134.619C55.5148 131.819 57.3964 129.146 59.364 126.587C59.3768 126.563 59.3819 126.535 59.3784 126.508C59.375 126.481 59.3632 126.455 59.3448 126.436C59.3265 126.416 59.3027 126.404 59.277 126.4C59.2514 126.396 59.2253 126.402 59.2027 126.415C56.3131 129.414 53.7586 132.76 51.5903 136.386C51.5848 136.271 51.5848 136.156 51.5903 136.042C51.5903 135.231 51.6118 134.416 51.6548 133.598C51.6548 132.003 51.6548 130.408 51.6548 128.813C51.6492 128.798 51.6396 128.786 51.6271 128.777C51.6147 128.768 51.6 128.763 51.5849 128.763C51.5699 128.763 51.5552 128.768 51.5427 128.777C51.5303 128.786 51.5206 128.798 51.515 128.813C51.4505 130.385 51.2677 131.946 51.1925 133.517C51.1925 134.309 51.1172 135.089 51.0957 135.812C51.0957 136.237 51.0957 136.719 51.0957 137.189C50.4076 138.336 49.7625 139.484 49.1496 140.631C48.0449 142.762 47.0611 144.961 46.2035 147.217C46.2035 146.399 46.1605 145.584 46.0745 144.773C45.9777 142.983 45.7735 141.205 45.7089 139.415C45.7089 139.312 45.5584 139.323 45.5692 139.415C45.5692 141.205 45.5692 142.995 45.5692 144.796C45.5692 145.691 45.6229 146.586 45.6767 147.469L45.7412 148.479C44.6903 151.399 43.8562 154.403 43.2467 157.463C42.6687 160.792 42.2524 164.151 41.9995 167.526C41.9995 167.526 41.9995 167.526 41.9995 167.526C42.3428 164.54 42.9255 161.592 43.7413 158.714C44.1499 157.165 44.58 155.639 45.0423 154.124C46.4186 153.436 47.7196 152.575 49.0528 151.829C50.3861 151.084 51.8053 150.223 53.1816 149.409C55.9234 147.802 58.6651 146.173 61.5037 144.75C61.5897 144.75 61.5037 144.578 61.4284 144.624C58.5576 146.012 55.6653 147.332 52.8268 148.835C51.4183 149.592 50.042 150.395 48.6765 151.221C47.5368 151.91 46.3541 152.598 45.2681 153.378C45.5799 152.369 45.9132 151.348 46.2788 150.349C47.2976 147.561 48.4495 144.831 49.7302 142.169Z" fill="#011E47"/>
<path d="M46.9548 134.679C46.9548 134.587 46.8043 134.587 46.815 134.679C46.9333 136.538 46.987 138.408 47.1806 140.267C47.1806 140.288 47.1885 140.309 47.2026 140.324C47.2167 140.339 47.2359 140.347 47.2558 140.347C47.2758 140.347 47.295 140.339 47.3091 140.324C47.3232 140.309 47.3311 140.288 47.3311 140.267C47.2666 138.408 47.0838 136.538 46.9548 134.679Z" fill="#50B59D"/>
<path d="M62.7388 140.927C60.6744 141.81 58.5992 142.648 56.5456 143.566C56.5456 143.566 56.5456 143.692 56.5456 143.669C58.6315 142.832 60.6744 141.925 62.7495 141.065C62.758 141.064 62.7662 141.061 62.7738 141.057C62.7813 141.053 62.7881 141.047 62.7936 141.04C62.799 141.034 62.8032 141.026 62.8058 141.017C62.8084 141.008 62.8094 140.999 62.8086 140.99C62.8079 140.981 62.8056 140.972 62.8017 140.964C62.7978 140.956 62.7924 140.949 62.786 140.943C62.7795 140.937 62.772 140.933 62.7639 140.93C62.7558 140.927 62.7472 140.926 62.7388 140.927Z" fill="#50B59D"/>
<path d="M65.8694 125.855C63.8577 126.844 61.9044 127.963 60.0202 129.205C60.0003 129.218 59.9857 129.238 59.9796 129.261C59.9736 129.285 59.9766 129.31 59.988 129.332C59.9994 129.353 60.0183 129.369 60.0404 129.375C60.0626 129.381 60.0863 129.378 60.1063 129.366C62.0201 128.219 63.9662 127.071 65.9446 125.924C66.0306 125.935 65.9554 125.821 65.8694 125.855Z" fill="#50B59D"/>
<path d="M65.3726 231.45H17.8809V284.872H65.3726V231.45Z" fill="#455A64"/>
<path d="M17.0452 250.333H14.6152V341.824H17.0452V250.333Z" fill="#50B59D"/>
<path d="M68.3811 250.333H65.9512V341.824H68.3811V250.333Z" fill="#50B59D"/>
<path d="M44.01 250.333H41.5801V341.824H44.01V250.333Z" fill="#50B59D"/>
<path d="M67.1668 281.422H15.8259V288.823H67.1668V281.422Z" fill="#50B59D"/>
<path d="M105.111 88.4736H207.256V31.2656H105.111V88.4736Z" fill="#B4C0D2"/>
<path d="M223.059 88.4725H207.254V70.9062L223.059 88.4725Z" fill="#B4C0D2"/>
<path d="M197.47 41.1646H114.883V42.2546H197.47V41.1646Z" fill="white"/>
<path d="M166.095 47.0359H114.883V48.1259H166.095V47.0359Z" fill="white"/>
<path d="M185.04 58.7617H114.883V59.8517H185.04V58.7617Z" fill="white"/>
<path d="M197.469 64.6445H114.883V65.7345H197.469V64.6445Z" fill="white"/>
<path d="M197.469 70.5078H114.883V71.5978H197.469V70.5078Z" fill="white"/>
<path d="M155.601 76.3867H114.883V77.4767H155.601V76.3867Z" fill="white"/>
<path d="M147.056 148.348H206.579V109.601H147.056V148.348Z" fill="#50B59D"/>
<path d="M206.581 126.467V109.601H223.043L206.581 126.467Z" fill="#50B59D"/>
<path d="M165.286 128.965C165.286 129.471 165.145 129.966 164.882 130.386C164.618 130.807 164.244 131.135 163.805 131.329C163.367 131.522 162.885 131.573 162.42 131.474C161.955 131.376 161.528 131.132 161.193 130.774C160.857 130.416 160.629 129.96 160.536 129.464C160.444 128.968 160.491 128.453 160.673 127.986C160.854 127.518 161.162 127.119 161.556 126.837C161.95 126.556 162.414 126.406 162.888 126.406C163.524 126.406 164.134 126.676 164.583 127.156C165.033 127.635 165.286 128.286 165.286 128.965Z" fill="white"/>
<path d="M179.215 128.965C179.215 129.471 179.075 129.966 178.811 130.386C178.548 130.807 178.173 131.135 177.735 131.329C177.297 131.522 176.815 131.573 176.35 131.474C175.885 131.376 175.458 131.132 175.122 130.774C174.787 130.416 174.559 129.96 174.466 129.464C174.373 128.968 174.421 128.453 174.602 127.986C174.784 127.518 175.091 127.119 175.486 126.837C175.88 126.556 176.343 126.406 176.818 126.406C177.454 126.406 178.063 126.676 178.513 127.156C178.963 127.635 179.215 128.286 179.215 128.965Z" fill="white"/>
<path d="M193.151 128.965C193.151 129.471 193.01 129.966 192.747 130.386C192.483 130.807 192.109 131.135 191.671 131.329C191.233 131.522 190.751 131.573 190.285 131.474C189.82 131.376 189.393 131.132 189.058 130.774C188.722 130.416 188.494 129.96 188.402 129.464C188.309 128.968 188.357 128.453 188.538 127.986C188.719 127.518 189.027 127.119 189.421 126.837C189.815 126.556 190.279 126.406 190.753 126.406C191.389 126.406 191.999 126.676 192.449 127.156C192.898 127.635 193.151 128.286 193.151 128.965Z" fill="white"/>
<path d="M385.086 229.883H282.941V280.333H385.086V229.883Z" fill="#50B59D"/>
<path d="M267.135 280.333H282.941V262.766L267.135 280.333Z" fill="#50B59D"/>
<path d="M367.099 256.227H292.92V257.317H367.099V256.227Z" fill="white"/>
<path d="M355.476 262.109H292.92V263.199H355.476V262.109Z" fill="white"/>
<path d="M358.863 244.499H292.92V245.589H358.863V244.499Z" fill="white"/>
<path d="M373.625 238.62H292.92V239.71H373.625V238.62Z" fill="white"/>
<path d="M360.131 267.966H292.92V269.056H360.131V267.966Z" fill="white"/>
</svg>
