<svg width="324" height="382" viewBox="0 0 324 382" fill="none" xmlns="http://www.w3.org/2000/svg">
<path d="M31.5604 74.8776C31.4705 74.6231 31.3051 74.3994 31.0846 74.2342C30.8641 74.069 30.5981 73.9696 30.3195 73.9481L22.1695 73.3252L18.6428 65.8164C18.5305 65.5745 18.3478 65.3691 18.1168 65.2249C17.8858 65.0807 17.6163 65.0039 17.3409 65.0038C17.0655 65.0036 16.796 65.0802 16.5648 65.2241C16.3336 65.368 16.1507 65.5733 16.0381 65.815L12.5114 73.3252L4.36141 73.9481C4.08758 73.969 3.8258 74.0653 3.60739 74.2255C3.38898 74.3857 3.22318 74.6031 3.12983 74.8515C3.03648 75.1 3.01953 75.3691 3.08101 75.6266C3.14249 75.8841 3.2798 76.1191 3.47651 76.3035L9.49927 81.9506L7.36922 90.8221C7.30454 91.0906 7.32527 91.3717 7.42872 91.6287C7.53216 91.8858 7.71355 92.107 7.94934 92.2637C8.18513 92.4204 8.46444 92.5053 8.75102 92.5074C9.03759 92.5095 9.31821 92.4287 9.55646 92.2755L17.3405 87.2842L25.1244 92.2755C25.368 92.431 25.6551 92.511 25.9474 92.5049C26.2396 92.4987 26.5228 92.4066 26.759 92.241C26.9952 92.0754 27.173 91.8442 27.2685 91.5785C27.364 91.3127 27.3725 91.0253 27.2931 90.7547L24.6784 81.9547L31.1629 76.342C31.5875 75.9735 31.7433 75.3987 31.5604 74.8776Z" fill="#FDCC4F"/>
<path d="M74.239 74.8776C74.1491 74.6231 73.9837 74.3994 73.7632 74.2342C73.5427 74.069 73.2767 73.9696 72.9981 73.9481L64.8482 73.3252L61.3214 65.8164C61.2091 65.5745 61.0264 65.3691 60.7954 65.2249C60.5644 65.0807 60.2949 65.0039 60.0195 65.0038C59.7441 65.0036 59.4746 65.0802 59.2434 65.2241C59.0122 65.368 58.8293 65.5733 58.7167 65.815L55.19 73.3252L47.04 73.9481C46.7662 73.969 46.5044 74.0653 46.286 74.2255C46.0676 74.3857 45.9018 74.6031 45.8084 74.8515C45.7151 75.1 45.6981 75.3691 45.7596 75.6266C45.8211 75.8841 45.9584 76.1191 46.1551 76.3035L52.1779 81.9506L50.0478 90.8221C49.9832 91.0906 50.0039 91.3717 50.1073 91.6287C50.2108 91.8858 50.3922 92.107 50.628 92.2637C50.8637 92.4204 51.1431 92.5053 51.4296 92.5074C51.7162 92.5095 51.9968 92.4287 52.2351 92.2755L60.0191 87.2842L67.8031 92.2755C68.0466 92.431 68.3338 92.511 68.626 92.5049C68.9182 92.4987 69.2014 92.4066 69.4376 92.241C69.6738 92.0754 69.8516 91.8442 69.9471 91.5785C70.0426 91.3127 70.0512 91.0253 69.9717 90.7547L67.357 81.9547L73.8416 76.342C74.2661 75.9735 74.422 75.3987 74.239 74.8776Z" fill="#FDCC4F"/>
<path d="M115.243 74.8776C115.153 74.6231 114.988 74.3994 114.767 74.2342C114.547 74.069 114.281 73.9696 114.002 73.9481L105.852 73.3252L102.326 65.8164C102.213 65.5745 102.031 65.3691 101.8 65.2249C101.569 65.0807 101.299 65.0039 101.024 65.0038C100.748 65.0036 100.479 65.0802 100.248 65.2241C100.016 65.368 99.8336 65.5733 99.721 65.815L96.1942 73.3252L88.0443 73.9481C87.7704 73.969 87.5087 74.0653 87.2903 74.2255C87.0718 74.3857 86.906 74.6031 86.8127 74.8515C86.7193 75.1 86.7024 75.3691 86.7639 75.6266C86.8254 75.8841 86.9627 76.1191 87.1594 76.3035L93.1821 81.9506L91.0521 90.8221C90.9874 91.0906 91.0081 91.3717 91.1116 91.6287C91.215 91.8858 91.3964 92.107 91.6322 92.2637C91.868 92.4204 92.1473 92.5053 92.4339 92.5074C92.7205 92.5095 93.0011 92.4287 93.2393 92.2755L101.023 87.2842L108.807 92.2755C109.051 92.431 109.338 92.511 109.63 92.5049C109.922 92.4987 110.206 92.4066 110.442 92.241C110.678 92.0754 110.856 91.8442 110.951 91.5785C111.047 91.3127 111.055 91.0253 110.976 90.7547L108.361 81.9547L114.846 76.342C115.27 75.9735 115.426 75.3987 115.243 74.8776Z" fill="#FDCC4F"/>
<path d="M156.247 74.8776C156.158 74.6231 155.992 74.3994 155.772 74.2342C155.551 74.069 155.285 73.9696 155.007 73.9481L146.857 73.3252L143.33 65.8164C143.218 65.5745 143.035 65.3691 142.804 65.2249C142.573 65.0807 142.303 65.0039 142.028 65.0038C141.753 65.0036 141.483 65.0802 141.252 65.2241C141.021 65.368 140.838 65.5733 140.725 65.815L137.199 73.3252L129.049 73.9481C128.775 73.969 128.513 74.0653 128.295 74.2255C128.076 74.3857 127.91 74.6031 127.817 74.8515C127.724 75.1 127.707 75.3691 127.768 75.6266C127.83 75.8841 127.967 76.1191 128.164 76.3035L134.186 81.9506L132.056 90.8221C131.992 91.0906 132.012 91.3717 132.116 91.6287C132.219 91.8858 132.401 92.107 132.636 92.2637C132.872 92.4204 133.152 92.5053 133.438 92.5074C133.725 92.5095 134.005 92.4287 134.244 92.2755L142.028 87.2842L149.812 92.2755C150.055 92.431 150.342 92.511 150.634 92.5049C150.927 92.4987 151.21 92.4066 151.446 92.241C151.682 92.0754 151.86 91.8442 151.956 91.5785C152.051 91.3127 152.06 91.0253 151.98 90.7547L149.366 81.9547L155.85 76.342C156.275 75.9735 156.43 75.3987 156.247 74.8776Z" fill="#FDCC4F"/>
<path d="M197.25 74.8776C197.16 74.6231 196.995 74.3994 196.774 74.2342C196.554 74.069 196.288 73.9696 196.009 73.9481L187.859 73.3252L184.332 65.8164C184.22 65.5745 184.037 65.3691 183.806 65.2249C183.575 65.0807 183.306 65.0039 183.03 65.0038C182.755 65.0036 182.485 65.0802 182.254 65.2241C182.023 65.368 181.84 65.5733 181.728 65.815L178.201 73.3252L170.051 73.9481C169.777 73.969 169.515 74.0653 169.297 74.2255C169.078 74.3857 168.913 74.6031 168.819 74.8515C168.726 75.1 168.709 75.3691 168.77 75.6266C168.832 75.8841 168.969 76.1191 169.166 76.3035L175.189 81.9506L173.059 90.8221C172.994 91.0906 173.015 91.3717 173.118 91.6287C173.222 91.8858 173.403 92.107 173.639 92.2637C173.875 92.4204 174.154 92.5053 174.44 92.5074C174.727 92.5095 175.008 92.4287 175.246 92.2755L183.03 87.2842L190.814 92.2755C191.057 92.431 191.345 92.511 191.637 92.5049C191.929 92.4987 192.212 92.4066 192.448 92.241C192.685 92.0754 192.862 91.8442 192.958 91.5785C193.053 91.3127 193.062 91.0253 192.983 90.7547L190.368 81.9547L196.852 76.342C197.277 75.9735 197.433 75.3987 197.25 74.8776Z" fill="#FDCC4F"/>
<path d="M33.2124 26.6278V12.1628C33.2124 11.0078 33.2949 9.74281 33.4599 8.36781L20.1499 26.6278H33.2124ZM43.8274 26.6278V30.0378C43.8274 30.3678 43.7174 30.652 43.4974 30.8903C43.2957 31.1286 42.984 31.2478 42.5624 31.2478H38.3549V41.2578H33.2124V31.2478H16.0799C15.6582 31.2478 15.2915 31.1286 14.9799 30.8903C14.6865 30.6336 14.494 30.322 14.4024 29.9553L13.7974 26.9303L32.7999 1.63031H38.3549V26.6278H43.8274ZM50.1842 37.8478C50.1842 37.3161 50.2758 36.8211 50.4592 36.3628C50.6608 35.8861 50.9267 35.4736 51.2567 35.1253C51.605 34.777 52.0083 34.502 52.4667 34.3003C52.9433 34.0986 53.4475 33.9978 53.9792 33.9978C54.5108 33.9978 55.0058 34.0986 55.4642 34.3003C55.9408 34.502 56.3533 34.777 56.7017 35.1253C57.05 35.4736 57.325 35.8861 57.5267 36.3628C57.7283 36.8211 57.8292 37.3161 57.8292 37.8478C57.8292 38.3978 57.7283 38.902 57.5267 39.3603C57.325 39.8186 57.05 40.222 56.7017 40.5703C56.3533 40.9186 55.9408 41.1845 55.4642 41.3678C55.0058 41.5695 54.5108 41.6703 53.9792 41.6703C53.4475 41.6703 52.9433 41.5695 52.4667 41.3678C52.0083 41.1845 51.605 40.9186 51.2567 40.5703C50.9267 40.222 50.6608 39.8186 50.4592 39.3603C50.2758 38.902 50.1842 38.3978 50.1842 37.8478ZM71.1572 13.4278C71.1572 15.7745 71.7805 17.5803 73.0272 18.8453C74.2922 20.092 76.0522 20.7153 78.3072 20.7153C79.5172 20.7153 80.5805 20.5228 81.4972 20.1378C82.4322 19.7528 83.2205 19.2395 83.8622 18.5978C84.5039 17.9378 84.9897 17.177 85.3197 16.3153C85.6497 15.4353 85.8147 14.5003 85.8147 13.5103C85.8147 12.3553 85.6314 11.3286 85.2647 10.4303C84.9164 9.51365 84.4122 8.73448 83.7522 8.09281C83.1105 7.45114 82.3405 6.96531 81.4422 6.63531C80.5439 6.28698 79.563 6.11281 78.4997 6.11281C77.3814 6.11281 76.373 6.29614 75.4747 6.66281C74.5764 7.02948 73.8064 7.54281 73.1647 8.20281C72.523 8.84448 72.028 9.61448 71.6797 10.5128C71.3314 11.3928 71.1572 12.3645 71.1572 13.4278ZM81.3047 25.7203C81.6714 25.262 82.0105 24.8311 82.3222 24.4278C82.6339 24.0061 82.9272 23.5845 83.2022 23.1628C82.2489 23.8411 81.1855 24.3636 80.0122 24.7303C78.8389 25.0786 77.5922 25.2528 76.2722 25.2528C74.8422 25.2528 73.4672 25.0145 72.1472 24.5378C70.8272 24.0428 69.6539 23.3186 68.6272 22.3653C67.6005 21.3936 66.7755 20.202 66.1522 18.7903C65.5472 17.3603 65.2447 15.7195 65.2447 13.8678C65.2447 12.1261 65.5655 10.4853 66.2072 8.94531C66.8672 7.40531 67.7839 6.06698 68.9572 4.93031C70.1305 3.77531 71.533 2.86781 73.1647 2.20781C74.7964 1.54781 76.6022 1.21781 78.5822 1.21781C80.5439 1.21781 82.3222 1.53864 83.9172 2.18031C85.5122 2.80364 86.8689 3.69281 87.9872 4.84781C89.1055 5.98448 89.9672 7.35031 90.5722 8.94531C91.1772 10.522 91.4797 12.2636 91.4797 14.1703C91.4797 15.362 91.3697 16.4895 91.1497 17.5528C90.948 18.6161 90.6455 19.652 90.2422 20.6603C89.8572 21.6503 89.3805 22.6311 88.8122 23.6028C88.2622 24.5561 87.6389 25.5278 86.9422 26.5178L77.6197 39.8828C77.3447 40.2861 76.9322 40.6161 76.3822 40.8728C75.8505 41.1295 75.2455 41.2578 74.5672 41.2578H69.1497L81.3047 25.7203ZM120.058 41.5603C119.783 42.312 119.343 42.8711 118.738 43.2378C118.133 43.6228 117.519 43.8153 116.895 43.8153H114.393L130.673 2.67531C130.929 1.99698 131.324 1.47448 131.855 1.10781C132.405 0.741145 133.029 0.557812 133.725 0.557812H136.228L120.058 41.5603ZM166.669 16.2878C167.623 16.0861 168.53 15.9395 169.392 15.8478C170.272 15.7561 171.115 15.7103 171.922 15.7103C173.994 15.7103 175.818 16.022 177.394 16.6453C178.989 17.2503 180.319 18.0936 181.382 19.1753C182.464 20.257 183.27 21.5311 183.802 22.9978C184.352 24.4461 184.627 26.0228 184.627 27.7278C184.627 29.8361 184.26 31.752 183.527 33.4753C182.794 35.1986 181.776 36.6745 180.474 37.9028C179.173 39.1128 177.633 40.0478 175.854 40.7078C174.094 41.3678 172.188 41.6978 170.134 41.6978C168.924 41.6978 167.769 41.5786 166.669 41.3403C165.588 41.102 164.57 40.7811 163.617 40.3778C162.664 39.9561 161.784 39.4795 160.977 38.9478C160.17 38.3978 159.446 37.8295 158.804 37.2428L160.619 34.7128C161.004 34.1628 161.518 33.8878 162.159 33.8878C162.563 33.8878 163.003 34.0345 163.479 34.3278C163.956 34.6211 164.506 34.942 165.129 35.2903C165.771 35.6203 166.523 35.932 167.384 36.2253C168.246 36.5186 169.273 36.6653 170.464 36.6653C171.766 36.6653 172.93 36.4545 173.957 36.0328C174.984 35.6111 175.845 35.0245 176.542 34.2728C177.257 33.5028 177.798 32.5861 178.164 31.5228C178.531 30.4595 178.714 29.2953 178.714 28.0303C178.714 26.8753 178.54 25.8395 178.192 24.9228C177.862 24.0061 177.358 23.227 176.679 22.5853C176.019 21.9436 175.185 21.4578 174.177 21.1278C173.169 20.7795 172.004 20.6053 170.684 20.6053C169.713 20.6053 168.714 20.6878 167.687 20.8528C166.679 21.0178 165.652 21.2745 164.607 21.6228L160.922 20.5778L164.167 1.65781H183.334V4.21531C183.334 5.05864 183.069 5.74614 182.537 6.27781C182.005 6.80948 181.116 7.07531 179.869 7.07531H168.264L166.669 16.2878Z" fill="#011E47"/>
<path d="M6.92984 130.086C7.24184 130.02 7.53884 129.972 7.82084 129.942C8.10884 129.912 8.38484 129.897 8.64884 129.897C9.32684 129.897 9.92384 129.999 10.4398 130.203C10.9618 130.401 11.3968 130.677 11.7448 131.031C12.0988 131.385 12.3628 131.802 12.5368 132.282C12.7168 132.756 12.8068 133.272 12.8068 133.83C12.8068 134.52 12.6868 135.147 12.4468 135.711C12.2068 136.275 11.8738 136.758 11.4478 137.16C11.0218 137.556 10.5178 137.862 9.93584 138.078C9.35984 138.294 8.73584 138.402 8.06384 138.402C7.66784 138.402 7.28984 138.363 6.92984 138.285C6.57584 138.207 6.24284 138.102 5.93084 137.97C5.61884 137.832 5.33084 137.676 5.06684 137.502C4.80284 137.322 4.56584 137.136 4.35584 136.944L4.94984 136.116C5.07584 135.936 5.24384 135.846 5.45384 135.846C5.58584 135.846 5.72984 135.894 5.88584 135.99C6.04184 136.086 6.22184 136.191 6.42584 136.305C6.63584 136.413 6.88184 136.515 7.16384 136.611C7.44584 136.707 7.78184 136.755 8.17184 136.755C8.59784 136.755 8.97884 136.686 9.31484 136.548C9.65084 136.41 9.93284 136.218 10.1608 135.972C10.3948 135.72 10.5718 135.42 10.6918 135.072C10.8118 134.724 10.8718 134.343 10.8718 133.929C10.8718 133.551 10.8148 133.212 10.7008 132.912C10.5928 132.612 10.4278 132.357 10.2058 132.147C9.98984 131.937 9.71684 131.778 9.38684 131.67C9.05684 131.556 8.67584 131.499 8.24384 131.499C7.92584 131.499 7.59884 131.526 7.26284 131.58C6.93284 131.634 6.59684 131.718 6.25484 131.832L5.04884 131.49L6.11084 125.298H12.3838V126.135C12.3838 126.411 12.2968 126.636 12.1228 126.81C11.9488 126.984 11.6578 127.071 11.2498 127.071H7.45184L6.92984 130.086Z" fill="#011E47" fill-opacity="0.5"/>
<path d="M9.95384 156.47V151.736C9.95384 151.358 9.98084 150.944 10.0348 150.494L5.67884 156.47H9.95384ZM13.4278 156.47V157.586C13.4278 157.694 13.3918 157.787 13.3198 157.865C13.2538 157.943 13.1518 157.982 13.0138 157.982H11.6368V161.258H9.95384V157.982H4.34684C4.20884 157.982 4.08884 157.943 3.98684 157.865C3.89084 157.781 3.82784 157.679 3.79784 157.559L3.59984 156.569L9.81884 148.289H11.6368V156.47H13.4278Z" fill="#011E47" fill-opacity="0.5"/>
<path d="M4.52684 174.862C4.61684 174.25 4.78484 173.713 5.03084 173.251C5.28284 172.789 5.59784 172.405 5.97584 172.099C6.35384 171.787 6.78584 171.553 7.27184 171.397C7.76384 171.235 8.29484 171.154 8.86484 171.154C9.44084 171.154 9.96284 171.238 10.4308 171.406C10.9048 171.568 11.3098 171.796 11.6458 172.09C11.9878 172.384 12.2488 172.735 12.4288 173.143C12.6148 173.551 12.7078 173.998 12.7078 174.484C12.7078 174.898 12.6568 175.264 12.5548 175.582C12.4588 175.894 12.3178 176.17 12.1318 176.41C11.9518 176.65 11.7298 176.851 11.4658 177.013C11.2018 177.175 10.9048 177.31 10.5748 177.418C11.3788 177.652 11.9818 178.027 12.3838 178.543C12.7858 179.053 12.9868 179.695 12.9868 180.469C12.9868 181.093 12.8698 181.648 12.6358 182.134C12.4018 182.62 12.0838 183.031 11.6818 183.367C11.2858 183.703 10.8208 183.961 10.2868 184.141C9.75884 184.315 9.19784 184.402 8.60384 184.402C7.93784 184.402 7.36184 184.324 6.87584 184.168C6.38984 184.006 5.96984 183.778 5.61584 183.484C5.26784 183.184 4.97684 182.824 4.74284 182.404C4.50884 181.984 4.31084 181.513 4.14884 180.991L4.98584 180.64C5.20784 180.544 5.41784 180.517 5.61584 180.559C5.81984 180.601 5.96684 180.712 6.05684 180.892C6.15284 181.084 6.26084 181.291 6.38084 181.513C6.50084 181.729 6.65384 181.93 6.83984 182.116C7.03184 182.296 7.26584 182.449 7.54184 182.575C7.82384 182.695 8.16884 182.755 8.57684 182.755C8.99084 182.755 9.35084 182.689 9.65684 182.557C9.96884 182.419 10.2268 182.245 10.4308 182.035C10.6408 181.819 10.7968 181.579 10.8988 181.315C11.0008 181.051 11.0518 180.79 11.0518 180.532C11.0518 180.208 11.0128 179.911 10.9348 179.641C10.8568 179.365 10.7038 179.131 10.4758 178.939C10.2538 178.747 9.93584 178.597 9.52184 178.489C9.11384 178.375 8.57684 178.318 7.91084 178.318V176.923C8.45684 176.917 8.91584 176.863 9.28784 176.761C9.66584 176.653 9.96584 176.509 10.1878 176.329C10.4158 176.143 10.5778 175.921 10.6738 175.663C10.7758 175.405 10.8268 175.123 10.8268 174.817C10.8268 174.487 10.7758 174.196 10.6738 173.944C10.5718 173.692 10.4278 173.482 10.2418 173.314C10.0618 173.14 9.84584 173.011 9.59384 172.927C9.34184 172.843 9.06284 172.801 8.75684 172.801C8.46284 172.801 8.18984 172.843 7.93784 172.927C7.69184 173.011 7.46984 173.128 7.27184 173.278C7.07984 173.428 6.91784 173.608 6.78584 173.818C6.65384 174.022 6.55784 174.247 6.49784 174.493C6.41384 174.739 6.29984 174.904 6.15584 174.988C6.01784 175.072 5.81384 175.09 5.54384 175.042L4.52684 174.862Z" fill="#011E47" fill-opacity="0.5"/>
<path d="M12.3208 205.431C12.5308 205.431 12.6958 205.494 12.8158 205.62C12.9358 205.74 12.9958 205.896 12.9958 206.088V207.258H4.22984V206.601C4.22984 206.469 4.25684 206.331 4.31084 206.187C4.36484 206.043 4.45184 205.911 4.57184 205.791L8.60384 201.75C8.94584 201.408 9.24884 201.081 9.51284 200.769C9.78284 200.457 10.0108 200.145 10.1968 199.833C10.3888 199.521 10.5328 199.206 10.6288 198.888C10.7308 198.564 10.7818 198.225 10.7818 197.871C10.7818 197.529 10.7278 197.229 10.6198 196.971C10.5178 196.707 10.3738 196.491 10.1878 196.323C10.0078 196.149 9.78884 196.02 9.53084 195.936C9.27884 195.846 8.99984 195.801 8.69384 195.801C8.39984 195.801 8.12684 195.843 7.87484 195.927C7.62884 196.011 7.40684 196.128 7.20884 196.278C7.01684 196.428 6.85484 196.608 6.72284 196.818C6.59684 197.022 6.50384 197.247 6.44384 197.493C6.35384 197.739 6.23684 197.904 6.09284 197.988C5.95484 198.072 5.75084 198.09 5.48084 198.042L4.46384 197.862C4.55384 197.25 4.72184 196.713 4.96784 196.251C5.21984 195.789 5.53484 195.405 5.91284 195.099C6.29084 194.787 6.72284 194.553 7.20884 194.397C7.70084 194.235 8.23184 194.154 8.80184 194.154C9.37784 194.154 9.90584 194.241 10.3858 194.415C10.8718 194.583 11.2888 194.826 11.6368 195.144C11.9908 195.456 12.2668 195.837 12.4648 196.287C12.6628 196.737 12.7618 197.244 12.7618 197.808C12.7618 198.288 12.6898 198.732 12.5458 199.14C12.4078 199.548 12.2188 199.938 11.9788 200.31C11.7388 200.682 11.4568 201.045 11.1328 201.399C10.8148 201.747 10.4788 202.101 10.1248 202.461L6.99284 205.665C7.25084 205.593 7.50884 205.536 7.76684 205.494C8.03084 205.452 8.27984 205.431 8.51384 205.431H12.3208Z" fill="#011E47" fill-opacity="0.5"/>
<path d="M12.7078 228.791V230.258H5.64284V228.791H8.34284V220.673C8.34284 220.385 8.35184 220.091 8.36984 219.791L6.29084 221.546C6.20084 221.618 6.10784 221.666 6.01184 221.69C5.92184 221.708 5.83484 221.708 5.75084 221.69C5.67284 221.672 5.60084 221.645 5.53484 221.609C5.47484 221.567 5.42684 221.522 5.39084 221.474L4.78784 220.628L8.69384 217.271H10.2688V228.791H12.7078Z" fill="#011E47" fill-opacity="0.5"/>
<rect x="25.0612" y="125.258" width="175.124" height="11.1429" rx="5" fill="#6B6C6D" fill-opacity="0.25"/>
<rect x="25.0612" y="125.258" width="136.597" height="11.1429" rx="5" fill="#50B59D"/>
<rect x="25.0605" y="148.472" width="175.124" height="11.1429" rx="5" fill="#6B6C6D" fill-opacity="0.25"/>
<rect x="24.1855" y="148.472" width="77.0547" height="11.1429" rx="5" fill="#50B59D"/>
<rect x="25.0605" y="171.688" width="175.124" height="11.1429" rx="5" fill="#6B6C6D" fill-opacity="0.25"/>
<rect x="25.0605" y="194.902" width="175.124" height="11.1429" rx="5" fill="#6B6C6D" fill-opacity="0.25"/>
<rect x="25.0605" y="218.113" width="175.124" height="11.1429" rx="5" fill="#6B6C6D" fill-opacity="0.25"/>
<path d="M220.614 380.798C222.503 381.36 276.367 380.716 278.435 379.494C279.217 379.048 279.568 371.832 279.73 363.097V362.824C279.73 361.024 279.793 359.175 279.793 357.293C279.793 357.037 279.793 356.781 279.793 356.525L277.176 330.848L241.126 331.178L244.723 356.616V357.623L244.948 362.882V363.427C244.948 363.427 224.436 372.146 222.359 373.698C220.282 375.25 218.726 380.245 220.614 380.798Z" fill="#F7A9A0"/>
<path d="M220.615 380.79C222.503 381.351 276.367 380.707 278.435 379.485C279.218 379.04 279.569 371.824 279.73 363.088V362.816C279.73 361.016 279.793 359.167 279.793 357.284C279.793 357.028 279.793 356.772 279.793 356.516L244.723 356.607V357.614L244.948 362.874V363.419C244.948 363.419 224.437 372.137 222.359 373.689C220.282 375.242 218.727 380.237 220.615 380.79Z" fill="#EBEBEB"/>
<path d="M220.605 380.794C221.586 381.083 236.225 381.05 250.532 380.794L259.003 380.612C269.209 380.356 277.644 379.968 278.426 379.497C279.208 379.027 279.559 372.067 279.712 363.464C279.712 363.348 279.712 363.224 279.712 363.101C279.712 362.977 279.712 362.911 279.712 362.82H279.667L244.939 362.886V363.431C244.939 363.431 224.418 372.141 222.341 373.702C220.264 375.262 218.717 380.241 220.605 380.794Z" fill="#FFD873"/>
<path d="M221.198 378.869C230.28 378.555 266.942 378.043 275.943 378.406C276.015 378.406 276.015 378.456 275.943 378.456C266.951 378.951 230.28 379.15 221.198 379.009C221.009 379.001 221 378.877 221.198 378.869Z" fill="#263238"/>
<path d="M241.079 363.019C244.676 362.358 249.028 362.813 251.789 365.116C251.897 365.207 251.789 365.347 251.645 365.314C248.216 364.341 244.682 363.71 241.106 363.432C241.046 363.435 240.988 363.416 240.943 363.38C240.898 363.344 240.871 363.293 240.868 363.238C240.864 363.183 240.884 363.129 240.924 363.088C240.964 363.047 241.019 363.022 241.079 363.019Z" fill="#263238"/>
<path d="M238.528 364.467C242.125 363.815 246.468 364.269 249.238 366.572C249.346 366.663 249.238 366.804 249.085 366.771C245.655 365.798 242.122 365.167 238.546 364.888C238.492 364.881 238.443 364.856 238.407 364.819C238.371 364.782 238.35 364.734 238.348 364.684C238.346 364.635 238.362 364.586 238.395 364.546C238.428 364.506 238.475 364.478 238.528 364.467Z" fill="#263238"/>
<path d="M235.973 365.93C239.57 365.278 243.923 365.723 246.683 368.035C246.791 368.126 246.683 368.258 246.53 368.225C243.095 367.254 239.555 366.623 235.973 366.343C235.914 366.343 235.857 366.321 235.814 366.282C235.772 366.243 235.749 366.191 235.749 366.136C235.749 366.081 235.772 366.029 235.814 365.99C235.857 365.952 235.914 365.93 235.973 365.93Z" fill="#263238"/>
<path d="M250.531 380.786L259.002 380.604C269.208 380.348 277.643 379.96 278.426 379.49C279.208 379.019 279.559 372.059 279.712 363.456C279.712 363.34 279.712 363.216 279.712 363.093C279.712 362.969 279.712 362.903 279.712 362.812H279.667C274.928 365.883 258.166 376.129 250.531 380.786Z" fill="#263238"/>
<path d="M242.59 362.98H281.401C281.401 362.98 273.587 279.748 273.892 278.295C274.279 276.429 288.766 224.356 291.544 214.507C295.717 199.761 298.972 188.293 298.972 188.293H266.078C266.078 188.293 262.238 199.455 257.409 213.97C249.532 237.567 239.02 270.038 237.977 277.94C236.295 290.687 242.59 362.98 242.59 362.98Z" fill="#748CAE"/>
<path d="M244.309 356.906C250.235 356.791 248.536 356.749 254.462 356.7C257.366 356.7 276.43 356.518 279.137 356.931C279.148 356.935 279.158 356.943 279.165 356.952C279.172 356.962 279.176 356.973 279.176 356.985C279.176 356.996 279.172 357.008 279.165 357.017C279.158 357.027 279.148 357.034 279.137 357.038C276.439 357.451 257.366 357.303 254.462 357.278C248.536 357.22 250.235 357.179 244.309 357.063C244.296 357.067 244.282 357.068 244.268 357.066C244.253 357.064 244.24 357.059 244.229 357.052C244.217 357.044 244.208 357.034 244.201 357.022C244.195 357.011 244.191 356.998 244.191 356.985C244.191 356.972 244.195 356.959 244.201 356.947C244.208 356.936 244.217 356.926 244.229 356.918C244.24 356.91 244.253 356.905 244.268 356.903C244.282 356.901 244.296 356.902 244.309 356.906Z" fill="#263238"/>
<path d="M266.593 273.214C267.861 268.062 269.767 263.009 271.422 257.957C274.785 247.675 278.169 237.404 281.574 227.144C283.276 222.02 284.982 216.89 286.69 211.754C287.59 209.162 288.426 206.578 289.307 203.994C290.188 201.409 291.16 198.957 291.933 196.406C292.257 195.366 292.428 195.935 292.023 197.232C291.205 199.89 290.395 202.549 289.55 205.199C287.877 210.45 286.196 215.698 284.505 220.944C281.142 231.402 277.746 241.835 274.317 252.243C272.609 257.467 270.897 262.696 269.182 267.93C268.315 270.417 267.615 272.951 267.087 275.518C266.627 278.201 266.513 280.925 266.746 283.634C267.114 289.091 267.798 294.532 268.346 299.973C268.895 305.414 269.452 310.879 270.001 316.329C271.092 327.177 272.174 338.026 273.247 348.875C273.382 350.254 273.517 351.624 273.634 353.003C273.634 353.465 272.914 353.424 272.86 353.003C271.583 342.27 270.603 331.537 269.506 320.803C268.409 310.07 267.321 299.42 266.233 288.728C265.954 286.045 265.648 283.353 265.648 280.653C265.654 278.149 265.97 275.653 266.593 273.214Z" fill="#263238"/>
<path d="M261.151 380.798C263.04 381.36 316.904 380.716 318.963 379.494C319.745 379.048 320.105 371.832 320.267 363.097V362.824C320.267 361.024 320.33 359.175 320.33 357.293C320.33 357.037 320.33 356.781 320.33 356.525L317.713 330.848L281.663 331.178L285.26 356.616V357.623L285.485 362.882V363.427C285.485 363.427 264.991 372.146 262.95 373.698C260.909 375.25 259.245 380.245 261.151 380.798Z" fill="#F7A9A0"/>
<path d="M261.151 380.79C263.04 381.351 316.904 380.707 318.963 379.485C319.745 379.04 320.105 371.824 320.267 363.088V362.816C320.267 361.016 320.33 359.167 320.33 357.284C320.33 357.028 320.33 356.772 320.33 356.516L285.26 356.607V357.614L285.485 362.874V363.419C285.485 363.419 264.991 372.137 262.95 373.689C260.909 375.242 259.245 380.237 261.151 380.79Z" fill="#EBEBEB"/>
<path d="M261.152 380.794C262.123 381.083 276.771 381.05 291.078 380.794L299.549 380.612C309.755 380.356 318.19 379.968 318.972 379.497C319.754 379.027 320.105 372.067 320.258 363.464C320.258 363.348 320.258 363.224 320.258 363.101C320.258 362.977 320.258 362.911 320.258 362.82H320.213L285.485 362.886V363.431C285.485 363.431 264.982 372.133 262.95 373.693C260.918 375.254 259.245 380.241 261.152 380.794Z" fill="#FFD873"/>
<path d="M261.726 378.869C270.809 378.555 307.47 378.043 316.472 378.406C316.544 378.406 316.544 378.456 316.472 378.456C307.479 378.951 270.809 379.15 261.726 379.009C261.529 379.001 261.529 378.877 261.726 378.869Z" fill="#263238"/>
<path d="M281.609 363.019C285.206 362.358 289.558 362.813 292.318 365.116C292.426 365.207 292.318 365.347 292.175 365.314C288.742 364.341 285.206 363.709 281.627 363.432C281.567 363.434 281.509 363.414 281.465 363.377C281.421 363.34 281.395 363.288 281.393 363.234C281.39 363.179 281.412 363.126 281.452 363.085C281.493 363.045 281.549 363.021 281.609 363.019Z" fill="#263238"/>
<path d="M279.057 364.467C282.654 363.815 286.997 364.269 289.767 366.572C289.875 366.663 289.767 366.804 289.614 366.771C286.185 365.798 282.651 365.167 279.075 364.888C279.021 364.881 278.972 364.856 278.936 364.819C278.9 364.782 278.879 364.734 278.877 364.684C278.875 364.635 278.892 364.586 278.925 364.546C278.957 364.506 279.004 364.478 279.057 364.467Z" fill="#263238"/>
<path d="M276.494 365.93C280.091 365.278 284.434 365.723 287.204 368.035C287.311 368.126 287.204 368.258 287.051 368.225C283.62 367.256 280.087 366.625 276.512 366.343C276.452 366.345 276.394 366.325 276.35 366.288C276.306 366.251 276.28 366.199 276.278 366.144C276.276 366.09 276.297 366.036 276.337 365.996C276.378 365.956 276.434 365.932 276.494 365.93Z" fill="#263238"/>
<path d="M267.143 188.293C267.143 188.293 267.898 202.75 271.504 214.193C271.792 215.142 272.106 216.067 272.448 216.959C272.448 216.959 271.944 216.596 277.673 219.824C277.673 219.824 275.46 277.288 275.371 280.714C275.038 293.544 285.199 363.508 285.199 363.508L324.001 363.648C324.001 363.648 310.144 284.297 310.189 279.616C310.27 272.061 315.162 239.218 313.651 214.87C313.001 205.613 310.319 196.573 305.765 188.293H267.143Z" fill="#748CAE"/>
<path d="M286.528 357.174C292.454 357.083 290.755 357.034 296.681 357.001C299.585 357.001 318.649 356.91 321.356 357.331C321.419 357.331 321.419 357.438 321.356 357.447C318.658 357.843 299.576 357.62 296.681 357.579C290.746 357.504 292.454 357.471 286.528 357.331C286.515 357.335 286.501 357.336 286.487 357.334C286.472 357.332 286.459 357.327 286.448 357.319C286.436 357.312 286.427 357.302 286.42 357.29C286.414 357.278 286.41 357.266 286.41 357.253C286.41 357.239 286.414 357.227 286.42 357.215C286.427 357.203 286.436 357.193 286.448 357.186C286.459 357.178 286.472 357.173 286.487 357.171C286.501 357.169 286.515 357.17 286.528 357.174Z" fill="#263238"/>
<path d="M303.416 190.454C308.326 199.123 310.151 208.981 310.547 218.641C310.978 229.143 309.648 239.612 308.407 250.015C307.148 260.971 306.051 271.952 306.959 282.966C307.858 294.104 310.034 305.142 311.77 316.189C313.505 327.236 315.367 338.267 316.832 349.338C317.021 350.742 317.21 352.137 317.39 353.541C317.39 353.556 317.383 353.571 317.371 353.582C317.36 353.593 317.344 353.599 317.327 353.599C317.31 353.599 317.294 353.593 317.282 353.582C317.271 353.571 317.264 353.556 317.264 353.541C315.133 342.634 313.388 331.662 311.572 320.706C309.755 309.749 307.723 298.876 306.491 287.895C305.259 276.914 305.781 266.024 306.986 255.076C308.137 244.533 309.683 233.998 309.683 223.38C309.683 213.514 308.64 203.417 304.828 194.112C304.324 192.873 303.776 191.635 303.209 190.421C303.173 190.281 303.353 190.273 303.416 190.454Z" fill="#263238"/>
<path d="M270.827 216.104C274.686 217.586 278.399 219.37 281.924 221.438C282.058 221.52 281.924 221.718 281.807 221.652C278.066 220.001 274.244 218.35 270.602 216.517C270.547 216.488 270.505 216.44 270.487 216.383C270.468 216.327 270.474 216.266 270.503 216.213C270.531 216.161 270.581 216.12 270.641 216.1C270.702 216.079 270.768 216.081 270.827 216.104Z" fill="#263238"/>
<path d="M270.613 203.844C270.865 205.116 271.206 206.371 271.512 207.626C271.818 208.88 271.998 210.012 272.33 211.176C272.608 212.306 273.232 213.341 274.129 214.156C274.632 214.586 275.19 214.982 275.729 215.362C276.017 215.576 276.332 215.783 276.629 215.997C276.629 215.832 276.566 215.659 276.53 215.486L276.26 214.049C276.062 212.976 275.882 211.911 275.702 210.837C275.352 208.74 275.028 206.618 274.551 204.538C274.551 204.52 274.559 204.503 274.572 204.491C274.586 204.479 274.604 204.472 274.623 204.472C274.642 204.472 274.661 204.479 274.674 204.491C274.688 204.503 274.695 204.52 274.695 204.538C275.262 206.593 275.891 208.666 276.395 210.713C276.638 211.737 277.501 216.774 277.546 217.129C277.591 217.484 277.618 217.863 277.627 218.235C277.685 218.61 277.685 218.991 277.627 219.366C277.627 219.457 277.483 219.44 277.447 219.366C277.28 219.015 277.162 218.646 277.096 218.268C276.997 217.913 276.907 217.55 276.835 217.178C276.835 217.046 276.79 216.914 276.772 216.782C276.233 216.476 275.729 216.08 275.226 215.741C274.722 215.403 274.129 215.031 273.616 214.635C272.664 213.898 271.977 212.914 271.647 211.811C271.31 210.624 271.093 209.411 270.999 208.187C270.82 206.759 270.694 205.322 270.478 203.894C270.46 203.795 270.595 203.762 270.613 203.844Z" fill="#263238"/>
<path d="M273.544 149.263C273.661 155.785 269.138 186.458 262.367 193.566C253.374 202.97 237.269 215.627 234.104 215.148C231.082 214.694 218.961 198.999 221.218 196.811C223.475 194.623 243.636 182.577 246.207 180.199C247.934 178.622 258.032 160.458 263.85 150.964C269.129 142.369 273.391 140.288 273.544 149.263Z" fill="#F7A9A0"/>
<path d="M271.546 168.078L251.206 167.062C251.206 167.062 262.698 149.402 267.68 145.084C273.282 140.221 274.766 143.92 274.613 150.641C274.46 157.361 271.546 168.078 271.546 168.078Z" fill="#FFD873"/>
<path d="M254.274 163.859C254.984 163.793 261.324 164.033 262.7 164.107C264.075 164.181 269.723 164.462 271.134 164.652C271.197 164.652 271.197 164.743 271.134 164.743C269.714 164.801 264.022 164.545 262.619 164.487C261.216 164.429 254.939 164.074 254.256 163.942C254.202 163.934 254.22 163.859 254.274 163.859Z" fill="#263238"/>
<path d="M274.641 150.609C274.497 157.329 271.574 168.079 271.574 168.079L259.66 167.468L270.639 143.12C273.822 141.84 274.731 145.275 274.641 150.609Z" fill="#263238"/>
<path d="M258.175 205.769C259.075 206.594 313.703 203.928 313.973 203.597C314.683 202.714 295.61 150.006 282.796 141.56C280.045 139.743 272.176 141.485 270.279 143.211C269.083 144.309 266.493 151.252 264.794 156.991C261.395 168.508 257.402 205.042 258.175 205.769Z" fill="#FFD873"/>
<path d="M291.447 152.728C291.206 152.23 291.045 151.701 290.971 151.159C290.966 151.127 290.966 151.093 290.971 151.06C291.142 151.333 291.313 151.614 291.501 151.886C291.52 152.168 291.502 152.45 291.447 152.728ZM274.362 188.23C274.278 188.778 274.278 189.334 274.362 189.881C274.437 190.423 274.598 190.951 274.839 191.45C274.927 190.903 274.927 190.346 274.839 189.799C274.763 189.26 274.603 188.735 274.362 188.238V188.23ZM289.649 179.379C289.565 179.927 289.565 180.483 289.649 181.031C289.724 181.569 289.885 182.095 290.126 182.591C290.268 181.507 290.098 180.408 289.631 179.404L289.649 179.379ZM290.665 200.994C290.534 202.078 290.704 203.174 291.16 204.181C291.248 203.634 291.248 203.078 291.16 202.53C291.07 202.001 290.897 201.487 290.647 201.003L290.665 200.994ZM307.301 191.624C307.213 192.171 307.213 192.727 307.301 193.275C307.376 193.813 307.537 194.339 307.777 194.835C307.867 194.288 307.867 193.731 307.777 193.184C307.694 192.648 307.527 192.125 307.283 191.632L307.301 191.624ZM270.783 162.14C270.64 163.224 270.811 164.323 271.278 165.327C271.366 164.78 271.366 164.223 271.278 163.676C271.188 163.147 271.015 162.632 270.765 162.149L270.783 162.14ZM270.783 145.446C270.64 146.53 270.811 147.629 271.278 148.633C271.366 148.086 271.366 147.529 271.278 146.982C271.188 146.453 271.015 145.938 270.765 145.454L270.783 145.446ZM298.659 167.573C298.576 168.121 298.576 168.676 298.659 169.224C298.733 169.762 298.89 170.288 299.127 170.785C299.271 169.701 299.101 168.601 298.632 167.598L298.659 167.573ZM282.734 158.029C283.33 158.106 283.936 158.106 284.532 158.029C285.119 157.962 285.691 157.818 286.232 157.599C285.054 157.467 283.86 157.624 282.77 158.053L282.734 158.029ZM275.612 141.904C276.208 141.986 276.814 141.986 277.41 141.904C277.999 141.837 278.575 141.692 279.119 141.475C278.523 141.394 277.917 141.394 277.321 141.475C276.731 141.541 276.156 141.685 275.612 141.904ZM264.92 156.609C264.875 156.741 264.839 156.881 264.794 157.013H264.974C265.561 156.95 266.134 156.805 266.674 156.584C266.091 156.513 265.5 156.521 264.92 156.609ZM268.418 173.518C269.014 173.599 269.62 173.599 270.217 173.518C270.806 173.45 271.381 173.306 271.925 173.088C271.329 173.007 270.723 173.007 270.127 173.088C269.537 173.154 268.962 173.299 268.418 173.518ZM285.261 172.221C286.441 172.341 287.635 172.185 288.732 171.767C288.135 171.686 287.53 171.686 286.933 171.767C286.355 171.844 285.792 171.997 285.261 172.221ZM280.998 197.312C282.176 197.444 283.37 197.287 284.46 196.858C283.283 196.726 282.088 196.883 280.998 197.312ZM298.021 186.125C298.617 186.206 299.223 186.206 299.819 186.125C300.406 186.056 300.979 185.908 301.519 185.687C300.339 185.567 299.145 185.723 298.048 186.141L298.021 186.125ZM262.411 203.769C263.007 203.85 263.613 203.85 264.21 203.769C264.796 203.699 265.369 203.552 265.909 203.331C265.313 203.249 264.707 203.249 264.111 203.331C263.51 203.402 262.923 203.549 262.366 203.769H262.411ZM261.134 190.608C261.731 190.685 262.336 190.685 262.933 190.608C263.519 190.542 264.092 190.397 264.632 190.179C263.452 190.048 262.255 190.204 261.161 190.633L261.134 190.608ZM283.193 146.792C282.263 147.471 281.538 148.358 281.088 149.368C282.018 148.688 282.742 147.802 283.193 146.792ZM262.951 165.236C262.897 165.509 262.843 165.781 262.798 166.062C262.954 165.91 263.101 165.75 263.239 165.583C263.61 165.154 263.912 164.679 264.138 164.171C263.69 164.473 263.29 164.832 262.951 165.236ZM293.3 162.289C292.368 162.963 291.643 163.848 291.196 164.857C291.666 164.527 292.084 164.138 292.437 163.701C292.793 163.269 293.084 162.794 293.3 162.289ZM278.705 177.291C277.773 177.965 277.048 178.849 276.601 179.858C277.072 179.529 277.49 179.139 277.842 178.702C278.199 178.27 278.489 177.795 278.705 177.291ZM269.767 195.521C268.837 196.2 268.113 197.087 267.663 198.096C268.592 197.417 269.317 196.53 269.767 195.521ZM293.606 190.658C292.674 191.332 291.949 192.216 291.501 193.225C292.433 192.551 293.158 191.666 293.606 190.658ZM310.691 199.739C309.761 200.419 309.037 201.306 308.587 202.315C309.523 201.642 310.249 200.753 310.691 199.739ZM261.152 176.358L261.098 176.754C261.384 176.909 261.685 177.039 261.998 177.142C261.749 176.852 261.466 176.589 261.152 176.358ZM299.918 177.728C299.553 177.3 299.126 176.92 298.65 176.597C298.184 176.255 297.666 175.977 297.113 175.771C297.846 176.631 298.814 177.298 299.918 177.703V177.728ZM301.312 199.517C300.952 199.087 300.528 198.706 300.053 198.385C299.588 198.042 299.07 197.764 298.515 197.56C298.873 197.991 299.297 198.372 299.774 198.691C300.235 199.032 300.747 199.31 301.294 199.517H301.312ZM276.331 156.377C275.969 155.948 275.542 155.567 275.063 155.246C274.597 154.904 274.079 154.626 273.526 154.421C273.888 154.853 274.315 155.236 274.794 155.56C275.255 155.898 275.766 156.174 276.313 156.377H276.331ZM284.478 187.834C283.751 186.972 282.785 186.305 281.682 185.902C282.042 186.331 282.465 186.712 282.941 187.033C283.405 187.362 283.917 187.631 284.46 187.834H284.478ZM258.67 197.931L258.563 197.865C258.563 198.022 258.563 198.187 258.518 198.344C258.952 198.639 259.427 198.881 259.929 199.062C259.562 198.634 259.132 198.253 258.652 197.931H258.67ZM281.277 167.309C280.918 166.877 280.494 166.493 280.018 166.169C279.55 165.83 279.032 165.552 278.481 165.344C279.215 166.199 280.178 166.865 281.277 167.276V167.309ZM269.093 183.821C268.353 182.968 267.387 182.303 266.287 181.889C267.015 182.754 267.984 183.422 269.093 183.821ZM277.464 203.991C277.105 203.562 276.681 203.181 276.205 202.86C275.735 202.52 275.214 202.242 274.659 202.035C275.019 202.466 275.446 202.847 275.927 203.166C276.389 203.496 276.901 203.763 277.446 203.958L277.464 203.991Z" fill="white"/>
<path d="M224.225 175.506L216.727 181.984L257.911 222.167L265.409 215.688L224.225 175.506Z" fill="#37474F"/>
<path d="M288.273 234.477L276.934 244.277L248.176 216.214L259.516 206.414L288.273 234.477Z" fill="#011E47"/>
<path d="M195.605 192.176C186.383 193.132 177.059 191.555 168.812 187.645C160.566 183.735 153.767 177.667 149.277 170.209C144.787 162.752 142.806 154.239 143.586 145.747C144.366 137.256 147.871 129.167 153.657 122.505C159.444 115.843 167.253 110.906 176.096 108.319C184.939 105.731 194.419 105.61 203.338 107.97C212.256 110.331 220.211 115.066 226.198 121.578C232.184 128.09 235.933 136.085 236.97 144.554C238.345 155.902 234.763 167.288 227.009 176.215C219.255 185.142 207.962 190.882 195.605 192.176ZM185.714 111.454C177.549 112.296 169.839 115.343 163.56 120.208C157.28 125.073 152.713 131.539 150.435 138.787C148.158 146.035 148.273 153.741 150.765 160.93C153.257 168.118 158.015 174.467 164.437 179.173C170.859 183.878 178.656 186.73 186.843 187.367C195.03 188.005 203.239 186.399 210.432 182.752C217.625 179.106 223.479 173.583 227.254 166.882C231.028 160.182 232.554 152.604 231.638 145.107C230.395 135.059 224.864 125.875 216.257 119.566C207.65 113.258 196.669 110.34 185.723 111.454H185.714Z" fill="#263238"/>
<path d="M190.328 193.689C177.753 193.696 165.67 189.2 156.649 181.156C147.628 173.112 142.38 162.155 142.02 150.614C141.66 139.072 146.217 127.857 154.722 119.353C163.227 110.848 175.01 105.724 187.565 105.071C200.12 104.418 212.458 108.286 221.955 115.854C231.452 123.422 237.36 134.093 238.423 145.598C239.485 157.103 235.619 168.534 227.645 177.462C219.671 186.391 208.219 192.111 195.724 193.408C193.932 193.59 192.131 193.684 190.328 193.689ZM190.4 107.518C188.688 107.521 186.977 107.609 185.275 107.782C173.492 109.004 162.693 114.397 155.173 122.814C147.653 131.23 144.004 142.008 145.002 152.856C146 163.704 151.566 173.768 160.518 180.907C169.47 188.046 181.101 191.699 192.939 191.089C204.778 190.478 215.891 185.653 223.916 177.639C231.941 169.625 236.245 159.053 235.915 148.17C235.584 137.288 230.644 126.953 222.145 119.361C213.646 111.77 202.257 107.522 190.4 107.518ZM190.337 188.744C179.382 188.733 168.846 184.873 160.891 177.957C152.936 171.041 148.165 161.592 147.556 151.548C146.948 141.505 150.548 131.628 157.618 123.945C164.689 116.261 174.694 111.353 185.58 110.226C196.89 109.06 208.24 112.067 217.135 118.585C226.03 125.102 231.74 134.598 233.01 144.981C234.28 155.365 231.006 165.786 223.907 173.953C216.808 182.12 206.466 187.363 195.157 188.529C193.556 188.686 191.947 188.758 190.337 188.744ZM185.841 112.695C177.949 113.514 170.498 116.463 164.43 121.169C158.363 125.875 153.951 132.127 151.753 139.135C149.555 146.143 149.669 153.592 152.08 160.54C154.492 167.488 159.092 173.624 165.301 178.172C171.51 182.72 179.048 185.476 186.962 186.092C194.877 186.707 202.812 185.155 209.766 181.63C216.719 178.106 222.379 172.768 226.029 166.291C229.679 159.814 231.155 152.489 230.272 145.241C229.071 135.52 223.718 126.633 215.388 120.531C207.058 114.43 196.432 111.611 185.841 112.695Z" fill="#011E47"/>
<g opacity="0.2">
<path opacity="0.2" d="M219.437 124.255C224.846 129.535 228.428 136.169 229.73 143.318C231.033 150.467 229.997 157.811 226.754 164.419C223.511 171.028 218.206 176.605 211.511 180.446C204.816 184.287 197.03 186.219 189.139 185.997C181.248 185.775 173.606 183.41 167.179 179.201C160.752 174.991 155.829 169.127 153.032 162.348C150.235 155.57 149.691 148.182 151.467 141.12C153.243 134.057 157.26 127.636 163.01 122.67C166.828 119.372 171.317 116.797 176.219 115.092C181.121 113.387 186.341 112.585 191.581 112.732C196.821 112.879 201.978 113.973 206.757 115.95C211.537 117.927 215.845 120.749 219.437 124.255Z" fill="white"/>
<path opacity="0.2" d="M225.948 132.735C230.731 141.354 231.613 151.358 228.401 160.571C225.19 169.784 218.145 177.459 208.8 181.926L225.948 132.735Z" fill="#EBEBEB"/>
<path opacity="0.2" d="M192.038 112.744L168.532 180.074C165.906 178.476 163.492 176.603 161.338 174.493C158.842 172.064 156.724 169.33 155.043 166.369L172.326 116.699C178.42 113.854 185.207 112.493 192.038 112.744Z" fill="#EBEBEB"/>
<path opacity="0.2" d="M216.57 121.721L194.206 185.848C191.599 186.083 188.972 186.083 186.365 185.848L210.186 117.527C212.463 118.722 214.603 120.128 216.57 121.721Z" fill="#EBEBEB"/>
<path opacity="0.2" d="M197.469 113.308L173.334 182.521C172.893 182.331 172.435 182.141 172.039 181.935L196.04 113.094C196.516 113.152 196.993 113.218 197.469 113.308Z" fill="#EBEBEB"/>
<path opacity="0.2" d="M161.581 123.964L150.871 154.678C150.691 153.588 150.574 152.498 150.511 151.375L159.225 126.392C159.962 125.582 160.744 124.757 161.581 123.964Z" fill="#EBEBEB"/>
</g>
<path d="M292.246 148.221C296.895 153.175 316.292 177.292 316.238 188.496C316.238 195.357 297.3 215.015 292.381 219.622C290.232 221.628 274.846 209.334 274.99 206.329C275.134 203.324 293.658 185.92 294.503 183.806C294.503 183.806 287.885 164.255 284.378 153.844C281.069 144.002 283.578 138.991 292.246 148.221Z" fill="#F7A9A0"/>
<path d="M263.364 220.051C260.54 222.429 254.686 223.42 255.918 225.781C257.006 227.886 260.99 226.838 260.99 226.838C260.99 226.838 256.916 229.356 258.796 231.313C260.675 233.269 264.784 231.313 264.784 231.313C264.784 231.313 261.286 233.261 263.319 235.094C265.351 236.927 269.164 235.829 269.164 235.829C269.164 235.829 268.579 237.018 270.647 237.719C273.597 238.718 279.388 235.457 281.978 233.088C284.568 230.718 292.121 220.315 293.245 218.697L276.861 203.332C276.861 203.332 270.153 205.594 266.898 207.113C263.642 208.633 254.461 216.402 256.404 218.623C258.346 220.844 264.73 215.271 266.619 214.214C268.507 213.157 269.101 213.388 268.651 214.47C268.345 215.163 264.605 218.994 263.364 220.051Z" fill="#F7A9A0"/>
<path d="M261.153 226.702C266.548 224.877 268.625 223.21 272.105 219.073C272.168 218.991 272.321 219.073 272.258 219.156C269.246 223.499 267.025 225.918 261.234 226.941C260.946 226.999 260.892 226.785 261.153 226.702Z" fill="#263238"/>
<path d="M264.534 231.322C270.001 228.977 272.222 227.194 276.224 223.065C276.278 223.008 276.395 223.065 276.341 223.148C272.789 227.466 270.514 229.836 264.714 231.52C264.444 231.635 264.282 231.462 264.534 231.322Z" fill="#263238"/>
<path d="M269.244 235.746C274.361 233.12 276.888 231.263 280.215 226.837C280.232 226.821 280.254 226.811 280.278 226.809C280.302 226.806 280.326 226.81 280.347 226.822C280.368 226.833 280.384 226.851 280.392 226.872C280.401 226.892 280.402 226.915 280.395 226.936C277.49 231.758 274.352 234.095 269.352 235.886C268.965 236.002 268.875 235.911 269.244 235.746Z" fill="#263238"/>
<path d="M287.516 168.1L307.659 165.293C307.659 165.293 294.423 148.706 289.027 144.842C282.957 140.483 281.833 144.289 282.733 150.977C283.632 157.664 287.516 168.1 287.516 168.1Z" fill="#FFD873"/>
<path d="M304.315 162.402C303.605 162.402 297.31 163.187 295.952 163.385C294.595 163.583 289.001 164.343 287.616 164.648C287.602 164.648 287.588 164.653 287.578 164.663C287.568 164.672 287.563 164.684 287.562 164.698C287.563 164.711 287.568 164.723 287.578 164.733C287.588 164.742 287.602 164.747 287.616 164.747C289.037 164.681 294.666 163.922 296.06 163.748C297.454 163.575 303.668 162.675 304.333 162.493C304.36 162.477 304.315 162.402 304.315 162.402Z" fill="#263238"/>
<path d="M289.109 167.893C288.497 167.934 287.544 168.042 287.544 168.042C286.735 165.994 283.677 155.343 282.886 152.784C282.886 152.743 282.814 152.784 282.823 152.784C283.165 154.254 283.519 155.723 283.884 157.193L283.642 156.664C283.354 156.037 283.048 155.426 282.742 154.79C282.742 154.779 282.738 154.769 282.729 154.761C282.721 154.753 282.709 154.749 282.697 154.749C282.685 154.749 282.674 154.753 282.666 154.761C282.657 154.769 282.652 154.779 282.652 154.79C282.847 155.45 283.088 156.098 283.372 156.73C283.579 157.168 283.812 157.597 284.064 158.018C284.28 158.844 284.487 159.67 284.721 160.537C285.458 163.104 286.114 165.788 287.068 168.298C287.755 168.249 288.435 168.142 289.1 167.976C289.111 167.965 289.119 167.951 289.12 167.936C289.122 167.921 289.118 167.906 289.109 167.893Z" fill="#263238"/>
<path d="M219.067 198.857C219.364 199.528 219.888 200.094 220.561 200.471C221.235 200.849 222.022 201.018 222.808 200.954C222.808 200.954 220.902 203.687 222.52 205.908C223.357 207.072 226.117 206.865 226.117 206.865C226.117 206.865 224.696 209.128 226.27 211.051C227.529 212.579 230.101 212.149 230.101 212.149C230.101 212.149 229.831 214.899 231.657 216.079C235.352 218.482 250.738 210.028 249.722 203.522C249.246 200.483 245.613 202.737 245.613 202.737C245.613 202.737 249.992 198.337 248.175 195.381C246.359 192.425 241.827 195.612 241.827 195.612C241.827 195.612 246.026 191.319 243.805 188.429C241.584 185.539 237.555 189.321 237.555 189.321C237.555 189.321 239.588 185.308 237.331 183.459C233.617 180.387 229.534 189.544 225.641 190.667L220.497 185.63C220.497 185.63 217.763 196.173 219.067 198.857Z" fill="#F7A9A0"/>
<path d="M230.496 212.163C230.484 212.163 230.473 212.168 230.464 212.175C230.456 212.183 230.451 212.194 230.451 212.205C230.451 212.216 230.456 212.226 230.464 212.234C230.473 212.242 230.484 212.246 230.496 212.246C236.531 210.55 241.863 207.21 245.783 202.669C245.9 202.52 245.693 202.272 245.531 202.413C241.06 206.314 235.996 209.599 230.496 212.163Z" fill="#263238"/>
<path d="M226.083 206.971C226.02 206.971 226.083 207.095 226.146 207.071C232.108 205.345 238.546 201.291 242.107 195.677C242.233 195.479 242.107 195.198 241.972 195.404C239.256 198.988 231.253 204.635 226.083 206.971Z" fill="#263238"/>
<path d="M237.655 188.867C234.013 194.142 228.896 197.817 223.051 200.888C222.979 200.929 223.051 201.028 223.123 201.003C226.423 200.178 229.93 197.899 232.484 195.885C234.91 194.058 236.771 191.677 237.88 188.982C237.898 188.875 237.772 188.751 237.655 188.867Z" fill="#263238"/>
<path d="M271.312 141.963C268.938 143.614 266.762 151.557 272.211 152.696C277.66 153.835 282.669 145.959 283.415 143.416C284.162 140.873 276.437 138.462 271.312 141.963Z" fill="#37474F"/>
<path d="M272.887 151.097C275.962 151.46 280.629 146.754 282.266 143.154C282.383 142.906 281.708 140.479 281.043 137.49C280.647 135.682 280.251 133.659 280.045 131.785L267.572 135.872C268.572 138.141 269.263 140.515 269.631 142.939C269.658 143.198 269.658 143.457 269.631 143.715C269.631 143.757 269.631 143.798 269.631 143.848C269.533 145.334 269.919 150.742 272.887 151.097Z" fill="#F7A9A0"/>
<path d="M279.451 131.973C279.317 134.35 278.336 142.921 270.945 143.787C270.509 143.838 270.07 143.857 269.632 143.845C269.627 143.801 269.627 143.757 269.632 143.713C269.659 143.455 269.659 143.195 269.632 142.937C269.262 140.513 268.571 138.139 267.573 135.87L279.451 131.973Z" fill="#263238"/>
<path d="M279.938 118.927C281.565 123.055 279.83 135.242 276.745 138.09C272.249 142.218 264.597 142.953 260.694 137.941C256.908 133.078 259.471 117.226 262.951 114.601C268.077 110.745 277.537 112.851 279.938 118.927Z" fill="#F7A9A0"/>
<path d="M268.256 126.672C268.256 126.672 268.319 126.722 268.319 126.755C268.175 127.581 268.166 128.53 268.939 128.893C268.939 128.893 268.939 128.951 268.939 128.943C267.95 128.704 267.977 127.432 268.256 126.672Z" fill="#263238"/>
<path d="M269.173 125.906C270.63 125.972 270.378 128.639 269.03 128.581C267.681 128.523 267.951 125.856 269.173 125.906Z" fill="#263238"/>
<path d="M263.084 126.293C263.084 126.293 263.003 126.293 263.003 126.359C262.958 127.185 262.752 128.126 261.906 128.341V128.382C262.949 128.332 263.183 127.086 263.084 126.293Z" fill="#263238"/>
<path d="M262.357 125.372C260.927 125.157 260.559 127.807 261.889 128.005C263.22 128.204 263.562 125.553 262.357 125.372Z" fill="#263238"/>
<path d="M270.432 124.784C270.062 124.649 269.698 124.498 269.344 124.329C268.934 124.221 268.576 123.988 268.328 123.669C268.268 123.557 268.251 123.43 268.28 123.308C268.31 123.187 268.384 123.078 268.49 123C268.724 122.872 268.991 122.805 269.263 122.805C269.536 122.805 269.803 122.872 270.037 123C270.557 123.184 270.985 123.537 271.242 123.991C271.286 124.097 271.298 124.212 271.274 124.324C271.25 124.435 271.193 124.538 271.108 124.621C271.024 124.704 270.916 124.763 270.796 124.792C270.676 124.82 270.55 124.818 270.432 124.784Z" fill="#263238"/>
<path d="M261.359 123.939C261.772 123.939 262.141 123.816 262.546 123.75C262.97 123.739 263.378 123.6 263.706 123.353C263.788 123.255 263.833 123.135 263.833 123.011C263.833 122.887 263.788 122.766 263.706 122.668C263.517 122.487 263.28 122.355 263.017 122.287C262.755 122.219 262.477 122.216 262.213 122.28C261.661 122.341 261.15 122.581 260.774 122.957C260.695 123.051 260.648 123.164 260.637 123.282C260.627 123.401 260.655 123.519 260.717 123.624C260.779 123.728 260.872 123.813 260.987 123.869C261.101 123.926 261.23 123.95 261.359 123.939Z" fill="#263238"/>
<path d="M264.982 132.784C265.36 133.237 265.859 133.592 266.43 133.816C266.747 133.923 267.092 133.94 267.419 133.865C268.139 133.692 268.148 133.089 268.022 132.577C267.948 132.305 267.839 132.042 267.698 131.793C266.93 132.379 265.979 132.726 264.982 132.784Z" fill="#263238"/>
<path d="M266.431 133.817C266.748 133.924 267.092 133.942 267.42 133.867C268.139 133.693 268.148 133.091 268.023 132.579C267.645 132.593 267.284 132.723 266.995 132.947C266.707 133.171 266.508 133.478 266.431 133.817Z" fill="#F392B9"/>
<path d="M280.403 130.215C277.93 129.562 276.707 121.958 276.707 121.958C276.707 121.958 276.707 125.187 276.06 125.104C275.412 125.022 272.715 120.637 272.463 117.5C270.505 118.674 268.389 119.609 266.168 120.282C263.048 121.108 259.586 120.926 259.586 120.439C259.586 118.986 261.043 115.197 263.183 113.834C264.754 112.749 266.609 112.065 268.561 111.85C270.513 111.635 272.492 111.898 274.297 112.612C279.396 114.42 280.727 117.442 281.491 119.779C282.256 122.115 281.311 130.454 280.403 130.215Z" fill="#263238"/>
<path d="M269.03 131.617C267.914 131.34 266.963 130.668 266.387 129.749C265.81 128.829 265.654 127.737 265.954 126.713C266.166 125.989 266.596 125.334 267.193 124.823C267.791 124.312 268.533 123.965 269.334 123.822C270.136 123.68 270.965 123.746 271.728 124.015C272.49 124.283 273.155 124.743 273.647 125.342C274.139 125.94 274.438 126.653 274.51 127.4C274.582 128.147 274.424 128.897 274.054 129.566C273.685 130.235 273.118 130.794 272.419 131.182C271.72 131.569 270.916 131.769 270.1 131.757C269.738 131.75 269.379 131.703 269.03 131.617ZM266.548 126.853C266.36 127.516 266.39 128.215 266.634 128.862C266.879 129.509 267.326 130.075 267.92 130.489C268.515 130.903 269.229 131.146 269.974 131.187C270.718 131.229 271.459 131.067 272.104 130.722C272.748 130.378 273.267 129.865 273.595 129.25C273.923 128.635 274.045 127.945 273.946 127.266C273.847 126.587 273.532 125.95 273.039 125.436C272.547 124.922 271.899 124.553 271.179 124.376C270.884 124.308 270.583 124.269 270.279 124.26C269.431 124.247 268.603 124.496 267.926 124.966C267.25 125.436 266.765 126.1 266.548 126.853Z" fill="#455A64"/>
<path d="M259.911 130.494C258.112 130.279 256.943 128.331 257.258 126.143C257.378 125.15 257.834 124.217 258.562 123.476C258.851 123.135 259.231 122.87 259.666 122.706C260.101 122.541 260.575 122.484 261.041 122.54C261.507 122.596 261.949 122.763 262.324 123.024C262.698 123.285 262.992 123.632 263.175 124.029C263.673 124.916 263.852 125.924 263.688 126.911C263.4 128.983 261.889 130.535 260.19 130.51L259.911 130.494ZM259.012 123.847C258.368 124.504 257.966 125.33 257.861 126.209C257.591 128.108 258.553 129.792 260.01 129.965C261.467 130.139 262.869 128.743 263.139 126.845C263.283 125.969 263.126 125.074 262.69 124.285C262.531 123.976 262.294 123.705 261.998 123.497C261.702 123.289 261.357 123.149 260.99 123.088H260.774C260.434 123.091 260.099 123.16 259.791 123.291C259.482 123.422 259.207 123.612 258.985 123.847H259.012Z" fill="#455A64"/>
<path d="M266.033 127.194L266.455 126.831C265.88 126.245 264.459 125.386 263.254 126.294L263.623 126.707C264.747 125.89 265.979 127.137 266.033 127.194Z" fill="#455A64"/>
<path d="M282.572 130.363L283.12 130.173C283.022 129.942 282.221 127.878 280.917 127.531C278.669 127.257 276.405 127.114 274.137 127.101V127.63C276.357 127.632 278.574 127.77 280.773 128.043C281.583 128.257 282.347 129.793 282.572 130.363Z" fill="#455A64"/>
<path d="M277.042 128.72C277.042 128.72 279.883 124.724 281.853 125.64C283.822 126.557 281.772 132.295 279.533 133.137C279.253 133.262 278.948 133.334 278.637 133.349C278.326 133.363 278.015 133.32 277.723 133.221C277.43 133.122 277.163 132.97 276.936 132.774C276.709 132.578 276.528 132.342 276.403 132.08L277.042 128.72Z" fill="#F7A9A0"/>
<path d="M281.225 127.266V127.323C279.66 127.959 278.869 129.338 278.329 130.758C278.417 130.609 278.539 130.48 278.687 130.379C278.835 130.277 279.004 130.207 279.185 130.171C279.365 130.136 279.552 130.137 279.731 130.174C279.911 130.211 280.08 130.284 280.227 130.387C280.227 130.387 280.227 130.477 280.182 130.469C279.9 130.394 279.599 130.401 279.322 130.49C279.045 130.579 278.805 130.744 278.635 130.964C278.356 131.336 278.118 131.731 277.925 132.145C277.862 132.277 277.601 132.219 277.646 132.063C277.565 130.172 279.049 127.522 281.225 127.266Z" fill="#263238"/>
<path d="M266.404 112.388C267.98 111.589 269.677 111.01 271.44 110.671C273.409 110.324 279.712 110.39 281.331 111.497C282.95 112.603 283.705 117.961 283.795 118.754C283.885 119.546 283.849 124.368 282.041 125.64C280.234 126.911 279.47 118.77 276.286 116.244C273.103 113.717 266.404 112.388 266.404 112.388Z" fill="#FFD873"/>
<path opacity="0.1" d="M266.404 112.386C266.404 112.386 273.077 113.674 276.296 116.2C279.515 118.727 280.243 126.868 282.051 125.596C282.463 125.263 282.799 124.857 283.04 124.404C283.281 123.95 283.421 123.458 283.454 122.954C282.887 120.601 281.574 116.968 279.227 114.533C277.033 112.262 273.454 111.23 269.704 111.09C268.567 111.436 267.463 111.87 266.404 112.386Z" fill="black"/>
<path d="M281.835 130.466C281.512 128.303 278.688 122.631 275.927 119.452C273.167 116.274 265.604 114.763 264.57 114.887C262.061 115.167 261.261 115.919 260.847 115.712C260.434 115.506 262.898 113.632 263.545 113.235C264.192 112.839 266.072 111.774 267.142 111.724C268.212 111.675 275.028 111.898 277.672 114.391C280.316 116.885 284.317 124.084 283.814 126.016C283.697 126.487 283.058 126.842 282.914 127.477C282.699 128.303 282.582 129.327 282.339 129.954C282.096 130.582 281.835 130.648 281.835 130.466Z" fill="#FFC727"/>
<path d="M275.253 117.995C275.805 117.632 276.326 117.229 276.809 116.79C277.303 116.354 277.741 115.866 278.112 115.337C278.112 115.337 278.202 115.337 278.175 115.337C277.893 115.943 277.501 116.501 277.015 116.988C276.53 117.459 275.95 117.841 275.307 118.111C275.244 118.127 275.19 118.028 275.253 117.995Z" fill="#263238"/>
<path d="M280.729 125.994C280.948 125.746 281.152 125.487 281.34 125.218C281.508 124.951 281.658 124.676 281.79 124.393C281.916 124.104 282.024 123.815 282.15 123.526C282.276 123.237 282.482 122.865 282.608 122.518C282.608 122.477 282.698 122.518 282.68 122.518C282.554 122.873 282.482 123.253 282.365 123.616C282.258 123.926 282.129 124.23 281.979 124.525C281.84 124.814 281.671 125.09 281.475 125.35C281.288 125.616 281.043 125.843 280.756 126.019C280.756 126.019 280.711 126.019 280.729 125.994Z" fill="#263238"/>
<path d="M279.712 123.924C280.196 123.502 280.609 123.014 280.934 122.479C281.24 121.967 281.519 121.439 281.789 120.91C281.789 120.91 281.879 120.91 281.861 120.91C281.707 121.501 281.474 122.072 281.168 122.611C281.012 122.868 280.825 123.109 280.611 123.329C280.368 123.556 280.096 123.756 279.801 123.924C279.801 123.924 279.676 123.957 279.712 123.924Z" fill="#263238"/>
<path d="M278.634 121.951C278.87 121.781 279.069 121.571 279.218 121.331C279.407 121.075 279.587 120.811 279.758 120.506C279.928 120.2 280.099 120.002 280.261 119.746C280.445 119.498 280.571 119.216 280.63 118.921C280.63 118.879 280.702 118.879 280.711 118.921C280.702 119.22 280.629 119.515 280.495 119.788C280.363 120.094 280.204 120.389 280.018 120.671C279.835 120.957 279.634 121.232 279.416 121.497C279.236 121.736 278.983 121.92 278.688 122.025C278.625 122.05 278.58 121.984 278.634 121.951Z" fill="#263238"/>
<path d="M273.345 116.866C273.561 116.585 273.768 116.312 274.011 116.04C274.258 115.776 274.522 115.525 274.802 115.289C275.333 114.814 275.922 114.396 276.555 114.042C276.555 114.042 276.645 114.042 276.609 114.092C275.557 115.041 274.451 115.949 273.408 116.907L273.345 116.866Z" fill="#263238"/>
<path d="M271.78 115.099C271.998 114.822 272.252 114.57 272.535 114.348C273.138 113.898 273.792 113.511 274.486 113.192C274.531 113.192 274.576 113.192 274.531 113.25C273.947 113.663 273.353 114.076 272.787 114.505C272.507 114.72 272.24 114.949 271.987 115.19C271.744 115.438 271.555 115.727 271.321 116.016C271.321 116.016 271.258 116.016 271.267 116.016C271.365 115.68 271.54 115.368 271.78 115.099Z" fill="#263238"/>
<path d="M269.749 114.362C269.953 114.094 270.185 113.845 270.441 113.619C270.928 113.188 271.491 112.836 272.105 112.578C272.15 112.578 272.177 112.62 272.105 112.644C271.555 113.001 271.035 113.396 270.549 113.825C270.316 114.048 270.082 114.271 269.857 114.502C269.632 114.733 269.434 115.006 269.183 115.204C269.183 115.204 269.138 115.204 269.183 115.204C269.342 114.907 269.532 114.625 269.749 114.362Z" fill="#263238"/>
<path d="M268.245 113.4L268.973 112.822C269.212 112.629 269.482 112.47 269.774 112.352C269.774 112.352 269.837 112.352 269.774 112.409C269.315 112.797 268.874 113.185 268.407 113.582C268.018 113.967 267.677 114.39 267.391 114.845H267.346C267.479 114.291 267.793 113.787 268.245 113.4Z" fill="#263238"/>
<path d="M266.449 113.117C266.88 112.698 267.396 112.361 267.968 112.126C267.968 112.126 268.04 112.126 267.968 112.184C267.455 112.478 266.994 112.842 266.601 113.265C266.202 113.681 265.852 114.135 265.558 114.619C265.558 114.619 265.495 114.619 265.504 114.619C265.69 114.059 266.013 113.545 266.449 113.117Z" fill="#263238"/>
<path d="M264.193 114.22C264.247 114.105 264.31 113.989 264.373 113.882C264.513 113.659 264.675 113.449 264.858 113.254C265.243 112.872 265.671 112.529 266.135 112.23C266.135 112.23 266.216 112.23 266.135 112.288C265.694 112.592 265.296 112.944 264.948 113.337C264.777 113.53 264.621 113.734 264.48 113.948C264.409 114.047 264.355 114.154 264.292 114.262C264.246 114.373 264.188 114.481 264.121 114.584H264.049C264.071 114.455 264.12 114.332 264.193 114.22Z" fill="#263238"/>
<path d="M262.78 114.438C262.901 114.258 263.034 114.084 263.176 113.918C263.32 113.761 263.472 113.604 263.634 113.455C263.796 113.307 263.985 113.166 264.147 113.009C264.309 112.853 264.237 113.009 264.201 113.059C264.031 113.209 263.874 113.372 263.733 113.546L263.32 114.033C263.185 114.19 263.041 114.347 262.906 114.512C262.781 114.684 262.646 114.849 262.501 115.007H262.447C262.531 114.805 262.642 114.613 262.78 114.438Z" fill="#263238"/>
</svg>
