<svg width="44" height="45" viewBox="0 0 44 45" fill="none" xmlns="http://www.w3.org/2000/svg">
<path d="M32.5814 0.37793C28.6272 0.37793 25.4213 3.43168 25.4213 7.19053C25.4213 11.7294 31.6864 17.9306 31.6864 24.1692H33.4764C33.4782 17.9306 39.7415 11.9083 39.7415 7.19053C39.7415 3.43168 36.5356 0.37793 32.5814 0.37793ZM32.5814 3.67863C33.0663 3.67886 33.5465 3.76996 33.9944 3.94674C34.4424 4.12352 34.8493 4.38252 35.1921 4.70895C35.5348 5.03537 35.8066 5.42283 35.992 5.84921C36.1774 6.27558 36.2727 6.73252 36.2724 7.19393C36.2722 7.65535 36.1764 8.1122 35.9906 8.5384C35.8048 8.9646 35.5326 9.35181 35.1895 9.67792C34.8465 10.004 34.4392 10.2627 33.9911 10.439C33.543 10.6154 33.0627 10.7061 32.5778 10.7058C31.5982 10.7054 30.6588 10.3347 29.9665 9.67526C29.2741 9.01586 28.8854 8.12177 28.8859 7.18968C28.8863 6.25759 29.2759 5.36385 29.969 4.70508C30.662 4.04632 31.6017 3.67648 32.5814 3.67693V3.67863ZM21.8412 3.78423C9.99657 3.78423 0.36084 12.9523 0.36084 24.222C0.36084 35.4918 9.99657 44.6598 21.8412 44.6598C33.6858 44.6598 43.3216 35.4918 43.3216 24.222C43.3216 20.7987 42.4301 17.5866 40.8603 14.7474C40.6222 15.197 40.3823 15.6245 40.1335 16.0793C39.6627 16.9445 39.1669 17.8182 38.7337 18.6868C39.1812 19.9045 39.4891 21.1921 39.6287 22.5189H37.2802C37.1513 23.0894 37.0564 23.6259 37.0564 24.1692V25.9252H39.6305C39.3876 28.3263 38.605 30.6497 37.3357 32.7378H32.0802C32.474 31.1402 32.7013 29.374 32.8624 27.5755H29.3361C29.1692 29.3181 28.8519 31.0447 28.3873 32.7378H15.2951C14.6901 30.5087 14.3337 28.2253 14.2318 25.9252H28.1045V24.1692C28.0907 23.6132 28.0157 23.0601 27.8808 22.5189H14.2336C14.3355 20.2188 14.6919 17.9353 15.2968 15.7063H24.8628C24.2419 14.5907 23.6627 13.4546 23.1264 12.3H16.5266C18.007 9.08613 19.9635 7.19053 21.8412 7.19053C21.8412 6.00684 22.0649 4.89468 22.457 3.83703C22.2511 3.83021 22.0488 3.78423 21.8412 3.78423ZM14.4573 8.73358C13.7445 9.86636 13.1451 11.0604 12.6673 12.3H9.08723C10.6313 10.8068 12.4518 9.59776 14.4573 8.73358ZM6.3467 15.7063H11.6022C11.0608 17.9436 10.7426 20.2246 10.6517 22.5189H4.05188C4.29394 20.1176 5.07662 17.7941 6.3467 15.7063ZM4.05188 25.9252H10.6535C10.7591 28.3522 11.0885 30.6429 11.604 32.7378H6.3467C5.07816 30.6493 4.29559 28.3261 4.05188 25.9252ZM9.08723 36.1441H12.6673C13.1828 37.4657 13.7861 38.6528 14.4573 39.7105C12.4518 38.8463 10.6313 37.6372 9.08723 36.1441ZM16.5266 36.1441H27.1558C25.6754 39.3579 23.7189 41.2535 21.8412 41.2535C19.9635 41.2535 18.0052 39.3579 16.5266 36.1441ZM31.0151 36.1441H34.5952C33.0511 37.6372 31.2306 38.8463 29.2251 39.7105C29.8963 38.6545 30.4996 37.4674 31.0151 36.1441Z" fill="#FDCC4F"/>
</svg>
