<svg width="20" height="18" viewBox="0 0 20 18" fill="none" xmlns="http://www.w3.org/2000/svg">
<path d="M0.148804 2.06504C0.148804 1.39247 0.773429 0.847412 1.54412 0.847412H17.7535C18.5242 0.847412 19.1488 1.39247 19.1488 2.06504V16.6298C19.1488 17.3023 18.5242 17.8474 17.7535 17.8474H1.54412C0.773429 17.8474 0.148804 17.3023 0.148804 16.6298V2.06504ZM6.01862 15.0785V7.40197H3.16743V15.0785H6.01862ZM4.59362 6.35329C5.58755 6.35329 6.20624 5.76466 6.20624 5.02729C6.18843 4.27397 5.58874 3.70129 4.61262 3.70129C3.63649 3.70129 2.9988 4.27504 2.9988 5.02729C2.9988 5.76466 3.61749 6.35329 4.57462 6.35329H4.59362ZM10.4219 15.0785V10.7913C10.4219 10.5618 10.4409 10.3323 10.5169 10.1687C10.7223 9.71079 11.1914 9.23585 11.9799 9.23585C13.0118 9.23585 13.4239 9.93923 13.4239 10.972V15.0785H16.2751V10.6755C16.2751 8.31679 14.8691 7.22029 12.9928 7.22029C11.4799 7.22029 10.8019 7.96404 10.4219 8.48785V8.51441H10.4029C10.4092 8.50554 10.4155 8.49669 10.4219 8.48785V7.40197H7.57187C7.60749 8.12235 7.57187 15.0785 7.57187 15.0785H10.4219Z" fill="white"/>
</svg>
