<svg width="594" height="435" viewBox="0 0 594 435" fill="none" xmlns="http://www.w3.org/2000/svg">
<path d="M204.352 291.182C205.419 294.524 205.478 298.187 204.519 301.573C203.744 304.555 199.505 304.465 198.354 305.972C197.122 309.002 196.115 312.149 195.344 315.378C193.794 321.379 192.736 327.613 189.854 332.8C185.204 340.519 179.365 339.349 184.913 351.917C184.297 356.915 184.034 359.42 183.604 364.423C180.733 364.013 179.295 363.802 176.424 363.365C177.587 367.522 178.602 371.098 179.834 375.241C179.171 379.316 177.253 382.411 175.835 386.118C177.102 387.769 177.734 388.592 178.997 390.247C179.384 393.31 179.598 394.84 180.07 397.894C179.605 398.767 179.377 399.203 178.931 400.071C181.407 402.77 182.635 404.147 185.076 406.873C183.867 407.363 183.267 407.601 182.085 408.074C184.27 413.512 186.219 418.15 188.563 423.543C192.748 426.35 196.537 427.889 198.819 433.089C198.432 433.732 198.223 434.051 197.839 434.685C189.098 433.084 184.15 423.575 178.997 416.342C174.506 410.444 171.279 402.433 164.766 398.839C164.378 396.356 164.212 395.11 163.909 392.604C164.549 391.079 164.886 390.31 165.595 388.763C161.643 384.377 159.523 377.818 157.489 372.304C154.804 365.106 152.162 357.459 149.771 349.974C147.76 346.07 146.761 344.126 144.781 340.195C144.44 333.641 142.843 328.324 139.48 323.412C133.785 315.382 125.997 310.07 118.999 303.03C115.326 297.781 109.762 289.203 107.999 282.788C105.02 274.102 103.001 264.143 106.171 255.506C108.007 250.418 111.843 248.111 115.28 244.26C121.188 237.513 128.817 235.354 134.912 244.26C141.851 242.2 141.038 243.041 147.117 246.784C153.518 251.233 158.559 256.329 165.327 260.585C169.714 270.908 165.862 268.618 176.025 274.813C185.065 282.194 198.928 278.951 204.352 291.182ZM108.693 247.809C108.185 248.372 107.918 248.655 107.434 249.217C108.828 249.276 110.088 247.868 111.514 247.868C108.883 246.181 107.565 245.34 104.927 243.676C103.497 247.724 101.827 246.824 96.4493 243.478C96.4493 243.478 96.86 239.911 96.1083 239.173C95.3566 238.435 95.6666 231.998 95.6666 231.998C92.1795 228.944 88.642 228.984 84.4923 228.22C84.4923 228.22 85.5346 224.702 86.2281 224.239C86.9217 223.775 90.3468 219.066 90.3468 219.066C90.8932 217.545 91.1721 216.785 91.7378 215.265C89.6726 213.915 88.6381 213.272 86.5962 211.958C81.3151 214.743 80.9936 214.063 78.6417 220.644L71.3652 220.357C70.1564 217.032 69.4086 214.257 67.8433 211.149C69.7496 207.024 71.8961 203.771 73.4769 199.071C73.5196 198.378 75.6505 194.613 75.6505 194.613C78.909 193.488 80.5364 192.917 83.7871 191.775L86.4993 194.501L91.5363 194.114C91.5363 194.114 93.3806 191.203 94.0625 191.415C94.7444 191.626 100.533 192.161 100.533 192.161C100.673 194.519 103.35 201.981 103.885 204.131C103.885 204.131 106.74 202.876 107.724 201.644C108.499 201.046 109.208 191.572 109.243 190.911C112.254 185.607 115.625 181.887 119.65 177.61C119.813 177.16 125.02 165.712 125.602 165.532C126.008 165.257 133.661 159.149 133.986 158.865C139.081 156.432 142.561 153.04 146.482 148.605L150.515 152.104C148.055 157.718 151.313 155.199 155.432 153.323C160.492 150.971 160.356 150.624 163.518 147.516C160.761 147.978 157.948 147.541 155.393 146.252C156.168 143.981 156.555 142.847 157.33 140.571C156.85 139.599 156.61 139.109 156.137 138.142L151.875 138.461C153.89 136.405 154.897 135.375 156.912 133.306C161.069 134.458 164.371 136.905 168.757 133.936C169.318 133.131 173.522 130.027 173.522 130.027L175.243 131.952C172.449 135.861 169.376 138.227 167.958 143.166C171.356 143.99 174.251 144.709 177.501 146.207C178.439 143.477 178.916 142.109 179.873 139.37C177.319 134.579 178.218 129.474 179.83 124.449C179.83 124.449 176.397 121.125 175.777 120.918C175.157 120.711 172.945 114.548 173.518 113.721C174.386 109.492 173.646 103.977 173.518 100.338C171.833 102.439 170.992 103.487 169.307 105.574L164.27 104.585C162.995 97.3875 166.571 97.248 162.27 91.9356C162.27 91.9356 157.741 93.7934 157.547 94.5536C154.789 99.5017 151.503 102.956 148.268 106.933C148.442 108.957 148.535 109.969 148.744 111.998L144.285 118.606L140.999 119.955C139.686 123.909 137.899 126.779 135.598 130.009L133.703 129.717C134.633 125.34 135.125 123.163 136.148 118.808C132.851 115.318 129.523 112.551 127.578 107.796C127.779 105.426 127.895 104.243 128.151 101.886C130.863 98.8629 132.231 97.347 134.943 94.3062C134.943 94.3062 140.755 90.3297 141.456 89.9833C142.158 89.637 146.369 84.9588 146.369 84.9588C148.915 83.3124 150.182 82.4937 152.708 80.8473C152.708 80.8473 150.453 78.8636 151.426 78.2248C151.894 77.8785 161.112 72.9529 161.561 72.719C164.948 72.6785 166.021 68.8909 165.61 65.8276C164.061 65.0449 163.286 64.6626 161.798 63.9069C160.066 66.2055 159.198 67.3525 157.466 69.6377C157.381 67.2086 157.354 65.9986 157.342 63.5875C157.342 63.5875 155.587 60.4792 157.296 57.3754C159.004 54.2716 160.205 49.4629 160.205 49.4629C160.205 49.4629 154.727 52.0674 154.483 53.9162C154.238 55.765 151.546 60.8705 151.255 62.0671C150.965 63.2636 147.493 66.7093 147.493 66.7093C141.739 71.6079 143.161 67.1816 134.947 64.1993C132.905 65.7512 131.975 67.7349 130.367 69.7996C127.554 68.3691 124.997 67.9508 122.029 67.4335C122.982 65.3823 123.467 64.3522 124.459 62.301C123.199 60.5017 122.393 58.9408 120.413 58.329C120.111 57.2269 119.972 56.6782 119.72 55.5986C117.178 56.5702 115.845 58.1221 113.47 59.5525C110.643 59.134 107.796 58.9117 104.946 58.8868C104.686 57.6075 104.484 56.3132 104.342 55.0093C104.342 55.0093 101.49 53.9792 101.467 53.4034C100.847 50.646 102.796 49.4135 100.851 48.0865C95.3915 50.4211 88.7156 54.2536 83.7677 58.392L82.7759 57.9422C81.3384 58.9408 76.8943 63.3671 75.8017 64.6491C75.4906 65.6084 75.2317 66.5894 75.0268 67.5864L71.3149 70.6813C70.4548 70.5598 70.0363 70.5058 69.211 70.4114C69.0328 70.029 68.9514 69.8401 68.8003 69.4757C68.8003 69.4757 64.6313 71.8553 63.4805 72.9259C62.3298 73.9965 59.6408 76.8754 59.9934 77.0688C60.346 77.2622 62.7482 77.3342 62.7482 77.3342C58.8969 81.1442 51.3802 84.2255 47.0639 87.5273C46.5253 88.112 41.8797 92.6958 40.7794 93.501C39.679 94.3061 35.6107 97.0051 35.6107 97.0051C35.6107 97.0051 36.2035 98.7279 36.1299 99.2992C36.0563 99.8705 39.2955 101.764 39.2955 101.764C33.4836 104.976 22.8866 111.476 16.7609 114.692C13.8627 115.952 4.02523 120.54 0.445122 122.339C-1.17832 124.746 1.99488 122.92 4.24601 122.461C16.8229 118.232 29.7291 109.245 41.2056 103.253L36.4437 107.207H38.0478C38.0478 107.207 41.5078 104.585 42.4338 103.514C43.3598 102.444 44.5881 100.365 47.1879 98.2781C49.7878 96.1909 52.6743 94.3286 52.6743 94.3286C51.7134 95.939 51.2446 96.7487 50.3495 98.3771C50.3495 98.3771 57.4439 94.711 58.3273 94.1082C59.2107 93.5055 60.4158 94.9449 59.234 96.9871C58.0523 99.0293 57.1029 102.938 58.3118 103.51C59.5207 104.081 62.0314 106.209 62.0314 106.209C60.2143 109.888 57.7926 112.376 57.9554 116.815C56.3591 120.832 55.0882 124.341 53.7553 128.457C47.9628 135.204 50.3457 132.083 50.3109 140.152C46.9206 145.55 42.6663 149.554 38.5864 153.098C33.9369 160.359 30.7094 166.724 33.6618 175.882C35.5371 177.996 37.2264 179.692 38.9157 182.09C37.9935 183.781 37.5403 184.627 36.6491 186.309C37.1179 188.909 37.3155 197.051 38.1021 200.704C38.877 202.854 41.9766 206.727 41.9766 206.727L44.995 207.339C44.9601 205.841 44.9484 205.089 44.9368 203.592C42.3524 201.504 40.6748 196.192 39.6868 193.479C39.8457 193.223 41.1901 185.486 41.8992 185.122C41.8992 185.122 42.5811 188.558 42.4455 189.656C43.2204 195.054 46.8702 201.77 49.0322 206.165C50.0319 208.625 52.6782 216.061 54.7123 218.422C55.6926 219.219 61.8416 221.508 62.9884 222.102C64.3988 222.79 68.2152 227.671 68.2152 227.671C71.0863 228.962 72.3882 228.494 74.8292 226.407C76.0511 229.01 77.6743 231.331 79.6181 233.253C79.6181 233.253 84.0235 232.664 85.0154 233.631C89.3782 238.03 89.9051 242.924 93.834 247.639C99.518 254.211 102.73 246.451 108.693 247.809ZM130.863 52.1349C129.453 53.6733 128.748 54.4425 127.337 55.9719C127.665 58.8879 128.265 61.7537 129.127 64.5186C130.677 62.8408 131.452 61.9951 133.002 60.3082C135.327 59.8584 136.489 59.629 138.814 59.1972C139.077 60.3038 139.201 60.857 139.515 61.9726L145.327 58.5494C146.156 57.1505 146.54 54.5325 147.346 52.2878C147.652 51.2892 150.6 45.7564 150.678 45.0051C150.755 44.2539 148.473 44.7892 148.473 44.7892L145.544 48.7387C145.897 47.3892 146.075 46.701 146.451 45.3515C144.738 46.7685 143.874 47.4792 142.146 48.8962C141.96 43.7052 143.754 39.1709 139.434 34.6501C136.505 37.2052 128.926 44.8207 125.842 47.8256C125.454 50.2366 125.284 51.4512 125.028 53.9117C127.147 52.1124 128.205 51.1813 130.309 49.355C130.526 50.4391 130.631 50.9968 130.863 52.1259V52.1349ZM157.95 39.5622L154.951 40.3719C153.402 44.3124 152.689 47.3667 150.965 51.1903L153.289 51.7526C153.758 51.2397 159.632 44.7532 160.194 44.164C161.205 43.1024 162.367 39.1574 162.367 39.1574C160.876 40.8173 160.132 41.645 158.632 43.2958C158.33 41.7934 158.194 41.0467 157.95 39.5622ZM149.461 33.5526C147.667 38.5816 150.236 39.6477 153.158 38.1723C153.932 37.4166 158.016 35.7072 158.016 35.7072L158.64 36.6069L160.907 35.9861C160.793 35.0322 160.737 34.0702 160.74 33.1072C160.821 32.5405 159.605 33.4221 160.353 30.8806C161.1 28.3391 161.515 26.2654 161.515 26.2654C161.515 26.2654 160.88 24.2052 159.578 26.009C158.276 27.8128 155.385 30.2823 155.385 30.2823C155.153 28.2806 155.068 27.291 154.951 25.3342C154.951 25.3342 160.167 23.0491 158.969 22.2844C157.772 21.5197 157.42 20.0353 155.219 21.3173C152.293 22.8557 145.49 26.5982 146.869 29.9719C147.985 31.182 150.244 30.7591 149.461 33.5526ZM164.305 22.9681C165.196 22.1765 167.462 19.1401 167.462 19.1401C164.835 16.7111 165.343 17.4938 163.677 20.3771L162.58 21.0249C162.58 21.0249 163.41 23.7598 164.305 22.9681ZM163.944 38.0014C164.405 38.4838 164.958 38.8307 165.558 39.0131C166.159 39.1955 166.788 39.208 167.393 39.0494C168.768 37.0927 167.978 35.9591 167.904 33.5931C167.606 31.6813 167.633 26.9851 164.456 28.4335C164.456 28.4335 163.053 33.3816 162.677 34.5107C162.302 35.6398 162.344 36.337 163.937 38.0014H163.944ZM171.19 40.8757C172.984 41.3526 174.472 42.3872 177.002 42.792C178.032 42.792 182.426 41.0872 182.976 40.3719C183.526 39.6567 182.903 37.547 182.903 35.5408C182.903 33.5346 178.567 35.6757 178.133 34.5917C177.699 33.5076 176.583 34.1418 175.618 32.4415C174.654 30.7411 174.224 28.546 173.483 27.7903C172.743 27.0346 170.384 31.245 170.566 31.7713C171.186 35.0595 169.566 37.2142 171.182 40.8757H171.19ZM167.168 47.2588C168.369 46.4086 168.133 44.7218 168.133 44.7218C163.382 41.8384 163.351 44.3934 161.961 49.7688C164.154 49.4045 164.545 49.1346 167.16 47.2588H167.168ZM163.731 53.6958C162.77 55.0768 160.659 56.3003 160.659 56.3003C164.235 58.9633 165.308 61.6038 167.017 65.9311C169.051 64.1318 170.066 63.2006 172.085 61.3788C170.148 74.3473 173.042 65.5037 174.774 73.4027C174.774 73.4027 171.597 76.583 170.845 78.1529C170.093 79.7228 168.52 77.8515 167.699 79.6328C166.877 81.4141 163.801 82.4982 162.809 82.4352C161.817 82.3723 158.811 85.9124 158.811 85.9124C158.811 85.9124 164.111 86.4072 165.703 86.1913C167.296 85.9754 167.013 87.0639 167.404 88.6923C167.796 90.3207 168.617 92.5518 168.675 93.8158C168.733 95.0799 171.279 96.2719 172.096 95.7546C172.914 95.2373 173.515 87.9231 173.515 87.9231C175.064 90.901 175.622 91.8816 178.625 89.8754C178.625 89.8754 179.04 86.4027 179.16 85.1072C179.28 83.8117 177.753 82.2913 177.664 81.2432C177.575 80.1951 179.33 77.838 179.838 77.1363C180.345 76.4345 181.593 81.1847 181.903 82.8491C182.213 84.5134 183.48 81.1577 183.48 81.1577C188.129 77.4961 189.021 77.1093 185.719 70.8117C186.611 66.8352 189.718 57.5778 184.793 54.8069C184.793 54.8069 180.76 54.519 180.919 53.4574C181.078 52.3958 184.836 47.0699 179.896 49.9308C178.439 50.7764 179.024 46.1522 179.024 46.1522C179.024 46.1522 172.519 47.1058 172.236 47.5332C171.953 47.9605 169.167 48.5993 168.842 48.2709C168.516 47.9425 164.692 52.3103 163.723 53.6958H163.731ZM171.504 23.4764C172.869 23.5537 174.222 23.8025 175.541 24.2187C176.11 24.0612 176.397 23.9848 176.967 23.8363C177.951 21.5287 178.451 20.3771 179.47 18.074C176.296 18.3709 176.668 15.3751 174.747 14.5384C173.778 15.492 165.742 22.2349 171.496 23.4764H171.504ZM183.29 23.3595C186.479 20.3367 189.133 17.7951 192.252 14.6913C194.41 14.3405 195.487 14.174 197.653 13.8547C197.479 15.447 197.397 16.2477 197.266 17.8446C195.913 17.5972 195.243 17.4803 193.91 17.2553C192.481 19.2661 191.76 20.2737 190.322 22.2799C189.803 21.2633 189.547 20.755 189.059 19.7474C187.947 20.9034 187.389 21.4792 186.266 22.6353C186.917 25.7436 187.072 25.91 185.685 28.8204C182.639 23.283 182.999 25.2218 180.136 29.0183C183.511 30.0394 185.173 33.9664 189.268 34.2363C190.95 33.0218 193.918 29.5041 195.286 28.1187C197.413 24.4796 199.935 19.9093 202.736 15.1996C204.143 12.8695 205.627 10.5349 206.138 10.1931C207.161 9.50933 213.202 7.46262 213.202 7.46262C215.527 4.48027 216.689 2.98685 218.994 0C216.259 0.557785 214.891 0.854668 212.152 1.46643C212.152 1.46643 209.571 5.9647 208.118 4.26885C206.665 2.57301 203.949 5.04705 203.949 5.04705C203.949 5.04705 198.835 6.09515 195.693 5.9467C192.55 5.79826 192.45 6.84636 192.45 6.84636C192.112 7.66954 189.865 13.1124 189.482 14.1111C188.827 13.3104 188.505 12.9145 187.881 12.1273C187.854 10.5304 187.85 9.73425 187.881 8.14636C184.553 10.6699 182.55 14.318 180.132 17.8941C180.012 18.9737 179.958 19.5135 179.857 20.5931C180.903 21.7671 181.818 22.8152 183.29 23.3595ZM240.161 73.3802C240.161 73.3802 242.284 73.0294 243.338 71.1311C244.392 69.2328 246.694 66.8442 246.694 66.8442C246.694 66.8442 249.793 60.9695 250.049 60.2723C250.274 58.6754 250.281 53.9162 249.975 52.5218L254.319 50.4481C255.779 47.0249 253.3 43.3363 252.033 40.6283C252.749 39.3643 253.102 38.7346 253.811 37.4796C253.811 37.4796 256.349 40.9792 256.74 40.2685C257.132 39.5578 256.496 37.7719 256.632 36.391C256.767 35.01 255.857 33.0713 255.857 33.0713L254.532 32.2256C254.532 32.2256 255.326 29.1758 255.737 29.7155C258.038 30.1654 257.589 22.0685 258.062 19.9318C262.083 15.7079 264.513 11.4346 267.748 6.46401C265.423 5.4384 264.3 4.9346 262.041 3.94498C259.255 5.98269 256.946 7.7865 255.094 11.0567C254.911 11.1557 253.195 7.75951 253.28 7.13875L250.619 6.68892C250.619 6.68892 249.154 2.34809 248.809 1.0391C248.464 -0.269897 246.953 2.94187 246.953 2.94187C243.819 3.30173 241.215 3.6301 238.073 4.06193C236.306 6.19861 235.411 7.2647 233.601 9.40587L231.711 9.01003C231.711 8.0294 231.711 7.53909 231.711 6.55847C230.792 7.67854 230.327 8.23632 229.386 9.35639L224.442 6.26608C224.442 6.26608 219.633 6.90934 219.141 7.21072C217.111 8.86158 216.774 9.27092 214.546 9.50933C213.988 9.61729 209.676 13.6342 208.587 13.036C207.289 16.7246 205.805 19.491 203.232 22.163C200.729 26.2969 198.583 29.774 196.297 34.0924C196.684 36.0356 196.874 37.0117 197.3 38.973L199.238 37.7674C201.036 38.1183 204.085 37.9069 205.921 39.4723C205.921 39.4723 206.437 41.1142 206.007 41.6045C205.577 42.0948 205.569 45.329 205.201 46.8899C204.833 48.4508 206.208 49.346 206.813 49.4854C207.618 50.2636 203.856 55.7245 203.713 56.1788C206.425 56.966 206.355 55.846 209.409 58.5404C210.451 59.0757 208.331 60.6366 207.704 60.4882C207.076 60.3397 204.554 62.166 203.786 62.6923C201.872 63.8034 198.924 64.2802 199.784 67.519C199.784 67.519 203.984 66.6193 204.116 65.9266C204.248 65.2339 207.409 64.4647 207.409 64.4647C207.409 64.4647 206.929 66.0525 205.813 69.2463C205.84 70.8342 199.517 77.6221 201.698 78.4543C201.698 78.4543 200.148 80.366 198.831 81.8145C196.894 85.0892 197.731 90.1318 197.339 93.2311C197.289 93.5325 197.669 97.7293 197.669 97.7293C197.669 97.7293 198.831 100.725 199.083 101.368C199.335 102.012 205.023 104.247 205.972 103.959C207.611 103.244 207.909 100.878 209.974 98.5615C213.148 94.3781 216.077 87.8916 218.111 83.6543C219.42 84.7653 224.283 82.3947 225.19 82.0124C225.19 82.0124 229.452 80.3705 230.13 78.9671C230.808 77.5636 231.044 75.7463 231.443 73.911C231.842 72.0757 235.705 72.9439 236.895 71.7383C238.084 70.5328 240.161 73.3802 240.161 73.3802ZM243.795 93.4695C246.585 93.8923 251.068 92.9882 253.939 90.5501C255.431 89.8079 254.276 85.494 254.369 84.1131C254.462 82.7321 253.106 81.8639 252.405 81.729C251.703 81.594 250.774 82.1788 250.27 81.846C249.766 81.5131 247.713 84.8418 246.108 82.8626C244.504 80.8833 241.637 83.3124 238.848 84.5944C236.058 85.8764 237.747 86.6996 237.395 90.4421C237.042 94.1847 241.835 93.1096 243.795 93.4785V93.4695ZM292.359 37.4301C292.844 37.664 295.904 37.4301 295.904 37.4301L296.362 35.3699C297.478 35.145 301.685 31.0965 301.685 31.0965C301.685 31.0965 302.979 32.0456 303.34 33.3052C303.7 34.5647 306.354 37.0117 306.61 35.4778C306.866 33.9439 305.13 26.2924 305.13 26.2924C305.13 26.2924 302.104 24.1512 304.274 24.1962C306.443 24.2412 308.896 23.8633 309.462 25.7256C310.027 27.5879 311.825 28.9149 311.825 28.9149C311.825 28.9149 313.402 24.565 310.175 21.8751C306.947 19.1851 306.323 18.2765 305.409 18.227C300.628 16.5941 299.911 17.0439 296.792 21.5602C296.35 22.6758 293.56 19.7249 292.177 21.5377C290.794 23.3505 290.174 22.6668 289.852 24.0477C288.783 31.164 286.683 32.3875 292.359 37.4301ZM332.388 18.9512C333.124 17.4038 331.252 14.291 330.512 13.7422C329.939 14.7678 329.644 15.2806 329.059 16.3062C330.016 18.2899 330.501 19.2841 331.477 21.2543C331.742 20.4671 332.046 19.6982 332.388 18.9512ZM337.789 17.0934C339.338 16.6436 345.003 13.1349 346.565 12.0509C348.723 10.5529 346.127 9.80172 346.127 9.80172C344.833 6.72491 344.124 5.82075 341.07 8.73113C340.067 9.50483 340.264 9.74774 340.017 13.5308C339.838 16.9315 338.935 13.8142 338.381 12.4512C337.975 11.727 337.862 8.36228 337.355 6.15363C336.847 3.94498 336.301 8.40276 335.468 10.5394C334.635 12.6761 334.336 14.7318 333.984 15.3796L335.383 16.864C336.174 17.0521 336.982 17.1217 337.789 17.0709V17.0934ZM256.461 132.308C259.348 133.324 259.511 131.439 262.107 129.433C263.095 128.484 263.746 125.96 264.551 124.561C265.357 123.163 264.799 122.717 264.641 121.795C264.482 120.873 262.808 120.221 261.769 122.771C261.25 124.049 259.991 124.705 258.542 125.394C254.66 126.734 250.216 131.187 256.461 132.308ZM263.436 108.917C263.436 108.917 262.234 111.017 262.196 111.939C262.366 114.018 265.377 117.337 266.872 117.378C266.958 121.462 266.741 121.876 267.539 126.671C267.67 128.826 267.097 128.92 266.892 129.37C266.415 130.933 265.66 132.362 264.675 133.563C263.091 135.429 263.757 138.646 263.757 138.646C265.134 137.296 266.581 136.045 268.089 134.898C269.91 133.742 274.649 131.804 275.644 131.124C277.818 129.622 276.256 127.036 276.888 125.34C276.888 125.34 275.044 122.587 274.323 120.841C273.603 119.096 271.898 119.631 271.254 119.177C270.611 118.723 271.282 116.411 271.282 116.411C271.378 114.782 271.39 109.906 271.464 107.864C271.305 106.942 269.236 107.9 268.089 108.84C266.117 110.873 264.482 111.615 263.424 108.917H263.436ZM430.875 23.5934C430.875 23.5934 432.929 26.4048 433.432 26.5893C433.936 26.7737 438.469 28.4335 438.469 28.4335C438.063 26.4543 431.604 24.1512 430.875 23.5934ZM425.772 20.2287C426.774 21.0427 427.839 21.746 428.953 22.3294C428.953 22.3294 428.953 22.3294 429.426 21.3803C429.899 20.4311 429.426 21.3803 430.31 21.1553C431.193 20.9304 432.119 21.8481 432.119 21.8481C434.076 20.0488 430.348 18.7263 437.33 21.6457C439.601 22.5903 438.318 21.5512 438.156 20.827C437.993 20.1028 435.726 17.3228 434.773 16.7425C433.82 16.1623 434.773 16.7425 434.626 17.1654C434.479 17.5882 433.022 18.155 433.022 18.155C431.29 16.8723 429.488 15.7213 427.628 14.7093C424.777 13.1889 427.454 14.9882 426.505 14.4259C424.769 13.3419 424.533 12.7886 423.362 12.4422C422.711 13.6207 422.359 14.2415 421.596 15.465C423.18 18.146 422.518 17.7142 425.784 20.2287H425.772ZM471.558 35.0145C473.139 36.9398 474.054 37.0162 475.204 37.7584C475.204 37.7584 477.335 39.5038 476.89 38.6941C476.305 37.4166 472.108 34.2453 470.783 33.8405C470.783 33.8405 470.783 33.836 471.558 35.0145ZM541.963 143.661C540.4 143.249 538.888 142.608 537.465 141.754C535.043 140.314 537.465 141.754 536.647 140.404C536.177 139.721 535.905 138.881 535.872 138.007C536.147 138.316 536.472 138.559 536.829 138.72C537.186 138.882 537.566 138.959 537.949 138.947C539.15 138.843 536.31 137.022 536.31 137.022L534.245 136.225C533.579 135.326 529.111 128.79 528.611 127.404C527.627 125.128 528.611 127.404 529.243 127.823C529.874 128.241 531.641 129.905 533.075 130.315C534.508 130.724 532.18 129.415 531.664 128.569C530.363 126.644 527.488 125.322 525.593 123.248C524.128 121.624 522.393 120.387 521.459 119.303C519.223 117.054 515.876 114.467 514.322 111.134C514.056 110.648 513.696 110.24 513.271 109.941C512.846 109.643 512.368 109.463 511.873 109.416C512.551 110.914 513.532 112.736 514.369 114.728C517.135 119.033 525.636 126.019 528.518 130.4C529.041 132.82 527.255 134.966 529.836 137.494C529.929 137.971 533.555 140.539 535.694 142.091C537.833 143.643 536.798 144.246 536.686 145.775C536.574 147.305 536.299 147.417 536.043 148.632C535.787 149.846 538.317 152.203 538.317 152.203C539.992 154.125 541.581 156.144 543.079 158.253C543.393 158.757 543.501 159.702 542.877 161.047C542.254 162.392 544.222 163.543 544.063 165.581C543.904 167.619 544.617 167.83 544.617 167.83C544.501 168.874 544.464 169.928 544.505 170.979C543.924 174.551 538.282 171.541 537.67 176.044C537.352 177.317 536.167 176.899 534.787 178.937C533.408 180.974 537.546 181.082 537.546 181.082C539.154 181.941 539.871 184.807 542.707 183.201C543.59 181.433 543.447 180.093 546.194 179.413C548.654 177.956 546.582 175.365 549.557 173.957C550.766 173.269 551.355 173.638 552.529 173.584C553.703 173.53 552.529 173.584 555.423 172.909C558.318 172.234 556.024 171.892 556.024 171.892C556.307 171.964 553.029 167.052 553.374 166.683C553.374 166.683 551.436 162.635 550.72 161.285C548.817 158.699 547.202 157.201 544.97 154.731C543.711 153.166 539.545 149.855 542.827 150.143C544.458 150.215 542.827 150.143 544.52 149.464C546.214 148.785 546.376 149.725 547.38 148.965C548.383 148.204 547.38 148.965 547.093 148.168C546.566 146.369 546.291 147.071 547.721 144.376C548.817 142.77 547.853 142.325 547.798 140.701C547.147 137.777 551.866 139.271 548.496 135.303C548.496 135.303 546.101 136.014 545.582 136.203C544.95 137.431 545.063 143.486 541.952 143.661H541.963ZM489.835 280.809C490.362 281.452 492.895 280.512 492.895 280.512C492.895 280.512 492.896 280.512 494.523 277.592C496.15 274.673 496.332 275.343 496.332 275.343C498.095 273.94 498.975 273.243 500.738 271.853C500.959 270.733 501.067 270.175 501.28 269.059C500.505 269.005 494.445 269.959 492.411 269.428C491.338 267.836 490.795 267.035 489.699 265.425C488.994 263.625 485.464 260.661 484.623 260.45C483.198 257.229 481.764 254.759 479.001 252.884L476.564 253C476.425 254.305 476.351 254.962 476.2 256.266C477.858 258.232 478.378 258.47 480.369 261.426C481.21 262.807 482.194 263.099 483.523 263.369C485.29 263.891 484.298 269.289 485.518 272.078C488.37 278.051 483.515 277.651 489.835 280.809ZM514.31 278.303C516.003 279.446 514.31 278.303 515.252 278.497C516.193 278.69 516.519 274.759 517.057 272.424C517.596 270.089 517.968 269.959 520.052 266.446C522.137 262.933 522.544 264.233 524.733 261.732C526.922 259.231 524.733 261.732 523.326 260.184C521.92 258.637 524.059 256.136 524.435 253.765C524.81 251.395 525.144 249.038 525.144 249.038C525.144 249.038 525.144 249.038 524.415 246.73C523.687 244.422 522.962 244.449 522.962 244.449C521.501 246.28 516.666 249.33 515.31 252.663C513.88 255.331 506.673 259.716 504.767 260.904C504.449 262.834 504.283 263.81 503.934 265.744C504.353 266.291 504.63 266.965 504.732 267.687C504.835 268.409 504.758 269.15 504.511 269.824C504.984 275.222 508.126 272.779 511.672 272.568C511.672 272.568 512.629 277.152 514.31 278.303ZM534.582 232.619C534.582 232.619 538.197 231.179 539.724 229.164C541.25 227.149 539.452 227.855 537.12 227.239C534.787 226.623 535.338 225.952 534.334 224.634C533.683 224.023 531.335 216.088 531.095 215.638C529.545 218.22 529.596 220.298 529.762 225.39C530.026 228.04 534.582 232.619 534.582 232.619ZM544.052 245.007C543.838 244.049 542.471 241.193 542.471 241.193C542.471 241.193 541.266 239.618 541.088 237.99C540.909 236.361 539.995 232.452 539.995 232.452C539.448 232.691 535.032 235.768 536.31 237.85C535.194 240.275 534.621 241.494 533.447 243.936C533.447 243.936 537.19 247.027 538.185 248.273C539.181 249.519 537.496 252.564 537.496 252.564C537.496 252.564 542.413 248.966 543.614 247.935C544.815 246.905 544.261 245.947 544.052 244.985V245.007ZM536.039 260.301C532.242 263.45 529.692 258.299 527.6 261.003C526.26 262.627 525.423 260.351 524.977 264.039C524.531 267.728 524.803 269.667 523.005 272.136C521.207 274.606 523.671 275.339 523.671 275.339C523.671 275.339 523.598 275.672 525.291 272.883C526.984 270.094 526.968 270.103 526.968 270.103C526.895 273.315 531.417 274.214 532.676 274.34C531.095 273.562 531.87 269.936 531.068 268.717C530.266 267.498 531.843 265.402 531.843 265.402C533.861 264.206 541.893 262.64 541.971 259.784C541.382 258.434 542.796 255.735 542.796 255.735C542.796 255.735 537.879 258.623 536.039 260.27V260.301ZM533.001 283.602C533.679 281.533 533.672 281.533 533.672 281.533C533.672 281.533 534.229 280.031 530.762 281.906C524.276 285.253 525.81 284.704 522.404 289.05C524.934 287.363 530.758 286.872 533.001 283.571V283.602ZM516.046 289.275L518.371 288.96C518.851 288.06 519.092 287.61 519.568 286.711C521.118 285.748 521.87 285.267 523.408 284.313C523.408 284.313 522.668 283.971 519.897 284.763C517.127 285.554 517.852 284.83 515.686 285.289C514.138 285.666 512.623 286.208 511.16 286.908C512.299 287.673 513.38 288.123 516.046 289.243V289.275ZM497.797 285.055C499.734 286.769 506.054 288.136 507.739 288.204C513.163 284.412 507.239 286.27 509.424 281.529C507.231 281.677 497.801 283.584 496.828 280.773C495.375 281.902 494.651 282.469 493.194 283.611L495.092 285.348C495.092 285.348 494.461 282.55 497.797 285.024V285.055ZM564.68 263.751C564.273 263.526 564.474 263.522 564.68 263.751V263.751ZM582.212 279.702C580.918 278.982 580.186 279.315 578.977 277.952C578.59 274.939 580.027 272.95 576.187 274.835C577.59 266.797 575.118 271.317 573.886 266.99C574.114 265.807 567.524 265.411 564.68 263.751C564.908 264.012 565.137 264.575 564.482 265.47C562.816 267.755 564.482 265.47 562.584 266.288C560.685 267.107 557.934 268.636 557.934 268.636L556.772 266.95C556.772 266.95 557.318 263.837 557.849 263.023C558.38 262.208 554.265 261.354 554.265 261.354L550.82 261.687C548.666 263.85 547.926 263.122 547.287 267.687C547.027 269.9 551.739 267.202 551.739 267.202C551.739 267.202 551.084 268.515 550.266 272.307C549.449 276.099 553.331 271.934 553.331 271.934C553.331 271.934 554.269 273.4 560.174 275.825C566.078 278.249 559.658 277.269 559.658 277.269C559.658 277.269 558.356 280.786 557.721 282.46C559.271 281.704 560.046 281.331 561.596 280.584L563.614 281.529C565.621 282.469 563.614 282.563 565.842 282.482C569.844 282.284 568.519 281.457 570.612 279.333C570.612 279.333 573.99 279.486 574.816 279.734C575.641 279.981 574.358 280.813 574.211 282.478C574.064 284.142 574.273 282.523 577.28 284.893C580.286 287.264 579.659 284.443 581.65 284.07C584.285 283.031 582.58 280.948 582.216 279.671L582.212 279.702ZM593.836 266.581C594.181 264.404 593.549 262.33 591.775 262.195C591.775 262.195 588.76 263.688 587.931 265.74C586.893 268.439 589.074 267.013 589.973 267.121C587.931 268.744 586.292 270.188 583.716 270.148C583.909 271.048 583.998 271.466 584.173 272.339L588.117 271.313C592.061 270.287 589.833 270.94 592.154 270.692C594.475 270.445 593.747 267.633 593.851 266.549L593.836 266.581ZM557.469 292.981C554.888 297.223 551.818 301.034 548.345 304.308C545.427 306.93 546.202 303.039 545.547 302.589C544.892 302.14 544.385 299.589 544.637 298.348C544.594 296.845 551.026 292.198 547.887 291.717C542.657 294.02 547.411 278.618 538.398 290.858C538.398 290.858 537.972 294.052 536.283 296.202C534.818 298.797 523.261 305.774 526.841 297.794C524.741 299.544 523.687 300.426 521.579 302.194C520.215 302.301 519.533 302.351 518.169 302.45C516.605 304.304 515.143 306.271 513.791 308.338C512.191 311.006 508.661 312.71 506.662 314.483C505.5 316.431 494.651 316.485 491.865 320.528C486.479 326.237 484.503 325.274 481.163 333.519C479.466 335.854 481.214 335.166 478.451 339.817C475.596 344.648 476.297 344.954 473.686 350.213C470.973 355.678 470.012 353.361 467.684 355.844C465.355 358.327 462.05 358.84 462.05 358.84C463.608 359.833 465.032 361.088 466.273 362.565C468.462 365.115 466.273 362.565 468.288 361.089C469.644 360.06 470.915 358.887 472.085 357.585C478.672 355.224 476.204 360.131 482.771 356.186C485.685 354.765 483.767 354.423 483.767 354.423C486.163 352.634 488.666 351.047 491.257 349.673C495.038 347.738 493.686 348.701 493.686 348.701C493.686 348.701 493.686 348.728 498.789 347.801C503.891 346.875 499.974 349.151 499.974 349.151C501.296 350.716 499.506 354.679 498.27 355.116C500.815 353.649 502.094 352.916 504.655 351.45C500.78 354.918 498.82 356.659 494.937 360.158C494.937 360.158 499.258 356.623 501.637 355.808C504.016 354.994 501.195 357.972 501.195 357.972C499.355 360.509 498.413 361.778 496.491 364.319C496.41 364.441 501.621 367.315 501.753 364.958C501.753 364.958 503.21 364.351 507.526 361.517C511.842 358.683 509.076 361.517 510.18 360.415C510.521 359.888 520.254 352.858 521.505 351.468C526.5 347.383 533.21 341.571 538.437 337.073C541.924 334.972 544.947 330.906 547.105 328.445C547.105 328.445 548.534 326.606 549.763 325.962C550.991 325.319 552.308 322.625 552.308 322.625C554.877 318.27 551.22 319.971 555.408 316.17C555.148 315.45 555.02 315.09 554.726 314.37C555.113 314.109 560.592 308.118 556.307 308.253C556.307 308.253 557.659 306.062 558.352 304.825C559.046 303.588 558.794 302.576 560.53 300.534C562.266 298.491 562.56 296.791 562.56 296.791C561.487 296.463 560.945 296.296 559.848 295.95C562.262 293.957 562.138 288.492 564.374 286.504C563.587 287.048 558.108 291.695 557.485 292.95L557.469 292.981ZM500.149 369.002C499.327 369.164 495.441 371.881 494.899 371.912C494.356 371.944 495.17 370.113 494.616 370.342C494.286 370.378 487.549 376.685 487.359 376.874C486.278 379.123 485.693 380.243 484.437 382.438C487.398 380.778 488.157 379.564 492.745 376.24C494.156 375.277 495.481 374.155 496.7 372.888C496.7 372.888 501.005 368.786 500.164 368.952L500.149 369.002ZM536.167 350.923C528.235 357.42 520.013 363.426 511.536 368.916C509.444 370.662 497.855 377.094 497.886 379.537C498.634 379.577 497.886 379.537 500.598 377.818C509.638 372.259 517.712 365.25 527.48 359.043C533.292 354.823 541.471 351.679 541.583 346.182C541.599 346.187 539.08 348.436 536.167 350.923ZM375.016 302.927C374.097 303.61 367.266 317.897 366.538 311.662C365.724 314.163 365.194 315.783 363.229 321.752C359.909 331.855 363.229 321.752 361.807 327.388C360.385 333.025 362.086 329.354 359.572 331.887C357.057 334.419 359.184 335.485 358.944 337.482C358.704 339.48 363.113 339.588 363.113 339.588C364.314 338.558 364.918 338.045 366.127 337.015C366.127 337.015 371.001 334.765 371.532 333.146C372.338 328.391 372.28 325.049 375.085 320.322C376.352 317.883 374.182 314.024 376.48 311.091C378.778 308.158 377.747 305.554 377.348 302.931C376.949 300.309 375.016 302.904 375.016 302.904V302.927ZM196.653 410.57C194.042 410.723 194.17 409.671 193.782 409.945C193.395 410.219 194.871 413.022 194.871 413.022C194.871 413.022 194.898 413.022 199.032 416.449C203.167 419.877 199.528 416.211 200.939 415.442C202.349 414.673 200.939 413.283 199.273 410.408C197.607 407.534 199.261 410.395 196.653 410.548V410.57ZM223.365 415.136C221.594 413.337 222.59 417.835 222.59 417.835C223.505 418.458 224.531 418.832 225.589 418.928C225.162 417.444 224.393 416.125 223.365 415.113V415.136ZM450.988 247.454C450.911 244.256 449.132 248.772 445.397 247.643C445.397 247.643 447.141 256.19 447.334 257.692L450.329 256.068C450.818 254.749 450.923 253.28 450.628 251.885C450.136 249.577 451.143 250.045 450.988 247.432V247.454ZM459.427 214.747C458.586 215.939 458.16 216.547 457.311 217.725C457.311 217.725 460.864 211.243 454.495 217.981C450.69 222.165 449.14 223.69 447.807 226.276C447.873 227.14 447.458 233.694 447.311 234.306C446.924 235.448 446.168 240.9 445.506 242.371C443.468 246.577 443.754 247.319 439.915 249.568C438.989 246.775 438.512 245.376 437.54 242.569C437.54 242.569 443.266 245.745 435.401 239.33C431.468 236.123 429.469 234.486 428.473 233.671C427.233 232.533 425.652 232.102 427.388 227.491C429.112 223.64 429.767 226.447 429.581 222.619C429.395 218.791 431.243 221.85 429.383 218.791C427.524 215.732 428.926 216.749 427.516 215.728C426.106 214.707 420.239 217.527 420.239 217.527C420.239 217.527 418.132 214.18 418.356 212.633C418.581 211.086 420.956 214.707 418.581 211.09C416.206 207.474 419.255 208.004 415.013 206.686C412.893 206.025 410.534 205.098 408.616 204.37C406.698 203.641 405.226 203.106 404.873 203.232C404.16 203.722 397.538 205.031 397.538 206.565C397.414 206.43 396.818 205.904 394.586 204.716C390.095 202.323 389.623 202.053 388.673 201.518C387.724 200.983 385.151 200.96 385.151 200.96C385.151 200.96 384.675 200.434 382.753 198.036C380.831 195.639 383.915 197.258 380.816 195.639C379.051 194.7 377.24 193.884 375.391 193.196C376.124 202.876 376.484 200.074 382.873 205.431C385.674 208.863 388.747 202.422 392.273 207.064C394.082 211.23 394.555 211.162 397.941 211.805C398.65 212.327 398.658 215.728 398.654 216.511C398.213 217.972 393.059 224.365 393.183 226.488C392.932 227.54 395.26 228.566 391.246 229.915C387.232 231.265 386.31 231.013 384.175 232.349C382.04 233.685 381.804 233.698 380.138 235.048C375.694 237.657 373.551 236.046 370.416 240.725C362.303 236.51 366.542 232.021 361.59 224.081C361.687 224.279 361.753 224.693 359.447 222.943C356.646 220.811 356.402 222.943 355.96 219.475C355.519 216.007 355.96 218.94 355.496 215.998C355.031 213.056 355.728 212.255 352.431 209.835C350.323 208.54 346.193 202.368 345.329 200.69C343.465 201.486 341.353 200.69 342.795 205.787C344.251 212.745 346.692 214.162 349.157 218.949C351.276 226.929 354.217 228.575 358.417 233.1C359.73 238.17 364.167 241.323 366.817 245.012C367.259 245.803 369.266 248.7 371.606 248.394C373.946 248.088 377.181 248.844 378.894 246.42C379.934 244.964 381.157 243.698 382.521 242.663C382.521 242.663 385.326 242.618 384.047 245.812C383.358 247.612 379.03 257.238 378.39 258.601C378.39 258.601 373.129 262.163 371.389 264.592C369.649 267.022 369.134 268.101 367.654 269.99C365.643 272.465 363.206 274.286 360.633 276.828C357.495 279.846 356.511 281.209 356.452 282.275C356.394 283.341 356.189 290.557 356.534 292.144C356.879 293.732 358.014 296.89 357.878 298.757C357.743 300.624 359.591 299.751 356.991 304.65C355.139 308.176 353.454 311.375 352.268 314.163C348.781 324.06 340.075 324.536 341.086 337.347C340.973 338.697 343.325 338.315 339.989 340.339C334.081 343.416 333.623 346.591 332.139 352.21C331.787 354.104 331.678 355.449 330.175 356.317C327.343 357.725 325.026 361.346 322.968 363.064C322.968 363.064 321.663 364.463 318.625 364.562C315.587 364.661 316.827 364.085 314.572 364.688C312.317 365.291 312.313 365.556 311.535 364.764C310.756 363.973 310.535 364.517 310.221 362.092C309.907 359.668 309.853 361.292 309.388 356.973C308.923 352.655 309.268 355.084 307.54 349.974C305.812 344.864 307.683 346.191 304.401 341.09C301.12 335.989 302.545 338.674 301.089 335.976C299.632 333.277 299.392 335.449 298.799 330.578C298.206 325.706 297.76 325.98 297.776 324.352C297.791 322.724 297.117 324.626 297.601 318.954C298.086 313.282 296.524 314.357 298.764 311.365C301.003 308.374 303.212 310.529 301.93 305.932C300.647 301.334 301.286 304.042 299.992 299.985C298.698 295.927 298.667 297.826 297.787 294.034C296.908 290.242 296.885 294.034 296.9 290.246C296.916 286.459 297.156 285.096 296.482 282.662C295.808 280.228 295.804 280.494 294.207 278.614C292.611 276.733 290.767 279.698 292.603 276.72C294.44 273.742 295.595 273.193 295.835 270.485C296.075 267.777 297.912 269.397 296.071 267.786C294.231 266.176 298.163 265.087 290.53 263.994C281.096 262.721 283.192 265.182 282.394 259.379C280.267 259.141 271.932 259.244 269.677 262.298C268.314 264.183 269.003 263.648 264.606 263.612L260.212 263.576C259.049 263.576 253.303 264.849 253.052 264.026C252.033 255.187 247.778 253.842 244.14 248.579C242.462 246.145 238.941 245.304 238.871 241.008C238.801 236.712 238.755 232.682 238.755 232.682C239.115 230.077 237.236 229.956 237.038 223.816C236.906 221.261 235.965 219.448 235.519 217.905C235.074 216.362 235.132 215.089 237.019 213.614C240.773 210.658 241.482 210.384 242.191 209.309C242.9 208.234 245.752 201.765 245.752 201.765C245.752 201.765 248.34 200.416 249.747 200.672C251.153 200.929 252.335 199.044 252.351 197.424C252.176 195.463 254.024 189.561 255.02 188.243C255.497 187.429 259.98 183.624 259.98 183.624C260.123 182.54 260.196 182 260.34 180.925C261.913 179.89 266.985 180.835 268.337 180.875C268.635 181.006 275.311 177.416 276.361 177.326C283.103 176.242 280.794 181.154 287.264 178.505C287.264 178.505 291.914 178.082 293.316 178.505C294.719 178.928 295.866 173.48 296.106 178.505C296.881 194.555 299.504 189.795 309.667 190.866C309.667 190.866 310.132 190.326 311.31 191.955C312.488 193.583 311.798 195.202 313.662 193.853C315.525 192.503 318.776 189.804 319.474 189.804C320.171 189.804 321.066 186.03 325.777 189.296C336.289 196.759 336.371 189.152 343.573 192.107C343.632 189.525 343.217 187.492 344.829 184.06C345.945 181.658 347.541 180.574 346.336 178.829C345.131 177.083 345.774 174.942 340.706 176.759C335.638 178.577 334.453 177.74 333.775 178.689C333.097 179.638 330.288 178.658 330.288 178.658C330.288 178.658 329.64 181.501 327.459 176.355C325.278 171.209 324.774 169.045 324.774 169.045C324.774 169.045 323.329 166.058 322.627 165.784C321.926 165.509 318.334 157.907 318.904 164.128C319.473 170.349 319.47 170.349 319.47 170.349C320.361 172.324 323.557 178.734 318.892 178.721C317.788 177.52 312.573 170.228 311.802 168.402C312.399 167.709 313.015 161.609 311.484 161.366C310.562 161.366 308.02 160.804 307.327 160.26C305.18 158.155 304.092 156.688 302.22 155.091C301.539 154.022 300.565 153.254 299.457 152.914C297.621 152.365 295.102 152.361 296.025 153.989C296.947 155.618 295.567 154.529 296.951 155.618C298.334 156.706 301.786 158.339 301.786 158.339C302.174 158.708 306.161 163.62 306.207 163.773C307.408 164.754 308.651 165.664 309.931 166.499L306.943 168.105C306.92 169.738 307.637 171.771 306.525 173.503C304.002 176.076 302.619 178.865 299.57 175.104C299.57 175.104 300.732 174.024 299.57 173.21C298.407 172.396 297.245 172.936 298.407 172.396C300.643 171.721 301.72 172.751 303.057 172.135C302.828 172.239 303.1 167.749 303.258 167.533C303.258 167.533 302.321 165.635 301.166 165.631C300.012 165.626 300.934 165.356 299.082 164.542C294.661 162.113 295.517 159.891 293.072 156.675L290.089 156.135C289.997 157.34 289.763 158.525 289.395 159.657C290.131 160.426 283.056 158.973 283.645 159.126L282.037 158.591C278.55 161.132 281.6 163.049 279.461 164.556C278.066 165.644 276.505 164.029 276.466 165.905C276.427 167.781 277.163 167.799 276.431 169.697C275.699 171.595 270.08 172.437 270.08 173.242C270.035 174.058 269.949 174.871 269.821 175.675C269.821 175.675 271.096 175.941 268.356 176.768C265.617 177.596 263.497 176.525 263.738 177.335C264.854 180.228 256.535 175.365 257.043 175.765C259.096 175.212 256.43 164.938 256.562 164.969C256.562 164.969 256.283 167.133 256.593 163.62C256.712 161.988 256.905 160.365 257.17 158.757C257.17 158.757 259.538 155.757 262.494 157.075C264.458 157.893 266.525 158.329 268.612 158.366L272.149 156.175C272.653 153.359 272.901 151.947 273.401 149.131C273.401 149.131 269.457 146.459 268.833 146.468C268.209 146.477 264.071 148.141 265.702 146.504C267.333 144.867 268.701 144.574 270.08 143.751C276.136 141.974 274.311 142.352 278.573 136.914C279.716 135.564 279.949 135.011 280.848 135.276C281.747 135.542 282.483 129.172 282.483 129.172C283.455 127.022 287.907 128.799 289.43 126.473C289.88 126.023 287.539 122.519 287.83 121.705C288.12 120.891 287.993 120.621 287.83 119.267C287.617 115.691 289.492 118.34 291.433 113.577C292.642 107.877 293.576 122.843 294.095 122.848C294.769 124.683 295.901 127.998 297.009 126.482C298.117 124.966 300.318 122.929 301.209 122.884C307.989 123.851 304.924 123.401 309.125 119.101C310.221 118.574 311.283 116.964 311.283 116.964C310.895 117.049 310.98 107.76 312.12 107.455C312.96 106.442 313.569 105.102 314.227 105.385C314.886 105.669 318.373 106.002 319.036 106.285C319.698 106.568 322.631 104.207 322.631 104.207L325.595 102.938C318.079 95.1698 320.702 102.911 313.224 101.175C311.953 99.9425 310.512 100.275 310.124 98.0262C310.101 97.212 308.505 93.5504 309.349 92.6778C311.287 89.0792 310.81 89.1781 313.809 86.956C313.809 86.956 314.425 81.5311 313.162 81.1442C311.899 80.7574 310.392 79.3719 309.787 79.8982C306.091 83.119 309.733 87.7252 308.4 89.1826C307.559 89.3266 305.978 84.9228 304.591 89.1286C303.204 93.3345 302.356 94.4096 302.805 95.4937C303.599 97.0816 305.328 99.8705 305.707 101.081C309.915 103.226 302.181 103.779 302.022 106.029C301.48 107.108 302.627 110.909 303.282 110.914C303.936 110.918 307.408 109.6 307.408 109.6C307.54 111.012 307.268 112.435 306.633 113.649C305.571 115.533 311.337 117.477 304.045 116.6C296.753 115.722 297.226 118.727 297.226 118.727C296.765 115.745 296.342 118.727 296.098 114.679C295.932 112.138 295.408 109.646 294.548 107.302C294.548 107.302 294.114 108.057 293.46 107.302C292.805 106.546 291.503 107.63 291.503 108.44C291.503 109.249 288.876 110.068 288.876 110.068C286.33 109.083 285.246 106.946 283.037 105.219C283.638 101.589 284.389 98.656 284.246 94.9224C286.648 92.7138 290.333 90.2487 292.987 86.7176C294.037 84.8733 295.064 81.81 295.474 80.9058C297.478 77.3927 297.911 75.4584 299.101 71.9093C299.101 71.9093 300.697 69.2103 297.652 70.8162L294.595 72.4221C294.595 72.4221 297.199 66.7498 298.001 66.21C298.803 65.6702 301.829 65.1664 303.813 64.1093C305.796 63.0522 312.337 62.3909 314.212 61.0954C316.087 59.7999 315.7 53.8532 318.768 58.5449C321.837 63.2366 319.322 61.2439 321.868 63.2411C323.244 64.4916 332.353 68.8775 333.623 69.3993C333.623 69.3993 337.39 70.128 336.925 71.9768C336.46 73.8255 337.312 77.6086 335.565 78.3283C333.817 79.048 337.153 82.1383 330.508 78.9086C327.285 77.4017 324.143 75.6681 321.101 73.7176C324.263 78.3508 326.301 81.2072 329.733 85.593C329.791 86.4027 333.096 88.5754 333.651 87.5767C334.205 86.5781 335.2 85.9889 336.936 84.1041C340.679 79.8262 345.1 82.0934 342.186 76.0072C336.785 66.7723 338.312 74.6217 341.528 63.7539L344.55 62.5799C344.84 65.0449 344.984 66.2775 345.266 68.738C345.266 68.738 343.508 72.8809 345.569 71.437C347.63 69.993 350.881 64.3837 350.881 64.3837C354.659 68.7065 354.593 66.3764 358.095 66.2325C367.483 67.3705 352.477 57.8432 351.098 58.7249C350.195 59.2691 347.583 58.3335 347.583 58.3335C347.583 58.3335 344.871 56.0574 344.647 54.2626C344.422 52.4678 345.859 45.7159 345.859 45.7159C345.859 45.7159 345.305 39.7332 346.092 39.9986C346.878 40.264 347.758 38.7301 348.572 38.0418C349.385 37.3536 349.087 35.4823 350.342 34.3083C353.442 31.3124 354.186 30.4713 356.565 28.1097C356.565 28.1097 358.708 29.0498 358.611 30.3273C358.514 31.6048 356.673 36.0446 355.321 36.6744C353.969 37.3041 354.287 35.9906 352.5 38.4377C349.145 42.6526 349.788 42.864 350.408 47.4342C350.877 51.1948 350.846 52.009 351.315 54.8069L355.526 57.092C358.843 57.5148 361.265 57.8207 364.275 60.2408C364.275 60.2408 366.639 61.7747 367.177 62.6069C367.716 63.439 369.405 64.1318 369.405 64.1318C369.405 64.1318 374.198 64.6311 373.45 63.7764C372.702 62.9217 371.513 61.7612 368.297 59.0937C365.081 56.4262 364.574 55.5896 364.423 54.7979C364.348 53.7621 364.348 52.7209 364.423 51.6851C364.423 51.6851 365.662 49.2335 365.507 48.4418C364.977 47.6501 365.895 40.3899 367.057 42.2522C367.886 43.5747 368.464 45.4415 369.421 47.3577C370.378 49.274 369.979 50.5065 371.06 51.4062C372.141 52.3058 371.834 53.5519 373.179 55.5086C374.523 57.4654 375.589 58.8733 375.589 58.8733C376.561 54.8249 374.814 53.8532 373.628 50.4436C373.346 49.1256 371.97 42.891 371.97 42.891C372.207 42.0723 372.327 41.6629 372.555 40.8488C374.833 41.2131 375.357 45.7968 375.694 47.1463C377.046 47.2228 377.72 47.2678 379.068 47.3532C379.068 47.3532 379.169 44.7218 378.96 43.8716C378.913 41.7979 382.544 40.0166 383.454 39C383.656 38.4377 383.753 38.1543 383.95 37.592C383.113 34.5827 382.683 33.0937 381.808 30.0664C381.808 30.0664 384.965 27.5609 385.609 26.4273C386.325 25.2934 387.284 24.3957 388.391 23.8228C389.363 23.31 391.421 25.0329 390.859 22.9726C390.297 20.9124 391.901 16.765 390.084 15.6315C388.267 14.4979 388.383 12.2938 385.992 12.4827C383.602 12.6716 383.811 11.9654 381.974 12.0329C380.138 12.1003 377.755 11.1017 377.755 11.1017C377.755 11.1017 374.492 7.7685 374.895 6.65293C375.298 5.53736 373.946 3.30622 376.314 3.6256C380.707 4.29584 382.191 6.77439 385.613 7.7685C386.469 8.44774 383.892 2.95086 387.461 8.70414C391.029 14.4574 392.11 14.4574 392.11 14.4574C392.564 16.0858 392.784 16.9045 393.218 18.5374C395.853 20.7865 394.683 17.1114 396.822 17.1159C398.259 17.2868 398.081 15.7664 399.483 17.3318C400.886 18.8972 401.398 19.0232 402.227 19.9138C404.11 22.2889 404.319 25.1543 404.338 28.51C404.61 29.9865 405.01 31.4273 405.532 32.8104C405.532 32.8104 407.391 30.5612 407.523 30.1114C407.655 29.6616 407.182 30.4308 407.655 29.6616C408.128 28.8924 409.813 29.9 409.813 29.9C410.685 32.2931 413.076 33.4986 414.97 33.1252C418.132 33.9394 420.697 34.6321 423.882 35.5093C423.882 35.5093 421.169 31.3664 421.665 30.8356C422.161 30.3048 426.315 30.3048 426.97 31.3304C427.675 32.5597 428.322 33.8331 428.907 35.145C429.843 35.9099 430.724 36.7614 431.542 37.691C434.641 40.7768 435.738 40.9297 438.493 42.9854C438.493 42.9854 439.903 42.1847 438.555 40.7678C437.522 39.6289 436.542 38.4277 435.618 37.1692C435.618 37.1692 435.904 35.5273 437.001 36.4719C438.097 37.4166 440.604 39.8681 441.027 39.5712C441.449 39.2744 442.491 37.3221 442.491 37.3221C441 36.2875 438.156 33.9214 438.702 30.8716C438.702 30.8716 441.863 30.6467 442.898 31.2584C444.25 31.8297 451.689 37.2187 451.135 35.6668C450.709 34.6411 448.505 31.5688 449.973 32.8328C451.503 33.683 456.11 37.9204 457.125 37.6955C457.315 37.4436 458.396 35.3654 458.73 35.3564C459.834 34.0069 465.704 40.6688 465.773 40.4754C467.292 42.6975 469.826 42.1443 471.531 42.1982C471.523 42.0218 471.567 41.8474 471.655 41.7034C471.798 41.4965 468.792 36.8903 470.493 38.7571C472.194 40.6238 474.619 42.5536 475.506 43.3633C476.394 44.173 478.854 46.0982 477.033 44.2135C475.212 42.3287 472.988 40.0301 473.356 39.9536C473.724 39.8771 476.568 42.0363 476.591 41.573C476.615 41.1097 477.924 40.8128 477.924 40.8128C482.287 43.1384 480.303 41.9058 486.836 46.683C492.342 50.7314 498.893 53.8307 504.356 57.029C507.228 59.1342 512.183 63.9653 514.934 66.4169C515.663 67.0826 511.447 65.4408 510.362 64.6986C509.277 63.9563 506.666 62.0626 503.973 60.3128C501.28 58.5629 500.029 57.101 501.284 58.5584C502.539 60.0159 506.929 64.2127 506.929 64.2127C509.204 66.6733 514.547 70.5373 518.03 72.9484C519.708 74.3923 522.292 76.8214 522.125 77.1048C521.959 77.3882 523.594 78.2114 521.013 77.1048C518.433 75.9982 516.949 75.6653 517.828 76.6819C519.16 78.3786 520.386 80.1824 521.498 82.0799C522.439 83.6992 522.156 84.0366 522.451 84.5809C522.745 85.1252 522.013 84.7113 521.149 84.8508C520.285 84.9902 519.556 84.5764 519.677 85.6965C519.797 86.8165 520.579 86.3082 519.789 86.8255L518.995 87.3473C520.076 90.0463 523.156 92.9657 526.263 95.4937C527.693 96.4248 530.095 97.167 531.498 98.7324C532.901 100.298 535.473 103.86 535.473 103.86C536.721 105.871 534.57 106.609 536.744 108.957C539.456 112.146 543.098 116.37 544.385 120.032C544.66 121.17 543.838 121.705 544.296 122.902C544.753 124.098 544.652 126.478 544.652 126.478C544.652 126.478 541.304 121.867 540.843 120.661C540.382 119.456 540.785 119.191 538.375 117.171C534.268 114.076 529.564 110.001 526.612 107.207C526.244 106.568 525.016 104.441 523.737 102.313C522.458 100.185 522.141 99.3937 521.141 97.5404C520.142 95.6871 519.301 95.5972 518.41 92.7722C517.72 90.7631 516.917 88.8095 516.003 86.9245C515.829 86.4747 516.193 85.2961 513.733 82.7141C511.273 80.1321 513.233 80.5235 508.994 77.4601C504.756 74.3968 502.977 72.3321 504.992 75.247C507.007 78.1619 509.773 82.5117 510.215 83.1505C510.44 83.4698 512.695 85.3231 513.872 86.3397C515.05 87.3563 515.14 87.5632 511.052 84.5809C505.139 80.1141 506.147 81.5716 502.892 78.5892C500.606 76.3401 502.435 78.7646 503.43 80.9643C504.426 83.1639 504.461 84.239 506.143 85.62C507.824 87.001 511.567 89.3356 512.431 90.4691C513.295 91.6027 510.92 91.9805 510.308 92.3494C509.696 92.7183 513.795 96.2179 508.619 92.6103C505.403 90.3612 502.098 87.9186 500.094 86.3892C499.149 89.6459 498.951 89.8619 495.612 89.9248C494.717 89.7359 493.674 95.8356 494.449 97.185C495.577 100.671 499.262 107.216 502.067 108.404C502.067 108.404 500.517 107.054 503.651 108.525C505.581 109.44 507.404 110.634 509.076 112.079C510.595 114.256 511.346 115.34 512.83 117.504C512.83 117.504 518.723 122.488 519.184 123.594C520.901 127.193 524.198 130.4 523.981 134.701C524.229 138.11 524.667 137.935 525.438 140.548C526.07 142.055 527.329 148.087 527.763 149.095C527.763 149.095 532.61 152.244 527.193 150.089C521.777 147.934 522.513 146.711 521.769 147.912C521.025 149.113 520.568 149.711 522.656 153.422C524.744 157.133 525.857 158.982 525.857 158.982C524.993 159.981 525.182 163.719 525.922 164.007C526.662 164.295 531.06 167.965 531.475 168.869C531.889 169.774 529.51 172.639 527.786 173.17C526.062 173.701 527.1 178.221 523.861 172.873C520.622 167.524 521.509 167.583 519.599 164.978C517.689 162.374 515.546 159.715 515.546 159.715C515.546 159.715 515.38 157.016 513.869 158.218C512.358 159.419 513.869 162.239 511.831 161.155C509.793 160.071 506.185 154.772 506.185 154.772C506.185 154.772 503.682 158.609 503.965 159.999C504.248 161.389 508.266 164.686 509.27 165.221C510.273 165.757 511.761 161.821 512.261 164.322C512.76 166.823 512.613 172.486 512.613 172.486C514.201 175.586 516.584 178.033 519.429 179.485C521.389 182.22 522.354 183.579 524.256 186.278C524.462 187.78 524.907 190.83 524.047 193.025C522.606 197.753 522.497 200.096 519.192 203.762C517.871 205.562 518.34 205.8 515.554 206.461C512.768 207.123 509.963 207.536 509.273 207.991C508.584 208.445 510.73 210.087 507.689 210.528C504.647 210.969 502.969 208.373 500.432 211.428C499.463 213.06 493.713 217.581 494.809 218.976C496.216 219.425 497.196 215.431 498.564 218.976C499.076 221.58 507.425 225.147 508.735 225.422C507.545 229.344 506.507 230.37 505.441 234.787C506.247 238.386 502.384 241.053 500.614 242.65C499.618 243.392 500.002 246.658 497.685 244.175C495.368 241.692 494.147 239.362 494.197 238.651C494.248 237.94 488.475 233.352 488.475 233.352C487.735 235.493 486.026 239.515 487.843 242.43C489.125 243.811 491.45 243.779 491.76 245.398C492.07 247.018 494.058 245.979 494.24 250.436C494.426 257.256 493.934 257.634 493.419 261.741C493.419 261.741 487.274 260.022 487.432 258.83C487.591 257.638 488.246 258.079 487.262 254.813C485.696 250.619 484.736 246.154 484.422 241.597C484.48 240.878 485.836 241.795 484.968 237.27C484.1 232.745 484.061 232.74 484.061 232.74C484.061 232.74 480.873 231.121 481.175 229.43C481.477 227.738 479.935 224.378 479.935 224.378C478.912 228.161 474.205 227.977 473.864 223.226C473.891 222.007 477.18 223.955 472.763 218.116C468.346 212.278 469.946 212.988 466.885 211.747C463.825 210.505 459.427 214.725 459.427 214.725V214.747ZM351.811 154.569C342.19 149.905 349.959 136.576 341.818 142.609C337.994 144.948 340.144 146.207 338.192 148.609C336.239 151.011 334.274 144.471 330.865 144.408C329.16 144.376 328.261 145.478 327.812 147.458C325.386 160.988 331.086 161.794 340.451 162.028C340.451 162.028 336.963 161.906 340.354 159.189C343.744 156.472 342.023 159.221 344.782 162.131C347.789 165.1 351.698 160.782 354.829 160.287C358.242 159.558 354.275 155.838 351.811 154.569Z" fill="#D6E9FA" fill-opacity="0.45"/>
</svg>
