<svg width="416" height="426" viewBox="0 0 416 426" fill="none" xmlns="http://www.w3.org/2000/svg">
<path d="M324.272 103.458C328.368 106.051 333.088 107.425 337.904 107.425C342.72 107.425 347.44 106.051 351.536 103.458C356.334 100.421 360.033 95.8648 362.074 90.4801C364.114 85.0954 364.384 79.1763 362.842 73.6204C361.3 68.0645 358.031 63.175 353.531 59.6935C349.031 56.212 343.544 54.3284 337.904 54.3284C332.264 54.3284 326.777 56.212 322.277 59.6935C317.777 63.175 314.508 68.0645 312.966 73.6204C311.425 79.1763 311.694 85.0954 313.735 90.4801C315.775 95.8648 319.474 100.421 324.272 103.458Z" fill="#EBEBEB"/>
<path d="M330.013 77.8396C330.013 79.4388 330.476 81.002 331.344 82.3317C332.211 83.6613 333.444 84.6977 334.887 85.3096C336.33 85.9216 337.918 86.0817 339.449 85.7698C340.981 85.4578 342.388 84.6877 343.492 83.5569C344.596 82.4262 345.348 80.9855 345.653 79.417C345.957 77.8486 345.801 76.2229 345.203 74.7455C344.606 73.268 343.594 72.0052 342.295 71.1168C340.997 70.2284 339.47 69.7542 337.909 69.7542C336.872 69.753 335.844 69.9614 334.886 70.3673C333.928 70.7733 333.057 71.3688 332.323 72.1198C331.59 72.8709 331.008 73.7626 330.612 74.7441C330.215 75.7256 330.012 76.7775 330.013 77.8396Z" fill="white"/>
<path d="M324.271 100.129V103.46C328.367 106.053 333.088 107.427 337.903 107.427C342.719 107.427 347.44 106.053 351.536 103.46V100.138C351.581 98.2753 351.261 96.4226 350.596 94.6887C349.932 92.9547 348.935 91.3745 347.664 90.0411C346.394 88.7077 344.876 87.6481 343.2 86.9246C341.523 86.2011 339.723 85.8284 337.903 85.8284C336.084 85.8284 334.284 86.2011 332.607 86.9246C330.931 87.6481 329.413 88.7077 328.143 90.0411C326.872 91.3745 325.875 92.9547 325.211 94.6887C324.546 96.4226 324.226 98.2753 324.271 100.138V100.129Z" fill="white"/>
<path d="M106.143 104.593C109.478 96.006 105.384 86.2758 96.9983 82.8603C88.6127 79.4447 79.1109 83.6372 75.7756 92.2244C72.4402 100.812 76.5343 110.542 84.9199 113.957C93.3055 117.373 102.807 113.18 106.143 104.593Z" fill="#EBEBEB"/>
<path d="M99.2908 100.486C96.7948 105.598 90.9708 108.614 90.9708 108.614C90.9708 108.614 85.0969 105.589 82.6508 100.486C80.5958 96.2259 81.8937 91.6422 85.1468 90.6368C89.7977 89.1969 90.9708 97.4954 90.9708 97.4954C90.9708 97.4954 92.1606 89.1969 96.7948 90.6368C100.048 91.6422 101.346 96.2771 99.2908 100.486Z" fill="white"/>
<path fill-rule="evenodd" clip-rule="evenodd" d="M61.0354 194.851C60.0037 194.195 59.1134 193.24 57.7074 193.385C57.1832 193.436 57.2997 192.993 57.2914 192.695C57.2914 187.413 57.272 182.136 57.2331 176.865C57.2331 176.473 57.2331 176.158 57.6574 175.953C61.5928 173.9 63.2818 169.896 65.6862 166.471C66.9173 164.768 67.8014 162.83 68.2859 160.77C68.7705 158.711 68.8455 156.573 68.5067 154.483C68.332 153.29 68.8728 152.779 69.9211 152.515C71.1774 152.217 72.4171 152.566 72.8664 153.452C74.0057 155.604 74.7741 157.942 75.1378 160.362C75.3707 162.364 74.6718 164.315 74.4389 166.326C74.2642 167.783 73.9397 169.214 73.6734 170.679C74.0229 170.935 74.4222 170.807 74.7883 170.807L87.859 170.765C89.6894 170.765 90.5963 171.301 90.8542 172.545C90.9865 173.298 90.8802 174.075 90.5509 174.761C90.2216 175.448 89.6866 176.009 89.0238 176.362C88.6994 176.524 88.1086 176.362 88.0754 176.899C88.0421 177.436 88.6411 177.376 88.9074 177.589C90.4882 178.688 90.2053 180.997 88.3832 182.301C87.9506 182.624 87.0936 182.48 87.077 183.153C87.0603 183.826 87.909 183.672 88.2251 184.005C89.5064 185.291 88.8824 187.694 86.9771 188.674C86.7177 188.757 86.4646 188.859 86.22 188.98C86.0037 189.125 85.7874 189.296 86.22 189.602C88.1086 190.974 88.0754 192.891 86.22 194.297L85.6542 194.723C84.9666 195.145 84.1637 195.328 83.3662 195.243L62.8741 195.319C62.5526 195.372 62.2239 195.358 61.9079 195.278C61.5919 195.197 61.2951 195.052 61.0354 194.851Z" fill="#EBEBEB"/>
<path fill-rule="evenodd" clip-rule="evenodd" d="M41.5999 185.607C41.5999 182.258 41.5999 178.902 41.5999 175.545C41.5999 174.863 41.6581 174.531 42.4319 174.531C46.4338 174.573 50.4191 174.531 54.4127 174.531C55.2447 174.531 55.3196 174.795 55.3196 175.511C55.3196 182.258 55.3445 189.009 55.3945 195.763C55.3945 196.615 55.1698 196.862 54.3295 196.853C50.4524 196.853 46.5752 196.853 42.6815 196.896C41.7164 196.896 41.5832 196.572 41.5916 195.703C41.5999 192.321 41.5999 188.964 41.5999 185.607Z" fill="#EBEBEB"/>
<path fill-rule="evenodd" clip-rule="evenodd" d="M356.928 265.175C356.329 264.791 355.804 264.229 354.997 264.323C354.69 264.323 354.756 264.093 354.748 263.922C354.748 260.821 354.748 257.72 354.748 254.619C354.748 254.388 354.748 254.21 354.997 254.082C357.31 252.88 358.325 250.529 359.715 248.518C360.439 247.518 360.959 246.379 361.245 245.168C361.531 243.958 361.577 242.701 361.379 241.472C361.279 240.774 361.595 240.458 362.211 240.313C362.519 240.204 362.854 240.198 363.165 240.298C363.477 240.397 363.749 240.597 363.941 240.867C364.609 242.131 365.059 243.503 365.273 244.923C365.269 246.099 365.132 247.272 364.865 248.416C364.757 249.268 364.565 250.12 364.416 250.972C364.615 251.117 364.857 251.04 365.073 251.04H372.744C373.826 251.04 374.35 251.347 374.499 252.08C374.585 252.531 374.523 252.998 374.323 253.409C374.123 253.821 373.796 254.153 373.393 254.354C373.202 254.457 372.86 254.354 372.835 254.67C372.811 254.985 373.168 254.951 373.351 255.079C374.275 255.726 374.108 257.064 373.043 257.848C372.786 258.035 372.286 257.95 372.27 258.333C372.253 258.717 372.736 258.64 372.944 258.853C373.11 259.07 373.224 259.325 373.278 259.596C373.331 259.867 373.322 260.147 373.251 260.413C373.18 260.68 373.049 260.925 372.868 261.131C372.688 261.336 372.463 261.496 372.211 261.596C372.058 261.647 371.908 261.707 371.762 261.775C371.637 261.869 371.513 261.963 371.762 262.142C372.869 262.994 372.852 264.076 371.762 264.902L371.429 265.149C371.029 265.401 370.557 265.509 370.09 265.456H358.051C357.855 265.492 357.654 265.486 357.46 265.437C357.267 265.389 357.085 265.3 356.928 265.175Z" fill="#EBEBEB"/>
<path fill-rule="evenodd" clip-rule="evenodd" d="M345.463 259.748C345.463 257.779 345.463 255.803 345.463 253.835C345.463 253.434 345.463 253.238 345.979 253.247C348.325 253.247 350.671 253.247 353.017 253.247C353.475 253.247 353.55 253.4 353.55 253.818C353.55 257.794 353.55 261.77 353.55 265.746C353.55 266.248 353.417 266.393 352.926 266.393C350.646 266.393 348.375 266.393 346.095 266.393C345.529 266.393 345.454 266.197 345.454 265.695C345.496 263.684 345.471 261.716 345.463 259.748Z" fill="#EBEBEB"/>
<path d="M334.464 182.762H332.076C331.72 182.766 331.367 182.696 331.037 182.559C330.708 182.421 330.408 182.217 330.156 181.959C329.905 181.701 329.706 181.395 329.571 181.057C329.436 180.72 329.369 180.358 329.372 179.993C329.374 179.26 329.66 178.557 330.166 178.038C330.673 177.519 331.359 177.227 332.076 177.224H335.404L336.96 167.955H333.94C333.247 167.915 332.596 167.606 332.12 167.09C331.643 166.574 331.377 165.891 331.377 165.181C331.377 164.471 331.643 163.788 332.12 163.272C332.596 162.757 333.247 162.447 333.94 162.408H337.9L338.932 156.069C339.034 155.415 339.367 154.821 339.866 154.399C340.365 153.978 340.997 153.756 341.644 153.777C342.039 153.784 342.428 153.877 342.785 154.049C343.142 154.222 343.459 154.471 343.714 154.779C343.97 155.087 344.159 155.447 344.268 155.835C344.378 156.224 344.405 156.632 344.348 157.032L343.416 162.408H351.578L352.626 156.069C352.732 155.408 353.07 154.81 353.578 154.387C354.085 153.965 354.727 153.748 355.38 153.777C355.773 153.786 356.159 153.88 356.512 154.054C356.866 154.228 357.179 154.478 357.431 154.786C357.682 155.095 357.866 155.455 357.97 155.842C358.074 156.229 358.096 156.635 358.034 157.032L357.144 162.408H359.549C360.263 162.415 360.946 162.709 361.45 163.227C361.955 163.745 362.24 164.446 362.244 165.177C362.234 165.907 361.947 166.605 361.444 167.123C360.941 167.641 360.262 167.939 359.549 167.955H356.221L354.648 177.216H357.61C357.966 177.212 358.319 177.282 358.649 177.42C358.978 177.558 359.278 177.761 359.529 178.019C359.781 178.277 359.98 178.584 360.115 178.921C360.25 179.259 360.317 179.62 360.314 179.985C360.312 180.719 360.026 181.422 359.52 181.94C359.013 182.459 358.327 182.752 357.61 182.754H353.708L352.618 189.306C352.51 189.958 352.177 190.548 351.679 190.969C351.181 191.39 350.551 191.613 349.906 191.598C349.51 191.596 349.119 191.507 348.76 191.337C348.401 191.167 348.082 190.919 347.825 190.611C347.569 190.302 347.38 189.941 347.272 189.551C347.165 189.161 347.141 188.752 347.202 188.351L348.192 182.754H340.022L338.923 189.306C338.811 189.962 338.472 190.555 337.968 190.976C337.464 191.397 336.828 191.618 336.178 191.598C335.782 191.604 335.389 191.519 335.029 191.351C334.669 191.182 334.35 190.933 334.096 190.622C333.842 190.311 333.658 189.946 333.559 189.553C333.46 189.16 333.448 188.75 333.524 188.351L334.464 182.762ZM349.099 177.224L350.663 167.955H342.534L340.962 177.216L349.099 177.224Z" fill="#EBEBEB"/>
<path d="M90.4051 263.43C93.4653 261.916 96.8515 261.225 100.244 261.423C103.637 261.621 106.925 262.7 109.798 264.559C112.671 266.418 115.034 268.996 116.665 272.05C118.295 275.103 119.139 278.532 119.117 282.012C119.043 282.242 118.968 285.905 116.388 288.308C116.095 288.556 115.77 288.762 115.423 288.921C114.876 289.227 114.265 289.392 113.642 289.402C113.019 289.413 112.402 289.268 111.846 288.981C110.979 288.502 110.274 287.765 109.824 286.868L108.992 285.096C108.65 286.48 108.02 287.772 107.146 288.883C106.271 289.995 105.173 290.9 103.925 291.537C98.8832 294.093 92.6515 291.639 90.0723 286.272C87.4931 280.904 89.4649 274.472 94.5069 271.933C99.5488 269.394 105.664 271.788 108.16 277.138L108.36 277.556L108.484 277.82L112.17 285.488H112.22C112.413 285.885 112.699 286.227 113.052 286.485C113.228 286.562 113.419 286.593 113.61 286.575C113.8 286.557 113.983 286.491 114.142 286.382L114.55 286.178C115.906 285.045 116.214 282.608 116.214 281.986C116.296 279.211 115.692 276.459 114.458 273.986C112.959 270.878 110.594 268.295 107.661 266.564C104.729 264.832 101.361 264.03 97.9829 264.259C94.6053 264.488 91.3698 265.738 88.6857 267.85C86.0015 269.962 83.9893 272.842 82.9035 276.125C81.8177 279.408 81.7071 282.948 82.5857 286.295C83.4642 289.643 85.2925 292.649 87.8392 294.932C90.3859 297.216 93.5368 298.675 96.8932 299.124C100.25 299.574 103.661 298.994 106.696 297.458C108.003 296.858 109.221 296.072 110.315 295.124C110.439 294.993 110.59 294.891 110.758 294.828C110.925 294.764 111.104 294.74 111.282 294.756C111.46 294.772 111.632 294.829 111.786 294.922C111.939 295.015 112.071 295.143 112.17 295.294C112.3 295.424 112.401 295.581 112.466 295.755C112.53 295.928 112.556 296.114 112.543 296.3C112.529 296.485 112.476 296.665 112.388 296.827C112.299 296.989 112.176 297.129 112.029 297.237C110.781 298.336 109.403 299.27 107.927 300.014C105.577 301.252 103.011 301.997 100.377 302.207C97.743 302.418 95.0946 302.089 92.5862 301.239C90.0778 300.39 87.7598 299.038 85.7673 297.261C83.7749 295.485 82.1479 293.319 80.9815 290.892C79.8151 288.464 79.1325 285.823 78.9736 283.123C78.8147 280.422 79.1827 277.716 80.056 275.163C80.9294 272.61 82.2907 270.26 84.0604 268.252C85.8301 266.243 87.9729 264.615 90.3635 263.464L90.4051 263.43ZM102.602 288.828C106.122 287.056 107.594 282.412 105.689 278.391C103.784 274.369 99.2243 272.708 95.7049 274.48C92.1856 276.252 90.7961 280.972 92.6931 284.934C94.5901 288.896 99.008 290.617 102.602 288.828Z" fill="#EBEBEB"/>
<path d="M208 397.058C302.414 397.058 378.951 386.96 378.951 374.505C378.951 362.05 302.414 351.953 208 351.953C113.586 351.953 37.0491 362.05 37.0491 374.505C37.0491 386.96 113.586 397.058 208 397.058Z" fill="#EBEBEB"/>
<path d="M85.7549 292.806C81.5949 292.959 76.8609 293.206 73.3831 290.411C70.1716 287.855 67.3012 283.996 67.7338 279.591C67.8503 278.33 68.1332 277.555 69.4477 278.091C71.4529 278.943 73.0004 281.176 74.3898 282.76C76.1525 284.833 78.1025 286.73 80.2138 288.426C81.7114 289.602 83.3255 290.616 84.8481 291.749C85.0367 291.885 85.228 292.03 85.4221 292.184L85.6385 292.354H85.7549C85.7891 292.355 85.8226 292.364 85.8529 292.38C85.8832 292.396 85.9094 292.42 85.9297 292.448C85.9357 292.473 85.9357 292.499 85.9297 292.524C85.937 292.555 85.9383 292.586 85.9334 292.617C85.9285 292.648 85.9175 292.677 85.9012 292.703C85.8848 292.73 85.8634 292.752 85.8383 292.77C85.8132 292.787 85.7848 292.8 85.7549 292.806Z" fill="#99DBCB"/>
<path d="M85.9628 292.525C82.2687 292.457 78.2834 292.628 75.3215 290.063C73.9697 288.834 72.8132 287.397 71.8937 285.803C71.4694 285.087 70.2297 282.966 70.7206 282.123C71.6774 280.597 76.0786 286.826 76.686 287.422C78.9962 289.564 81.8078 291.058 84.8479 291.759C85.0365 291.895 85.2279 292.04 85.422 292.193C83.2621 291.742 81.1901 290.927 79.2902 289.782C76.6694 288.18 75.2134 285.812 73.1583 283.605C72.7174 283.128 71.3778 281.518 70.8786 282.514C70.5459 283.179 71.7772 285.258 72.0518 285.701C72.9257 287.211 74.0168 288.579 75.2882 289.756C78.2335 292.389 82.2022 292.312 85.9295 292.457C85.9458 292.477 85.9572 292.5 85.9628 292.525Z" fill="white"/>
<path d="M88.0674 295.431L87.9676 295.933C87.9636 295.954 87.9547 295.973 87.9417 295.99C87.9286 296.006 87.9118 296.019 87.8927 296.027C87.8515 296.043 87.8061 296.043 87.7649 296.027C87.7236 296.012 87.6893 295.981 87.6681 295.942C87.66 295.924 87.6557 295.906 87.6557 295.886C87.6557 295.867 87.66 295.848 87.6681 295.831C87.6681 295.831 87.6681 295.788 87.6681 295.763L87.718 295.618C87.718 295.618 87.718 295.618 87.718 295.567C86.9775 292.721 86.6863 289.756 85.9042 286.911C85.1221 284.065 84.2402 281.526 83.6828 278.748C83.3417 277.002 82.1519 268.218 85.9292 269.308C87.5932 269.802 88.7497 272.282 89.3903 273.764C90.2199 275.763 90.6905 277.899 90.7797 280.069C91.046 285.42 89.1324 290.302 88.0674 295.431Z" fill="#99DBCB"/>
<path d="M89.2825 284.499C89.3569 282.491 89.1524 280.483 88.6751 278.535C88.5087 277.862 87.685 274.632 86.6201 274.709C85.9295 274.752 85.7881 276.149 85.7881 276.609C85.5468 278.569 86.1625 280.562 86.5369 282.462C87.2748 286.331 87.7364 290.249 87.918 294.186C87.918 294.433 87.8514 294.689 87.8265 294.936C87.8015 295.183 87.7682 295.345 87.7433 295.558V295.771C87.7433 295.822 87.7433 295.873 87.7433 295.932C87.7629 295.972 87.7953 296.002 87.8348 296.02C87.8744 296.037 87.9185 296.039 87.9596 296.026C87.9596 295.864 88.0095 295.702 88.0262 295.541C88.0262 295.677 88.0262 295.805 88.0262 295.932L88.101 295.523C88.105 295.492 88.105 295.461 88.101 295.43C88.101 295.208 88.101 294.987 88.101 294.774C88.6932 291.376 89.0877 287.945 89.2825 284.499ZM88.0012 293.359C87.9014 291.059 87.6767 288.767 87.3606 286.484C87.1026 284.643 86.7698 282.82 86.3871 281.005C86.1428 279.984 85.9814 278.944 85.9046 277.896C85.9046 277.103 85.9878 274.138 87.477 275.97C88.5503 277.308 88.8166 280.145 88.9414 281.772C89.0703 283.589 89.0369 285.414 88.8415 287.225C88.6335 289.278 88.3007 291.323 88.0012 293.359Z" fill="white"/>
<path d="M90.3309 307.238C90.2812 307.244 90.231 307.244 90.1812 307.238C86.3373 307.042 81.2122 307.409 78.0173 304.81C75.6628 302.884 73.3415 299.084 74.082 295.864C74.914 292.226 79.7313 296.588 80.9959 297.636C84.3026 300.579 87.4468 303.708 90.4141 307.008L90.4641 307.085C90.5057 307.187 90.4225 307.221 90.3309 307.238Z" fill="#99DBCB"/>
<path d="M90.4642 307.127L89.8069 306.701C87.3109 305.065 84.8149 303.293 82.452 301.47C81.853 301.001 77.5266 297.057 76.8693 298.462C76.4782 299.314 77.9093 301.018 78.3669 301.64C79.1854 302.689 80.1697 303.591 81.2789 304.307C83.8414 305.943 86.9531 306.301 89.8485 307.085L90.2562 307.187L90.331 307.238C90.4226 307.221 90.4974 307.187 90.4642 307.127ZM82.868 304.886C81.6403 304.317 80.5152 303.539 79.54 302.586C78.8994 301.964 76.6197 299.604 77.227 298.641C77.5515 298.122 77.8178 298.403 78.4251 298.709C78.7125 298.849 78.9905 299.009 79.2571 299.187C79.9061 299.621 80.4968 300.124 81.0958 300.609C82.1525 301.461 83.2174 302.313 84.3157 303.165C86.0962 304.495 87.9349 305.721 89.8152 306.948C87.4939 306.181 85.0645 305.866 82.868 304.886Z" fill="white"/>
<path d="M97.3445 299.136C96.3394 303.642 94.0486 307.741 90.7634 310.911C90.7425 310.931 90.7167 310.946 90.6885 310.953C90.6517 310.965 90.6121 310.964 90.576 310.95C90.5398 310.936 90.5092 310.91 90.4889 310.876C90.4614 310.846 90.4461 310.807 90.4461 310.766C90.4461 310.725 90.4614 310.685 90.4889 310.655L90.6802 310.45C91.3209 305.1 92.0197 299.783 92.5522 294.416C92.6853 293.155 93.6505 285.112 96.0633 286.416C97.5525 287.225 97.6524 290.522 97.7772 292.005C97.9916 294.39 97.8456 296.796 97.3445 299.136Z" fill="#99DBCB"/>
<path d="M95.9553 291.962C95.8305 291.511 95.5976 291.05 95.1233 291.366C94.1832 291.971 93.8088 295.754 93.659 296.801C93.01 301.113 91.995 305.262 90.9966 309.488L90.747 310.561L90.5057 310.877C90.5261 310.91 90.5567 310.936 90.5928 310.95C90.6289 310.964 90.6685 310.965 90.7054 310.953C90.7018 310.916 90.7018 310.879 90.7054 310.842C90.8052 310.706 90.9217 310.561 91.0132 310.416C92.6595 308.103 93.945 305.542 94.8238 302.825C95.373 301.106 95.7467 299.333 95.9387 297.534C96.1467 295.873 96.4462 293.581 95.9553 291.962ZM91.0299 310.127L90.8884 310.34C90.93 310.195 90.9716 310.059 91.0132 309.905C92.0059 306.69 92.7925 303.411 93.3678 300.09C93.6507 298.386 93.8254 296.682 94.1998 295.029C94.3496 294.322 94.6824 292.294 95.2564 291.971C95.8305 291.647 95.8222 292.431 95.8804 292.882C95.9387 293.334 95.8804 293.802 95.8804 294.109C95.9573 299.839 94.2592 305.447 91.0299 310.127Z" fill="white"/>
<path d="M91.4045 322.444H90.6391C90.6391 321.754 90.6391 321.056 90.5892 320.374C90.4977 317.58 90.3895 314.776 90.2231 311.982C90.1316 310.389 90.0234 308.812 89.8653 307.245C89.8617 307.191 89.8617 307.137 89.8653 307.083C89.8653 306.955 89.8653 306.827 89.8653 306.7C89.8653 306.572 89.8653 306.418 89.8071 306.282C89.4599 302.737 88.5699 299.269 87.1697 296.007C86.6788 294.925 86.1463 293.86 85.5889 292.803L85.4225 292.505C85.4252 292.48 85.4252 292.454 85.4225 292.429C85.3725 292.318 85.3143 292.216 85.2561 292.113C85.1978 292.011 85.1645 291.96 85.1229 291.883C83.3425 288.68 81.3124 285.613 79.3821 282.511C78.8275 281.625 78.2728 280.739 77.7181 279.853C77.679 279.803 77.6455 279.749 77.6183 279.691L77.4935 279.495C75.0724 275.585 72.6929 271.631 70.1719 267.789C70.0804 267.652 70.305 267.525 70.3965 267.669C72.0605 270.225 73.8577 272.722 75.5965 275.244C75.8378 275.576 76.0625 275.917 76.2954 276.249C76.7613 276.914 77.2189 277.578 77.6682 278.243C78.5834 279.58 79.482 280.909 80.3639 282.264C82.9498 286.023 85.3114 289.937 87.4359 293.988C87.5857 294.294 87.7271 294.601 87.8769 294.916C88.0266 295.232 88.0599 295.3 88.1348 295.496L88.4343 296.169C89.9991 300.114 90.8749 304.31 91.0218 308.565L91.0717 309.46C91.0717 309.588 91.0717 309.733 91.0717 309.869C91.0673 309.943 91.0673 310.017 91.0717 310.09C91.0717 310.184 91.0717 310.278 91.0717 310.38C91.0717 310.44 91.0717 310.516 91.0717 310.593C91.0717 310.84 91.0717 311.096 91.0717 311.36C91.1799 314.155 91.2548 316.949 91.313 319.735C91.338 320.655 91.3713 321.55 91.4045 322.444Z" fill="#99DBCB"/>
<path d="M68.466 271.787C66.3693 268.89 63.6653 262.917 66.802 259.807C67.3689 259.213 68.1281 258.852 68.9371 258.791C69.746 258.729 70.5489 258.973 71.1949 259.475C72.8589 260.685 73.5744 262.977 74.0986 264.877C75.5213 269.946 76.4615 275.101 78.2586 280.077C78.2586 280.077 78.4084 280.502 78.45 280.613C78.4916 280.724 78.3252 280.758 78.2836 280.656L78.1088 280.17C74.706 277.751 70.962 275.246 68.466 271.787Z" fill="#99DBCB"/>
<path d="M332.336 279.908C331.986 282.788 331.454 285.625 330.888 288.428C330.563 290.03 330.222 291.631 329.906 293.25C329.557 295.022 329.074 296.829 329.515 298.609C329.523 298.691 329.523 298.774 329.515 298.856C329.491 298.885 329.459 298.907 329.424 298.92C329.388 298.933 329.35 298.936 329.313 298.929C329.276 298.922 329.242 298.905 329.213 298.881C329.184 298.856 329.162 298.824 329.149 298.788C329.154 298.748 329.154 298.708 329.149 298.669V298.626C328.894 298.156 328.69 297.659 328.542 297.144C328.003 295.786 327.539 294.397 327.152 292.986C326.337 290.105 325.879 287.131 325.788 284.134C325.718 281.449 325.998 278.768 326.62 276.159C327.119 274.072 327.835 270.962 329.349 269.343C330.73 267.903 331.845 270.195 332.269 271.388C333.093 274.131 332.66 277.198 332.336 279.908Z" fill="#99DBCB"/>
<path d="M329.822 273.812C328.799 273.812 328.058 277.22 327.692 278.66C327.123 280.964 326.829 283.33 326.818 285.706C326.832 289.963 327.55 294.186 328.94 298.197C328.99 298.359 329.04 298.529 329.098 298.691C329.103 298.73 329.103 298.771 329.098 298.81C329.11 298.848 329.132 298.881 329.161 298.906C329.19 298.932 329.225 298.949 329.263 298.955C329.301 298.961 329.34 298.956 329.375 298.941C329.411 298.926 329.442 298.902 329.464 298.87C329.398 298.52 329.348 298.171 329.306 297.822C329.264 297.473 329.239 297.183 329.215 296.868C329.076 293.404 329.288 289.935 329.847 286.516C330.396 282.563 331.178 273.821 329.822 273.812ZM329.09 297.6C329.14 298.06 329.215 298.52 329.298 298.981C329.19 298.64 329.09 298.307 328.99 297.975C327.864 294.389 327.215 290.663 327.06 286.899C326.993 284.787 327.143 282.674 327.509 280.594C327.718 279.476 327.996 278.372 328.341 277.289C328.482 276.837 329.223 274.008 329.855 274.145C330.296 274.247 330.404 276.794 330.413 276.846C330.413 277.357 330.413 277.868 330.413 278.388C330.413 279.436 330.329 280.492 330.246 281.54C330.047 283.815 329.73 286.081 329.464 288.356C328.984 291.412 328.859 294.515 329.09 297.6Z" fill="white"/>
<path d="M348.434 287.838C346.562 291.587 343.4 294.458 340.114 296.92C338.367 298.241 336.553 299.476 334.772 300.746C333.122 301.799 331.578 303.018 330.163 304.384L329.988 304.58C329.624 304.993 329.303 305.444 329.032 305.926C329.032 305.969 328.982 305.986 328.948 305.986C328.915 305.986 328.907 306.096 328.882 306.147C328.857 306.199 328.807 306.147 328.815 306.147C328.824 306.147 328.815 306.02 328.815 305.96C328.801 305.939 328.793 305.913 328.793 305.888C328.793 305.862 328.801 305.836 328.815 305.815V305.756V305.568C329.348 301.189 332.343 296.758 334.872 293.384C337.402 290.011 340.53 287.029 344.44 285.478C345.422 285.095 347.652 284.03 348.659 284.847C349.665 285.665 348.833 287.046 348.434 287.838Z" fill="#99DBCB"/>
<path d="M345.538 287.856C344.64 286.944 342.019 289.202 341.378 289.73C339.415 291.366 337.597 293.176 335.945 295.14C333.121 298.171 330.779 301.639 329.007 305.415L328.915 305.535C328.912 305.597 328.912 305.66 328.915 305.722C328.912 305.742 328.912 305.762 328.915 305.782C328.898 305.802 328.889 305.827 328.889 305.854C328.889 305.881 328.898 305.906 328.915 305.926L329.04 305.773C329.364 305.364 329.714 304.964 330.063 304.572L330.238 304.376C332.791 301.752 335.507 299.299 338.367 297.032C340.325 295.411 342.132 293.608 343.766 291.647C344.124 291.144 346.287 288.622 345.538 287.856ZM344.706 289.866C342.493 293.632 338.658 296.376 335.396 299.119C333.152 300.916 331.082 302.931 329.215 305.134C330.941 301.771 333.098 298.659 335.629 295.881C337.016 294.253 338.488 292.703 340.039 291.238C340.877 290.438 341.773 289.703 342.718 289.04C343.283 288.636 343.891 288.302 344.532 288.043C345.78 287.668 345.089 289.219 344.715 289.866H344.706Z" fill="white"/>
<path d="M328.457 314.854C328.438 314.888 328.41 314.916 328.376 314.936C328.343 314.955 328.304 314.965 328.266 314.964L328.316 315.032C328.327 315.045 328.334 315.062 328.334 315.079C328.334 315.097 328.327 315.114 328.316 315.126C328.31 315.133 328.303 315.139 328.295 315.143C328.288 315.147 328.279 315.149 328.27 315.149C328.261 315.149 328.253 315.147 328.245 315.143C328.237 315.139 328.23 315.133 328.224 315.126C324.755 311.514 321.41 307.117 319.68 302.346C318.936 300.327 318.518 298.198 318.44 296.041C318.44 294.567 318.332 291.594 319.563 290.52C322.059 288.356 324.306 297.524 324.638 298.904C325.254 301.46 325.662 304.016 326.227 306.521C326.843 309.29 327.667 312.008 328.474 314.726C328.485 314.769 328.479 314.815 328.457 314.854Z" fill="#99DBCB"/>
<path d="M328.458 314.855C328.316 314.625 328.191 314.386 328.067 314.148C325.967 310.304 324.459 306.152 323.599 301.836C323.221 299.654 322.664 297.508 321.935 295.421C321.727 294.918 321.103 292.959 320.271 293.947C319.847 294.467 320.204 298.164 320.371 299.119C320.789 301.293 321.466 303.408 322.384 305.415C323.885 308.798 325.794 311.975 328.067 314.872L328.266 315.128C328.278 315.115 328.285 315.098 328.285 315.081C328.285 315.063 328.278 315.047 328.266 315.034C328.246 315.014 328.229 314.991 328.216 314.966C328.263 314.977 328.312 314.973 328.355 314.953C328.399 314.932 328.435 314.898 328.458 314.855ZM323.466 306.974C322.459 305.031 321.659 302.983 321.078 300.865C320.852 300.025 320.677 299.171 320.554 298.309C320.449 297.63 320.393 296.944 320.387 296.256C320.387 294.552 320.529 294.151 320.803 294.092C321.078 294.032 321.211 294.237 321.694 295.242C321.985 295.894 322.217 296.573 322.384 297.27C322.642 298.258 322.858 299.255 323.075 300.252C323.491 302.245 323.907 304.256 324.456 306.216C325.254 309.029 326.412 311.722 327.9 314.225C326.213 311.94 324.715 309.515 323.424 306.974H323.466Z" fill="white"/>
<path d="M339.582 306.071C339.175 307.833 338.401 309.485 337.31 310.91C335.247 313.824 332.618 316.252 330.363 319.004C330.03 319.413 329.706 319.856 329.39 320.265C329.39 320.308 329.09 320.921 329.098 320.87C329.107 320.819 329.14 320.623 329.215 320.231C329.573 318.297 330.754 312.478 332.235 309.496C333.116 307.61 334.22 305.841 335.521 304.231C336.162 303.489 337.66 301.896 338.783 302.245C339.906 302.595 339.756 305.142 339.582 306.071Z" fill="#99DBCB"/>
<path d="M337.793 304.887C336.586 304.12 333.483 309.803 333.067 310.535C331.503 313.253 330.295 316.169 329.473 319.209C329.373 319.541 329.29 319.882 329.207 320.231C329.123 320.58 329.082 320.853 329.082 320.87C329.082 320.887 329.348 320.316 329.381 320.257L329.539 320.035C329.806 319.686 330.08 319.337 330.371 319.004C331.719 316.934 333.109 314.889 334.415 312.785C335.371 311.284 336.206 309.705 336.911 308.065C337.077 307.69 338.275 305.219 337.793 304.887ZM337.452 306.488C335.738 311.43 332.235 315.332 329.564 319.72L329.439 319.933C329.439 319.805 329.506 319.669 329.548 319.541C330.268 317.05 331.215 314.634 332.376 312.325C333.093 310.923 333.891 309.566 334.764 308.261C335.212 307.524 335.707 306.818 336.245 306.148C336.495 305.866 337.21 305.125 337.452 305.253C337.693 305.381 337.518 306.165 337.41 306.488H337.452Z" fill="white"/>
<path d="M351.687 265.269C348.101 273.695 338.708 277.614 334.631 285.717C334.506 285.964 334.39 286.219 334.273 286.475C334.263 286.501 334.246 286.523 334.225 286.54C334.204 286.557 334.179 286.568 334.152 286.573C334.125 286.577 334.098 286.574 334.073 286.564C334.047 286.555 334.025 286.539 334.007 286.518C333.992 286.498 333.984 286.474 333.984 286.449C333.984 286.425 333.992 286.401 334.007 286.381C334.031 286.317 334.059 286.255 334.09 286.194C334.881 281.012 336.572 276.017 339.082 271.446C341.146 267.569 343.958 263.931 347.86 261.886C348.825 261.384 350.697 260.319 351.779 261.154C352.86 261.989 352.128 264.229 351.687 265.269Z" fill="#99DBCB"/>
<path d="M348.459 265.635C348.001 265.286 347.311 265.703 346.92 265.908C345.944 266.431 345.034 267.071 344.207 267.816C342.513 269.343 341.052 271.12 339.873 273.09C337.752 276.405 336.037 279.973 334.764 283.715C334.498 284.567 334.257 285.419 334.057 286.271C334.057 286.373 334.015 286.484 333.982 286.586C334 286.607 334.024 286.623 334.05 286.632C334.076 286.642 334.103 286.644 334.131 286.64C334.158 286.636 334.183 286.625 334.205 286.608C334.227 286.591 334.245 286.569 334.257 286.543C334.365 286.296 334.481 286.058 334.598 285.81V285.742C335.294 284.062 336.149 282.455 337.152 280.946C338.801 278.661 340.591 276.487 342.51 274.436C343.276 273.593 350.04 266.811 348.459 265.635ZM347.885 267.578C346.803 269.563 345.114 271.173 343.642 272.86C342.169 274.547 340.646 276.268 339.19 277.972C338.025 279.341 336.976 280.809 336.054 282.36C335.283 283.648 334.629 285.006 334.099 286.415C334.473 284.98 334.94 283.571 335.496 282.198V282.155C336.506 279.719 337.668 277.351 338.974 275.067L339.016 274.982C340.108 272.937 341.438 271.034 342.976 269.316C343.825 268.394 344.771 267.571 345.796 266.862C346.978 266.078 348.01 265.575 348.292 265.959C348.575 266.342 348.209 266.998 347.885 267.578Z" fill="white"/>
<path d="M339.182 275.145C338.1 277.522 337.077 279.925 336.053 282.344C335.579 283.477 335.097 284.611 334.631 285.752V285.82C334.464 286.229 334.289 286.672 334.115 287.047C332.567 290.745 330.862 294.528 329.913 298.447C329.446 300.526 329.168 302.645 329.081 304.777C329.081 304.99 329.081 305.212 329.081 305.433C329.081 305.553 329.081 305.672 329.081 305.791C329.077 305.859 329.077 305.928 329.081 305.996C329.023 307.845 329.081 309.693 329.081 311.5C329.123 314.013 329.331 316.509 329.564 318.997C329.556 319.071 329.556 319.145 329.564 319.219C329.564 319.329 329.564 319.44 329.564 319.551C329.564 319.662 329.564 319.67 329.564 319.73V320.045C329.647 320.846 329.713 321.647 329.78 322.456H329.031C328.553 320.009 328.25 317.528 328.124 315.035C328.12 314.984 328.12 314.933 328.124 314.882C328.124 314.643 328.124 314.396 328.124 314.158C328.124 313.919 328.124 313.561 328.083 313.263C328.083 312.548 328.041 311.832 328.025 311.125C327.823 306.965 328.102 302.795 328.857 298.703C328.857 298.592 328.915 298.481 328.94 298.37C328.936 298.322 328.936 298.274 328.94 298.225C328.94 298.149 328.94 298.072 328.99 297.987L329.089 297.612C329.148 297.382 329.214 297.152 329.273 296.93L329.331 296.734C330.486 293.232 331.876 289.816 333.491 286.51C333.765 285.897 334.032 285.301 334.323 284.704C334.481 284.363 334.639 284.031 334.789 283.699L335.521 282.191V282.148C336.669 279.78 337.859 277.437 338.999 275.06C339.049 274.949 339.232 275.034 339.182 275.145Z" fill="#99DBCB"/>
<path d="M36.9824 322.219L79.7389 322.014L122.495 321.938L208 321.793L293.505 321.938L336.261 322.006L379.018 322.219L336.261 322.432L293.505 322.5L208 322.645L122.495 322.5L79.7389 322.423L36.9824 322.219Z" fill="#263238"/>
<path d="M280.617 47.8484H135.366C133.418 47.8673 131.493 48.279 129.7 49.06C127.907 49.841 126.282 50.9759 124.918 52.4C123.554 53.8241 122.477 55.5095 121.748 57.3599C121.02 59.2103 120.655 61.1894 120.673 63.1844V369.393C120.638 373.422 122.165 377.299 124.92 380.175C127.676 383.051 131.433 384.689 135.366 384.729H280.617C284.553 384.691 288.313 383.054 291.071 380.179C293.829 377.303 295.36 373.424 295.327 369.393V63.1759C295.36 59.1461 293.829 55.2677 291.071 52.3935C288.312 49.5192 284.552 47.8844 280.617 47.8484ZM286.141 359.927C286.141 367.987 280.251 374.505 272.979 374.505H143.029C135.741 374.505 129.85 367.987 129.85 359.927V74.7801C129.85 58.3621 135.741 57.5612 143.029 57.5612H169.054C170.568 57.5612 171.808 59.3248 171.808 61.506V62.4517C171.808 67.5637 174.537 67.5637 177.898 67.5637H238.093C241.48 67.5637 244.184 67.5637 244.184 62.4517V61.506C244.184 59.3248 245.407 57.5612 246.946 57.5612H272.979C280.251 57.5612 286.141 59.7508 286.141 74.7801V359.927Z" fill="#263238"/>
<path d="M216.203 61.189H199.787C199.654 61.1901 199.521 61.164 199.398 61.1122C199.274 61.0603 199.162 60.9838 199.067 60.8871C198.973 60.7903 198.898 60.6753 198.847 60.5487C198.797 60.422 198.771 60.2864 198.772 60.1495C198.772 59.8739 198.879 59.6095 199.07 59.4146C199.26 59.2196 199.518 59.1101 199.787 59.1101H216.203C216.472 59.1101 216.73 59.2196 216.92 59.4146C217.111 59.6095 217.218 59.8739 217.218 60.1495C217.219 60.2864 217.193 60.422 217.143 60.5487C217.092 60.6753 217.017 60.7903 216.923 60.8871C216.828 60.9838 216.716 61.0603 216.592 61.1122C216.469 61.164 216.336 61.1901 216.203 61.189Z" fill="white"/>
<path d="M286.15 74.7822V359.93C286.15 367.989 280.251 374.507 272.979 374.507H143.029C135.741 374.507 129.85 367.989 129.85 359.93V74.7822C129.85 58.3641 135.741 57.5632 143.029 57.5632H169.054C170.568 57.5632 171.808 59.3269 171.808 61.508V62.4537C171.808 67.5657 174.537 67.5657 177.898 67.5657H238.094C241.48 67.5657 244.192 67.5657 244.192 62.4537V61.508C244.192 59.3269 245.407 57.5632 246.946 57.5632H272.979C280.251 57.5632 286.15 59.7529 286.15 74.7822Z" fill="white"/>
<path d="M286.142 74.7822V80.874H129.843V74.7822C129.843 58.3641 135.741 57.5632 143.03 57.5632H169.063C170.577 57.5632 171.809 59.3269 171.809 61.508V62.4537C171.809 67.5657 174.546 67.5657 177.899 67.5657H238.094C241.48 67.5657 244.193 67.5657 244.193 62.4537V61.508C244.193 59.3269 245.416 57.5632 246.955 57.5632H272.98C280.251 57.5632 286.142 59.7529 286.142 74.7822Z" fill="#FFD873"/>
<path d="M164.57 63.968L164.312 64.2236C164.269 64.276 164.222 64.3245 164.17 64.3685C163.528 63.7106 162.658 63.34 161.749 63.3375C161.297 63.3349 160.849 63.4256 160.431 63.6042C160.014 63.7828 159.636 64.0456 159.32 64.377C159.28 64.3247 159.235 64.2762 159.187 64.2321L158.937 63.9765C159.037 63.8743 159.145 63.7806 159.253 63.6869C159.478 63.4968 159.724 63.3338 159.985 63.2012C160.293 63.0438 160.621 62.9319 160.959 62.8689C161.125 62.8689 161.283 62.8263 161.45 62.8008H161.874H162.207C162.514 62.8362 162.816 62.9106 163.105 63.0223C163.313 63.1015 163.513 63.1984 163.704 63.312C163.912 63.4305 164.107 63.5703 164.287 63.7295L164.553 63.968H164.57Z" fill="white"/>
<path d="M160.118 65.1765L159.744 64.7505C160.009 64.478 160.324 64.2617 160.671 64.1141C161.018 63.9666 161.39 63.8906 161.765 63.8906C162.141 63.8906 162.513 63.9666 162.86 64.1141C163.207 64.2617 163.522 64.478 163.787 64.7505L163.388 65.1595C163.171 64.9351 162.911 64.7582 162.625 64.6396C162.339 64.521 162.032 64.4631 161.724 64.4693C161.119 64.4809 160.542 64.7348 160.118 65.1765Z" fill="white"/>
<path d="M162.98 65.6054L162.581 66.0059C162.358 65.7824 162.06 65.657 161.749 65.6565C161.593 65.6555 161.44 65.6867 161.297 65.7482C161.154 65.8097 161.024 65.9003 160.917 66.0144L160.517 65.6054C160.679 65.4395 160.871 65.3079 161.082 65.2181C161.293 65.1283 161.52 65.082 161.749 65.082C161.977 65.082 162.204 65.1283 162.415 65.2181C162.626 65.3079 162.818 65.4395 162.98 65.6054Z" fill="white"/>
<path d="M162.107 66.3622C162.107 66.4594 162.069 66.5526 162.002 66.6213C161.935 66.69 161.844 66.7286 161.749 66.7286C161.654 66.7286 161.563 66.69 161.496 66.6213C161.429 66.5526 161.392 66.4594 161.392 66.3622C161.392 66.265 161.429 66.1719 161.496 66.1032C161.563 66.0344 161.654 65.9958 161.749 65.9958C161.844 65.9958 161.935 66.0344 162.002 66.1032C162.069 66.1719 162.107 66.265 162.107 66.3622Z" fill="white"/>
<path d="M141.073 65.8012C141.643 65.8012 142.105 65.3282 142.105 64.7447C142.105 64.1612 141.643 63.6882 141.073 63.6882C140.504 63.6882 140.042 64.1612 140.042 64.7447C140.042 65.3282 140.504 65.8012 141.073 65.8012Z" fill="white"/>
<path d="M143.303 64.7532C143.303 64.5422 143.365 64.336 143.479 64.1606C143.594 63.9853 143.757 63.8488 143.947 63.7685C144.138 63.6881 144.347 63.6675 144.549 63.7093C144.751 63.7511 144.937 63.8534 145.082 64.0032C145.227 64.153 145.325 64.3435 145.365 64.5507C145.404 64.7578 145.382 64.9722 145.302 65.1667C145.222 65.3611 145.087 65.5269 144.915 65.6429C144.743 65.7589 144.541 65.8199 144.335 65.8182C144.061 65.8159 143.798 65.7027 143.605 65.5033C143.412 65.3038 143.303 65.0342 143.303 64.7532Z" fill="white"/>
<path d="M147.605 65.8012C148.174 65.8012 148.636 65.3282 148.636 64.7447C148.636 64.1612 148.174 63.6882 147.605 63.6882C147.035 63.6882 146.573 64.1612 146.573 64.7447C146.573 65.3282 147.035 65.8012 147.605 65.8012Z" fill="white"/>
<path d="M149.827 64.7532C149.827 64.5426 149.888 64.3367 150.002 64.1615C150.116 63.9864 150.279 63.8499 150.469 63.7693C150.659 63.6887 150.868 63.6676 151.07 63.7087C151.272 63.7498 151.457 63.8512 151.602 64.0002C151.748 64.1491 151.847 64.3389 151.887 64.5455C151.927 64.752 151.906 64.9662 151.828 65.1608C151.749 65.3554 151.616 65.5217 151.445 65.6387C151.274 65.7558 151.073 65.8182 150.867 65.8182C150.591 65.8182 150.327 65.706 150.132 65.5063C149.936 65.3066 149.827 65.0357 149.827 64.7532Z" fill="white"/>
<path d="M153.089 64.7532C153.089 64.5426 153.15 64.3367 153.264 64.1615C153.378 63.9864 153.541 63.8499 153.731 63.7693C153.921 63.6887 154.13 63.6676 154.332 63.7087C154.533 63.7498 154.719 63.8512 154.864 64.0002C155.009 64.1491 155.109 64.3389 155.149 64.5455C155.189 64.752 155.168 64.9662 155.089 65.1608C155.011 65.3554 154.877 65.5217 154.706 65.6387C154.535 65.7558 154.334 65.8182 154.129 65.8182C153.853 65.8182 153.588 65.706 153.393 65.5063C153.198 65.3066 153.089 65.0357 153.089 64.7532Z" fill="white"/>
<path d="M274.41 67.0525H265.991V63.0481H274.41V67.0525ZM266.407 66.6265H273.994V63.4997H266.407V66.6265Z" fill="white"/>
<path d="M272.122 63.7385H266.689V66.3797H272.122V63.7385Z" fill="white"/>
<path d="M275.176 63.9939H274.427V66.1324H275.176V63.9939Z" fill="white"/>
<path d="M153.596 344.048H152.414V349.637H150.193V346.791H146.258V349.637H144.036V344.048H142.846L148.221 338.356L153.596 344.048Z" fill="#EBEBEB"/>
<path d="M273.162 338.356H260.208V340.256H273.162V338.356Z" fill="#EBEBEB"/>
<path d="M273.162 343.048H260.208V344.948H273.162V343.048Z" fill="#EBEBEB"/>
<path d="M273.162 347.735H260.208V349.635H273.162V347.735Z" fill="#EBEBEB"/>
<path d="M153.346 111.016C152.575 111.51 151.733 111.875 150.85 112.098C148.718 112.643 146.464 112.344 144.538 111.262C142.612 110.179 141.156 108.393 140.459 106.259C139.763 104.125 139.878 101.801 140.782 99.75C141.685 97.6992 143.311 96.073 145.335 95.1959C147.358 94.3188 149.63 94.2554 151.696 95.0183C153.763 95.7813 155.473 97.3144 156.485 99.3117C157.496 101.309 157.735 103.623 157.153 105.793C156.571 107.963 155.212 109.828 153.346 111.016Z" fill="#DBDBDB"/>
<path d="M151.424 102.402C151.424 102.939 151.269 103.464 150.977 103.911C150.686 104.358 150.272 104.706 149.788 104.912C149.303 105.118 148.77 105.172 148.255 105.068C147.741 104.964 147.268 104.706 146.896 104.327C146.525 103.948 146.271 103.464 146.168 102.937C146.065 102.411 146.116 101.865 146.316 101.368C146.515 100.871 146.854 100.446 147.289 100.146C147.725 99.8466 148.237 99.6858 148.762 99.6841C149.111 99.683 149.457 99.7524 149.78 99.8885C150.103 100.025 150.397 100.225 150.644 100.477C150.891 100.73 151.087 101.03 151.221 101.36C151.355 101.69 151.424 102.044 151.424 102.402Z" fill="white"/>
<path d="M153.346 109.908V111.024C152.575 111.518 151.733 111.884 150.85 112.106C149.726 112.389 148.558 112.439 147.415 112.253C146.272 112.067 145.177 111.649 144.194 111.024V109.908C144.156 109.269 144.247 108.628 144.46 108.026C144.672 107.424 145.003 106.873 145.432 106.407C145.861 105.941 146.378 105.569 146.952 105.316C147.526 105.062 148.145 104.931 148.77 104.931C149.395 104.931 150.014 105.062 150.588 105.316C151.162 105.569 151.679 105.941 152.108 106.407C152.536 106.873 152.867 107.424 153.08 108.026C153.293 108.628 153.383 109.269 153.346 109.908Z" fill="white"/>
<path d="M223.849 95.0046H168.413V99.6821H223.849V95.0046Z" fill="#EBEBEB"/>
<path d="M216.802 102.809H168.413V105.911H216.802V102.809Z" fill="#EBEBEB"/>
<path d="M248.418 108.782H168.413V111.883H248.418V108.782Z" fill="#EBEBEB"/>
<path d="M129.85 231.821L286.125 231.821V119.757L129.85 119.757V231.821Z" fill="#EBEBEB"/>
<path d="M148.096 151.605C148.096 154.227 148.855 156.79 150.278 158.971C151.7 161.151 153.722 162.85 156.088 163.853C158.453 164.857 161.056 165.119 163.568 164.608C166.079 164.096 168.386 162.833 170.196 160.979C172.007 159.125 173.24 156.763 173.739 154.192C174.239 151.62 173.982 148.954 173.002 146.532C172.023 144.11 170.363 142.039 168.234 140.582C166.105 139.126 163.602 138.348 161.042 138.348C157.609 138.35 154.318 139.748 151.89 142.234C149.463 144.719 148.098 148.09 148.096 151.605Z" fill="#DBDBDB"/>
<path d="M199.239 207.435H286.15L242.694 147.122L199.239 207.435Z" fill="#C7C7C7"/>
<path d="M165.177 207.727H236.92L201.052 168.45L165.177 207.727Z" fill="#DBDBDB"/>
<path d="M286.125 207.677H129.85V231.822H286.125V207.677Z" fill="#DBDBDB"/>
<path d="M153.345 290.914C152.572 291.402 151.73 291.765 150.849 291.988C148.722 292.524 146.475 292.22 144.558 291.134C142.641 290.049 141.194 288.264 140.506 286.134C139.818 284.004 139.939 281.687 140.846 279.645C141.753 277.603 143.378 275.987 145.398 275.118C147.418 274.249 149.683 274.193 151.742 274.959C153.8 275.726 155.501 277.259 156.504 279.253C157.508 281.247 157.739 283.556 157.154 285.717C156.568 287.879 155.208 289.735 153.345 290.914Z" fill="#DBDBDB"/>
<path d="M151.424 282.293C151.424 282.831 151.268 283.356 150.977 283.803C150.685 284.25 150.271 284.598 149.786 284.804C149.301 285.01 148.767 285.064 148.252 284.959C147.737 284.854 147.265 284.595 146.893 284.215C146.522 283.835 146.269 283.351 146.167 282.823C146.065 282.296 146.117 281.75 146.318 281.253C146.519 280.756 146.859 280.332 147.296 280.033C147.732 279.735 148.245 279.575 148.77 279.575C149.474 279.575 150.149 279.862 150.647 280.371C151.145 280.881 151.424 281.572 151.424 282.293Z" fill="white"/>
<path d="M153.346 289.791V290.915C152.573 291.403 151.731 291.765 150.85 291.989C149.726 292.274 148.558 292.325 147.415 292.139C146.271 291.953 145.176 291.534 144.194 290.907V289.791C144.156 289.152 144.247 288.511 144.46 287.909C144.672 287.307 145.003 286.756 145.432 286.29C145.861 285.824 146.378 285.452 146.952 285.198C147.526 284.944 148.145 284.813 148.77 284.813C149.395 284.813 150.014 284.944 150.588 285.198C151.162 285.452 151.679 285.824 152.108 286.29C152.536 286.756 152.867 287.307 153.08 287.909C153.293 288.511 153.383 289.152 153.346 289.791Z" fill="white"/>
<path d="M239.707 274.899H168.413V279.577H239.707V274.899Z" fill="#EBEBEB"/>
<path d="M259.425 282.704H168.413V285.805H259.425V282.704Z" fill="#EBEBEB"/>
<path d="M199.413 288.677H168.413V291.778H199.413V288.677Z" fill="#EBEBEB"/>
<path d="M286.125 299.649H129.85V327.023H286.125V299.649Z" fill="#EBEBEB"/>
<path d="M173.239 327.022H148.878C149.777 324.451 151.429 322.227 153.61 320.655C155.79 319.083 158.392 318.239 161.058 318.239C163.725 318.239 166.326 319.083 168.507 320.655C170.687 322.227 172.34 324.451 173.239 327.022Z" fill="#DBDBDB"/>
<path d="M140.35 244.95C140.108 243.932 140.165 242.862 140.516 241.877C140.867 240.893 141.496 240.036 142.322 239.417C143.148 238.798 144.135 238.444 145.158 238.399C146.181 238.355 147.193 238.622 148.068 239.167C148.943 239.712 149.64 240.51 150.071 241.461C150.502 242.412 150.649 243.472 150.491 244.508C150.334 245.544 149.88 246.509 149.187 247.281C148.494 248.053 147.593 248.597 146.599 248.844C145.939 249.009 145.253 249.039 144.582 248.933C143.911 248.827 143.266 248.586 142.686 248.224C142.105 247.862 141.6 247.387 141.2 246.825C140.799 246.264 140.51 245.626 140.35 244.95Z" fill="#EBEBEB"/>
<path fill-rule="evenodd" clip-rule="evenodd" d="M144.668 245.802C144.535 245.717 144.41 245.589 144.227 245.606C144.044 245.623 144.177 245.555 144.177 245.512V243.399C144.172 243.375 144.175 243.349 144.186 243.326C144.196 243.303 144.214 243.284 144.235 243.272C144.76 242.999 144.984 242.471 145.309 242.011C145.474 241.784 145.593 241.525 145.659 241.25C145.725 240.974 145.736 240.689 145.691 240.409C145.691 240.256 145.741 240.179 145.883 240.145C145.953 240.121 146.028 240.121 146.099 240.144C146.169 240.167 146.23 240.212 146.274 240.273C146.425 240.562 146.527 240.876 146.573 241.201C146.572 241.468 146.541 241.734 146.482 241.994C146.482 242.19 146.407 242.377 146.374 242.573C146.424 242.573 146.474 242.573 146.523 242.573H148.271C148.512 242.573 148.637 242.65 148.67 242.812C148.689 242.915 148.674 243.022 148.628 243.116C148.581 243.21 148.505 243.286 148.412 243.331C148.412 243.331 148.296 243.331 148.287 243.399C148.279 243.468 148.362 243.468 148.404 243.493C148.612 243.646 148.578 243.945 148.329 244.124C148.271 244.166 148.162 244.124 148.154 244.234C148.146 244.345 148.262 244.302 148.312 244.354C148.35 244.403 148.376 244.462 148.387 244.524C148.399 244.586 148.396 244.649 148.379 244.71C148.362 244.771 148.331 244.826 148.289 244.873C148.247 244.919 148.195 244.954 148.138 244.976L148.038 245.018C148.038 245.018 147.979 245.018 148.038 245.103C148.094 245.133 148.141 245.177 148.173 245.232C148.206 245.287 148.223 245.35 148.223 245.414C148.223 245.479 148.206 245.542 148.173 245.597C148.141 245.652 148.094 245.696 148.038 245.725L147.963 245.785C147.87 245.842 147.762 245.866 147.655 245.853H144.918C144.875 245.863 144.831 245.863 144.788 245.854C144.745 245.846 144.704 245.828 144.668 245.802Z" fill="white"/>
<path fill-rule="evenodd" clip-rule="evenodd" d="M142.072 244.524V243.178C142.072 243.084 142.072 243.042 142.189 243.042H143.795C143.894 243.042 143.911 243.084 143.911 243.178V245.879C143.911 245.998 143.911 246.032 143.77 246.032H142.214C142.089 246.032 142.072 245.981 142.072 245.87C142.081 245.453 142.072 245.01 142.072 244.524Z" fill="white"/>
<path d="M151.216 244.95C150.973 243.932 151.031 242.862 151.382 241.877C151.733 240.893 152.361 240.036 153.188 239.417C154.014 238.798 155.001 238.444 156.024 238.399C157.046 238.355 158.059 238.622 158.934 239.167C159.808 239.712 160.505 240.51 160.937 241.461C161.368 242.412 161.514 243.472 161.357 244.508C161.2 245.544 160.746 246.509 160.053 247.281C159.36 248.053 158.459 248.597 157.464 248.844C156.804 249.009 156.119 249.039 155.448 248.933C154.776 248.827 154.132 248.586 153.552 248.224C152.971 247.862 152.466 247.387 152.065 246.825C151.665 246.264 151.376 245.626 151.216 244.95Z" fill="#FFD873"/>
<path d="M158.911 244.355C158.283 245.442 157.369 246.328 156.274 246.911C155.176 246.33 154.259 245.444 153.628 244.355C152.979 243.009 153.395 241.56 154.419 241.237C155.891 240.785 156.274 243.409 156.274 243.409C156.274 243.409 156.648 240.785 158.121 241.237C159.119 241.56 159.527 243.009 158.911 244.355Z" fill="white"/>
<path d="M242.694 243.001H169.27V246.059H242.694V243.001Z" fill="#EBEBEB"/>
<path d="M129.85 261.266L149.386 261.113L168.921 261.053L207.992 260.942L247.054 261.053L266.589 261.104L286.125 261.266L266.589 261.419L247.054 261.479L207.992 261.581L168.921 261.479L149.386 261.419L129.85 261.266Z" fill="#EBEBEB"/>
<path d="M75.0382 160.056H248.161V82.6948H75.0382V160.056Z" fill="#DBDBDB"/>
<path d="M270.442 160.055H248.161V136.293L270.442 160.055Z" fill="#455A64"/>
<path d="M234.384 96.0701H88.8253V97.544H234.384V96.0701Z" fill="white"/>
<path d="M190.17 104.004H88.8244V105.478H190.17V104.004Z" fill="white"/>
<path d="M216.87 119.886H88.8253V121.36H216.87V119.886Z" fill="white"/>
<path d="M234.384 127.824H88.8253V129.298H234.384V127.824Z" fill="white"/>
<path d="M234.383 135.758H88.8244V137.232H234.383V135.758Z" fill="white"/>
<path d="M175.377 143.698H88.8244V145.172H175.377V143.698Z" fill="white"/>
<path d="M75.0382 343.304H248.161V290.625H75.0382V343.304Z" fill="#FFD873"/>
<path d="M270.442 343.305H248.161V319.551L270.442 343.305Z" fill="#FFD873"/>
<path d="M216.87 303.14H88.8253V304.614H216.87V303.14Z" fill="white"/>
<path d="M234.383 311.074H88.8244V312.548H234.383V311.074Z" fill="white"/>
<path d="M234.384 319.015H88.8253V320.489H234.384V319.015Z" fill="white"/>
<path d="M175.378 326.957H88.8253V328.431H175.378V326.957Z" fill="white"/>
<path d="M340.962 176.551H167.839V244.779H340.962V176.551Z" fill="#DBDBDB"/>
<path d="M145.558 244.778H167.839V221.015L145.558 244.778Z" fill="#DBDBDB"/>
<path d="M315.61 212.172H181.9V213.646H315.61V212.172Z" fill="white"/>
<path d="M299.229 220.114H181.9V221.588H299.229V220.114Z" fill="white"/>
<path d="M304.005 196.292H181.9V197.766H304.005V196.292Z" fill="white"/>
<path d="M324.813 188.36H181.9V189.834H324.813V188.36Z" fill="white"/>
<path d="M305.793 228.046H181.9V229.52H305.793V228.046Z" fill="white"/>
<path d="M306.559 110.232C311.892 108.57 314.679 104.89 314.438 99.6669C311.11 98.7126 307.832 95.867 307.832 91.5899V90.6442C307.792 89.5777 307.97 88.5144 308.354 87.5224C308.739 86.5305 309.321 85.6316 310.065 84.8834C310.808 84.1351 311.695 83.554 312.67 83.1772C313.646 82.8004 314.687 82.6361 315.727 82.695C320.819 82.695 324.047 86.725 324.047 93.132V94.3248C324.047 102.393 321.967 107.957 318.223 111.655C315.203 114.858 310.685 116.767 307.316 116.767C304.886 116.767 303.73 115.344 303.73 113.444C303.78 111.774 304.936 110.7 306.559 110.232ZM279.668 110.232C285.002 108.57 287.78 104.89 287.548 99.6669C284.22 98.7126 280.941 95.867 280.941 91.5899V90.6442C280.902 89.5792 281.079 88.5175 281.463 87.5267C281.846 86.5359 282.427 85.6379 283.169 84.89C283.91 84.142 284.796 83.5605 285.769 83.1826C286.742 82.8046 287.781 82.6386 288.82 82.695C293.929 82.695 297.14 86.725 297.14 93.132V94.3248C297.14 102.393 295.052 107.957 291.458 111.655C288.321 114.858 283.804 116.767 280.559 116.767C278.121 116.767 276.848 115.344 276.848 113.444C276.881 111.774 278.038 110.7 279.668 110.232Z" fill="#99DBCB"/>
<path d="M169.029 282.012L169.071 282.165C169.412 283.511 171.9 293.514 175.169 306.72C175.411 307.674 175.66 308.645 175.91 309.642C181.36 331.598 188.631 360.83 192.067 374.684H199.48C199.48 374.846 199.48 375.016 199.48 375.178C199.489 375.013 199.489 374.848 199.48 374.684H253.843C248.244 352.361 234.05 293.914 231.537 283.588C231.488 283.383 231.438 283.187 231.404 283.026L231.155 282.012H169.029Z" fill="#EB9481"/>
<path d="M169.029 282.012L169.071 282.165L174.72 307.572L175.394 310.588L189.696 374.709H199.464C199.464 374.871 199.464 375.042 199.464 375.203C199.472 375.039 199.472 374.874 199.464 374.709H254.16L231.546 283.613L231.413 283.051L231.163 282.037L169.029 282.012Z" fill="#748CAE"/>
<path d="M231.187 282.14L207.392 374.709H199.488C199.496 374.791 199.496 374.874 199.488 374.956C199.492 374.874 199.492 374.792 199.488 374.709H189.695L175.393 310.613L174.719 307.572L169.053 282.165L169.012 282.012H231.145L231.187 282.14Z" fill="#37474F"/>
<path d="M229.15 282.01C229.15 282.053 229.15 282.164 229.15 282.334C229.15 282.505 229.15 282.905 229.083 283.34C229.033 283.979 228.975 284.839 228.884 285.896C228.878 285.918 228.878 285.941 228.884 285.964C228.845 286.498 228.795 287.086 228.734 287.727C228.634 288.801 228.526 289.994 228.401 291.306C228.359 291.74 228.309 292.2 228.26 292.669C228.255 292.737 228.255 292.805 228.26 292.873C228.26 293.146 228.193 293.419 228.168 293.725C228.143 294.032 228.085 294.475 228.035 294.859C227.985 295.242 227.935 295.796 227.877 296.273C227.769 297.227 227.652 298.216 227.536 299.221L227.411 300.201C227.236 301.606 227.036 303.046 226.837 304.529C226.745 305.168 226.645 305.807 226.562 306.454C226.479 307.102 226.338 307.911 226.229 308.644C226.229 308.908 226.155 309.181 226.113 309.445C225.689 312.146 225.214 314.957 224.682 317.794C224.607 318.229 224.515 318.646 224.424 319.064C224.208 320.206 223.983 321.347 223.742 322.472C223.625 323.06 223.492 323.656 223.367 324.244C223.243 324.832 223.159 325.241 223.035 325.735C222.485 328.223 221.878 330.702 221.212 333.13C221.071 333.659 220.921 334.187 220.78 334.715C220.638 335.243 220.455 335.857 220.289 336.419C220.056 337.271 219.815 338.081 219.557 338.89C219.299 339.699 219.116 340.262 218.891 340.935C218.825 341.156 218.741 341.378 218.667 341.591C218.592 341.804 218.525 342.017 218.442 342.23L218.359 342.272L218.159 342.341L217.943 342.426C217.863 342.451 217.785 342.482 217.71 342.52C217.294 342.681 216.686 342.92 215.913 343.261L215.139 343.593C214.715 343.789 214.24 343.985 213.733 344.232L213.067 344.547L212.926 344.615L212.293 344.922L210.921 345.595C209.972 346.072 208.94 346.601 207.842 347.188C207.293 347.47 206.727 347.776 206.178 348.1L205.28 348.603C204.381 349.105 203.441 349.651 202.459 350.23L201.802 350.631C201.802 350.631 201.802 350.631 201.752 350.631H201.702L200.995 351.048L200.471 351.363C200.471 351.363 200.471 351.491 200.471 351.73C200.462 351.812 200.462 351.895 200.471 351.977C200.466 352.065 200.466 352.153 200.471 352.241C200.471 352.471 200.471 352.761 200.471 353.093C200.471 353.425 200.471 353.502 200.471 353.74C200.471 354.107 200.471 354.499 200.421 354.942C200.421 355.069 200.421 355.206 200.421 355.334C200.416 355.419 200.416 355.504 200.421 355.589C200.421 355.921 200.421 356.279 200.421 356.654C200.421 356.739 200.421 356.825 200.421 356.91C200.421 356.995 200.421 357.208 200.421 357.353V357.481C200.421 357.617 200.421 357.762 200.421 357.907C200.421 358.23 200.421 358.563 200.421 358.912C200.421 359.645 200.363 360.403 200.329 361.212C200.329 361.408 200.329 361.604 200.329 361.792C200.329 362.252 200.329 362.712 200.329 363.189C200.329 363.666 200.329 364.101 200.271 364.569C200.213 365.038 200.271 365.353 200.221 365.745C200.171 366.137 200.221 366.333 200.221 366.597C200.221 367.057 200.221 367.509 200.163 367.977C200.113 369.221 200.063 370.474 200.021 371.718C200.021 372.655 199.955 373.618 199.913 374.606H137.447C137.63 372.146 137.816 369.687 138.004 367.228C138.212 364.484 138.42 361.749 138.603 359.04C138.611 358.878 138.611 358.716 138.603 358.554C139.435 347.964 140.184 337.723 140.9 328.351C141.166 324.784 141.426 321.356 141.682 318.067C141.682 317.513 141.756 316.96 141.806 316.406C141.915 314.923 142.039 313.458 142.139 312.026C142.331 309.598 142.514 307.281 142.672 305.1C142.722 304.486 142.772 303.873 142.821 303.285C143.146 298.974 143.437 295.182 143.653 292.03C143.653 291.442 143.737 290.871 143.77 290.326C144.194 284.975 144.427 281.925 144.427 281.925H181.776L229.15 282.01Z" fill="#EB9481"/>
<path d="M134.576 374.71H199.472C199.472 373.764 199.547 372.793 199.589 371.821C199.589 370.577 199.68 369.325 199.73 368.081C199.805 365.943 199.888 363.821 199.963 361.862C199.963 361.674 199.963 361.478 199.963 361.282C200.013 359.945 200.055 358.684 200.104 357.55V357.423C200.104 356.792 200.129 356.204 200.179 355.659C200.175 355.574 200.175 355.489 200.179 355.403C200.179 354.551 200.238 353.768 200.271 353.163C200.271 352.847 200.271 352.558 200.271 352.311C200.266 352.223 200.266 352.134 200.271 352.047C200.262 351.964 200.262 351.882 200.271 351.799C200.271 351.561 200.271 351.433 200.271 351.433L200.795 351.118L201.502 350.7L202.259 350.257C203.241 349.678 204.181 349.133 205.08 348.63C205.978 348.127 206.852 347.65 207.676 347.216C208.774 346.628 209.806 346.1 210.754 345.622L212.127 344.949L212.759 344.643L212.901 344.583L213.566 344.276L214.972 343.637L215.746 343.305C216.52 342.964 217.127 342.726 217.543 342.564C217.618 342.527 217.696 342.495 217.776 342.47L217.993 342.385L218.192 342.317L218.275 342.274C218.359 342.061 218.425 341.848 218.5 341.635C218.575 341.422 218.666 341.192 218.733 340.962C218.966 340.297 219.182 339.616 219.39 338.934C219.648 338.082 219.889 337.298 220.122 336.463C220.289 335.91 220.447 335.339 220.613 334.759C220.78 334.18 220.904 333.703 221.046 333.175C221.712 330.746 222.319 328.267 222.868 325.779C222.993 325.285 223.101 324.782 223.201 324.288C223.301 323.794 223.459 323.104 223.575 322.516C223.808 321.383 224.041 320.25 224.249 319.108C224.948 315.555 225.539 312.054 226.055 308.688C226.163 307.955 226.279 307.223 226.387 306.499C226.496 305.774 226.57 305.212 226.662 304.573C226.862 303.091 227.061 301.651 227.236 300.245L227.361 299.265C227.477 298.26 227.594 297.271 227.702 296.317C227.76 295.84 227.81 295.363 227.86 294.903C227.91 294.443 227.952 294.145 227.993 293.77C228.035 293.395 228.051 293.207 228.085 292.918C228.08 292.85 228.08 292.781 228.085 292.713C228.135 292.245 228.176 291.785 228.226 291.35C228.351 290.038 228.459 288.845 228.559 287.772C228.609 287.133 228.667 286.545 228.709 286.008C228.703 285.986 228.703 285.962 228.709 285.94C228.792 284.892 228.858 284.04 228.908 283.384C228.908 282.949 228.958 282.617 228.975 282.378C228.992 282.14 228.975 282.097 228.975 282.055H144.502C144.502 282.055 129.526 305.331 136.956 335.927C136.956 335.91 135.533 360.192 134.576 374.71Z" fill="#748CAE"/>
<path d="M192.525 354.788C195.379 352.761 198.457 351.057 201.477 349.31C204.497 347.563 207.701 345.808 210.921 344.275C217.269 341.411 223.798 338.989 230.464 337.024C230.631 336.964 230.747 337.246 230.581 337.322C224.216 340.117 218.042 343.329 211.711 346.2C208.533 347.649 205.321 349.037 202.135 350.46C198.948 351.883 195.836 353.527 192.625 354.899C192.508 354.95 192.45 354.839 192.525 354.788Z" fill="#37474F"/>
<path d="M209.939 322.908C210.022 319.713 210.238 316.518 210.397 313.323C210.763 305.783 211.045 298.208 211.728 290.694C211.738 290.639 211.766 290.59 211.808 290.555C211.85 290.519 211.902 290.5 211.957 290.5C212.011 290.5 212.063 290.519 212.105 290.555C212.147 290.59 212.175 290.639 212.185 290.694C212.277 296.521 212.061 302.375 211.944 308.202C211.886 311.125 211.803 314.038 211.728 316.952C211.571 319.738 211.552 322.531 211.669 325.319C211.819 327.415 212.277 331.504 214.948 331.752C217.444 331.99 218.858 329.196 219.49 327.159C221.088 321.971 221.662 316.364 222.178 310.971C222.485 307.776 222.793 304.59 223.01 301.378C223.294 298.103 223.399 294.815 223.326 291.529C223.326 291.324 223.625 291.333 223.634 291.529C223.808 294.826 224.249 298.098 224.357 301.403C224.466 304.709 224.474 307.989 224.266 311.269C224.058 314.55 223.808 317.583 223.351 320.701C223.037 323.556 222.371 326.358 221.371 329.042C220.439 331.249 218.875 333.302 216.42 333.771C216.124 333.827 215.823 333.859 215.522 333.864C215.522 334.538 215.405 335.219 215.355 335.892C215.289 336.949 215.156 337.997 215.022 339.045C214.874 340.077 214.663 341.098 214.39 342.103C214.172 343.119 213.819 344.099 213.342 345.017C213.323 345.047 213.296 345.069 213.265 345.081C213.233 345.094 213.198 345.095 213.165 345.086C213.133 345.076 213.104 345.056 213.083 345.028C213.062 345.001 213.051 344.967 213.051 344.932C213.031 343.924 213.112 342.916 213.292 341.924C213.433 340.894 213.575 339.854 213.783 338.84C213.991 337.826 214.165 336.846 214.365 335.841C214.498 335.177 214.59 334.486 214.715 333.805C213.931 333.668 213.194 333.332 212.569 332.829C211.945 332.327 211.452 331.672 211.137 330.925C209.972 328.463 209.881 325.558 209.939 322.908Z" fill="#37474F"/>
<path d="M142.38 321.041C146.848 321.364 151.258 321.952 155.734 321.407C159.96 320.967 163.988 319.353 167.382 316.738C174.745 310.885 177.973 301.317 179.97 292.337C179.982 292.301 180.006 292.27 180.038 292.25C180.07 292.23 180.108 292.223 180.145 292.229C180.182 292.235 180.216 292.254 180.24 292.283C180.264 292.313 180.278 292.35 180.278 292.388C179.446 300.175 177.782 308.227 172.907 314.489C170.791 317.247 168.117 319.502 165.069 321.1C161.832 322.642 158.288 323.389 154.719 323.281C150.533 323.248 146.368 322.675 142.322 321.577C142.288 321.574 142.254 321.563 142.224 321.546C142.194 321.529 142.167 321.505 142.145 321.478C142.124 321.45 142.108 321.418 142.098 321.384C142.088 321.35 142.085 321.315 142.089 321.279C142.093 321.244 142.104 321.21 142.12 321.179C142.137 321.148 142.16 321.12 142.187 321.098C142.214 321.076 142.245 321.06 142.278 321.05C142.311 321.04 142.346 321.037 142.38 321.041Z" fill="#37474F"/>
<path d="M199.481 374.707C199.481 374.868 199.481 375.039 199.481 375.201C199.489 375.036 199.489 374.871 199.481 374.707H199.797C200.113 369.697 200.846 354.557 200.896 351.132V350.62C200.896 350.484 200.371 350.68 200.355 350.808C200.338 350.936 200.355 351.106 200.305 351.311C199.964 354.582 199.14 366.289 198.94 370.199C198.874 371.699 198.807 373.198 198.766 374.707H199.481Z" fill="#37474F"/>
<path d="M218.983 198.514H212.676C212.26 195.362 211.345 190.224 209.831 187.481C209.831 187.481 211.237 194.433 210.663 198.514H205.113C204.631 194.118 203.324 186.143 199.938 180.512C200.096 181.108 202.883 191.894 202.218 198.514H153.396C151.233 187.967 152.905 176.482 152.057 178.987C149.785 185.675 149.128 193.811 148.995 198.514H143.554C143.402 195.851 143.55 193.178 143.994 190.548C144.71 187.047 141.906 193.956 141.548 198.514H138.112C138.112 198.514 137.422 183.485 142.796 172.767C149.927 158.513 145.75 153.231 148.679 137.622C152.007 119.866 174.803 98.3789 197.584 120.838C199.422 122.652 210.771 126.222 210.122 148.672C209.756 161.367 207.41 168.081 211.669 174.607C216.953 182.752 219.216 191.698 218.983 198.514Z" fill="#263238"/>
<path d="M135.857 196.418C135.264 191.012 135.748 185.54 137.279 180.332C138.017 177.702 138.96 175.138 140.1 172.664C140.649 171.437 141.323 170.219 141.905 169.051C142.502 167.893 143.014 166.692 143.436 165.456C145.175 160.497 145.716 155.147 146.373 149.822C146.698 147.146 147.047 144.463 147.58 141.813C148.098 139.156 148.904 136.567 149.984 134.094C148.32 139.206 148.004 144.599 147.555 149.941C147.355 152.625 147.105 155.317 146.723 158.009C146.347 160.722 145.723 163.392 144.859 165.984C144.395 167.282 143.839 168.544 143.195 169.758C142.563 170.977 141.947 172.101 141.365 173.303C140.202 175.679 139.204 178.136 138.378 180.656C137.544 183.179 136.904 185.766 136.464 188.392C136.223 189.705 136.048 191.03 135.94 192.362C135.898 193.734 135.84 195.105 135.857 196.418Z" fill="#263238"/>
<path d="M210.097 148.699C210.206 150.855 210.056 153.01 210.097 155.157C210.139 157.304 210.147 159.417 210.33 161.547C210.508 163.652 210.856 165.738 211.37 167.784C211.487 168.295 211.662 168.789 211.803 169.292L211.911 169.667L212.028 169.982C212.119 170.195 212.236 170.417 212.352 170.638C212.843 171.541 213.409 172.453 213.958 173.373C215.039 175.222 216.104 177.113 217.028 179.082C217.955 181.047 218.731 183.084 219.349 185.173C219.964 187.264 220.388 189.409 220.614 191.58C220.826 193.739 220.826 195.914 220.614 198.073C220.464 193.8 219.664 189.577 218.243 185.557C216.784 181.576 214.922 177.764 212.685 174.183C212.144 173.262 211.587 172.351 211.071 171.362C210.938 171.107 210.813 170.851 210.696 170.579C210.58 170.306 210.588 170.272 210.538 170.136L210.422 169.735C210.28 169.207 210.106 168.679 210.006 168.142C209.523 166.002 209.244 163.819 209.174 161.624C209.108 159.455 209.18 157.283 209.39 155.123C209.565 152.968 209.864 150.804 210.097 148.699Z" fill="#263238"/>
<path d="M188.348 192.985C216.503 206.268 246.006 205.91 257.662 204.351C267.472 203.039 319.871 163.012 320.603 157.772C321.435 151.808 298.971 134.112 285.767 138.346C284.386 138.789 249.342 172.767 246.43 173.278C241.106 174.233 214.274 175.63 202.659 176.686C183.331 178.569 174.179 186.306 188.348 192.985Z" fill="#EB9481"/>
<path d="M186.152 194.5C194.863 199.842 214.739 206.096 214.739 206.096L234.949 173.209C234.949 173.209 202.043 172.8 185.029 178.934C178.248 181.397 177.349 189.09 186.152 194.5Z" fill="#99DBCB"/>
<path d="M183.464 179.983C183.464 180.58 183.233 181.152 182.821 181.574C182.409 181.995 181.851 182.232 181.268 182.232C181.094 182.234 180.921 182.214 180.752 182.173C181.438 181.13 182.364 180.275 183.448 179.685C183.456 179.77 183.464 179.881 183.464 179.983ZM202.933 182.232C203.368 182.232 203.792 182.101 204.154 181.853C204.515 181.606 204.796 181.255 204.963 180.844C205.129 180.433 205.172 179.981 205.088 179.544C205.003 179.108 204.794 178.707 204.486 178.393C204.179 178.078 203.788 177.864 203.362 177.777C202.936 177.69 202.494 177.735 202.093 177.905C201.691 178.075 201.348 178.364 201.107 178.734C200.866 179.103 200.737 179.538 200.737 179.983C200.739 180.579 200.971 181.15 201.383 181.571C201.794 181.993 202.351 182.23 202.933 182.232ZM224.565 182.232C224.999 182.231 225.423 182.097 225.783 181.849C226.143 181.601 226.424 181.249 226.589 180.838C226.754 180.427 226.796 179.975 226.71 179.539C226.625 179.103 226.415 178.703 226.107 178.39C225.8 178.076 225.408 177.863 224.982 177.777C224.557 177.69 224.115 177.735 223.714 177.906C223.314 178.076 222.971 178.365 222.73 178.734C222.489 179.104 222.36 179.539 222.36 179.983C222.36 180.286 222.42 180.585 222.535 180.864C222.651 181.143 222.82 181.395 223.033 181.605C223.246 181.815 223.498 181.978 223.774 182.086C224.05 182.194 224.345 182.244 224.64 182.232H224.565ZM192.059 194.067C191.476 194.067 190.918 194.304 190.506 194.726C190.094 195.147 189.863 195.719 189.863 196.316C189.858 196.393 189.858 196.469 189.863 196.546C190.952 197.083 192.109 197.628 193.315 198.156C193.697 197.881 193.984 197.489 194.133 197.036C194.283 196.583 194.287 196.093 194.146 195.637C194.006 195.181 193.726 194.783 193.349 194.501C192.973 194.218 192.518 194.066 192.051 194.067H192.059ZM213.691 198.574C214.127 198.575 214.555 198.444 214.918 198.197C215.282 197.95 215.566 197.598 215.734 197.186C215.902 196.774 215.947 196.319 215.863 195.881C215.779 195.442 215.569 195.039 215.261 194.723C214.953 194.406 214.56 194.19 214.133 194.102C213.705 194.014 213.261 194.059 212.858 194.229C212.454 194.4 212.109 194.689 211.867 195.061C211.624 195.432 211.495 195.869 211.495 196.316C211.494 196.618 211.554 196.918 211.669 197.196C211.783 197.475 211.952 197.727 212.164 197.937C212.376 198.148 212.626 198.313 212.902 198.422C213.177 198.531 213.471 198.583 213.766 198.574H213.691Z" fill="white"/>
<path d="M186.143 194.5C194.862 199.851 214.739 206.088 214.739 206.088L218.957 199.22L188.464 177.844C187.283 178.185 186.126 178.551 185.061 178.934C178.256 181.388 177.349 189.141 186.143 194.5Z" fill="#263238"/>
<path d="M210.538 203.072C213.225 197.96 215.971 192.95 218.95 188.034C220.431 185.58 221.948 183.152 223.501 180.749C225.056 178.346 226.829 176.097 228.376 173.678C228.459 173.55 228.659 173.678 228.568 173.822C226.904 176.157 225.589 178.738 224.083 181.167C222.577 183.595 221.055 186.032 219.565 188.485C216.587 193.367 213.6 198.258 210.738 203.216C210.655 203.353 210.496 203.208 210.538 203.072Z" fill="#263238"/>
<path d="M231.163 282.012L222.685 240.86C222.685 240.86 231.213 227.475 224.549 215.871C221.179 209.992 203.749 188.471 193.507 180.726C181.46 171.601 169.903 179.994 165.41 186.247C156.408 198.763 147.473 228.208 144.369 282.055L231.163 282.012Z" fill="#99DBCB"/>
<path d="M179.062 179.985C179.061 179.538 179.189 179.101 179.43 178.728C179.671 178.356 180.015 178.065 180.418 177.893C180.82 177.721 181.264 177.675 181.692 177.761C182.12 177.847 182.514 178.062 182.823 178.377C183.132 178.692 183.343 179.095 183.429 179.533C183.515 179.971 183.472 180.426 183.305 180.839C183.138 181.252 182.856 181.605 182.493 181.853C182.13 182.102 181.704 182.234 181.267 182.234C180.684 182.234 180.124 181.998 179.711 181.576C179.298 181.154 179.065 180.582 179.062 179.985ZM159.594 214.917C160.028 214.917 160.453 214.785 160.814 214.538C161.175 214.291 161.457 213.94 161.623 213.529C161.789 213.118 161.833 212.665 161.748 212.229C161.663 211.793 161.454 211.392 161.147 211.077C160.84 210.763 160.448 210.549 160.022 210.462C159.596 210.375 159.154 210.419 158.753 210.59C158.352 210.76 158.009 211.048 157.767 211.418C157.526 211.788 157.397 212.223 157.397 212.668C157.406 213.259 157.641 213.823 158.052 214.239C158.462 214.655 159.016 214.889 159.594 214.892V214.917ZM181.267 214.917C181.701 214.915 182.125 214.782 182.485 214.534C182.845 214.286 183.126 213.934 183.291 213.523C183.455 213.112 183.498 212.66 183.412 212.224C183.326 211.788 183.117 211.388 182.809 211.074C182.502 210.761 182.11 210.547 181.684 210.461C181.258 210.375 180.817 210.42 180.416 210.591C180.016 210.761 179.673 211.049 179.432 211.419C179.191 211.789 179.062 212.223 179.062 212.668C179.069 213.261 179.304 213.828 179.717 214.245C180.13 214.661 180.687 214.894 181.267 214.892V214.917ZM202.899 214.917C203.334 214.917 203.758 214.785 204.119 214.538C204.481 214.291 204.762 213.94 204.928 213.529C205.095 213.118 205.138 212.665 205.053 212.229C204.969 211.793 204.76 211.392 204.452 211.077C204.145 210.763 203.754 210.549 203.328 210.462C202.902 210.375 202.46 210.419 202.059 210.59C201.657 210.76 201.314 211.048 201.073 211.418C200.832 211.788 200.703 212.223 200.703 212.668C200.711 213.265 200.951 213.835 201.369 214.251C201.787 214.668 202.349 214.898 202.932 214.892L202.899 214.917ZM222.368 212.642C222.368 213.106 222.509 213.559 222.772 213.937C223.034 214.316 223.405 214.602 223.832 214.755C223.458 214.133 222.975 213.418 222.401 212.617L222.368 212.642ZM170.401 198.601C170.837 198.601 171.264 198.469 171.626 198.221C171.989 197.973 172.271 197.62 172.438 197.207C172.605 196.795 172.649 196.341 172.564 195.903C172.479 195.465 172.269 195.063 171.96 194.747C171.652 194.431 171.259 194.216 170.831 194.129C170.404 194.042 169.96 194.087 169.558 194.258C169.155 194.428 168.81 194.718 168.568 195.089C168.326 195.46 168.196 195.897 168.196 196.343C168.2 196.641 168.26 196.934 168.375 197.208C168.489 197.481 168.655 197.728 168.863 197.936C169.071 198.143 169.317 198.306 169.586 198.416C169.856 198.526 170.144 198.58 170.435 198.576L170.401 198.601ZM192.033 198.601C192.47 198.603 192.897 198.472 193.26 198.225C193.624 197.978 193.908 197.626 194.076 197.213C194.244 196.801 194.289 196.347 194.205 195.908C194.121 195.47 193.912 195.067 193.604 194.75C193.296 194.433 192.903 194.218 192.475 194.13C192.047 194.042 191.603 194.086 191.2 194.257C190.796 194.427 190.452 194.717 190.209 195.088C189.966 195.46 189.837 195.897 189.837 196.343C189.84 196.643 189.901 196.939 190.017 197.214C190.133 197.489 190.301 197.737 190.512 197.945C190.722 198.153 190.971 198.315 191.244 198.424C191.517 198.532 191.808 198.584 192.1 198.576L192.033 198.601ZM159.527 247.583C159.963 247.584 160.391 247.453 160.754 247.206C161.118 246.959 161.402 246.607 161.57 246.195C161.738 245.782 161.783 245.328 161.699 244.89C161.615 244.451 161.405 244.048 161.097 243.731C160.789 243.415 160.396 243.199 159.969 243.111C159.541 243.023 159.097 243.068 158.694 243.238C158.29 243.409 157.945 243.698 157.703 244.07C157.46 244.441 157.331 244.878 157.331 245.325C157.334 245.624 157.395 245.92 157.511 246.195C157.627 246.47 157.795 246.719 158.006 246.926C158.216 247.134 158.465 247.297 158.738 247.405C159.01 247.513 159.301 247.565 159.594 247.557L159.527 247.583ZM181.201 247.583C181.637 247.583 182.063 247.45 182.426 247.202C182.788 246.954 183.071 246.602 183.238 246.189C183.404 245.776 183.448 245.322 183.363 244.884C183.278 244.447 183.068 244.044 182.76 243.728C182.451 243.413 182.058 243.198 181.631 243.111C181.203 243.023 180.76 243.068 180.357 243.239C179.954 243.41 179.61 243.699 179.367 244.071C179.125 244.442 178.996 244.878 178.996 245.325C178.999 245.625 179.061 245.922 179.177 246.197C179.293 246.473 179.462 246.722 179.674 246.929C179.885 247.137 180.135 247.3 180.409 247.408C180.682 247.515 180.974 247.566 181.267 247.557L181.201 247.583ZM202.833 247.583C203.269 247.584 203.696 247.453 204.06 247.206C204.423 246.959 204.707 246.607 204.876 246.195C205.044 245.782 205.089 245.328 205.004 244.89C204.92 244.451 204.711 244.048 204.403 243.731C204.095 243.415 203.702 243.199 203.274 243.111C202.846 243.023 202.403 243.068 201.999 243.238C201.596 243.409 201.251 243.698 201.008 244.07C200.766 244.441 200.636 244.878 200.636 245.325C200.639 245.627 200.702 245.926 200.82 246.203C200.938 246.48 201.109 246.731 201.323 246.939C201.537 247.147 201.79 247.309 202.066 247.415C202.343 247.521 202.637 247.57 202.932 247.557L202.833 247.583ZM223.133 243.57C222.814 243.831 222.573 244.179 222.436 244.573C222.299 244.967 222.273 245.393 222.359 245.802C222.446 246.211 222.642 246.587 222.925 246.888C223.209 247.189 223.569 247.403 223.965 247.506L223.133 243.57ZM150.675 227.885C150.491 228.822 150.308 229.767 150.134 230.739C150.392 230.529 150.601 230.262 150.745 229.958C150.889 229.654 150.965 229.321 150.966 228.984C150.965 228.597 150.865 228.218 150.675 227.885ZM170.435 231.233C170.871 231.233 171.298 231.1 171.66 230.852C172.023 230.603 172.306 230.25 172.472 229.837C172.639 229.424 172.682 228.97 172.596 228.531C172.511 228.093 172.3 227.691 171.991 227.376C171.681 227.06 171.288 226.846 170.86 226.76C170.431 226.673 169.988 226.719 169.585 226.892C169.182 227.064 168.839 227.355 168.597 227.727C168.356 228.099 168.228 228.537 168.23 228.984C168.23 229.28 168.287 229.573 168.398 229.846C168.509 230.12 168.671 230.368 168.876 230.577C169.081 230.786 169.324 230.952 169.591 231.064C169.859 231.177 170.145 231.234 170.435 231.233ZM192.067 231.233C192.503 231.235 192.931 231.103 193.295 230.856C193.658 230.608 193.942 230.256 194.11 229.843C194.278 229.43 194.322 228.975 194.238 228.537C194.153 228.098 193.943 227.695 193.634 227.379C193.325 227.062 192.931 226.847 192.503 226.76C192.074 226.673 191.63 226.719 191.227 226.891C190.824 227.063 190.48 227.353 190.238 227.726C189.997 228.099 189.868 228.536 189.87 228.984C189.87 229.282 189.928 229.577 190.04 229.852C190.153 230.127 190.318 230.377 190.525 230.586C190.733 230.796 190.979 230.961 191.249 231.072C191.519 231.183 191.809 231.237 192.1 231.233H192.067ZM213.699 231.233C214.135 231.235 214.563 231.103 214.927 230.856C215.29 230.608 215.574 230.256 215.742 229.843C215.91 229.43 215.954 228.975 215.87 228.537C215.785 228.098 215.575 227.695 215.266 227.379C214.957 227.062 214.563 226.847 214.135 226.76C213.706 226.673 213.262 226.719 212.859 226.891C212.456 227.063 212.112 227.353 211.87 227.726C211.629 228.099 211.5 228.536 211.502 228.984C211.503 229.284 211.563 229.582 211.678 229.859C211.793 230.136 211.96 230.386 212.171 230.596C212.382 230.806 212.632 230.97 212.905 231.079C213.179 231.189 213.471 231.241 213.765 231.233H213.699ZM159.527 280.214C159.963 280.216 160.391 280.085 160.754 279.838C161.118 279.591 161.402 279.239 161.57 278.826C161.738 278.414 161.783 277.96 161.699 277.521C161.615 277.083 161.405 276.68 161.097 276.363C160.789 276.046 160.396 275.831 159.969 275.743C159.541 275.655 159.097 275.699 158.694 275.87C158.29 276.04 157.945 276.33 157.703 276.701C157.46 277.073 157.331 277.51 157.331 277.957C157.33 278.258 157.389 278.557 157.504 278.835C157.618 279.112 157.786 279.364 157.997 279.575C158.208 279.785 158.458 279.95 158.732 280.06C159.006 280.17 159.299 280.222 159.594 280.214H159.527ZM181.201 280.214C181.637 280.214 182.063 280.082 182.426 279.834C182.788 279.586 183.071 279.233 183.238 278.821C183.404 278.408 183.448 277.954 183.363 277.516C183.278 277.078 183.068 276.676 182.76 276.36C182.451 276.044 182.058 275.829 181.631 275.742C181.203 275.655 180.76 275.7 180.357 275.871C179.954 276.042 179.61 276.331 179.367 276.702C179.125 277.073 178.996 277.51 178.996 277.957C178.996 278.259 179.055 278.558 179.17 278.837C179.285 279.115 179.453 279.367 179.665 279.578C179.877 279.788 180.128 279.953 180.403 280.062C180.678 280.172 180.972 280.223 181.267 280.214H181.201ZM202.833 280.214C203.269 280.216 203.696 280.085 204.06 279.838C204.423 279.591 204.707 279.239 204.876 278.826C205.044 278.414 205.089 277.96 205.004 277.521C204.92 277.083 204.711 276.68 204.403 276.363C204.095 276.046 203.702 275.831 203.274 275.743C202.846 275.655 202.403 275.699 201.999 275.87C201.596 276.04 201.251 276.33 201.008 276.701C200.766 277.073 200.636 277.51 200.636 277.957C200.636 278.261 200.696 278.563 200.812 278.843C200.929 279.123 201.099 279.376 201.314 279.587C201.528 279.798 201.782 279.962 202.061 280.07C202.339 280.178 202.635 280.227 202.932 280.214H202.833ZM224.465 280.214C224.901 280.214 225.327 280.082 225.69 279.834C226.052 279.586 226.335 279.233 226.502 278.821C226.668 278.408 226.712 277.954 226.627 277.516C226.542 277.078 226.332 276.676 226.024 276.36C225.715 276.044 225.322 275.829 224.895 275.742C224.467 275.655 224.024 275.7 223.621 275.871C223.218 276.042 222.874 276.331 222.631 276.702C222.389 277.073 222.26 277.51 222.26 277.957C222.259 278.269 222.321 278.578 222.443 278.864C222.564 279.15 222.743 279.408 222.966 279.62C223.19 279.832 223.454 279.994 223.742 280.097C224.03 280.199 224.335 280.239 224.639 280.214H224.465ZM148.761 263.89C149.195 263.89 149.62 263.758 149.981 263.511C150.342 263.264 150.624 262.913 150.79 262.502C150.956 262.091 151 261.638 150.915 261.202C150.83 260.766 150.621 260.365 150.314 260.05C150.007 259.736 149.616 259.521 149.189 259.435C148.763 259.348 148.322 259.392 147.92 259.563C147.519 259.733 147.176 260.021 146.935 260.391C146.693 260.761 146.564 261.196 146.564 261.641C146.564 262.237 146.796 262.809 147.208 263.231C147.62 263.653 148.178 263.89 148.761 263.89ZM170.393 263.89C170.827 263.888 171.251 263.755 171.611 263.507C171.971 263.259 172.251 262.907 172.416 262.496C172.581 262.084 172.624 261.632 172.538 261.197C172.452 260.761 172.242 260.361 171.935 260.047C171.627 259.734 171.236 259.52 170.81 259.434C170.384 259.348 169.943 259.393 169.542 259.564C169.141 259.734 168.799 260.022 168.558 260.392C168.317 260.762 168.188 261.196 168.188 261.641C168.188 261.94 168.246 262.237 168.36 262.513C168.473 262.79 168.64 263.04 168.849 263.25C169.058 263.459 169.306 263.624 169.579 263.734C169.851 263.844 170.142 263.897 170.435 263.89H170.393ZM192.025 263.89C192.459 263.89 192.884 263.758 193.245 263.511C193.606 263.264 193.888 262.913 194.054 262.502C194.22 262.091 194.264 261.638 194.179 261.202C194.094 260.766 193.885 260.365 193.578 260.05C193.271 259.736 192.88 259.521 192.453 259.435C192.027 259.348 191.586 259.392 191.184 259.563C190.783 259.733 190.44 260.021 190.199 260.391C189.957 260.761 189.828 261.196 189.828 261.641C189.828 261.943 189.887 262.242 190.003 262.52C190.118 262.798 190.286 263.049 190.498 263.259C190.71 263.469 190.961 263.633 191.236 263.741C191.511 263.85 191.805 263.9 192.1 263.89H192.025ZM213.657 263.89C214.091 263.89 214.516 263.758 214.877 263.511C215.238 263.264 215.52 262.913 215.686 262.502C215.852 262.091 215.896 261.638 215.811 261.202C215.726 260.766 215.517 260.365 215.21 260.05C214.903 259.736 214.512 259.521 214.085 259.435C213.659 259.348 213.218 259.392 212.816 259.563C212.415 259.733 212.072 260.021 211.831 260.391C211.589 260.761 211.46 261.196 211.46 261.641C211.461 261.945 211.522 262.247 211.64 262.526C211.757 262.806 211.929 263.059 212.144 263.269C212.359 263.479 212.614 263.642 212.893 263.749C213.171 263.856 213.468 263.904 213.765 263.89H213.657Z" fill="white"/>
<path d="M195.221 241.044C199.257 240.336 203.34 239.938 207.435 239.852C209.465 239.852 211.486 239.92 213.517 240.039C214.532 240.099 215.538 240.133 216.553 240.15C217.612 240.206 218.674 240.128 219.715 239.92C219.732 239.918 219.75 239.922 219.765 239.932C219.779 239.942 219.79 239.957 219.795 239.974C219.8 239.992 219.799 240.01 219.792 240.027C219.785 240.043 219.772 240.057 219.757 240.065C218.799 240.372 217.824 240.617 216.836 240.797C215.874 240.932 214.904 241.003 213.933 241.01C211.869 241.01 209.773 241.01 207.734 241.01C203.574 241.01 199.414 241.07 195.254 241.411C195.071 241.402 195.029 241.113 195.221 241.044Z" fill="#263238"/>
<path d="M186.368 247.257C189.525 246.028 192.747 244.984 196.019 244.13C197.683 243.713 199.347 243.389 201.011 243.108C201.843 242.972 202.609 242.861 203.407 242.75C204.206 242.64 205.18 242.631 206.062 242.503C206.153 242.503 206.186 242.631 206.062 242.648C205.23 242.793 204.398 243.083 203.624 243.287L201.128 243.875C199.464 244.275 197.858 244.727 196.219 245.076C192.933 245.852 189.663 246.644 186.401 247.53C186.293 247.581 186.243 247.317 186.368 247.257Z" fill="#263238"/>
<path d="M173.48 183.714C174.021 185.359 183.464 194.688 190.719 192.294C195.819 190.59 191.493 180.366 191.493 180.366L193.373 164.826L173.588 154.602C173.588 154.602 173.256 183.016 173.48 183.714Z" fill="#EB9481"/>
<path d="M173.48 164.526C175.338 168.155 177.904 171.353 181.02 173.923C184.136 176.492 187.735 178.378 191.593 179.462L193.382 164.79L173.589 154.566C173.589 154.566 173.539 159.039 173.48 164.526Z" fill="#263238"/>
<path d="M209.914 138.696C216.52 163.404 202.792 170.288 197.584 171.736C192.85 173.057 176.576 176.933 167.507 152.992C158.438 129.051 167.59 118.111 178.248 114.516C188.906 110.92 203.308 113.953 209.914 138.696Z" fill="#EB9481"/>
<path d="M203.199 135.979C202.62 136.014 202.039 136.014 201.46 135.979C200.847 136.053 200.227 135.918 199.696 135.596C199.548 135.464 199.447 135.285 199.409 135.087C199.371 134.89 199.399 134.685 199.488 134.505C199.715 134.174 200.025 133.911 200.385 133.744C200.745 133.576 201.142 133.509 201.535 133.551C202.345 133.516 203.14 133.789 203.765 134.318C203.894 134.447 203.984 134.611 204.025 134.791C204.067 134.971 204.057 135.159 203.998 135.333C203.938 135.507 203.832 135.661 203.69 135.775C203.549 135.89 203.378 135.961 203.199 135.979Z" fill="#263238"/>
<path d="M186.303 139.835C186.868 139.648 187.367 139.384 187.908 139.145C188.505 138.98 189.032 138.618 189.406 138.114C189.504 137.937 189.538 137.729 189.499 137.529C189.461 137.329 189.354 137.15 189.198 137.024C188.867 136.803 188.483 136.676 188.088 136.658C187.693 136.641 187.301 136.731 186.951 136.921C186.19 137.201 185.554 137.755 185.163 138.48C185.084 138.652 185.056 138.842 185.081 139.03C185.106 139.217 185.184 139.393 185.304 139.536C185.425 139.679 185.583 139.783 185.76 139.837C185.937 139.89 186.126 139.889 186.303 139.835Z" fill="#263238"/>
<path d="M190.977 144.685C190.977 144.625 190.869 144.796 190.886 144.864C191.302 146.568 191.501 148.587 190.104 149.499C190.062 149.499 190.104 149.61 190.104 149.584C191.934 148.911 191.643 146.227 190.977 144.685Z" fill="#263238"/>
<path d="M189.105 143.228C186.368 143.62 187.333 149.192 189.871 148.835C192.408 148.477 191.402 142.896 189.105 143.228Z" fill="#263238"/>
<path d="M188.09 143.714C187.666 144.114 187.3 144.762 186.734 144.924C186.169 145.085 185.478 144.617 184.954 144.131C184.896 144.08 184.854 144.131 184.871 144.216C185.037 145.281 185.628 146.312 186.776 146.261C187.924 146.21 188.39 145.145 188.44 144.029C188.473 143.816 188.257 143.552 188.09 143.714Z" fill="#263238"/>
<path d="M200.645 142.649C200.645 142.581 200.795 142.708 200.804 142.777C201.037 144.481 201.586 146.466 203.208 146.781C203.258 146.781 203.266 146.875 203.208 146.875C201.344 146.934 200.596 144.336 200.645 142.649Z" fill="#263238"/>
<path d="M201.86 140.577C204.539 139.896 205.671 145.442 203.191 146.073C200.712 146.703 199.605 141.148 201.86 140.577Z" fill="#263238"/>
<path d="M203.058 140.698C203.549 140.902 204.081 141.345 204.597 141.269C205.113 141.192 205.512 140.493 205.77 139.837C205.77 139.769 205.854 139.837 205.87 139.88C206.12 140.928 206.003 142.104 205.038 142.521C204.073 142.939 203.316 142.138 202.858 141.132C202.775 140.953 202.867 140.621 203.058 140.698Z" fill="#263238"/>
<path d="M194.322 158.752C194.78 159.11 195.254 159.604 195.878 159.604C196.507 159.501 197.11 159.27 197.65 158.922C197.661 158.915 197.673 158.912 197.686 158.914C197.698 158.915 197.71 158.92 197.72 158.929C197.729 158.937 197.736 158.949 197.738 158.961C197.74 158.974 197.739 158.987 197.733 158.999C197.533 159.373 197.238 159.686 196.879 159.903C196.521 160.12 196.112 160.235 195.695 160.234C195.337 160.187 195 160.032 194.728 159.79C194.456 159.547 194.259 159.228 194.164 158.871C194.122 158.76 194.255 158.701 194.322 158.752Z" fill="#263238"/>
<path d="M200.204 151.16C200.204 151.16 201.036 153.665 201.253 154.883C201.253 154.994 200.995 155.105 200.595 155.207C199.609 155.602 198.535 155.71 197.493 155.519C196.45 155.329 195.48 154.846 194.688 154.125C194.668 154.104 194.657 154.076 194.655 154.046C194.652 154.017 194.661 153.988 194.677 153.964C194.694 153.939 194.718 153.922 194.746 153.914C194.774 153.906 194.803 153.909 194.83 153.921C196.537 154.686 198.44 154.865 200.254 154.432C200.254 154.083 198.707 150.172 198.89 150.172C199.827 150.072 200.774 150.107 201.702 150.274C200.138 145 197.758 140.05 196.269 134.751C196.26 134.712 196.264 134.671 196.281 134.635C196.298 134.599 196.327 134.57 196.363 134.554C196.399 134.537 196.439 134.535 196.476 134.546C196.514 134.557 196.547 134.581 196.569 134.614C199.422 139.641 201.353 145.69 203.108 151.075C203.324 151.714 200.72 151.271 200.204 151.16Z" fill="#263238"/>
<path d="M200.313 154.662C199.85 155.792 199.111 156.781 198.166 157.533C197.641 157.932 197.006 158.15 196.352 158.155C194.93 158.155 194.572 156.911 194.539 155.778C194.524 155.171 194.58 154.565 194.705 153.972C196.455 154.807 198.419 155.049 200.313 154.662Z" fill="#263238"/>
<path d="M198.166 157.533C197.641 157.932 197.006 158.15 196.352 158.155C194.929 158.155 194.572 156.911 194.538 155.778C196.003 155.54 197.675 156.145 198.166 157.533Z" fill="#FF9BBC"/>
<path d="M168.48 154.076C169.938 153.052 171.111 151.657 171.884 150.029C172.657 148.401 173.004 146.595 172.89 144.789C176.89 142.213 180.144 138.589 182.316 134.292C182.233 134.837 181.592 138.748 181.21 140.733C196.302 135.366 199.314 122.458 199.314 122.458C205.138 126.829 206.602 129.964 207.568 131.489C207.568 131.489 206.253 121.717 200.387 115.94C193.224 108.868 172.657 109.831 164.819 121.708C156.416 134.514 168.48 154.076 168.48 154.076Z" fill="#263238"/>
<path d="M171.659 152.089C171.659 152.089 164.878 145.222 161.741 147.829C158.604 150.436 164.678 161.103 169.054 161.904C169.609 162.046 170.186 162.071 170.75 161.978C171.314 161.886 171.855 161.677 172.338 161.365C172.822 161.053 173.238 160.644 173.563 160.163C173.889 159.681 174.115 159.137 174.229 158.564L171.659 152.089Z" fill="#EB9481"/>
<path d="M163.555 150.843C163.488 150.843 163.496 150.946 163.555 150.963C166.641 151.619 168.638 154.064 170.211 156.697C169.162 155.759 167.889 155.385 166.65 156.697C166.591 156.765 166.65 156.876 166.758 156.841C167.234 156.583 167.777 156.482 168.312 156.552C168.847 156.623 169.347 156.86 169.745 157.233C170.402 157.861 170.993 158.558 171.509 159.312C171.692 159.551 172.133 159.312 171.974 159.04C171.977 159.02 171.977 159 171.974 158.98C171.342 155.206 167.557 150.486 163.555 150.843Z" fill="#263238"/>
<path d="M331.667 226.939C344.239 193.469 327.935 155.9 295.252 143.025C262.568 130.151 225.88 146.846 213.308 180.316C200.736 213.786 217.039 251.355 249.723 264.229C282.407 277.104 319.094 260.408 331.667 226.939Z" fill="#FDCC4F"/>
<path d="M328.49 233.106L300.469 261.801L339.905 273.499L328.49 233.106Z" fill="#FFD873"/>
<path d="M272.546 161.301C279.608 161.349 286.541 163.238 292.693 166.789C298.845 170.34 304.013 175.436 307.71 181.597C311.407 187.759 313.512 194.782 313.825 202.007C314.139 209.231 312.652 216.419 309.503 222.892C309.154 223.258 305.726 230.015 298.771 232.068C298.002 232.266 297.208 232.349 296.416 232.315C295.122 232.365 293.835 232.095 292.664 231.527C291.494 230.959 290.475 230.11 289.694 229.052C288.512 227.358 287.854 225.34 287.805 223.258V219.152C285.929 221.412 283.598 223.229 280.971 224.48C278.344 225.73 275.484 226.383 272.588 226.394C260.94 226.394 251.48 216.008 251.48 203.568C251.48 191.129 260.915 180.99 272.588 180.99C284.261 180.99 293.462 191.214 293.462 203.568V222.892H293.587C293.594 223.826 293.838 224.742 294.294 225.55C294.55 225.863 294.879 226.104 295.249 226.253C295.62 226.402 296.021 226.453 296.416 226.402H297.356C300.892 225.55 303.729 221.29 304.195 220.123C306.834 215.032 308.174 209.34 308.089 203.577C308.078 196.375 305.981 189.338 302.064 183.356C298.147 177.375 292.586 172.717 286.084 169.971C279.582 167.226 272.431 166.517 265.535 167.934C258.639 169.35 252.309 172.829 247.344 177.93C242.379 183.031 239.002 189.525 237.642 196.591C236.281 203.657 236.997 210.978 239.699 217.627C242.401 224.276 246.968 229.956 252.822 233.947C258.676 237.939 265.555 240.063 272.588 240.051C275.568 240.155 278.548 239.831 281.44 239.088C282.971 238.722 284.618 239.446 284.768 241.142C284.898 241.506 284.948 241.895 284.913 242.282C284.879 242.668 284.762 243.042 284.571 243.376C284.379 243.711 284.118 243.998 283.805 244.217C283.493 244.436 283.137 244.582 282.763 244.643C279.45 245.52 276.042 245.964 272.621 245.964C267.193 245.964 261.818 244.869 256.803 242.742C251.788 240.615 247.232 237.497 243.393 233.567C239.555 229.636 236.511 224.97 234.433 219.835C232.356 214.699 231.287 209.195 231.287 203.637C231.287 198.078 232.356 192.574 234.433 187.439C236.511 182.303 239.555 177.637 243.393 173.707C247.232 169.776 251.788 166.658 256.803 164.531C261.818 162.404 267.193 161.309 272.621 161.309L272.546 161.301ZM272.546 220.089C280.691 220.089 287.647 212.847 287.647 203.543C287.647 194.239 280.691 186.878 272.546 186.878C264.401 186.878 257.57 194.367 257.57 203.543C257.57 212.719 264.293 220.114 272.546 220.114V220.089Z" fill="white"/>
<path d="M161.858 212.393C165.652 243.364 171.625 285.802 187.492 289.073C213.575 294.432 237.062 299.4 253.777 298.343C259.759 297.968 254.859 255.087 248.452 254.891C240.132 254.601 203.957 249.779 201.735 246.482C200.479 244.607 191.302 226.298 178.581 201.939C165.31 176.499 160.643 202.442 161.858 212.393Z" fill="#EB9481"/>
<path d="M251.622 298.334C267.921 298.334 288.23 299.306 304.038 289.729C305.826 288.715 307.228 287.111 308.015 285.18C315.187 281.022 315.42 276.302 315.42 276.302C320.944 270.338 320.537 265.473 320.537 265.473C320.537 265.473 328.907 260.497 326.802 254.823C324.472 248.441 313.173 256.68 304.254 257.328C283.829 258.793 254.384 255.036 248.452 254.857L251.622 298.334Z" fill="#EB9481"/>
<path d="M283.903 274.274C289.911 273.721 295.818 273.337 301.717 271.948C308.19 270.432 314.197 267.859 320.32 265.388C320.339 265.378 320.36 265.373 320.381 265.372C320.402 265.37 320.424 265.373 320.444 265.38C320.464 265.388 320.482 265.399 320.498 265.413C320.514 265.428 320.527 265.445 320.536 265.465C320.546 265.484 320.551 265.506 320.552 265.527C320.554 265.549 320.551 265.571 320.544 265.591C320.537 265.612 320.526 265.631 320.512 265.647C320.498 265.663 320.481 265.677 320.462 265.686C310.02 271.957 295.992 275.126 283.928 274.556C283.637 274.538 283.604 274.343 283.903 274.274Z" fill="#263238"/>
<path d="M282.979 287.027C288.803 286.175 298.995 284.556 315.336 276.121C315.386 276.121 315.452 276.181 315.394 276.215C305.502 283.142 294.877 286.558 283.021 287.291C282.655 287.333 282.588 287.12 282.979 287.027Z" fill="#263238"/>
<path d="M282.605 293.94C292.439 292.074 298.413 289.62 307.964 285.207C308.014 285.207 308.072 285.267 308.014 285.301C297.664 291.486 293.229 292.534 282.621 294.298C282.255 294.315 282.222 293.94 282.605 293.94Z" fill="#263238"/>
<path d="M279.553 257.499C276.824 256.647 277.256 255.139 282.049 253.299C286.841 251.459 307.242 248.349 305.578 241.141C303.914 233.933 275.168 238.772 267.447 242.453C259.726 246.134 248.494 254.858 248.494 254.858C254.235 255.071 268.204 256.946 279.553 257.499Z" fill="#EB9481"/>
<path d="M161.65 246.123L192.193 221.73C192.193 221.73 184.239 203.557 178.448 194.125C170.785 181.661 164.471 181.644 161.717 199.484C159.836 211.421 161.65 246.123 161.65 246.123Z" fill="#99DBCB"/>
<path d="M161.799 212.64C161.798 213.002 161.712 213.358 161.548 213.678C161.384 213.998 161.148 214.273 160.859 214.481C160.859 213.237 160.859 212.027 160.917 210.843C161.19 211.052 161.412 211.323 161.565 211.635C161.719 211.947 161.799 212.291 161.799 212.64ZM181.268 214.89C181.702 214.888 182.126 214.755 182.486 214.507C182.846 214.258 183.126 213.906 183.291 213.495C183.456 213.084 183.499 212.632 183.413 212.196C183.327 211.761 183.117 211.361 182.81 211.047C182.502 210.733 182.111 210.52 181.685 210.434C181.259 210.348 180.818 210.393 180.417 210.563C180.016 210.734 179.674 211.022 179.433 211.392C179.192 211.761 179.063 212.196 179.063 212.64C179.063 212.937 179.12 213.23 179.231 213.503C179.342 213.777 179.505 214.025 179.71 214.234C179.914 214.443 180.157 214.608 180.425 214.721C180.692 214.834 180.979 214.891 181.268 214.89ZM170.452 198.574C170.888 198.574 171.314 198.442 171.677 198.193C172.04 197.945 172.322 197.593 172.489 197.18C172.656 196.768 172.7 196.314 172.614 195.876C172.529 195.438 172.319 195.035 172.011 194.72C171.703 194.404 171.31 194.189 170.882 194.102C170.454 194.015 170.011 194.059 169.608 194.23C169.205 194.401 168.861 194.69 168.619 195.062C168.377 195.433 168.247 195.87 168.247 196.316C168.247 196.912 168.477 197.484 168.887 197.907C169.297 198.33 169.854 198.569 170.435 198.574H170.452ZM161.575 244.284C161.625 245.34 161.658 245.988 161.666 246.107C161.779 245.814 161.829 245.5 161.813 245.185C161.797 244.871 161.716 244.563 161.575 244.284ZM170.452 231.231C170.888 231.231 171.315 231.098 171.678 230.85C172.041 230.602 172.323 230.248 172.49 229.835C172.656 229.422 172.7 228.968 172.614 228.53C172.528 228.091 172.317 227.689 172.008 227.374C171.699 227.058 171.305 226.844 170.877 226.758C170.449 226.672 170.005 226.718 169.603 226.89C169.2 227.062 168.856 227.353 168.615 227.725C168.374 228.098 168.246 228.535 168.247 228.982C168.247 229.577 168.478 230.148 168.888 230.569C169.298 230.991 169.854 231.229 170.435 231.231H170.452Z" fill="white"/>
<path d="M188.449 224.721C188.731 224.397 191.777 221.781 192.051 221.662C191.069 219.549 190.054 217.402 189.089 215.323C188.607 214.258 188.141 213.185 187.691 212.111C187.242 211.038 186.568 209.555 186.136 208.55C186.061 208.38 186.26 208.277 186.344 208.431C187.043 209.743 187.525 210.74 188.132 211.839C188.557 212.639 188.964 213.466 189.355 214.284L189.206 213.585C188.923 212.333 188.748 211.072 188.374 209.828C188.324 209.675 188.565 209.615 188.607 209.768C188.906 211.021 189.355 212.213 189.68 213.457C189.969 214.387 190.186 215.339 190.329 216.303C191.161 218.075 192.093 219.881 192.825 221.662C191.454 222.802 190.011 223.85 188.507 224.798C188.465 224.866 188.407 224.772 188.449 224.721Z" fill="#263238"/>
<path d="M162.482 240.681C166.684 236.822 170.935 233.014 175.345 229.427C177.564 227.632 179.782 225.868 182.001 224.136C184.256 222.432 186.685 220.915 188.907 219.16C189.031 219.058 189.173 219.271 189.048 219.356C186.743 220.992 184.622 222.96 182.392 224.724C180.162 226.487 177.941 228.268 175.736 230.057C171.326 233.635 166.9 237.205 162.574 240.886C162.507 240.988 162.374 240.792 162.482 240.681Z" fill="#263238"/>
<path d="M161.226 246.6C160.394 241.488 160.119 219.796 160.81 214.565C160.814 214.554 160.822 214.544 160.831 214.538C160.841 214.531 160.852 214.527 160.864 214.527C160.875 214.527 160.887 214.531 160.896 214.538C160.906 214.544 160.914 214.554 160.918 214.565C161.326 219.796 161.542 240.636 161.625 245.748C161.7 245.68 165.203 243.056 166.218 242.383C166.367 242.289 166.492 242.468 166.359 242.579C164.744 244.042 163.028 245.386 161.226 246.6Z" fill="#263238"/>
<path d="M283.77 134.717C290.817 134.981 301.351 131.811 306.234 133.703C307.46 134.122 308.52 134.934 309.259 136.019C309.998 137.104 310.376 138.404 310.336 139.726C310.336 139.726 315.029 136.242 319.205 138.712C321.352 139.982 321.26 144.608 321.26 144.608C321.26 144.608 325.137 141.984 328.748 144.412C331.594 146.346 331.07 150.7 331.07 150.7C331.07 150.7 335.945 149.95 338.233 152.881C342.867 158.845 329.306 185.496 317.608 184.499C312.158 184.039 315.819 177.683 315.819 177.683C315.819 177.683 308.406 185.487 302.965 182.795C297.523 180.103 302.765 172.136 302.765 172.136C302.765 172.136 295.518 179.634 290.152 176.226C284.569 172.682 291.134 165.67 291.134 165.67C291.134 165.67 284.186 169.504 280.667 165.934C274.843 160.038 289.287 153.452 290.909 146.866L283.105 138.593L283.77 134.717Z" fill="#EB9481"/>
<path d="M294.694 133.762C288.038 132.91 284.76 122.175 278.512 120.429C270.059 118.068 273.054 130.789 283.088 138.61L291.924 143.288L294.694 133.762Z" fill="#EB9481"/>
<path d="M331.069 151.409C331.069 151.388 331.077 151.369 331.091 151.354C331.105 151.34 331.124 151.332 331.144 151.332C331.164 151.332 331.183 151.34 331.197 151.354C331.211 151.369 331.219 151.388 331.219 151.409C328.848 161.3 323.273 171.422 315.644 178.042C315.394 178.264 314.937 177.94 315.17 177.642C321.759 169.318 326.976 161.36 331.069 151.409Z" fill="#263238"/>
<path d="M321.385 144.515C321.427 144.413 321.61 144.515 321.577 144.609C319.081 154.782 312.499 166.002 302.823 172.58C302.49 172.801 301.991 172.665 302.332 172.375C308.448 167.502 317.733 153.495 321.385 144.515Z" fill="#263238"/>
<path d="M290.269 165.915C299.304 159.244 305.353 150.281 310.237 140.159C310.304 140.031 310.478 140.159 310.453 140.261C309.372 145.885 305.578 152.002 302.241 156.5C299.217 160.746 295.158 164.104 290.469 166.239C290.311 166.324 290.069 166.06 290.269 165.915Z" fill="#263238"/>
</svg>
