<svg width="47" height="46" viewBox="0 0 47 46" fill="none" xmlns="http://www.w3.org/2000/svg">
<path d="M0.126953 0.765625V30.1845H6.75855V38.5101L9.45264 36.3641L17.2763 30.1845H33.285V0.765625H0.126953ZM3.44275 4.03439H29.9692V26.9158H16.1356L15.6698 27.2737L10.0744 31.6653V26.9158H3.44275V4.03439ZM15.0481 7.30316V9.00292C13.1896 9.30855 11.7323 10.9037 11.7323 12.8192C11.7323 14.0515 12.4319 15.194 13.5725 15.7562L18.3639 18.1179C18.3572 18.4823 18.0986 18.7438 17.7289 18.7438H15.683C15.5988 18.7471 15.5147 18.7331 15.4362 18.7028C15.3577 18.6724 15.2864 18.6264 15.2268 18.5677C15.1672 18.5089 15.1205 18.4386 15.0897 18.3612C15.059 18.2838 15.0448 18.2009 15.0481 18.1179V17.1095H11.7323V18.1179C11.7323 20.0334 13.1829 21.6416 15.0481 21.9489V23.647H18.3639V21.9472C20.229 21.6416 21.6797 20.035 21.6797 18.1179C21.6797 16.8856 20.9668 15.7497 19.8477 15.194L15.0481 12.8241C15.0613 12.8388 15.0481 12.8257 15.0481 12.8192C15.0481 12.4547 15.3067 12.2063 15.683 12.2063H17.7289C18.0986 12.2063 18.3639 12.4678 18.3639 12.8323V13.8407H21.6797V12.8323C21.6797 10.9168 20.229 9.30855 18.3639 9.00128V7.30316H15.0481ZM36.6008 10.5719V13.8407H43.2324V33.4533H36.6008V38.2028L30.5395 33.4533H18.1052L13.9605 36.7221H29.3988L39.9166 45.0476V36.7221H46.5482V10.5719H36.6008Z" fill="#FDCC4F"/>
</svg>
