<svg width="481" height="460" viewBox="0 0 481 460" fill="none" xmlns="http://www.w3.org/2000/svg">
<g clip-path="url(#clip0_6_709)">
<path d="M378.613 408.501C413.576 408.501 441.919 404.324 441.919 399.172C441.919 394.02 413.576 389.843 378.613 389.843C343.65 389.843 315.307 394.02 315.307 399.172C315.307 404.324 343.65 408.501 378.613 408.501Z" fill="#EBEBEB"/>
<path d="M38.4562 240.598L88.8951 240.377L139.344 240.295L240.231 240.147L341.118 240.295L391.567 240.377L442.006 240.598L391.567 240.828L341.118 240.911L240.231 241.058L139.344 240.911L88.8951 240.828L38.4562 240.598Z" fill="#263238"/>
<path d="M426.92 286.117L293.823 304.076C291.159 304.462 288.627 305.443 286.432 306.939C284.237 308.435 282.44 310.404 281.187 312.688C279.934 314.971 279.259 317.505 279.217 320.084C279.175 322.663 279.768 325.216 280.946 327.536L343.541 460.016H117.829L162.772 362.404C163.935 360.112 164.527 357.594 164.5 355.046C164.473 352.499 163.829 349.992 162.618 347.724C161.407 345.456 159.662 343.488 157.521 341.975C155.38 340.463 152.901 339.447 150.28 339.008L53.5436 321.022V307.93L180.251 306.918C183.455 306.896 186.588 306.015 189.297 304.376C192.005 302.737 194.181 300.406 195.578 297.645L224.713 248.885H236.648L250.274 267C254.482 272.253 259.316 276.374 265.994 276.273L426.92 274.056V286.117Z" fill="#455A64"/>
<path d="M231.333 256.493H230.016L230.343 248.876H231.015L231.333 256.493Z" fill="#EBEBEB"/>
<path d="M232.746 289.854H228.595L229.757 262.732H231.602L232.746 289.854Z" fill="#EBEBEB"/>
<path d="M235.138 346.773H226.163L226.279 344.124L228.114 301.169H233.216L235.023 344.124L235.138 346.773Z" fill="#EBEBEB"/>
<path d="M238.155 418.424H223.116L223.347 412.913L225.394 364.853H235.897L237.924 412.913L238.155 418.424Z" fill="#EBEBEB"/>
<path d="M239.904 460.002H221.339L221.973 445.208H239.279L239.904 460.002Z" fill="#EBEBEB"/>
<path d="M53.5436 312.852L61.5961 313.174L60.8178 314.701L53.5436 314.223V312.852Z" fill="#EBEBEB"/>
<path d="M67.4862 313.415L87.9347 314.243L86.8296 316.423L66.7079 315.099L67.4862 313.415Z" fill="#EBEBEB"/>
<path d="M95.5824 314.555L121.402 315.604L119.875 318.612L94.4966 316.928L95.5824 314.555Z" fill="#EBEBEB"/>
<path d="M160.848 317.196L159.013 321.198L132.51 319.45L134.038 316.11L160.848 317.196Z" fill="#EBEBEB"/>
<path d="M311.397 283.341L313.204 286.175L282.694 287.684L280.628 284.436L311.397 283.341Z" fill="#EBEBEB"/>
<path d="M358.3 281.653L359.712 283.871L327.243 285.471L325.379 282.831L358.29 281.653H358.3Z" fill="#EBEBEB"/>
<path d="M397.188 280.267L398.264 281.96L369.475 283.386L368.014 281.316L397.178 280.267H397.188Z" fill="#EBEBEB"/>
<path d="M426.919 279.207V280.541L405.942 281.581L404.837 279.998L426.919 279.207Z" fill="#EBEBEB"/>
<path d="M216.017 248.877H245.229L230.623 240.79L216.017 248.877Z" fill="#455A64"/>
<path d="M53.5427 329.137V301.169L38.4562 312.393L53.5427 329.137Z" fill="#455A64"/>
<path d="M426.92 294.535V266.567L442.006 277.791L426.92 294.535Z" fill="#455A64"/>
<path d="M182.09 56.4495L171.731 68.2991L139.502 77.2691V57.7467L171.731 48.0039L182.09 56.4495Z" fill="#455A64"/>
<path d="M171.732 48.006L168.57 47.5L137.234 56.884L137.6 77.2712H139.502V57.7488L171.732 48.006Z" fill="#37474F"/>
<path d="M207.921 95.5322L197.072 104.787L138.984 102.018L140.003 82.5234L198.091 85.2834L207.921 95.5322Z" fill="#99DBCB"/>
<path d="M198.09 85.2844L200.953 86.9128L210.217 96.398L198.09 106.647L139.397 103.703L138.983 102.019L197.071 104.788L207.92 95.5332L198.09 85.2844Z" fill="#FFD873"/>
<path d="M68.125 82.4709L79.2717 91.4041L137.235 86.9697L135.601 67.5117L77.6285 71.9461L68.125 82.4709Z" fill="#748CAE"/>
<path d="M68.125 82.4727L79.2717 91.4058L137.235 86.9715L137.014 90.3386L80.2711 94.6166L69.5087 86.1527L68.125 82.4727Z" fill="#37474F"/>
<path d="M144.662 285.496H128.759L132.458 39.3958C132.506 36.2862 134.313 33.793 136.523 33.793H136.888C139.108 33.793 140.914 36.2862 140.953 39.3958L144.662 285.496Z" fill="#FFC727"/>
<path opacity="0.4" d="M144.662 285.496H128.759L132.458 39.3958C132.506 36.2862 134.313 33.793 136.523 33.793H136.888C139.108 33.793 140.914 36.2862 140.953 39.3958L144.662 285.496Z" fill="black"/>
<g style="mix-blend-mode:multiply" opacity="0.3">
<g style="mix-blend-mode:multiply" opacity="0.3">
<path d="M135.284 43.2617C134.957 52.29 134.701 61.3183 134.515 70.3465C134.304 79.3809 134.141 88.4153 134.102 97.4497C134.064 106.484 134.102 115.509 134.342 124.535L134.592 131.306L134.977 138.068C135.14 140.313 135.361 142.557 135.553 144.811C135.745 147.065 135.947 149.319 136.024 151.583C136.25 160.624 135.99 169.67 135.246 178.686C134.621 187.702 133.843 196.699 133.247 205.715C132.046 223.729 131.594 241.844 133.401 259.848C132.451 250.855 131.977 241.821 131.979 232.782C131.979 223.747 132.363 214.713 132.939 205.697C133.516 196.681 134.256 187.674 134.861 178.658C135.577 169.656 135.808 160.625 135.553 151.601C135.476 149.347 135.294 147.102 135.082 144.857C134.871 142.613 134.679 140.349 134.515 138.095L134.16 131.324L133.929 124.553C133.708 115.509 133.699 106.475 133.775 97.4405C133.92 79.3717 134.438 61.3121 135.284 43.2617Z" fill="black"/>
</g>
<g style="mix-blend-mode:multiply" opacity="0.3">
<path d="M135.918 38.0508C136.187 41.648 136.418 45.2452 136.639 48.8424L137.177 59.6432C137.504 66.8498 137.754 74.0534 137.927 81.254C138.032 88.4668 138.071 95.6796 137.927 102.883C137.782 110.087 137.504 117.309 136.706 124.476L137.091 119.084L137.331 113.684C137.436 111.844 137.446 110.087 137.504 108.284C137.561 106.48 137.59 104.686 137.6 102.883C137.706 95.6796 137.6 88.4668 137.446 81.2632C137.292 74.0596 137.129 66.856 136.86 59.6524L136.408 48.8516C136.264 45.2544 136.11 41.648 135.918 38.0508Z" fill="black"/>
</g>
<g style="mix-blend-mode:multiply" opacity="0.3">
<path d="M134.006 233.579C134.592 230.083 135.101 226.568 135.591 223.054C136.081 219.539 136.552 216.025 136.994 212.501C137.869 205.463 138.57 198.407 139.041 191.341C139.339 187.809 139.483 184.267 139.675 180.725C139.867 177.183 139.896 173.641 139.81 170.099V167.44C139.81 166.52 139.733 165.673 139.685 164.79L139.55 162.131C139.55 161.211 139.464 160.365 139.349 159.482C139.156 157.725 139.012 155.958 138.791 154.201L137.83 148.957C139.36 155.915 140.13 163.007 140.127 170.117C140.242 173.659 140.127 177.21 140.127 180.761C140.127 184.313 139.848 187.855 139.57 191.387C139.041 198.471 138.282 205.528 137.359 212.547C136.437 219.567 135.332 226.605 134.006 233.579Z" fill="black"/>
</g>
<g style="mix-blend-mode:multiply" opacity="0.3">
<path d="M139.694 112.867C139.214 117.043 138.791 121.226 138.426 125.415C138.07 129.611 137.753 133.806 137.724 138.001C137.658 140.087 137.816 142.174 138.195 144.229C138.277 144.719 138.453 145.19 138.714 145.619C138.887 145.803 138.925 145.821 139.089 145.674C139.253 145.494 139.383 145.289 139.473 145.067C139.847 144.094 140.108 143.085 140.251 142.058C140.554 139.983 140.66 137.886 140.568 135.793C140.508 133.693 140.214 131.605 139.694 129.565C140.857 133.649 141.167 137.914 140.607 142.113C140.491 143.176 140.236 144.221 139.848 145.223C139.746 145.495 139.589 145.745 139.387 145.959C139.32 146.032 139.237 146.09 139.144 146.126C139.05 146.163 138.949 146.178 138.848 146.171C138.658 146.128 138.49 146.02 138.378 145.867C138.076 145.393 137.87 144.868 137.772 144.321C137.37 142.234 137.196 140.113 137.253 137.992C137.253 133.778 137.628 129.574 138.051 125.388C138.474 121.202 139.031 117.025 139.694 112.867Z" fill="black"/>
</g>
<g style="mix-blend-mode:multiply" opacity="0.3">
<path d="M140.79 203.2C139.973 211.673 139.079 220.137 137.907 228.582C137.609 230.689 137.311 232.805 136.946 234.903C136.581 237.001 136.11 239.089 135.793 241.186C135.111 245.382 134.841 249.63 134.986 253.873C135.049 255.985 135.323 258.086 135.802 260.148C136.027 261.163 136.458 262.126 137.071 262.981C137.359 263.381 137.802 263.656 138.301 263.745C138.762 263.865 139.07 263.432 139.262 262.972C139.672 262.002 139.946 260.984 140.079 259.945C140.242 258.896 140.348 257.839 140.415 256.79C140.559 254.674 140.588 252.539 140.521 250.423C140.467 248.302 140.258 246.187 139.896 244.094C139.802 243.574 139.674 243.061 139.512 242.557C139.406 242.067 139.14 241.623 138.752 241.288C138.648 241.25 138.534 241.247 138.428 241.279C138.322 241.31 138.23 241.375 138.166 241.463C137.993 241.653 137.857 241.871 137.763 242.106C137.566 242.595 137.418 243.1 137.321 243.615C136.944 245.708 136.783 247.831 136.84 249.954C136.84 251.012 136.907 252.079 137.023 253.137C137.078 253.665 137.161 254.191 137.273 254.71C137.349 255.237 137.549 255.741 137.859 256.183C137.539 255.747 137.328 255.246 137.244 254.72C137.122 254.197 137.029 253.669 136.965 253.137C136.821 252.089 136.754 251.021 136.715 249.954C136.616 247.819 136.738 245.681 137.08 243.569C137.179 243.038 137.33 242.518 137.532 242.014C137.634 241.752 137.784 241.509 137.974 241.297C138.077 241.168 138.221 241.076 138.384 241.033C138.547 240.989 138.72 240.998 138.877 241.058C139.335 241.423 139.65 241.925 139.771 242.484C139.945 242.995 140.08 243.518 140.175 244.048C140.557 246.152 140.782 248.279 140.847 250.414C140.934 252.539 140.924 254.674 140.79 256.808C140.722 257.875 140.626 258.942 140.463 260C140.338 261.076 140.063 262.131 139.646 263.138C139.527 263.407 139.357 263.653 139.146 263.864C139.027 263.983 138.878 264.072 138.714 264.122C138.55 264.158 138.379 264.158 138.214 264.122C137.603 264.016 137.058 263.686 136.696 263.202C136.039 262.302 135.575 261.286 135.332 260.212C134.817 258.125 134.54 255.99 134.505 253.846C134.391 249.575 134.687 245.304 135.389 241.085C135.735 238.979 136.254 236.909 136.581 234.811C136.907 232.713 137.263 230.607 137.542 228.5C138.791 220.109 139.819 211.655 140.79 203.2Z" fill="black"/>
</g>
<g style="mix-blend-mode:multiply" opacity="0.3">
<path d="M133.045 285.497C132.757 282.467 132.494 279.437 132.257 276.407L131.604 267.299L131.056 258.191C130.883 255.125 130.745 252.086 130.643 249.074C130.931 252.104 131.19 255.137 131.421 258.173L132.084 267.272L132.632 276.38C132.795 279.416 132.93 282.461 133.045 285.497Z" fill="black"/>
</g>
<g style="mix-blend-mode:multiply" opacity="0.3">
<path d="M137.235 285.495C137.929 283.065 138.183 280.538 137.985 278.025C137.808 275.528 137.098 273.092 135.899 270.867C134.675 268.603 133.792 266.184 133.276 263.682C132.707 261.211 132.309 258.706 132.085 256.184C132.434 258.686 132.925 261.167 133.555 263.618C134.138 266.071 135.055 268.441 136.284 270.665C137.562 272.934 138.288 275.45 138.407 278.025C138.544 280.565 138.146 283.106 137.235 285.495Z" fill="black"/>
</g>
<g style="mix-blend-mode:multiply" opacity="0.3">
<path d="M140.791 211.57C140.387 217.753 140.3 223.954 140.521 230.136C140.622 233.214 140.894 236.285 141.338 239.336C141.876 242.381 142.376 245.454 142.712 248.536C143.079 251.621 143.278 254.723 143.308 257.828C143.383 260.945 143.06 264.059 142.347 267.101C141.424 270.065 140.819 273.11 140.541 276.191C140.227 279.27 140.095 282.363 140.147 285.455C139.718 279.266 140.344 273.052 142.001 267.055C142.665 264.032 142.946 260.943 142.837 257.855C142.77 254.773 142.607 251.682 142.29 248.655C141.972 245.629 141.53 242.519 141.012 239.455C140.58 236.38 140.32 233.284 140.233 230.182C140.071 223.973 140.257 217.76 140.791 211.57Z" fill="black"/>
</g>
<g style="mix-blend-mode:multiply" opacity="0.3">
<path d="M137.83 33.9453C138.188 37.6682 138.509 41.3942 138.791 45.1233C139.05 48.8585 139.261 52.5845 139.463 56.3197C139.665 60.0549 139.771 63.7901 139.838 67.5253C139.905 71.2605 139.896 75.0141 139.559 78.7401C139.646 76.9001 139.646 75.0049 139.559 73.1373C139.473 71.2697 139.502 69.4113 139.434 67.5713C139.3 63.8361 139.14 60.104 138.954 56.3749L137.83 33.9453Z" fill="black"/>
</g>
</g>
<path d="M106.774 241.278H68.1352C68.1352 241.278 68.2313 235.758 72.027 234.305C73.057 233.877 74.2043 233.781 75.2962 234.031C76.3881 234.282 77.3654 234.865 78.0808 235.694C78.0808 235.694 79.6279 225.574 86.7291 225.574C93.8303 225.574 97.1744 234.351 97.1744 234.351C97.7749 233.517 98.6172 232.87 99.5973 232.489C100.577 232.108 101.652 232.01 102.69 232.207C106.62 232.649 106.774 241.278 106.774 241.278Z" fill="#9FADC1"/>
<path d="M142.449 288.981H103.819C103.819 288.981 103.906 283.461 107.663 282.016C108.694 281.586 109.844 281.489 110.938 281.74C112.031 281.99 113.01 282.575 113.726 283.405C113.726 283.405 115.274 273.285 122.375 273.285C129.476 273.285 132.839 282.016 132.839 282.016C133.44 281.183 134.282 280.535 135.262 280.155C136.242 279.774 137.317 279.676 138.355 279.873C142.314 280.36 142.449 288.981 142.449 288.981Z" fill="#37474F"/>
<path d="M442.347 241.276C442.347 241.276 441.165 235.977 438.801 235.167C436.437 234.358 434.957 236.722 434.957 236.722C434.957 236.722 434.4 231.671 431.046 230.153C427.693 228.635 425.175 231.745 425.175 231.745C425.175 231.745 422.6 225.305 418.007 225.305C413.413 225.305 411.088 234.698 411.088 234.698C411.088 234.698 408.369 231.938 405.591 233.474C402.814 235.011 402.805 241.258 402.805 241.258L442.347 241.276Z" fill="#455A64"/>
<path d="M75.0629 241.276H39.4414C39.4414 241.276 40.6137 236.465 42.9776 236.124C43.6902 236.061 44.4057 236.211 45.0265 236.552C45.6472 236.892 46.1431 237.408 46.4465 238.029C46.4465 238.029 46.3408 231.322 50.7515 230.181C55.1621 229.04 58.8617 234.965 58.8617 234.965C58.8617 234.965 61.6291 231.589 65.396 231.8C69.1628 232.012 70.1237 237.605 70.1237 237.605C70.1237 237.605 73.5446 235.646 75.0629 241.276Z" fill="#455A64"/>
<path d="M171.334 288.981H135.722C135.722 288.981 136.894 284.178 139.258 283.838C139.967 283.776 140.679 283.923 141.297 284.26C141.916 284.598 142.411 285.108 142.717 285.724C142.717 285.724 142.612 279.017 147.022 277.876C151.433 276.736 155.132 282.66 155.132 282.66C155.132 282.66 157.9 279.284 161.667 279.496C165.433 279.707 166.394 285.292 166.394 285.292C166.394 285.292 169.815 283.36 171.334 288.981Z" fill="#455A64"/>
<path d="M405.38 241.275H383.49C383.49 241.275 383.548 238.156 385.7 237.328C386.284 237.086 386.933 237.032 387.552 237.172C388.17 237.313 388.724 237.643 389.131 238.11C389.131 238.11 390.005 232.379 394.012 232.379C398.019 232.379 399.941 237.328 399.941 237.328C400.281 236.856 400.758 236.489 401.312 236.272C401.867 236.054 402.476 235.996 403.064 236.105C405.294 236.39 405.38 241.275 405.38 241.275Z" fill="#455A64"/>
<path d="M107.148 241.275H129.086C129.086 241.275 129.086 238.156 126.886 237.328C126.304 237.077 125.652 237.017 125.031 237.159C124.41 237.3 123.856 237.635 123.455 238.11C123.455 238.11 122.581 232.379 118.564 232.379C114.548 232.379 112.635 237.328 112.635 237.328C112.297 236.854 111.821 236.486 111.265 236.268C110.71 236.051 110.101 235.994 109.512 236.105C107.245 236.39 107.148 241.275 107.148 241.275Z" fill="#455A64"/>
<path d="M393.354 160.611C396.035 160.924 398.6 156.72 399.542 153.702C399.619 153.463 399.042 151.273 398.447 148.559C398.091 146.912 397.736 145.072 397.534 143.37L386.685 147.198C387.569 149.264 388.185 151.427 388.52 153.638C388.544 153.87 388.544 154.104 388.52 154.337C388.52 154.337 388.52 154.41 388.52 154.456C388.453 155.744 390.759 160.298 393.354 160.611Z" fill="#AD6359"/>
<path d="M388.521 154.279V154.39C388.903 154.403 389.286 154.381 389.664 154.325C395.699 153.552 396.766 146.34 396.948 143.57L386.686 147.195C387.57 149.262 388.186 151.425 388.521 153.635C388.541 153.849 388.541 154.065 388.521 154.279Z" fill="#263238"/>
<path d="M401.945 129.477C403.136 134.077 400.561 145.31 397.034 148.061C391.922 152.035 383.908 152.035 380.478 146.221C377.143 140.591 380.583 126.423 384.485 123.966C390.241 120.351 400.186 122.678 401.945 129.477Z" fill="#AD6359"/>
<path d="M381.265 130.444C381.265 130.444 380.92 133.204 382.745 134.069C382.889 134.143 388.453 147.584 398.543 146.848C398.543 146.848 406.365 138.862 404.664 131.327C403.568 126.451 400.157 124.979 400.157 124.979C400.157 124.979 393.248 118.677 384.917 121.437C376.586 124.197 378.2 129.993 381.265 130.444Z" fill="#263238"/>
<path d="M404.701 155.283C417.741 163.204 440.995 186.508 438.881 192.571C434.615 204.798 417.491 221.091 412.994 224.265C410.38 226.105 391.133 209.545 393.622 207.226C396.505 204.54 414.464 190.068 414.589 188.569C414.676 187.419 405.547 174.649 398.888 163.83C391.162 151.29 398.484 151.511 404.701 155.283Z" fill="#AD6359"/>
<path d="M396.361 205.71C396.361 205.71 387.819 210.411 382.38 213.732C379.343 215.572 374.433 219.252 372.857 221.552C370.503 225.048 362.96 241.121 366.986 242.952C370.637 244.608 375.288 230.016 375.288 230.016C375.288 230.016 369.234 244.35 374.01 245.574C378.786 246.797 381.698 229.639 381.698 229.639C381.698 229.639 375.836 244.497 380.967 245.013C384.811 245.408 388.443 230.007 388.443 230.007C388.443 230.007 383.485 242.814 387.482 243.384C391.874 244.01 396.131 229.998 396.131 229.998C406.48 229.814 412.832 226.18 415.013 221.221C415.465 220.228 396.361 205.71 396.361 205.71Z" fill="#AD6359"/>
<path d="M377.048 224.926C376.269 226.591 375.472 228.265 374.857 229.977C374.242 231.688 373.685 233.445 373.243 235.202C372.605 237.501 372.25 239.863 372.186 242.24C372.628 238.036 374.742 231.844 375.357 230.124C375.972 228.403 376.5 226.665 377.115 224.953C377.134 224.907 377.067 224.889 377.048 224.926Z" fill="#263238"/>
<path d="M383.572 226.95C382.678 229.112 381.708 231.218 380.91 233.39C380.112 235.561 379.574 237.723 378.988 239.949C378.94 240.124 379.056 240.087 379.113 239.949C379.834 237.741 380.679 235.754 381.429 233.555C382.178 231.356 382.841 229.13 383.668 226.968C383.639 226.931 383.581 226.922 383.572 226.95Z" fill="#263238"/>
<path d="M389.491 227.722C388.039 231 386.944 234.413 386.224 237.906C386.224 238.081 386.32 238.026 386.378 237.851C387.396 234.447 388.174 231.77 389.606 227.731C389.635 227.713 389.52 227.658 389.491 227.722Z" fill="#263238"/>
<path d="M397.927 203.132L416.915 223.842C416.915 223.842 440.861 199.351 439.91 191.08C438.958 182.81 417.904 162.395 406.191 155.412C394.477 148.429 393.093 154.934 398.004 163.839C402.914 172.745 413.859 188.569 413.609 188.983C413.359 189.397 397.927 203.132 397.927 203.132Z" fill="#FFD873"/>
<path d="M403.877 197.947C403.408 198.375 403.032 198.888 402.771 199.456C403.362 199.201 403.897 198.842 404.347 198.398C404.806 197.961 405.18 197.45 405.452 196.889C404.859 197.138 404.324 197.498 403.877 197.947ZM428.438 185.775C427.975 186.208 427.6 186.72 427.333 187.284C427.926 187.034 428.461 186.675 428.909 186.226C429.373 185.792 429.751 185.281 430.023 184.717C429.429 184.969 428.89 185.328 428.438 185.775ZM417.089 163.456C416.899 163.705 416.738 163.974 416.609 164.256C416.915 164.133 417.206 163.976 417.474 163.787L417.089 163.456ZM418.185 177.256C417.735 176.81 417.2 176.451 416.609 176.198C416.876 176.762 417.251 177.274 417.714 177.707C418.165 178.152 418.699 178.511 419.29 178.765C419.025 178.196 418.65 177.681 418.185 177.247V177.256ZM427.909 197.956C427.457 197.509 426.918 197.15 426.324 196.898C426.591 197.462 426.966 197.974 427.429 198.407C427.881 198.854 428.42 199.213 429.014 199.465C428.748 198.897 428.373 198.382 427.909 197.947V197.956ZM406.923 156.078C406.47 155.631 405.932 155.271 405.337 155.02C405.609 155.583 405.987 156.095 406.452 156.528C406.902 156.974 407.436 157.334 408.028 157.586C407.761 157.019 407.387 156.504 406.923 156.068V156.078ZM417.647 219.254C417.193 218.812 416.659 218.453 416.071 218.196C416.623 219.326 417.572 220.234 418.752 220.763C418.48 220.198 418.106 219.684 417.647 219.245V219.254ZM417.406 204.184C416.75 204.171 416.097 204.281 415.484 204.506C416.712 204.923 418.052 204.923 419.28 204.506C418.683 204.284 418.047 204.172 417.406 204.175V204.184ZM439.863 190.743C439.282 190.539 438.666 190.439 438.047 190.449C437.391 190.441 436.739 190.551 436.125 190.771C436.739 190.991 437.391 191.1 438.047 191.093C438.665 191.093 439.279 190.993 439.863 190.798H439.93L439.863 190.743ZM425.055 170.733L424.882 170.788L425.228 170.908L425.055 170.733ZM416.513 188.949C416.273 189.535 416.159 190.16 416.176 190.789C416.163 191.418 416.277 192.043 416.513 192.629C416.948 191.454 416.948 190.171 416.513 188.995V188.949ZM406.682 168.166C406.234 169.34 406.234 170.627 406.682 171.8C406.912 171.212 407.026 170.588 407.019 169.96C407.028 169.344 406.913 168.732 406.682 168.157V168.166Z" fill="white"/>
<path d="M411.208 209.756C409.844 208.394 408.508 206.996 407.182 205.625C406.538 204.963 405.894 204.3 405.26 203.61C404.626 202.92 403.857 202.166 403.252 201.393C403.246 201.388 403.242 201.382 403.238 201.376C403.235 201.369 403.233 201.362 403.233 201.355C403.232 201.348 403.233 201.34 403.236 201.334C403.238 201.327 403.242 201.32 403.247 201.315C403.252 201.31 403.258 201.305 403.265 201.302C403.272 201.299 403.279 201.297 403.287 201.296C403.295 201.296 403.302 201.297 403.309 201.299C403.317 201.302 403.323 201.306 403.329 201.31C404.117 201.927 404.818 202.672 405.568 203.334C406.317 203.997 406.913 204.595 407.586 205.23C408.979 206.564 410.372 207.898 411.727 209.259C414.456 212.019 417.089 214.779 419.693 217.604C419.751 217.677 419.693 217.769 419.588 217.705C416.743 215.129 413.947 212.516 411.208 209.756Z" fill="#263238"/>
<path d="M426.592 342.724C426.592 342.724 427.553 377.426 427.553 377.444C427.553 383.884 427.389 389.478 427.034 392.385V392.431C427.026 393.118 426.855 393.795 426.534 394.409C424.545 395.697 371.012 397.031 369.129 396.47C367.245 395.909 368.744 390.738 370.781 389.11C372.818 387.482 393.017 378.208 393.017 378.208L392.431 343.533L426.592 342.724Z" fill="#AD6359"/>
<path d="M427.61 370.566C427.61 370.566 427.552 377.43 427.552 377.448C427.552 383.888 427.389 389.482 427.033 392.389V392.435C426.94 393.109 426.773 393.772 426.533 394.413C424.544 395.701 371.011 397.035 369.128 396.474C367.244 395.912 368.743 390.742 370.781 389.114C372.818 387.485 393.016 378.212 393.016 378.212V371.229L427.61 370.566Z" fill="white"/>
<path d="M389.712 378.228C393.277 377.667 397.611 378.274 400.282 380.758C400.388 380.85 400.282 380.988 400.129 380.952C396.76 379.83 393.274 379.062 389.732 378.661C389.679 378.653 389.631 378.628 389.596 378.59C389.56 378.552 389.54 378.503 389.537 378.452C389.535 378.401 389.551 378.351 389.583 378.31C389.615 378.27 389.661 378.241 389.712 378.228Z" fill="#263238"/>
<path d="M387.118 379.657C390.683 379.096 395.017 379.703 397.688 382.187C397.794 382.279 397.688 382.417 397.535 382.38C394.163 381.269 390.678 380.501 387.137 380.09C387.085 380.082 387.037 380.056 387.001 380.018C386.966 379.98 386.945 379.932 386.943 379.881C386.941 379.83 386.957 379.78 386.989 379.739C387.021 379.698 387.066 379.669 387.118 379.657Z" fill="#263238"/>
<path d="M384.523 381.079C388.088 380.518 392.422 381.134 395.093 383.609C395.189 383.701 395.093 383.839 394.929 383.802C391.561 382.691 388.079 381.923 384.542 381.511C384.49 381.503 384.442 381.478 384.406 381.44C384.371 381.402 384.35 381.354 384.348 381.303C384.346 381.252 384.362 381.202 384.394 381.161C384.426 381.12 384.471 381.091 384.523 381.079Z" fill="#263238"/>
<path d="M369.042 396.515C370.964 397.077 424.449 395.743 426.458 394.455C427.226 393.976 427.476 386.497 427.515 377.453C427.515 377.361 427.515 377.269 427.515 377.168L392.979 377.656V378.217C392.979 378.217 372.742 387.49 370.695 389.156C368.648 390.821 367.149 395.963 369.042 396.515Z" fill="#37474F"/>
<path d="M427.515 377.195V377.49C427.515 386.524 427.227 394.05 426.458 394.482C425.689 394.914 413.966 395.66 401.407 396.092C386.407 396.598 370.061 396.856 369.033 396.552C367.111 396 368.668 390.811 370.696 389.192C372.723 387.573 393.018 378.207 393.018 378.207V377.655L404.549 377.49L427.515 377.195Z" fill="#FFD873"/>
<path d="M369.59 394.512C378.603 394.071 415.022 393.132 423.969 393.353C424.045 393.353 424.045 393.399 423.969 393.408C415.042 394.025 378.623 394.687 369.59 394.65C369.407 394.678 369.398 394.522 369.59 394.512Z" fill="#263238"/>
<path opacity="0.1" d="M404.481 377.496C403.635 383.016 402.357 391.195 401.406 396.061C386.406 396.567 370.061 396.825 369.033 396.521C367.111 395.969 368.667 390.781 370.695 389.161C372.723 387.542 393.017 378.213 393.017 378.213V377.661L404.481 377.496Z" fill="black"/>
<path d="M430.629 377.638L391.894 377.987C391.894 377.987 389.694 317.598 389.53 297.469C389.338 274.469 390.693 205.469 390.693 205.469H419.655C419.655 205.469 427.429 220.676 422.99 237.788L421.76 299.336L430.629 377.638Z" fill="#748CAE"/>
<path d="M427.754 371.146C426.731 371.015 425.701 370.935 424.669 370.907C423.526 370.833 422.382 370.75 421.239 370.704C419.029 370.612 416.828 370.576 414.628 370.566C410.179 370.566 405.729 370.566 401.28 370.723C398.753 370.796 396.226 370.888 393.699 371.026C393.682 371.032 393.667 371.043 393.657 371.057C393.646 371.071 393.641 371.087 393.641 371.105C393.641 371.122 393.646 371.139 393.657 371.153C393.667 371.167 393.682 371.177 393.699 371.183C398.109 371.33 402.52 371.404 406.931 371.477C411.341 371.551 415.752 371.643 420.153 371.56C421.421 371.56 422.69 371.56 423.949 371.459C425.207 371.358 426.505 371.459 427.735 371.284C427.811 371.275 427.84 371.155 427.754 371.146Z" fill="#37474F"/>
<path d="M394.679 337.811C394.228 327.829 393.891 317.828 393.613 307.846C393.036 287.864 392.885 267.875 393.161 247.881C393.305 236.666 393.622 225.46 393.968 214.246C393.968 214.117 393.766 214.126 393.757 214.246C392.652 234.311 392.229 254.422 392.21 274.515C392.19 294.608 392.613 314.498 393.651 334.462C394.228 345.668 394.939 356.882 396.044 368.051C396.044 368.143 396.207 368.143 396.197 368.051C395.727 357.968 395.131 347.894 394.679 337.811Z" fill="#37474F"/>
<path d="M385.158 348.246C385.158 348.246 384.861 381.771 384.861 381.798C384.861 388.238 384.707 393.832 384.351 396.73C384.356 396.748 384.356 396.767 384.351 396.785C384.343 397.472 384.172 398.149 383.852 398.763C381.853 400.051 328.32 401.385 326.436 400.824C324.553 400.263 326.062 395.092 328.089 393.464C330.117 391.836 350.392 382.544 350.392 382.544L351.017 349.028L385.158 348.246Z" fill="#AD6359"/>
<path d="M384.928 374.917C384.928 374.917 384.861 381.771 384.861 381.799C384.861 388.239 384.707 393.832 384.351 396.73C384.356 396.749 384.356 396.767 384.351 396.786C384.264 397.461 384.096 398.125 383.852 398.764C381.853 400.052 328.32 401.386 326.437 400.824C324.553 400.263 326.062 395.093 328.089 393.464C330.117 391.836 350.392 382.544 350.392 382.544V375.552L384.928 374.917Z" fill="white"/>
<path d="M347.066 382.577C350.631 382.016 354.965 382.577 357.636 385.107C357.742 385.199 357.636 385.337 357.482 385.3C354.113 384.179 350.627 383.411 347.085 383.01C347.033 383.002 346.985 382.976 346.949 382.938C346.914 382.9 346.893 382.852 346.891 382.801C346.889 382.75 346.905 382.7 346.937 382.659C346.969 382.618 347.014 382.589 347.066 382.577Z" fill="#263238"/>
<path d="M344.472 384.006C348.037 383.445 352.361 384.052 355.042 386.536C355.148 386.628 355.042 386.766 354.888 386.729C351.519 385.608 348.033 384.84 344.491 384.438C344.439 384.43 344.391 384.405 344.355 384.367C344.32 384.329 344.299 384.28 344.297 384.23C344.295 384.179 344.311 384.129 344.343 384.088C344.375 384.047 344.42 384.018 344.472 384.006Z" fill="#263238"/>
<path d="M341.868 385.475C345.433 384.914 349.767 385.521 352.438 388.005C352.544 388.097 352.438 388.235 352.285 388.199C348.913 387.086 345.428 386.318 341.887 385.908C341.835 385.9 341.787 385.875 341.751 385.837C341.716 385.799 341.695 385.75 341.693 385.699C341.691 385.648 341.707 385.598 341.739 385.557C341.771 385.517 341.816 385.488 341.868 385.475Z" fill="#263238"/>
<path d="M326.387 400.859C328.309 401.42 381.803 400.086 383.802 398.798C384.571 398.32 384.821 390.84 384.859 381.797V381.512L350.314 381.999V382.561C350.314 382.561 330.058 391.843 328.011 393.49C325.964 395.137 324.504 400.316 326.387 400.859Z" fill="#FFD873"/>
<path d="M326.934 398.865C335.957 398.423 372.366 397.485 381.312 397.706C381.389 397.706 381.389 397.706 381.312 397.761C372.376 398.377 335.957 399.04 326.934 399.003C326.713 399.003 326.713 398.874 326.934 398.865Z" fill="#263238"/>
<path d="M402.858 240.965C402.858 240.965 386.964 288.924 386.676 297.738C386.436 305.245 387.435 382.378 387.435 382.378L347.211 382.608C347.211 382.608 350.603 303.976 351.237 296.128C352.41 281.491 365.805 241.287 375.385 205.48H418.761C418.761 205.48 418.377 224.23 409.469 237.8C409.469 237.791 405.443 239.576 402.858 240.965Z" fill="#748CAE"/>
<path d="M385.33 375.247C380.679 375.119 375.865 374.99 371.214 375.1C366.563 375.211 361.98 375.275 357.377 375.542C354.763 375.689 352.159 375.772 349.555 376.02C349.54 376.025 349.528 376.035 349.519 376.047C349.51 376.059 349.505 376.074 349.505 376.089C349.505 376.104 349.51 376.119 349.519 376.131C349.528 376.143 349.54 376.153 349.555 376.158C354.206 376.416 358.866 376.361 363.517 376.324C368.168 376.287 372.742 376.232 377.355 376.029C379.968 375.919 382.572 375.79 385.177 375.615C385.426 375.597 385.58 375.257 385.33 375.247Z" fill="#37474F"/>
<path d="M376.5 228.064C375.068 232.664 373.857 237.264 372.579 241.919C371.301 246.575 369.994 251.239 368.736 255.903C366.256 264.919 363.806 273.954 361.951 283.117C360.049 292.31 358.972 301.642 358.732 311.011C358.521 320.561 358.732 330.12 358.8 339.669C358.867 349.219 358.944 358.87 359.117 368.465C359.117 369.661 359.174 370.857 359.213 372.044C359.213 372.069 359.223 372.092 359.241 372.109C359.259 372.126 359.283 372.136 359.309 372.136C359.334 372.136 359.359 372.126 359.377 372.109C359.395 372.092 359.405 372.069 359.405 372.044C359.664 362.495 359.53 352.927 359.491 343.377C359.453 333.827 359.328 324.269 359.415 314.719C359.453 305.238 360.308 295.776 361.971 286.429C363.652 277.229 366.016 268.176 368.476 259.151C369.869 254.008 371.282 248.856 372.675 243.713C374.069 238.571 375.558 233.354 376.817 228.129C376.836 227.954 376.557 227.889 376.5 228.064Z" fill="#37474F"/>
<path d="M392.901 241.893C394.906 241.88 396.905 241.704 398.878 241.368C400.828 240.957 402.753 240.444 404.644 239.832C406.515 239.411 408.411 239.103 410.323 238.912C412.249 238.646 414.124 238.11 415.887 237.32C415.964 237.32 416.04 237.403 415.954 237.44C414.246 238.325 412.462 239.067 410.621 239.657C408.699 240.237 406.719 240.31 404.788 240.761C402.833 241.319 400.843 241.758 398.83 242.077C396.846 242.308 394.838 242.278 392.863 241.985C392.805 242.003 392.834 241.893 392.901 241.893Z" fill="#37474F"/>
<path d="M390.365 280.035C390.75 278.618 391.105 277.192 391.509 275.775C392.325 272.914 393.152 270.053 394.055 267.21C395.852 261.57 397.543 255.894 399.446 250.282C400.522 247.108 401.493 243.842 402.751 240.76C402.751 240.686 402.896 240.76 402.886 240.76C402.242 243.667 401.348 246.519 400.541 249.389C399.734 252.26 398.879 255.103 398.014 257.955C396.294 263.622 394.612 269.298 392.739 274.919C392.22 276.493 391.682 278.066 391.105 279.621C390.529 281.175 390.077 282.868 389.375 284.423C389.375 284.506 389.222 284.469 389.231 284.377C389.5 282.933 389.981 281.516 390.365 280.035Z" fill="#37474F"/>
<path d="M373.02 191.21L369.109 211.266C369.109 211.266 415.484 211.883 426.38 211.147C426.38 211.147 414.993 168.679 403.318 156.508C397.457 150.417 390.586 150.877 386.195 155.137C385.051 156.213 371.819 172.957 370.426 179.397C369.205 185 373.02 191.21 373.02 191.21Z" fill="#FFC727"/>
<path d="M411.901 170.031C413.016 172.368 414.073 174.732 415.101 177.106C414.937 176.388 414.755 175.67 414.553 174.971C414.553 174.861 414.678 174.833 414.716 174.925C415.119 175.969 415.399 177.052 415.552 178.154C418.837 185.871 421.645 193.766 423.96 201.798C424.393 203.316 424.835 204.834 425.2 206.398C425.565 207.962 426.075 209.572 426.296 211.192C426.29 211.206 426.28 211.218 426.267 211.226C426.254 211.235 426.239 211.24 426.223 211.24C426.208 211.24 426.192 211.235 426.18 211.226C426.167 211.218 426.157 211.206 426.151 211.192C425.613 209.848 425.248 208.432 424.835 207.033C424.422 205.635 424.018 204.374 423.605 203.05C422.759 200.29 421.904 197.631 421.02 194.926C419.262 189.59 417.33 184.309 415.37 179.047C414.246 176.029 413.006 173.058 411.786 170.077C411.766 170.012 411.872 169.976 411.901 170.031Z" fill="#263238"/>
<path d="M403.876 197.944C403.407 198.372 403.031 198.885 402.771 199.453C403.361 199.199 403.896 198.84 404.346 198.395C404.805 197.959 405.179 197.448 405.451 196.886C404.858 197.136 404.323 197.496 403.876 197.944ZM389.654 155.339C389.185 155.767 388.809 156.28 388.549 156.848C389.729 156.319 390.678 155.411 391.23 154.281C390.637 154.531 390.101 154.89 389.654 155.339ZM376.201 192.976C375.732 193.404 375.357 193.917 375.096 194.485C375.689 194.236 376.225 193.876 376.672 193.427C377.136 192.996 377.511 192.484 377.777 191.918C377.177 192.166 376.635 192.526 376.182 192.976H376.201ZM379.343 204.237C378.888 203.793 378.35 203.434 377.758 203.179C378.025 203.743 378.4 204.255 378.863 204.688C379.315 205.135 379.854 205.494 380.448 205.746C380.176 205.184 379.802 204.674 379.343 204.237ZM394.516 176.518C394.067 176.072 393.532 175.712 392.94 175.46C393.204 176.026 393.579 176.538 394.045 176.968C394.496 177.413 395.031 177.772 395.621 178.026C395.353 177.471 394.978 176.969 394.516 176.545V176.518ZM417.405 204.118C416.749 204.104 416.096 204.214 415.484 204.44C416.711 204.856 418.051 204.856 419.279 204.44C418.677 204.24 418.042 204.149 417.405 204.173V204.118ZM406.009 182.553C405.353 182.545 404.701 182.655 404.087 182.875C404.701 183.095 405.353 183.204 406.009 183.197C406.665 183.209 407.318 183.1 407.931 182.875C407.313 182.673 406.661 182.583 406.009 182.608V182.553ZM381.275 179.94C380.619 179.932 379.967 180.041 379.353 180.262C380.578 180.691 381.923 180.691 383.148 180.262C382.547 180.062 381.911 179.971 381.275 179.995V179.94ZM392.94 203.796C392.284 203.787 391.632 203.896 391.018 204.118C391.632 204.339 392.284 204.448 392.94 204.44C393.597 204.452 394.249 204.342 394.862 204.118C394.244 203.916 393.593 203.826 392.94 203.851V203.796ZM394.862 163.316C394.206 163.308 393.555 163.417 392.94 163.638C394.166 164.067 395.51 164.067 396.736 163.638C396.125 163.449 395.484 163.367 394.843 163.398L394.862 163.316ZM382.274 164.935C381.826 166.108 381.826 167.396 382.274 168.569C382.504 167.981 382.618 167.357 382.61 166.729C382.6 166.143 382.48 165.563 382.255 165.018L382.274 164.935ZM404.462 210.512C404.339 210.808 404.252 211.117 404.202 211.432H404.721C404.659 211.144 404.566 210.863 404.443 210.594L404.462 210.512ZM391.71 188.855C391.275 190.03 391.275 191.313 391.71 192.489C391.946 191.902 392.06 191.277 392.047 190.649C392.04 190.062 391.92 189.482 391.691 188.938L391.71 188.855ZM416.531 188.855C416.292 189.441 416.177 190.066 416.195 190.695C416.181 191.323 416.295 191.948 416.531 192.535C416.966 191.359 416.966 190.076 416.531 188.901V188.855ZM406.701 168.072C406.252 169.245 406.252 170.533 406.701 171.706C406.931 171.118 407.045 170.494 407.037 169.866C407.028 169.28 406.907 168.7 406.681 168.155L406.701 168.072Z" fill="white"/>
<path d="M381.007 162.275C374.127 171.944 367.785 184.161 359.453 197.833C350.161 213.086 342.243 228.883 340.312 232.204C337.823 236.463 365.459 238.911 366.689 235.773C367.487 233.768 373.934 218.569 379.787 204.687C385.639 190.804 388.829 175.247 391.145 165.274C393.826 153.774 386.071 155.154 381.007 162.275Z" fill="#AD6359"/>
<path d="M344.011 225.245C344.011 225.245 343.05 226.708 338.918 234.188C336.083 239.358 332.614 253.701 343.848 266.112C348.152 270.868 353.514 270.059 349.959 264.355C347.461 260.343 345.366 257.767 344.933 256.231C344.933 256.231 351.929 258.761 355.504 256.443C358.643 254.414 361.629 252.176 364.44 249.745C364.095 249.151 363.71 248.58 363.287 248.034C363.287 248.034 367.938 241.511 366.631 235.77L344.011 225.245Z" fill="#E09E95"/>
<path d="M337.072 239.547C337.812 242.518 339.494 248.811 342.742 253.503C346.345 258.71 354.753 267.809 358.731 265.224C361.662 263.329 358.731 259.584 358.731 259.584C358.731 259.584 363.036 262.639 365.285 260.376C367.332 258.315 364.92 255.546 364.92 255.546C364.92 255.546 367.86 256.972 369.436 254.626C371.358 251.792 364.853 249.271 364.18 244.818C364.065 243.797 337.072 239.547 337.072 239.547Z" fill="#E09E95"/>
<path d="M347.854 248.939C350.23 253.459 353.992 257.176 358.635 259.593C358.75 259.648 358.866 259.593 358.76 259.519C354.703 256.416 351.057 252.851 347.902 248.902C347.902 248.902 347.854 248.912 347.854 248.939Z" fill="#263238"/>
<path d="M353.446 245.636C354.705 247.863 359.414 253.3 364.872 255.655C364.997 255.71 365.102 255.655 364.997 255.572C360.772 252.676 356.903 249.331 353.466 245.6C353.466 245.6 353.427 245.581 353.446 245.636Z" fill="#263238"/>
<path d="M342.262 224.401L369.821 235.046C369.821 235.046 380.314 209.911 383.629 201.217C386.945 192.523 391.029 170.729 392.066 162.761C393.104 154.794 387.252 154.233 381.487 160.995C375.721 167.757 361.749 193.195 361.125 193.848C360.5 194.501 342.262 224.401 342.262 224.401Z" fill="#FFD873"/>
<path d="M382.255 165.018C381.807 166.191 381.807 167.478 382.255 168.652C382.485 168.063 382.599 167.44 382.592 166.812C382.599 166.199 382.484 165.59 382.255 165.018ZM366.669 198.533C366.43 199.119 366.316 199.745 366.333 200.373C366.32 201.002 366.434 201.626 366.669 202.213C367.105 201.038 367.105 199.755 366.669 198.579V198.533ZM381.275 179.995C380.619 179.987 379.968 180.097 379.353 180.317C380.579 180.746 381.924 180.746 383.149 180.317C382.551 180.098 381.915 179.989 381.275 179.995ZM366.669 211.772C366.014 211.757 365.361 211.863 364.747 212.085C365.36 212.309 366.013 212.419 366.669 212.407C367.326 212.424 367.979 212.314 368.591 212.085C367.978 211.863 367.325 211.756 366.669 211.772ZM370.282 231.248C370.607 231.373 370.945 231.459 371.291 231.506C371.368 231.331 371.445 231.156 371.512 230.972C371.09 231.002 370.674 231.095 370.282 231.248ZM352.496 227.375C351.884 227.367 351.275 227.463 350.699 227.66H350.593C350.818 227.75 351.054 227.815 351.294 227.854C351.681 227.927 352.073 227.964 352.467 227.964C353.123 227.98 353.775 227.874 354.389 227.651C353.783 227.44 353.139 227.346 352.496 227.375ZM366.909 187.052C366.537 186.69 366.113 186.381 365.651 186.132L365.516 186.352C365.778 186.774 366.102 187.158 366.477 187.493C366.921 187.949 367.449 188.324 368.034 188.597C367.765 188.016 367.38 187.491 366.9 187.052H366.909ZM379.344 204.237C378.889 203.793 378.351 203.434 377.758 203.179C378.026 203.743 378.4 204.255 378.863 204.688C379.316 205.135 379.854 205.494 380.449 205.746C380.177 205.184 379.802 204.674 379.344 204.237ZM355.542 216.676C355.095 216.227 354.559 215.867 353.966 215.618C354.226 216.186 354.602 216.698 355.071 217.126C355.522 217.571 356.056 217.93 356.647 218.184C356.381 217.619 356.006 217.107 355.542 216.676ZM376.154 192.976C375.685 193.404 375.309 193.917 375.048 194.485C375.642 194.236 376.177 193.876 376.624 193.427C377.089 192.996 377.464 192.484 377.729 191.918C377.147 192.171 376.621 192.53 376.182 192.976H376.154ZM365.66 222.849C365.191 223.277 364.816 223.79 364.555 224.358C365.735 223.829 366.684 222.921 367.236 221.791C366.653 222.043 366.128 222.403 365.689 222.849H365.66ZM344.683 221.064C344.22 221.497 343.846 222.009 343.578 222.573C344.171 222.323 344.707 221.964 345.154 221.515C345.619 221.081 345.997 220.57 346.269 220.006C345.684 220.261 345.156 220.62 344.712 221.064H344.683ZM355.542 204.237C355.083 204.674 354.709 205.184 354.437 205.746C355.03 205.497 355.565 205.137 356.013 204.688C356.481 204.258 356.86 203.746 357.127 203.179C356.536 203.438 355.999 203.796 355.542 204.237ZM388.876 156.296C388.768 156.463 388.675 156.638 388.597 156.82C388.898 156.697 389.182 156.54 389.443 156.351C389.24 156.32 389.034 156.311 388.828 156.324L388.876 156.296Z" fill="white"/>
<path d="M358.424 224.797C356.608 224.079 354.802 223.325 352.995 222.561C352.13 222.202 351.265 221.844 350.41 221.457C349.555 221.071 348.488 220.675 347.633 220.197C347.575 220.197 347.633 220.077 347.633 220.096C348.594 220.353 349.555 220.758 350.516 221.08C351.477 221.402 352.284 221.715 353.158 222.046C354.994 222.727 356.829 223.408 358.645 224.134C362.287 225.588 365.862 227.124 369.436 228.734C369.523 228.734 369.437 228.9 369.388 228.863C365.785 227.557 362.105 226.232 358.424 224.797Z" fill="#263238"/>
<path d="M377.326 216.901C378.566 213.221 379.892 209.643 381.247 206.036C381.9 204.196 382.621 202.439 383.313 200.645C384.035 198.875 384.626 197.058 385.081 195.208C386.128 191.528 386.945 187.774 387.819 184.048L390.433 172.824C389.924 176.633 389.27 180.414 388.511 184.186C387.752 187.958 386.955 191.712 385.974 195.438C385.467 197.318 384.825 199.162 384.053 200.958C383.322 202.743 382.621 204.537 381.852 206.303C380.44 209.845 378.931 213.442 377.326 216.901Z" fill="#263238"/>
<path d="M388.809 182C389.248 180.151 390.004 178.385 391.048 176.774C390.831 177.697 390.529 178.599 390.145 179.47C389.785 180.352 389.338 181.199 388.809 182Z" fill="#263238"/>
<path d="M396.696 122.974C397.657 123.066 401.607 122.542 404.384 125.964C406.978 129.212 408.083 139.203 408.67 141.365C409.256 143.527 412.254 143.803 413.013 146.324C413.666 148.486 412.052 149.323 411.889 150.924C411.783 152.166 413.128 153.997 411.985 155.855C410.957 157.548 409.054 157.226 407.93 157.778C406.805 158.33 406.142 160.86 404.086 161.587C402.03 162.313 400.079 160.501 398.955 160.538C397.83 160.575 396.581 163.887 392.92 163.675C389.259 163.463 388.115 160.519 386.616 159.995C385.117 159.471 381.322 160.519 379.554 158.753C377.785 156.987 377.43 154.576 376.671 153.702C375.912 152.828 374.249 153.012 373.231 150.942C372.212 148.872 374.192 147.566 374.432 145.781C374.595 144.53 373.423 143.417 374.192 141.503C375.249 138.872 378.593 139.369 379.803 136.664C380.764 134.548 382.609 125.375 388.327 123.011C392.161 121.373 396.696 122.974 396.696 122.974Z" fill="#263238"/>
<path d="M408.509 140.852C408.743 141.307 409.089 141.702 409.518 142.002L410.729 142.922C411.553 143.508 412.279 144.213 412.881 145.01C413.156 145.392 413.335 145.83 413.405 146.29C413.475 146.749 413.434 147.218 413.285 147.66C413.111 148.105 412.865 148.521 412.554 148.892C412.193 149.295 411.898 149.748 411.68 150.236C411.55 150.789 411.614 151.368 411.862 151.882C412.045 152.37 412.237 152.802 412.391 153.29C412.582 153.727 412.68 154.196 412.68 154.67C412.68 155.144 412.582 155.613 412.391 156.05C412.188 156.463 411.851 156.802 411.43 157.016C410.97 157.207 410.479 157.319 409.979 157.347C409.46 157.347 408.941 157.347 408.413 157.402C407.88 157.371 407.351 157.496 406.895 157.761C407.371 157.561 407.897 157.49 408.413 157.559C408.932 157.559 409.451 157.632 409.989 157.623C410.535 157.633 411.078 157.536 411.584 157.338C412.111 157.121 412.545 156.738 412.814 156.252C413.062 155.774 413.203 155.251 413.228 154.717C413.253 154.183 413.161 153.65 412.958 153.152C412.814 152.655 412.612 152.186 412.449 151.726C412.257 151.323 412.203 150.872 412.295 150.438C412.593 149.628 413.515 148.892 413.852 147.853C414.024 147.336 414.064 146.787 413.969 146.252C413.874 145.718 413.646 145.213 413.304 144.78C412.637 143.979 411.842 143.284 410.95 142.719L409.662 141.864C409.206 141.609 408.813 141.264 408.509 140.852Z" fill="#263238"/>
<path d="M382.995 128.266C382.125 129.861 381.359 131.505 380.698 133.188C380.323 134.007 379.977 134.835 379.545 135.608C379.348 135.991 379.106 136.353 378.824 136.684C378.766 136.763 378.695 136.831 378.613 136.887C378.537 136.951 378.453 137.007 378.363 137.052C378.171 137.153 377.959 137.245 377.748 137.337C376.879 137.695 376.029 138.094 375.201 138.533C374.329 138.991 373.625 139.694 373.184 140.548C372.979 140.99 372.89 141.473 372.924 141.956C372.99 142.424 373.146 142.876 373.385 143.29C373.902 144.039 374.231 144.892 374.346 145.783C374.354 144.873 374.126 143.976 373.683 143.17C373.487 142.784 373.37 142.366 373.337 141.937C373.326 141.521 373.429 141.108 373.635 140.741C374.071 139.996 374.722 139.386 375.509 138.984C376.328 138.564 377.172 138.19 378.036 137.862C378.248 137.761 378.469 137.659 378.68 137.54C378.911 137.41 379.116 137.242 379.285 137.043C379.591 136.673 379.852 136.272 380.064 135.847C380.484 135.036 380.85 134.2 381.159 133.345L382.072 130.796C382.331 129.937 382.639 129.093 382.995 128.266Z" fill="#263238"/>
<path d="M375.653 153.083C375.996 153.631 376.215 154.242 376.297 154.877C376.451 155.502 376.605 156.128 376.797 156.717C376.975 157.353 377.223 157.97 377.537 158.557C377.853 159.176 378.326 159.71 378.911 160.112C380.18 160.737 381.651 160.876 383.024 160.498C383.696 160.36 384.34 160.194 384.946 160.084C385.593 159.937 386.268 159.937 386.915 160.084C386.28 159.834 385.587 159.751 384.907 159.845C384.225 159.9 383.562 160.02 382.908 160.093C381.655 160.361 380.343 160.212 379.19 159.67C378.685 159.318 378.273 158.858 377.988 158.327C377.673 157.777 377.403 157.205 377.181 156.616C376.941 156.018 376.739 155.41 376.528 154.776C376.412 154.472 376.297 154.168 376.163 153.856C376.063 153.561 375.888 153.295 375.653 153.083Z" fill="#263238"/>
<path d="M408.094 161.523C408.507 161.192 406.825 155.773 405.345 154.798C403.865 153.823 394.516 153.731 393.42 155.442C392.325 157.153 393.785 162.627 394.458 162.728C395.131 162.829 396.918 162.728 397.264 162.305C397.61 161.882 396.591 158.496 397.12 157.88C397.802 157.07 403.097 157.162 403.596 157.686C404.096 158.211 404.663 161.265 404.759 161.458C404.855 161.652 407.431 162.056 408.094 161.523Z" fill="#99DBCB"/>
<path d="M380.709 210.051C382.631 213.814 389.559 218.764 393.672 219.5C397.785 220.236 425.046 224.017 429.495 218.58C433.55 213.63 426.219 177.75 418.57 166.305C417.991 165.399 417.29 164.57 416.485 163.84L416.321 163.702C408.999 157.814 394.22 160.758 392.394 161.236C390.309 161.838 388.4 162.901 386.823 164.339C385.245 165.778 384.043 167.551 383.313 169.516C381.18 174.797 378.739 206.298 380.709 210.051Z" fill="#455A64"/>
<path d="M396.255 207.917C396.649 210.548 400.916 216.795 405.999 218.405C411.082 220.015 429.493 218.589 433.654 215.176C434.218 214.535 434.555 213.74 434.615 212.904C436.066 205.001 431.185 180.98 425.419 173.647C424.906 172.943 424.253 172.343 423.497 171.881C422.643 171.413 421.746 171.022 420.816 170.713C415.647 169.089 410.123 168.794 404.798 169.857C401.579 170.556 398.946 171.835 397.725 173.721C394.679 178.477 395.9 205.268 396.255 207.917Z" fill="#99DBCB"/>
<path opacity="0.1" d="M396.256 207.92C396.65 210.551 400.916 216.798 405.999 218.408C411.083 220.018 429.494 218.592 433.655 215.179C434.219 214.538 434.555 213.742 434.616 212.906C431.312 214.701 427.625 215.755 423.834 215.988C421.088 216.186 418.329 216.149 415.589 215.878C412.832 215.751 410.168 214.884 407.902 213.375C403.722 210.247 402.319 204.35 401.8 199.428C401.387 194.016 401.522 188.578 402.204 183.19C402.59 178.67 403.476 174.201 404.846 169.859C401.627 170.559 398.994 171.837 397.774 173.723C394.68 178.48 395.9 205.27 396.256 207.92Z" fill="black"/>
<path d="M399.821 197.373H401.07C400.811 191.853 400.791 176.829 403.693 173.95C406.595 171.07 417.435 170.831 421.951 172.239C423.169 172.614 424.35 173.094 425.478 173.674C424.966 172.968 424.313 172.368 423.556 171.907C422.706 171.438 421.811 171.047 420.884 170.739C415.407 169.626 405.731 170.205 402.79 173.122C398.927 176.903 399.744 196.545 399.821 197.373Z" fill="#263238"/>
<path d="M385.119 192.473L386.368 192.528C387.473 170.255 388.588 169.455 393.258 166.069L393.422 165.949C397.976 162.647 408.623 163.189 412.775 163.971C414.841 164.361 416.803 165.149 418.54 166.29C417.961 165.384 417.26 164.555 416.455 163.824C415.344 163.364 414.184 163.021 412.996 162.803C410.113 162.26 398.053 161.064 392.643 164.993L392.48 165.112C387.579 168.682 386.291 169.648 385.119 192.473Z" fill="#263238"/>
<path d="M377.374 209.345C378.018 212.261 385.061 218.149 388.501 219.465C389.203 219.732 395.093 220.955 395.401 218.683C395.401 218.536 395.401 218.379 395.401 218.223C395.996 212.261 393.604 199.289 392.998 197.541C392.287 195.481 385.667 191.506 381.698 190.651C380.998 190.453 380.257 190.431 379.545 190.586C376.682 191.479 376.97 207.505 377.374 209.345Z" fill="#37474F"/>
</g>
<defs>
<clipPath id="clip0_6_709">
<rect width="480.462" height="460" fill="white"/>
</clipPath>
</defs>
</svg>
