<svg width="24" height="26" viewBox="0 0 24 26" fill="none" xmlns="http://www.w3.org/2000/svg">
<path d="M2.4 22.2857H10.8V24.7619H2.4C1.068 24.7619 0 23.66 0 22.2857V2.47619C0 1.81946 0.252856 1.18964 0.702944 0.725259C1.15303 0.260884 1.76348 0 2.4 0H16.8C17.4365 0 18.047 0.260884 18.4971 0.725259C18.9471 1.18964 19.2 1.81946 19.2 2.47619V13.0495L17.4 12.0343L16.8 12.381V2.47619H10.8V12.381L7.8 9.59524L4.8 12.381V2.47619H2.4V22.2857ZM24 18.5714L17.4 14.8571L10.8 18.5714L17.4 22.2857L24 18.5714ZM13.2 21.159V23.6352L17.4 26L21.6 23.6352V21.159L17.4 23.5238L13.2 21.159Z" fill="#FDCC4F"/>
</svg>
