<svg width="44" height="46" viewBox="0 0 44 46" fill="none" xmlns="http://www.w3.org/2000/svg">
<path d="M42.1359 7.93884L22.1828 0.856416C21.8414 0.735361 21.4724 0.735361 21.1311 0.856416L1.20994 7.92777L1.20786 7.92843L1.17793 7.93906C1.17211 7.94127 1.16691 7.94459 1.1613 7.9468C1.08921 7.97314 1.01893 8.0048 0.950963 8.04153C0.943273 8.04596 0.935166 8.04928 0.927476 8.0537C0.860266 8.09193 0.795611 8.13504 0.733972 8.18274C0.720452 8.19315 0.70708 8.20377 0.693858 8.21461C0.633802 8.26294 0.576862 8.31551 0.523425 8.37197C0.518644 8.3775 0.51428 8.38326 0.509499 8.38857C0.460289 8.44317 0.414401 8.50105 0.372113 8.56187C0.363384 8.57426 0.354447 8.58621 0.346133 8.59883C0.302496 8.6645 0.263121 8.73328 0.228284 8.80466C0.22288 8.81573 0.218308 8.82679 0.213111 8.83786C0.180598 8.90788 0.152478 8.98012 0.128934 9.0541C0.126856 9.06096 0.123946 9.0676 0.121867 9.07468C0.0983968 9.15327 0.0801307 9.23351 0.067204 9.31482C0.064502 9.33186 0.0622158 9.3489 0.0599295 9.36572C0.0479712 9.44946 0.0416505 9.534 0.0410156 9.6187V27.3248C0.0410156 27.7943 0.216199 28.2447 0.528028 28.5768C0.839856 28.9088 1.26279 29.0954 1.70378 29.0954C2.14477 29.0954 2.5677 28.9088 2.87953 28.5768C3.19136 28.2447 3.36654 27.7943 3.36654 27.3248V12.0754L10.347 14.5532C8.49653 17.7351 7.90441 21.5677 8.70012 25.2132C9.49583 28.8587 11.6146 32.0204 14.5933 34.007C10.6269 35.6041 7.24228 38.5067 4.93162 42.293C4.80937 42.4877 4.72463 42.7064 4.68229 42.9362C4.63995 43.1661 4.64086 43.4026 4.68497 43.632C4.72907 43.8615 4.8155 44.0794 4.93924 44.273C5.06297 44.4667 5.22157 44.6323 5.40583 44.7602C5.59009 44.8881 5.79635 44.9759 6.01267 45.0183C6.22899 45.0607 6.45108 45.0571 6.66605 45.0075C6.88103 44.9579 7.08463 44.8633 7.26505 44.7294C7.44548 44.5954 7.59915 44.4246 7.71716 44.2269C9.22777 41.7557 11.2939 39.7252 13.7281 38.3196C16.1623 36.914 18.8876 36.1778 21.6566 36.1778C24.4257 36.1778 27.1509 36.914 29.5851 38.3196C32.0194 39.7252 34.0855 41.7557 35.5961 44.2269C35.7148 44.423 35.8687 44.5922 36.049 44.7248C36.2293 44.8573 36.4324 44.9506 36.6466 44.9993C36.8609 45.048 37.0821 45.0511 37.2975 45.0085C37.5129 44.9659 37.7183 44.8783 37.9018 44.7509C38.0853 44.6235 38.2434 44.4588 38.3669 44.2661C38.4905 44.0734 38.577 43.8566 38.6216 43.6282C38.6662 43.3998 38.668 43.1643 38.6269 42.9351C38.5857 42.706 38.5024 42.4878 38.3818 42.293C36.0712 38.5069 32.6867 35.6042 28.7204 34.0072C31.6991 32.0206 33.8179 28.8588 34.6136 25.2133C35.4094 21.5678 34.8172 17.7351 32.9666 14.5532L42.1359 11.2986C42.4671 11.1811 42.7551 10.9556 42.9593 10.6541C43.1634 10.3526 43.2732 9.99038 43.2732 9.6187C43.2732 9.24701 43.1634 8.88476 42.9593 8.58326C42.7551 8.28175 42.4671 8.0563 42.1359 7.93884ZM31.6335 22.0129C31.6339 23.6924 31.2604 25.3481 30.5435 26.8442C29.8267 28.3402 28.7869 29.6339 27.5096 30.6192C26.2323 31.6044 24.7538 32.2532 23.1955 32.5122C21.6371 32.7712 20.0433 32.6331 18.5448 32.1092C17.0463 31.5852 15.6858 30.6905 14.5749 29.4982C13.464 28.306 12.6344 26.8503 12.1541 25.2505C11.6739 23.6508 11.5566 21.9525 11.8121 20.2952C12.0675 18.6379 12.6883 17.0686 13.6235 15.7162L21.1311 18.381C21.4724 18.502 21.8414 18.502 22.1828 18.381L29.6904 15.7162C30.954 17.5397 31.6351 19.7467 31.6335 22.0129ZM29.701 11.9796C29.6968 11.9811 29.6927 11.9822 29.6885 11.984L21.6569 14.8347L13.6252 11.984C13.621 11.9822 13.6169 11.9809 13.6127 11.9796L6.96206 9.6187L21.6569 4.40272L36.352 9.6187L29.701 11.9796Z" fill="#FDCC4F"/>
</svg>
