<svg width="16" height="16" viewBox="0 0 16 16" fill="none" xmlns="http://www.w3.org/2000/svg">
<path d="M8.92823 4.16849C10.7684 4.16849 11.5532 4.91599 11.5532 6.66849H13.3032C13.3032 3.98099 11.7501 2.50183 8.92823 2.50183V4.16849ZM11.9225 8.70433C11.7543 8.55879 11.5334 8.48117 11.3063 8.48785C11.0792 8.49454 10.8637 8.58501 10.7054 8.74016L8.61148 10.791C8.10748 10.6993 7.09423 10.3985 6.05123 9.40766C5.00823 8.41349 4.69235 7.44599 4.59873 6.96933L6.75035 4.97433C6.91346 4.8236 7.00859 4.61834 7.01562 4.402C7.02264 4.18565 6.941 3.97519 6.78798 3.81516L3.55485 0.429327C3.40176 0.268791 3.18899 0.171414 2.96173 0.157876C2.73447 0.144339 2.51062 0.215709 2.33773 0.356827L0.438975 1.90766C0.287698 2.05226 0.197405 2.2447 0.185225 2.44849C0.1721 2.65683 -0.0781497 7.59183 3.93985 11.4202C7.4451 14.7577 11.8359 15.0018 13.0451 15.0018C13.2219 15.0018 13.3303 14.9968 13.3592 14.9952C13.5732 14.9838 13.7751 14.8974 13.9262 14.7527L15.5537 12.9435C15.702 12.7789 15.7771 12.5658 15.763 12.3494C15.749 12.1329 15.6469 11.9302 15.4785 11.7843L11.9225 8.70433V8.70433Z" fill="white"/>
</svg>
