<svg width="17" height="9" viewBox="0 0 17 9" fill="none" xmlns="http://www.w3.org/2000/svg">
<mask id="path-1-inside-1_6_627" fill="white">
<path fill-rule="evenodd" clip-rule="evenodd" d="M0 4.5C0 4.36741 0.0639625 4.24025 0.177817 4.1465C0.291671 4.05274 0.44609 4.00007 0.607104 4.00007H14.9263L11.1051 0.854512C10.9912 0.760638 10.9271 0.633318 10.9271 0.500561C10.9271 0.367804 10.9912 0.240484 11.1051 0.146611C11.2191 0.0527374 11.3738 3.12787e-09 11.535 0C11.6962 -3.12786e-09 11.8508 0.0527375 11.9648 0.146611L16.8216 4.14605C16.8782 4.19249 16.923 4.24766 16.9536 4.30839C16.9842 4.36913 17 4.43424 17 4.5C17 4.56576 16.9842 4.63087 16.9536 4.69161C16.923 4.75234 16.8782 4.80751 16.8216 4.85395L11.9648 8.85339C11.8508 8.94726 11.6962 9 11.535 9C11.3738 9 11.2191 8.94726 11.1051 8.85339C10.9912 8.75951 10.9271 8.6322 10.9271 8.49944C10.9271 8.36668 10.9912 8.23936 11.1051 8.14549L14.9263 4.99993H0.607104C0.44609 4.99993 0.291671 4.94726 0.177817 4.8535C0.0639625 4.75975 0 4.63259 0 4.5Z"/>
</mask>
<path fill-rule="evenodd" clip-rule="evenodd" d="M0 4.5C0 4.36741 0.0639625 4.24025 0.177817 4.1465C0.291671 4.05274 0.44609 4.00007 0.607104 4.00007H14.9263L11.1051 0.854512C10.9912 0.760638 10.9271 0.633318 10.9271 0.500561C10.9271 0.367804 10.9912 0.240484 11.1051 0.146611C11.2191 0.0527374 11.3738 3.12787e-09 11.535 0C11.6962 -3.12786e-09 11.8508 0.0527375 11.9648 0.146611L16.8216 4.14605C16.8782 4.19249 16.923 4.24766 16.9536 4.30839C16.9842 4.36913 17 4.43424 17 4.5C17 4.56576 16.9842 4.63087 16.9536 4.69161C16.923 4.75234 16.8782 4.80751 16.8216 4.85395L11.9648 8.85339C11.8508 8.94726 11.6962 9 11.535 9C11.3738 9 11.2191 8.94726 11.1051 8.85339C10.9912 8.75951 10.9271 8.6322 10.9271 8.49944C10.9271 8.36668 10.9912 8.23936 11.1051 8.14549L14.9263 4.99993H0.607104C0.44609 4.99993 0.291671 4.94726 0.177817 4.8535C0.0639625 4.75975 0 4.63259 0 4.5Z" fill="white"/>
<path d="M14.9263 4.00007V7.00007H23.2908L16.8329 1.68391L14.9263 4.00007ZM11.1051 0.854512L9.19811 3.17037L9.19847 3.17067L11.1051 0.854512ZM10.9271 0.500561L7.92711 0.500561L10.9271 0.500561ZM11.9648 0.146611L10.0578 2.46247L11.9648 0.146611ZM16.8216 4.14605L14.9146 6.46191L14.9175 6.46427L16.8216 4.14605ZM16.8216 4.85395L14.9175 2.53572L14.9146 2.53809L16.8216 4.85395ZM11.9648 8.85339L10.0578 6.53753V6.53753L11.9648 8.85339ZM11.535 9V6V9ZM11.1051 8.14549L9.19847 5.82933L9.19811 5.82963L11.1051 8.14549ZM14.9263 4.99993L16.8329 7.31609L23.2908 1.99993H14.9263V4.99993ZM3 4.5C3 5.37195 2.57507 6.05868 2.08485 6.46236L-1.72922 1.83063C-2.44714 2.42182 -3 3.36287 -3 4.5H3ZM2.08485 6.46236C1.61114 6.85244 1.07358 7.00007 0.607104 7.00007V1.00007C-0.181404 1.00007 -1.0278 1.25304 -1.72922 1.83063L2.08485 6.46236ZM0.607104 7.00007H14.9263V1.00007H0.607104V7.00007ZM16.8329 1.68391L13.0118 -1.46165L9.19847 3.17067L13.0196 6.31623L16.8329 1.68391ZM13.0122 -1.46135C13.5023 -1.05779 13.9271 -0.371222 13.9271 0.500561L7.92711 0.500561C7.92711 1.63786 8.48005 2.57907 9.19811 3.17037L13.0122 -1.46135ZM13.9271 0.500561C13.9271 1.37234 13.5023 2.05892 13.0122 2.46247L9.19811 -2.16925C8.48005 -1.57795 7.92711 -0.636737 7.92711 0.500561L13.9271 0.500561ZM13.0122 2.46247C12.5386 2.85244 12.0012 3 11.535 3V-3C10.7463 -3 9.89968 -2.74697 9.19811 -2.16925L13.0122 2.46247ZM11.535 3C11.0687 3 10.5313 2.85245 10.0578 2.46247L13.8718 -2.16925C13.1703 -2.74697 12.3237 -3 11.535 -3V3ZM10.0578 2.46247L14.9146 6.46191L18.7287 1.83019L13.8718 -2.16925L10.0578 2.46247ZM14.9175 6.46427C14.6759 6.26581 14.4459 5.99845 14.2746 5.65841L19.6327 2.95838C19.4002 2.49686 19.0805 2.11917 18.7258 1.82782L14.9175 6.46427ZM14.2746 5.65841C14.1017 5.31528 14 4.91952 14 4.5H20C20 3.94897 19.8668 3.42298 19.6327 2.95838L14.2746 5.65841ZM14 4.5C14 4.08048 14.1017 3.68472 14.2746 3.34159L19.6327 6.04162C19.8668 5.57701 20 5.05103 20 4.5H14ZM14.2746 3.34159C14.4459 3.00154 14.6759 2.73418 14.9175 2.53572L18.7258 7.17218C19.0805 6.88084 19.4002 6.50314 19.6327 6.04162L14.2746 3.34159ZM14.9146 2.53809L10.0578 6.53753L13.8718 11.1693L18.7287 7.16981L14.9146 2.53809ZM10.0578 6.53753C10.5313 6.14756 11.0687 6 11.535 6V12C12.3237 12 13.1703 11.747 13.8718 11.1693L10.0578 6.53753ZM11.535 6C12.0013 6 12.5386 6.14756 13.0122 6.53753L9.19811 11.1693C9.89968 11.747 10.7463 12 11.535 12V6ZM13.0122 6.53753C13.5023 6.94108 13.9271 7.62765 13.9271 8.49944H7.92711C7.92711 9.63674 8.48005 10.5779 9.19811 11.1693L13.0122 6.53753ZM13.9271 8.49944C13.9271 9.37122 13.5023 10.0578 13.0122 10.4614L9.19811 5.82963C8.48004 6.42093 7.92711 7.36214 7.92711 8.49944H13.9271ZM13.0118 10.4616L16.8329 7.31609L13.0196 2.68377L9.19847 5.82933L13.0118 10.4616ZM14.9263 1.99993H0.607104V7.99993H14.9263V1.99993ZM0.607104 1.99993C1.07357 1.99993 1.61113 2.14755 2.08485 2.53764L-1.72922 7.16937C-1.02779 7.74697 -0.181386 7.99993 0.607104 7.99993V1.99993ZM2.08485 2.53764C2.57507 2.94132 3 3.62806 3 4.5H-3C-3 5.63712 -2.44715 6.57818 -1.72922 7.16937L2.08485 2.53764Z" fill="white" mask="url(#path-1-inside-1_6_627)"/>
</svg>
