<svg width="20" height="18" viewBox="0 0 20 18" fill="none" xmlns="http://www.w3.org/2000/svg">
<path d="M10.1808 6.28063C8.46693 6.28063 7.06829 7.58026 7.06829 9.17279C7.06829 10.7653 8.46693 12.065 10.1808 12.065C11.8946 12.065 13.2933 10.7653 13.2933 9.17279C13.2933 7.58026 11.8946 6.28063 10.1808 6.28063ZM19.5159 9.17279C19.5159 7.97514 19.5276 6.78833 19.4552 5.59285C19.3828 4.20426 19.0419 2.97189 17.9492 1.95649C16.8541 0.938917 15.5302 0.624316 14.0358 0.557057C12.7469 0.489797 11.4697 0.500645 10.1831 0.500645C8.89422 0.500645 7.617 0.489797 6.33044 0.557057C4.83607 0.624316 3.50982 0.941087 2.41706 1.95649C1.32196 2.97406 0.983396 4.20426 0.911013 5.59285C0.838629 6.7905 0.850304 7.97731 0.850304 9.17279C0.850304 10.3683 0.838629 11.5573 0.911013 12.7527C0.983396 14.1413 1.3243 15.3737 2.41706 16.3891C3.51215 17.4067 4.83607 17.7213 6.33044 17.7885C7.61934 17.8558 8.89656 17.8449 10.1831 17.8449C11.472 17.8449 12.7492 17.8558 14.0358 17.7885C15.5302 17.7213 16.8564 17.4045 17.9492 16.3891C19.0443 15.3715 19.3828 14.1413 19.4552 12.7527C19.5299 11.5573 19.5159 10.3704 19.5159 9.17279ZM10.1808 13.6228C7.53061 13.6228 5.39179 11.6354 5.39179 9.17279C5.39179 6.71022 7.53061 4.72281 10.1808 4.72281C12.831 4.72281 14.9698 6.71022 14.9698 9.17279C14.9698 11.6354 12.831 13.6228 10.1808 13.6228ZM15.1659 5.57983C14.5472 5.57983 14.0475 5.11552 14.0475 4.54056C14.0475 3.9656 14.5472 3.50129 15.1659 3.50129C15.7847 3.50129 16.2844 3.9656 16.2844 4.54056C16.2845 4.67709 16.2557 4.8123 16.1996 4.93847C16.1435 5.06464 16.0611 5.17928 15.9572 5.27582C15.8533 5.37235 15.7299 5.4489 15.5941 5.50107C15.4584 5.55324 15.3128 5.58 15.1659 5.57983Z" fill="white"/>
</svg>
